<?xml version="1.0" encoding="UTF-8" ?>
<!DOCTYPE svg PUBLIC "-//W3C//DTD SVG 1.1//EN" "http://www.w3.org/Graphics/SVG/1.1/DTD/svg11.dtd">
<svg width="48pt" height="551pt" viewBox="0 0 48 551" version="1.1" xmlns="http://www.w3.org/2000/svg">
<path fill="#ff0018" d=" M 0.00 0.00 L 48.00 0.00 L 48.00 9.30 C 32.00 9.45 16.00 9.35 0.00 9.37 L 0.00 0.00 Z" />
<path fill="#ff0030" d=" M 0.00 9.37 C 16.00 9.35 32.00 9.45 48.00 9.30 L 48.00 18.06 C 32.00 18.16 16.00 18.10 0.00 18.11 L 0.00 9.37 Z" />
<path fill="#ff0048" d=" M 0.00 18.11 C 16.00 18.10 32.00 18.16 48.00 18.06 L 48.00 26.99 C 32.00 27.01 16.00 26.99 0.00 27.00 L 0.00 18.11 Z" />
<path fill="#ff0060" d=" M 0.00 27.00 C 16.00 26.99 32.00 27.01 48.00 26.99 L 48.00 35.94 C 32.01 35.47 16.00 35.87 0.00 35.72 L 0.00 27.00 Z" />
<path fill="#ff0078" d=" M 0.00 35.72 C 16.00 35.87 32.01 35.47 48.00 35.94 L 48.00 44.04 C 32.01 44.64 16.00 44.13 0.00 44.32 L 0.00 35.72 Z" />
<path fill="#ff0090" d=" M 0.00 44.32 C 16.00 44.13 32.01 44.64 48.00 44.04 L 48.00 53.09 C 32.00 53.16 16.00 53.08 0.00 53.12 L 0.00 44.32 Z" />
<path fill="#ff00a8" d=" M 0.00 53.12 C 16.00 53.08 32.00 53.16 48.00 53.09 L 48.00 62.06 C 32.00 61.93 16.00 62.03 0.00 62.00 L 0.00 53.12 Z" />
<path fill="#ff00c0" d=" M 0.00 62.00 C 16.00 62.03 32.00 61.93 48.00 62.06 L 48.00 70.96 C 32.01 70.28 16.00 70.87 0.00 70.63 L 0.00 62.00 Z" />
<path fill="#ff00d8" d=" M 0.00 70.63 C 16.00 70.87 32.01 70.28 48.00 70.96 L 48.00 79.03 C 32.00 79.48 16.00 79.08 0.00 79.25 L 0.00 70.63 Z" />
<path fill="#ff00f0" d=" M 0.00 79.25 C 16.00 79.08 32.00 79.48 48.00 79.03 L 48.00 88.00 C 32.00 88.00 16.00 87.98 0.00 88.02 L 0.00 79.25 Z" />
<path fill="#ee00ff" d=" M 0.00 88.02 C 16.00 87.98 32.00 88.00 48.00 88.00 L 48.00 96.88 C 32.00 96.99 16.00 96.68 0.00 97.06 L 0.00 88.02 Z" />
<path fill="#d600ff" d=" M 0.00 97.06 C 16.00 96.68 32.00 96.99 48.00 96.88 L 48.00 105.55 C 32.00 105.83 15.98 105.12 0.00 105.95 L 0.00 97.06 Z" />
<path fill="#be00ff" d=" M 0.00 105.95 C 15.98 105.12 32.00 105.83 48.00 105.55 L 48.00 114.24 C 32.00 114.08 15.99 114.49 0.00 114.03 L 0.00 105.95 Z" />
<path fill="#a600ff" d=" M 0.00 114.03 C 15.99 114.49 32.00 114.08 48.00 114.24 L 48.00 123.00 C 32.00 123.02 16.00 122.97 0.00 123.04 L 0.00 114.03 Z" />
<path fill="#8e00ff" d=" M 0.00 123.04 C 16.00 122.97 32.00 123.02 48.00 123.00 L 48.00 131.88 C 32.00 131.96 16.00 131.76 0.00 131.99 L 0.00 123.04 Z" />
<path fill="#7600ff" d=" M 0.00 131.99 C 16.00 131.76 32.00 131.96 48.00 131.88 L 48.00 140.56 C 32.00 140.80 15.99 140.16 0.00 140.92 L 0.00 131.99 Z" />
<path fill="#5e00ff" d=" M 0.00 140.92 C 15.99 140.16 32.00 140.80 48.00 140.56 L 48.00 149.22 C 32.00 149.02 16.00 149.29 0.00 149.07 L 0.00 140.92 Z" />
<path fill="#4600ff" d=" M 0.00 149.07 C 16.00 149.29 32.00 149.02 48.00 149.22 L 48.00 158.00 C 32.00 157.99 16.00 158.03 0.00 157.98 L 0.00 149.07 Z" />
<path fill="#2e00ff" d=" M 0.00 157.98 C 16.00 158.03 32.00 157.99 48.00 158.00 L 48.00 166.81 C 32.00 166.82 16.00 166.79 0.00 166.84 L 0.00 157.98 Z" />
<path fill="#1600ff" d=" M 0.00 166.84 C 16.00 166.79 32.00 166.82 48.00 166.81 L 48.00 175.37 C 32.00 175.39 16.00 175.46 0.00 175.33 L 0.00 166.84 Z" />
<path fill="#0008ff" d=" M 0.00 175.33 C 16.00 175.46 32.00 175.39 48.00 175.37 L 48.00 184.10 C 32.00 184.07 16.00 184.07 0.00 184.08 L 0.00 175.33 Z" />
<path fill="#0020ff" d=" M 0.00 184.08 C 16.00 184.07 32.00 184.07 48.00 184.10 L 48.00 192.99 C 32.00 193.01 16.00 193.00 0.00 193.00 L 0.00 184.08 Z" />
<path fill="#0038ff" d=" M 0.00 193.00 C 16.00 193.00 32.00 193.01 48.00 192.99 L 48.00 201.85 C 32.00 201.59 16.00 201.81 0.00 201.73 L 0.00 193.00 Z" />
<path fill="#0050ff" d=" M 0.00 201.73 C 16.00 201.81 32.00 201.59 48.00 201.85 L 48.00 210.11 C 32.00 210.30 16.00 210.13 0.00 210.20 L 0.00 201.73 Z" />
<path fill="#0068ff" d=" M 0.00 210.20 C 16.00 210.13 32.00 210.30 48.00 210.11 L 48.00 218.97 C 32.00 219.04 16.00 218.98 0.00 219.00 L 0.00 210.20 Z" />
<path fill="#0080ff" d=" M 0.00 219.00 C 16.00 218.98 32.00 219.04 48.00 218.97 L 48.00 227.98 C 32.00 227.72 16.00 228.05 0.00 227.80 L 0.00 219.00 Z" />
<path fill="#0098ff" d=" M 0.00 227.80 C 16.00 228.05 32.00 227.72 48.00 227.98 L 48.00 236.95 C 32.01 236.19 16.00 236.85 0.00 236.59 L 0.00 227.80 Z" />
<path fill="#00b0ff" d=" M 0.00 236.59 C 16.00 236.85 32.01 236.19 48.00 236.95 L 48.00 245.03 C 32.00 245.48 16.00 245.09 0.00 245.24 L 0.00 236.59 Z" />
<path fill="#00c8ff" d=" M 0.00 245.24 C 16.00 245.09 32.00 245.48 48.00 245.03 L 48.00 254.13 C 32.00 253.84 16.00 254.08 0.00 254.00 L 0.00 245.24 Z" />
<path fill="#00e0ff" d=" M 0.00 254.00 C 16.00 254.08 32.00 253.84 48.00 254.13 L 48.00 262.99 C 32.00 262.70 16.00 263.08 0.00 262.78 L 0.00 254.00 Z" />
<path fill="#00f8ff" d=" M 0.00 262.78 C 16.00 263.08 32.00 262.70 48.00 262.99 L 48.00 271.55 C 32.00 271.76 15.98 271.06 0.00 271.93 L 0.00 262.78 Z" />
<path fill="#00ffe6" d=" M 0.00 271.93 C 15.98 271.06 32.00 271.76 48.00 271.55 L 48.00 280.21 C 32.00 279.94 16.00 280.28 0.00 280.01 L 0.00 271.93 Z" />
<path fill="#00ffce" d=" M 0.00 280.01 C 16.00 280.28 32.00 279.94 48.00 280.21 L 48.00 289.00 C 32.00 288.98 16.00 289.04 0.00 288.97 L 0.00 280.01 Z" />
<path fill="#00ffb6" d=" M 0.00 288.97 C 16.00 289.04 32.00 288.98 48.00 289.00 L 48.00 297.80 C 32.00 297.93 16.00 297.61 0.00 297.98 L 0.00 288.97 Z" />
<path fill="#00ff9e" d=" M 0.00 297.98 C 16.00 297.61 32.00 297.93 48.00 297.80 L 48.00 306.55 C 32.00 306.84 15.98 306.12 0.00 306.94 L 0.00 297.98 Z" />
<path fill="#00ff86" d=" M 0.00 306.94 C 15.98 306.12 32.00 306.84 48.00 306.55 L 48.00 315.22 C 32.00 314.93 16.00 315.28 0.00 315.02 L 0.00 306.94 Z" />
<path fill="#00ff6e" d=" M 0.00 315.02 C 16.00 315.28 32.00 314.93 48.00 315.22 L 48.00 324.00 C 32.00 323.99 16.00 324.04 0.00 323.97 L 0.00 315.02 Z" />
<path fill="#00ff56" d=" M 0.00 323.97 C 16.00 324.04 32.00 323.99 48.00 324.00 L 48.00 332.81 C 32.00 332.85 16.00 332.72 0.00 332.89 L 0.00 323.97 Z" />
<path fill="#00ff3e" d=" M 0.00 332.89 C 16.00 332.72 32.00 332.85 48.00 332.81 L 48.00 341.42 C 32.00 341.34 16.00 341.57 0.00 341.27 L 0.00 332.89 Z" />
<path fill="#00ff26" d=" M 0.00 341.27 C 16.00 341.57 32.00 341.34 48.00 341.42 L 48.00 350.00 C 32.00 350.00 16.00 350.02 0.00 349.98 L 0.00 341.27 Z" />
<path fill="#00ff0e" d=" M 0.00 349.98 C 16.00 350.02 32.00 350.00 48.00 350.00 L 48.00 358.96 C 32.00 358.92 16.00 358.97 0.00 358.93 L 0.00 349.98 Z" />
<path fill="#0aff00" d=" M 0.00 358.93 C 16.00 358.97 32.00 358.92 48.00 358.96 L 48.00 367.44 C 32.00 367.55 16.00 367.48 0.00 367.48 L 0.00 358.93 Z" />
<path fill="#28ff00" d=" M 0.00 367.48 C 16.00 367.48 32.00 367.55 48.00 367.44 L 48.00 376.12 C 32.00 376.28 16.00 376.14 0.00 376.19 L 0.00 367.48 Z" />
<path fill="#40ff00" d=" M 0.00 376.19 C 16.00 376.14 32.00 376.28 48.00 376.12 L 48.00 385.01 C 32.00 384.98 16.00 385.01 0.00 385.00 L 0.00 376.19 Z" />
<path fill="#58ff00" d=" M 0.00 385.00 C 16.00 385.01 32.00 384.98 48.00 385.01 L 48.00 393.96 C 32.00 393.74 16.00 394.06 0.00 393.79 L 0.00 385.00 Z" />
<path fill="#70ff00" d=" M 0.00 393.79 C 16.00 394.06 32.00 393.74 48.00 393.96 L 48.00 402.05 C 32.02 402.88 16.00 402.17 0.00 402.44 L 0.00 393.79 Z" />
<path fill="#88ff00" d=" M 0.00 402.44 C 16.00 402.17 32.02 402.88 48.00 402.05 L 48.00 411.03 C 32.00 411.39 16.00 411.08 0.00 411.20 L 0.00 402.44 Z" />
<path fill="#a0ff00" d=" M 0.00 411.20 C 16.00 411.08 32.00 411.39 48.00 411.03 L 48.00 419.95 C 32.00 420.07 16.00 419.97 0.00 420.00 L 0.00 411.20 Z" />
<path fill="#b8ff00" d=" M 0.00 420.00 C 16.00 419.97 32.00 420.07 48.00 419.95 L 48.00 428.97 C 32.00 428.53 16.00 428.91 0.00 428.75 L 0.00 420.00 Z" />
<path fill="#d0ff00" d=" M 0.00 428.75 C 16.00 428.91 32.00 428.53 48.00 428.97 L 48.00 437.94 C 32.02 437.04 16.00 437.82 0.00 437.51 L 0.00 428.75 Z" />
<path fill="#e8ff00" d=" M 0.00 437.51 C 16.00 437.82 32.02 437.04 48.00 437.94 L 48.00 446.15 C 32.00 446.08 16.00 446.10 0.00 446.14 L 0.00 437.51 Z" />
<path fill="#ffea00" d=" M 0.00 446.14 C 16.00 446.10 32.00 446.08 48.00 446.15 L 48.00 455.00 C 32.00 454.94 16.00 455.12 0.00 454.91 L 0.00 446.14 Z" />
<path fill="#ffae00" d=" M 0.00 454.91 C 16.00 455.12 32.00 454.94 48.00 455.00 L 48.00 463.80 C 32.00 463.84 16.00 463.68 0.00 463.88 L 0.00 454.91 Z" />
<path fill="#ff7e00" d=" M 0.00 463.88 C 16.00 463.68 32.00 463.84 48.00 463.80 L 48.00 472.45 C 32.00 472.44 16.00 472.50 0.00 472.42 L 0.00 463.88 Z" />
<path fill="#ff4e00" d=" M 0.00 472.42 C 16.00 472.50 32.00 472.44 48.00 472.45 L 48.00 481.23 C 32.00 481.14 16.00 481.21 0.00 481.19 L 0.00 472.42 Z" />
<path fill="#ff1e00" d=" M 0.00 481.19 C 16.00 481.21 32.00 481.14 48.00 481.23 L 48.00 489.90 C 32.00 489.97 16.00 489.86 0.00 489.95 L 0.00 481.19 Z" />
<path fill="#f00000" d=" M 0.00 489.95 C 16.00 489.86 32.00 489.97 48.00 489.90 L 48.00 498.65 C 32.00 498.82 15.99 498.29 0.00 498.93 L 0.00 489.95 Z" />
<path fill="#c80000" d=" M 0.00 498.93 C 15.99 498.29 32.00 498.82 48.00 498.65 L 48.00 507.27 C 32.00 507.15 15.99 507.54 0.00 507.06 L 0.00 498.93 Z" />
<path fill="#a00000" d=" M 0.00 507.06 C 15.99 507.54 32.00 507.15 48.00 507.27 L 48.00 516.00 C 32.00 516.00 16.00 516.00 0.00 516.00 L 0.00 507.06 Z" />
<path fill="#780000" d=" M 0.00 516.00 C 16.00 516.00 32.00 516.00 48.00 516.00 L 48.00 524.90 C 32.00 524.95 16.00 524.80 0.00 524.98 L 0.00 516.00 Z" />
<path fill="#500000" d=" M 0.00 524.98 C 16.00 524.80 32.00 524.95 48.00 524.90 L 48.00 533.60 C 32.00 533.61 16.00 533.57 0.00 533.62 L 0.00 524.98 Z" />
<path fill="#280000" d=" M 0.00 533.62 C 16.00 533.57 32.00 533.61 48.00 533.60 L 48.00 542.40 C 32.00 542.40 16.00 542.40 0.00 542.39 L 0.00 533.62 Z" />
<path fill="#000000" d=" M 0.00 542.39 C 16.00 542.40 32.00 542.40 48.00 542.40 L 48.00 551.00 L 0.00 551.00 L 0.00 542.39 Z" />
</svg>
