<?xml version="1.0" encoding="UTF-8" standalone="no"?>
<!-- Created with Inkscape (http://www.inkscape.org/) -->

<svg
   xmlns:dc="http://purl.org/dc/elements/1.1/"
   xmlns:cc="http://creativecommons.org/ns#"
   xmlns:rdf="http://www.w3.org/1999/02/22-rdf-syntax-ns#"
   xmlns:svg="http://www.w3.org/2000/svg"
   xmlns="http://www.w3.org/2000/svg"
   xmlns:xlink="http://www.w3.org/1999/xlink"
   xmlns:sodipodi="http://sodipodi.sourceforge.net/DTD/sodipodi-0.dtd"
   xmlns:inkscape="http://www.inkscape.org/namespaces/inkscape"
   sodipodi:docname="4w-composite.svg"
   inkscape:version="0.48.4 r9939"
   version="1.1"
   id="svg2"
   height="814"
   width="1261">
  <sodipodi:namedview
     id="base"
     pagecolor="#ffffff"
     bordercolor="#666666"
     borderopacity="1.0"
     inkscape:pageopacity="0.0"
     inkscape:pageshadow="2"
     inkscape:zoom="0.60831355"
     inkscape:cx="1114.1306"
     inkscape:cy="449.09387"
     inkscape:document-units="px"
     inkscape:current-layer="layer1"
     showgrid="false"
     inkscape:window-width="1850"
     inkscape:window-height="1180"
     inkscape:window-x="-3"
     inkscape:window-y="-3"
     inkscape:window-maximized="1"
     fit-margin-top="0"
     fit-margin-left="0"
     fit-margin-right="0"
     fit-margin-bottom="0" />
  <defs
     id="defs4" />
  <metadata
     id="metadata7">
    <rdf:RDF>
      <cc:Work
         rdf:about="">
        <dc:format>image/svg+xml</dc:format>
        <dc:type
           rdf:resource="http://purl.org/dc/dcmitype/StillImage" />
        <dc:title></dc:title>
      </cc:Work>
    </rdf:RDF>
  </metadata>
  <g
     id="layer1"
     inkscape:groupmode="layer"
     inkscape:label="Layer 1"
     transform="translate(104.78571,-319.64789)">
    <image
       width="1261"
       height="814"
       xlink:href="4w.png"
       id="image3079"
       x="-104.78571"
       y="319.64789" />
    <g
       transform="matrix(1.25,0,0,1.25,1638.0367,490.81)"
       id="g3804"
       style="stroke:none">
      <path
         style="fill:#ff0018;stroke:none"
         inkscape:connector-curvature="0"
         id="path3806"
         d="m -537.40431,-124.28104 c 0,0 45.50647,-3.71462 45.50647,-3.71462 0,0 1.1355,7.42488 1.1355,7.42488 -15.29549,1.35491 -30.55771,2.50432 -45.74482,3.74492 0,0 -0.89715,-7.45518 -0.89715,-7.45518 0,0 0,0 0,0" />
      <path
         style="fill:#ff0030;stroke:none"
         inkscape:connector-curvature="0"
         id="path3808"
         d="m -536.50716,-116.82586 c 15.18711,-1.2406 30.44933,-2.39001 45.74482,-3.74492 0,0 1.08056,7.06564 1.08056,7.06564 -15.37946,1.30731 -30.71487,2.48003 -45.97998,3.70444 0,0 -0.8454,-7.02516 -0.8454,-7.02516 0,0 0,0 0,0" />
      <path
         style="fill:#ff0048;stroke:none"
         inkscape:connector-curvature="0"
         id="path3810"
         d="m -535.66176,-109.8007 c 15.26511,-1.22441 30.60052,-2.39713 45.97998,-3.70444 0,0 1.11268,7.27564 1.11268,7.27564 -15.46938,1.234 -30.87994,2.43029 -46.22413,3.64614 0,0 -0.86853,-7.21734 -0.86853,-7.21734 0,0 0,0 0,0" />
      <path
         style="fill:#ff0060;stroke:none"
         inkscape:connector-curvature="0"
         id="path3812"
         d="m -534.79323,-102.58336 c 15.34419,-1.21585 30.75475,-2.41214 46.22413,-3.64614 0,0 1.12663,7.366891 1.12663,7.366891 -15.59891,0.819652 -31.0504,2.354606 -46.49027,3.429795 0,0 -0.86049,-7.150546 -0.86049,-7.150546 0,0 0,0 0,0" />
      <path
         style="fill:#ff0078;stroke:none"
         inkscape:connector-curvature="0"
         id="path3814"
         d="m -533.93274,-95.432814 c 15.43987,-1.075189 30.89136,-2.610143 46.49027,-3.429795 0,0 1.02968,6.732903 1.02968,6.732903 -15.54739,1.700218 -31.18189,2.470706 -46.66286,3.819163 0,0 -0.85709,-7.122271 -0.85709,-7.122271 0,0 0,0 0,0" />
      <path
         style="fill:#ff0090;stroke:none"
         inkscape:connector-curvature="0"
         id="path3816"
         d="m -533.07565,-88.310543 c 15.48097,-1.348457 31.11547,-2.118945 46.66286,-3.819163 0,0 1.16189,7.597475 1.16189,7.597475 -15.70422,1.249797 -31.36089,2.368217 -46.93892,3.582767 0,0 -0.88583,-7.361079 -0.88583,-7.361079 0,0 0,0 0,0" />
      <path
         style="fill:#ff00a8;stroke:none"
         inkscape:connector-curvature="0"
         id="path3818"
         d="m -532.18982,-80.949464 c 15.57803,-1.21455 31.2347,-2.33297 46.93892,-3.582767 0,0 1.16374,7.609518 1.16374,7.609518 -15.81286,1.070352 -31.53151,2.331662 -47.19961,3.477418 0,0 -0.90305,-7.504169 -0.90305,-7.504169 0,0 0,0 0,0" />
      <path
         style="fill:#ff00c0;stroke:none"
         inkscape:connector-curvature="0"
         id="path3820"
         d="m -531.28677,-73.445295 c 15.6681,-1.145756 31.38675,-2.407066 47.19961,-3.477418 0,0 1.16676,7.629298 1.16676,7.629298 -15.95508,0.585448 -31.70715,2.259994 -47.47979,3.215461 0,0 -0.88658,-7.367341 -0.88658,-7.367341 0,0 0,0 0,0" />
      <path
         style="fill:#ff00d8;stroke:none"
         inkscape:connector-curvature="0"
         id="path3822"
         d="m -530.40019,-66.077954 c 15.77264,-0.955467 31.52471,-2.630013 47.47979,-3.215461 0,0 1.06854,6.987009 1.06854,6.987009 -15.90405,1.552941 -31.846,2.362261 -47.65383,3.661627 0,0 -0.8945,-7.433175 -0.8945,-7.433175 0,0 0,0 0,0" />
      <path
         style="fill:#ff00f0;stroke:none"
         inkscape:connector-curvature="0"
         id="path3824"
         d="m -529.50569,-58.644779 c 15.80783,-1.299366 31.74978,-2.108686 47.65383,-3.661627 0,0 1.19969,7.84466 1.19969,7.84466 -16.04679,1.151356 -32.02769,2.280284 -47.93413,3.456936 0,0 -0.91939,-7.639969 -0.91939,-7.639969 0,0 0,0 0,0" />
      <path
         style="fill:#ee00ff;stroke:none"
         inkscape:connector-curvature="0"
         id="path3826"
         d="m -528.5863,-51.00481 c 15.90644,-1.176652 31.88734,-2.30558 47.93413,-3.456936 0,0 1.2003,7.84854 1.2003,7.84854 -16.12022,1.238246 -32.22247,2.099206 -48.17675,3.566614 0,0 -0.95768,-7.958218 -0.95768,-7.958218 0,0 0,0 0,0" />
      <path
         style="fill:#d600ff;stroke:none"
         inkscape:connector-curvature="0"
         id="path3828"
         d="m -527.62862,-43.046592 c 15.95428,-1.467408 32.05653,-2.328368 48.17675,-3.566614 0,0 1.18422,7.743475 1.18422,7.743475 -16.18457,1.380952 -32.4414,1.871461 -48.40912,3.732825 0,0 -0.95185,-7.909686 -0.95185,-7.909686 0,0 0,0 0,0" />
      <path
         style="fill:#be00ff;stroke:none"
         inkscape:connector-curvature="0"
         id="path3830"
         d="m -526.67677,-35.136906 c 15.96772,-1.861364 32.22455,-2.351873 48.40912,-3.732825 0,0 1.19936,7.842451 1.19936,7.842451 -16.32807,0.973894 -32.52505,2.4597 -48.73458,3.15234 0,0 -0.8739,-7.261966 -0.8739,-7.261966 0,0 0,0 0,0" />
      <path
         style="fill:#a600ff;stroke:none"
         inkscape:connector-curvature="0"
         id="path3832"
         d="m -525.80287,-27.87494 c 16.20953,-0.69264 32.40651,-2.178446 48.73458,-3.15234 0,0 1.22179,7.989116 1.22179,7.989116 -16.39381,1.125683 -32.72527,2.182515 -48.97187,3.344251 0,0 -0.9845,-8.181027 -0.9845,-8.181027 0,0 0,0 0,0" />
      <path
         style="fill:#8e00ff;stroke:none"
         inkscape:connector-curvature="0"
         id="path3834"
         d="m -524.81837,-19.693913 c 16.2466,-1.161736 32.57806,-2.218568 48.97187,-3.344251 0,0 1.25182,8.185482 1.25182,8.185482 -16.47703,1.169487 -32.91771,2.075245 -49.23513,3.373551 0,0 -0.98856,-8.214782 -0.98856,-8.214782 0,0 0,0 0,0" />
      <path
         style="fill:#7600ff;stroke:none"
         inkscape:connector-curvature="0"
         id="path3836"
         d="m -523.82981,-11.479131 c 16.31742,-1.298306 32.7581,-2.204064 49.23513,-3.373551 0,0 1.23677,8.0870695 1.23677,8.0870695 -16.54574,1.3079743 -33.1418,1.7894415 -49.47483,3.5719859 0,0 -0.99707,-8.2855044 -0.99707,-8.2855044 0,0 0,0 0,0" />
      <path
         style="fill:#5e00ff;stroke:none"
         inkscape:connector-curvature="0"
         id="path3838"
         d="m -522.83274,-3.1936266 c 16.33303,-1.7825444 32.92909,-2.2640116 49.47483,-3.5719859 0,0 1.24708,8.1544746 1.24708,8.1544746 -16.69531,0.882209 -33.25478,2.2037986 -49.80243,3.0582053 0,0 -0.91948,-7.640694 -0.91948,-7.640694 0,0 0,0 0,0" />
      <path
         style="fill:#4600ff;stroke:none"
         inkscape:connector-curvature="0"
         id="path3840"
         d="m -521.91326,4.4470674 c 16.54765,-0.8544067 33.10712,-2.1759963 49.80243,-3.0582053 0,0 1.27799,8.3566204 1.27799,8.3566204 -16.76295,1.0489145 -33.44513,2.1408665 -50.06467,3.1423125 0,0 -1.01575,-8.4407276 -1.01575,-8.4407276 0,0 0,0 0,0" />
      <path
         style="fill:#2e00ff;stroke:none"
         inkscape:connector-curvature="0"
         id="path3842"
         d="m -520.89751,12.887795 c 16.61954,-1.001446 33.30172,-2.093398 50.06467,-3.1423125 0,0 1.29638,8.4768705 1.29638,8.4768705 -16.85471,1.054982 -33.63958,2.066698 -50.33992,3.150912 0,0 -1.02113,-8.48547 -1.02113,-8.48547 0,0 0,0 0,0" />
      <path
         style="fill:#1600ff;stroke:none"
         inkscape:connector-curvature="0"
         id="path3844"
         d="m -519.87638,21.373265 c 16.70034,-1.084214 33.48521,-2.09593 50.33992,-3.150912 0,0 1.27327,8.325743 1.27327,8.325743 -16.94615,1.051736 -33.8104,2.147527 -50.62416,3.043861 0,0 -0.98903,-8.218692 -0.98903,-8.218692 0,0 0,0 0,0" />
      <path
         style="fill:#0008ff;stroke:none"
         inkscape:connector-curvature="0"
         id="path3846"
         d="m -518.88735,29.591957 c 16.81376,-0.896334 33.67801,-1.992125 50.62416,-3.043861 0,0 1.31267,8.583354 1.31267,8.583354 -17.04887,0.988875 -34.01642,2.002818 -50.90654,3.022043 0,0 -1.03029,-8.561536 -1.03029,-8.561536 0,0 0,0 0,0" />
      <path
         style="fill:#0020ff;stroke:none"
         inkscape:connector-curvature="0"
         id="path3848"
         d="m -517.85706,38.153493 c 16.89012,-1.019225 33.85767,-2.033168 50.90654,-3.022043 0,0 1.35161,8.837999 1.35161,8.837999 -17.14044,1.024092 -34.20759,2.013676 -51.19619,3.008723 0,0 -1.06196,-8.824679 -1.06196,-8.824679 0,0 0,0 0,0" />
      <path
         style="fill:#0038ff;stroke:none"
         inkscape:connector-curvature="0"
         id="path3850"
         d="m -516.7951,46.978172 c 16.9886,-0.995047 34.05575,-1.984631 51.19619,-3.008723 0,0 1.36225,8.907537 1.36225,8.907537 -17.27996,0.72705 -34.41214,1.934061 -51.50753,2.834109 0,0 -1.05091,-8.732923 -1.05091,-8.732923 0,0 0,0 0,0" />
      <path
         style="fill:#0050ff;stroke:none"
         inkscape:connector-curvature="0"
         id="path3852"
         d="m -515.74419,55.711095 c 17.09539,-0.900048 34.22757,-2.107059 51.50753,-2.834109 0,0 1.28388,8.39515 1.28388,8.39515 -17.3089,1.169205 -34.5908,1.966661 -51.76066,3.00427 0,0 -1.03075,-8.565311 -1.03075,-8.565311 0,0 0,0 0,0" />
      <path
         style="fill:#0068ff;stroke:none"
         inkscape:connector-curvature="0"
         id="path3854"
         d="m -514.71344,64.276406 c 17.16986,-1.037609 34.45176,-1.835065 51.76066,-3.00427 0,0 1.3923,9.104023 1.3923,9.104023 -17.42786,1.032126 -34.79457,1.925697 -52.07026,2.897341 0,0 -1.0827,-8.997094 -1.0827,-8.997094 0,0 0,0 0,0" />
      <path
         style="fill:#0080ff;stroke:none"
         inkscape:connector-curvature="0"
         id="path3856"
         d="m -513.63074,73.2735 c 17.27569,-0.971644 34.6424,-1.865215 52.07026,-2.897341 0,0 1.43222,9.365076 1.43222,9.365076 -17.58127,0.672445 -34.99467,1.956053 -52.40755,2.630974 0,0 -1.09493,-9.098709 -1.09493,-9.098709 0,0 0,0 0,0" />
      <path
         style="fill:#0098ff;stroke:none"
         inkscape:connector-curvature="0"
         id="path3858"
         d="m -512.53581,82.372209 c 17.41288,-0.674921 34.82628,-1.958529 52.40755,-2.630974 0,0 1.44252,9.43247 1.44252,9.43247 -17.75105,0.124606 -35.22792,1.744719 -52.74396,2.390044 0,0 -1.10611,-9.19154 -1.10611,-9.19154 0,0 0,0 0,0" />
      <path
         style="fill:#00b0ff;stroke:none"
         inkscape:connector-curvature="0"
         id="path3860"
         d="m -511.4297,91.563749 c 17.51604,-0.645325 34.99291,-2.265438 52.74396,-2.390044 0,0 1.31388,8.591251 1.31388,8.591251 -17.67601,1.392212 -35.39694,1.883502 -52.95704,2.946314 0,0 -1.1008,-9.147521 -1.1008,-9.147521 0,0 0,0 0,0" />
      <path
         style="fill:#00c8ff;stroke:none"
         inkscape:connector-curvature="0"
         id="path3862"
         d="m -510.3289,100.71127 c 17.5601,-1.062812 35.28103,-1.554102 52.95704,-2.946314 0,0 1.49644,9.785064 1.49644,9.785064 -17.89809,0.58121 -35.63023,1.73045 -53.32601,2.53036 0,0 -1.12747,-9.36911 -1.12747,-9.36911 0,0 0,0 0,0" />
      <path
         style="fill:#00e0ff;stroke:none"
         inkscape:connector-curvature="0"
         id="path3864"
         d="m -509.20143,110.08038 c 17.69578,-0.79991 35.42792,-1.94915 53.32601,-2.53036 0,0 1.47429,9.64014 1.47429,9.64014 -18.00647,0.55987 -35.825,1.8472 -53.65724,2.38885 0,0 -1.14306,-9.49863 -1.14306,-9.49863 0,0 0,0 0,0" />
      <path
         style="fill:#00f8ff;stroke:none"
         inkscape:connector-curvature="0"
         id="path3866"
         d="m -508.05837,119.57901 c 17.83224,-0.54165 35.65077,-1.82898 53.65724,-2.38885 0,0 1.44086,9.42162 1.44086,9.42162 -18.03398,1.09113 -36.14102,1.17494 -53.89276,2.98336 0,0 -1.20534,-10.01613 -1.20534,-10.01613 0,0 0,0 0,0" />
      <path
         style="fill:#00ffe6;stroke:none"
         inkscape:connector-curvature="0"
         id="path3868"
         d="m -506.85303,129.59514 c 17.75174,-1.80842 35.85878,-1.89223 53.89276,-2.98336 0,0 1.47449,9.64146 1.47449,9.64146 -18.21771,0.53917 -36.25239,1.75583 -54.29069,2.28794 0,0 -1.07656,-8.94604 -1.07656,-8.94604 0,0 0,0 0,0" />
      <path
         style="fill:#00ffce;stroke:none"
         inkscape:connector-curvature="0"
         id="path3870"
         d="m -505.77647,138.54118 c 18.0383,-0.53211 36.07298,-1.74877 54.29069,-2.28794 0,0 1.51419,9.90109 1.51419,9.90109 -18.28896,0.79931 -36.47743,1.68503 -54.59749,2.42011 0,0 -1.20739,-10.03326 -1.20739,-10.03326 0,0 0,0 0,0" />
      <path
         style="fill:#00ffb6;stroke:none"
         inkscape:connector-curvature="0"
         id="path3872"
         d="m -504.56908,148.57444 c 18.12006,-0.73508 36.30853,-1.6208 54.59749,-2.42011 0,0 1.53396,10.03037 1.53396,10.03037 -18.377,0.9512 -36.73548,1.38398 -54.90265,2.60082 0,0 -1.2288,-10.21108 -1.2288,-10.21108 0,0 0,0 0,0" />
      <path
         style="fill:#00ff9e;stroke:none"
         inkscape:connector-curvature="0"
         id="path3874"
         d="m -503.34028,158.78552 c 18.16717,-1.21684 36.52565,-1.64962 54.90265,-2.60082 0,0 1.54347,10.09254 1.54347,10.09254 -18.46354,1.1184 -37.02028,1.06537 -55.2093,2.78606 0,0 -1.23682,-10.27778 -1.23682,-10.27778 0,0 0,0 0,0" />
      <path
         style="fill:#00ff86;stroke:none"
         inkscape:connector-curvature="0"
         id="path3876"
         d="m -502.10346,169.0633 c 18.18902,-1.72069 36.74576,-1.66766 55.2093,-2.78606 0,0 1.54761,10.11958 1.54761,10.11958 -18.67294,0.42252 -37.14879,1.59094 -55.62865,2.0422 0,0 -1.12826,-9.37572 -1.12826,-9.37572 0,0 0,0 0,0" />
      <path
         style="fill:#00ff6e;stroke:none"
         inkscape:connector-curvature="0"
         id="path3878"
         d="m -500.9752,178.43902 c 18.47986,-0.45126 36.95571,-1.61968 55.62865,-2.0422 0,0 1.58608,10.37119 1.58608,10.37119 -18.74269,0.72933 -37.38329,1.52607 -55.95042,2.1772 0,0 -1.26431,-10.50619 -1.26431,-10.50619 0,0 0,0 0,0" />
      <path
         style="fill:#00ff56;stroke:none"
         inkscape:connector-curvature="0"
         id="path3880"
         d="m -499.71089,188.94521 c 18.56713,-0.65113 37.20773,-1.44787 55.95042,-2.1772 0,0 1.61091,10.53352 1.61091,10.53352 -18.85238,0.76751 -37.63886,1.32759 -56.28577,2.24341 0,0 -1.27556,-10.59973 -1.27556,-10.59973 0,0 0,0 0,0" />
      <path
         style="fill:#00ff3e;stroke:none"
         inkscape:connector-curvature="0"
         id="path3882"
         d="m -498.43533,199.54494 c 18.64691,-0.91582 37.43339,-1.4759 56.28577,-2.24341 0,0 1.59347,10.41947 1.59347,10.41947 -18.98995,0.60051 -37.83363,1.57377 -56.66654,1.90121 0,0 -1.2127,-10.07727 -1.2127,-10.07727 0,0 0,0 0,0" />
      <path
         style="fill:#00ff26;stroke:none"
         inkscape:connector-curvature="0"
         id="path3884"
         d="m -497.22263,209.62221 c 18.83291,-0.32744 37.67659,-1.3007 56.66654,-1.90121 0,0 1.60707,10.50838 1.60707,10.50838 -19.09414,0.67541 -38.08909,1.37197 -56.99817,1.99159 0,0 -1.27544,-10.59876 -1.27544,-10.59876 0,0 0,0 0,0" />
      <path
         style="fill:#00ff0e;stroke:none"
         inkscape:connector-curvature="0"
         id="path3886"
         d="m -495.94719,220.22097 c 18.90908,-0.61962 37.90403,-1.31618 56.99817,-1.99159 0,0 1.69902,11.10969 1.69902,11.10969 -19.226,0.6017 -38.33903,1.31214 -57.37038,1.90746 0,0 -1.32681,-11.02556 -1.32681,-11.02556 0,0 0,0 0,0" />
      <path
         style="fill:#0aff00;stroke:none"
         inkscape:connector-curvature="0"
         id="path3888"
         d="m -494.62038,231.24653 c 19.03135,-0.59532 38.14438,-1.30576 57.37038,-1.90746 0,0 1.62793,10.64477 1.62793,10.64477 -19.31887,0.76689 -38.57211,1.30364 -57.71516,1.92543 0,0 -1.28315,-10.66274 -1.28315,-10.66274 0,0 0,0 0,0" />
      <path
         style="fill:#28ff00;stroke:none"
         inkscape:connector-curvature="0"
         id="path3890"
         d="m -493.33723,241.90927 c 19.14305,-0.62179 38.39629,-1.15854 57.71516,-1.92543 0,0 1.68675,11.02946 1.68675,11.02946 -19.43355,0.80799 -38.8221,1.23007 -58.07875,1.89121 0,0 -1.32316,-10.99524 -1.32316,-10.99524 0,0 0,0 0,0" />
      <path
         style="fill:#40ff00;stroke:none"
         inkscape:connector-curvature="0"
         id="path3892"
         d="m -492.01407,252.90451 c 19.25665,-0.66114 38.6452,-1.08322 58.07875,-1.89121 0,0 1.7494,11.43906 1.7494,11.43906 -19.59669,0.5394 -39.08144,1.15333 -58.47307,1.71269 0,0 -1.35508,-11.26054 -1.35508,-11.26054 0,0 0,0 0,0" />
      <path
         style="fill:#58ff00;stroke:none"
         inkscape:connector-curvature="0"
         id="path3894"
         d="m -490.65899,264.16505 c 19.39163,-0.55936 38.87638,-1.17329 58.47307,-1.71269 0,0 1.78394,11.66499 1.78394,11.66499 -19.7633,0.26369 -39.32545,1.23087 -58.88791,1.4247 0,0 -1.3691,-11.377 -1.3691,-11.377 0,0 0,0 0,0" />
      <path
         style="fill:#70ff00;stroke:none"
         inkscape:connector-curvature="0"
         id="path3896"
         d="m -489.28989,275.54205 c 19.56246,-0.19383 39.12461,-1.16101 58.88791,-1.4247 0,0 1.63254,10.67495 1.63254,10.67495 -19.66165,1.626 -39.56086,1.2096 -59.15617,2.08666 0,0 -1.36428,-11.33691 -1.36428,-11.33691 0,0 0,0 0,0" />
      <path
         style="fill:#88ff00;stroke:none"
         inkscape:connector-curvature="0"
         id="path3898"
         d="m -487.92561,286.87896 c 19.59531,-0.87706 39.49452,-0.46066 59.15617,-2.08666 0,0 1.83481,11.99758 1.83481,11.99758 -19.90906,0.98191 -39.84168,1.06187 -59.59186,1.71554 0,0 -1.39912,-11.62646 -1.39912,-11.62646 0,0 0,0 0,0" />
      <path
         style="fill:#a0ff00;stroke:none"
         inkscape:connector-curvature="0"
         id="path3900"
         d="m -486.52649,298.50542 c 19.75018,-0.65367 39.6828,-0.73363 59.59186,-1.71554 0,0 1.84663,12.07482 1.84663,12.07482 -20.09053,0.63319 -40.11754,0.96476 -60.01492,1.4704 0,0 -1.42357,-11.82968 -1.42357,-11.82968 0,0 0,0 0,0" />
      <path
         style="fill:#b8ff00;stroke:none"
         inkscape:connector-curvature="0"
         id="path3902"
         d="m -485.10292,310.3351 c 19.89738,-0.50564 39.92439,-0.83721 60.01492,-1.4704 0,0 1.8922,12.37288 1.8922,12.37288 -20.33918,-0.16572 -40.40934,0.79562 -60.47333,1.01207 0,0 -1.43379,-11.91455 -1.43379,-11.91455 0,0 0,0 0,0" />
      <path
         style="fill:#d0ff00;stroke:none"
         inkscape:connector-curvature="0"
         id="path3904"
         d="m -483.66913,322.24965 c 20.06399,-0.21645 40.13415,-1.17779 60.47333,-1.01207 0,0 1.90703,12.4698 1.90703,12.4698 -20.54662,-0.84643 -40.70016,0.65006 -60.92629,0.6253 0,0 -1.45407,-12.08303 -1.45407,-12.08303 0,0 0,0 0,0" />
      <path
         style="fill:#e8ff00;stroke:none"
         inkscape:connector-curvature="0"
         id="path3906"
         d="m -482.21506,334.33268 c 20.22613,0.0248 40.37967,-1.47173 60.92629,-0.6253 0,0 1.76802,11.56081 1.76802,11.56081 -20.53819,0.28204 -40.94693,0.6894 -61.24324,1.1227 0,0 -1.45107,-12.05821 -1.45107,-12.05821 0,0 0,0 0,0" />
      <path
         style="fill:#ffea00;stroke:none"
         inkscape:connector-curvature="0"
         id="path3908"
         d="m -480.76399,346.39089 c 20.29631,-0.4333 40.70505,-0.84066 61.24324,-1.1227 0,0 1.93046,12.62303 1.93046,12.62303 -20.67878,0.26326 -41.19859,0.86793 -61.67981,0.91366 0,0 -1.49389,-12.41399 -1.49389,-12.41399 0,0 0,0 0,0" />
      <path
         style="fill:#ffae00;stroke:none"
         inkscape:connector-curvature="0"
         id="path3910"
         d="m -479.2701,358.80488 c 20.48122,-0.0457 41.00103,-0.6504 61.67981,-0.91366 0,0 1.94539,12.72063 1.94539,12.72063 -20.80195,0.37477 -41.52955,0.45796 -62.07674,1.06047 0,0 -1.54846,-12.86744 -1.54846,-12.86744 0,0 0,0 0,0" />
      <path
         style="fill:#ff7e00;stroke:none"
         inkscape:connector-curvature="0"
         id="path3912"
         d="m -477.72164,371.67232 c 20.54719,-0.60251 41.27479,-0.6857 62.07674,-1.06047 0,0 1.93784,12.67128 1.93784,12.67128 -20.95541,0.26917 -41.78186,0.63955 -62.5207,0.80308 0,0 -1.49388,-12.41389 -1.49388,-12.41389 0,0 0,0 0,0" />
      <path
         style="fill:#ff4e00;stroke:none"
         inkscape:connector-curvature="0"
         id="path3914"
         d="m -476.22776,384.08621 c 20.73884,-0.16353 41.56529,-0.53391 62.5207,-0.80308 0,0 1.99346,13.03495 1.99346,13.03495 -21.11967,0.11548 -42.08838,0.46816 -62.9597,0.68547 0,0 -1.55446,-12.91734 -1.55446,-12.91734 0,0 0,0 0,0" />
      <path
         style="fill:#ff1e00;stroke:none"
         inkscape:connector-curvature="0"
         id="path3916"
         d="m -474.6733,397.00355 c 20.87132,-0.21731 41.84003,-0.56999 62.9597,-0.68547 0,0 1.99521,13.04637 1.99521,13.04637 -21.2331,0.32065 -42.38578,0.36829 -63.38122,0.7162 0,0 -1.57369,-13.0771 -1.57369,-13.0771 0,0 0,0 0,0" />
      <path
         style="fill:#f00000;stroke:none"
         inkscape:connector-curvature="0"
         id="path3918"
         d="m -473.09961,410.08065 c 20.99544,-0.34791 42.14812,-0.39555 63.38122,-0.7162 0,0 2.04109,13.34642 2.04109,13.34642 -21.3621,0.43922 -42.76349,-0.19298 -63.78686,0.96006 0,0 -1.63545,-13.59028 -1.63545,-13.59028 0,0 0,0 0,0" />
      <path
         style="fill:#c80000;stroke:none"
         inkscape:connector-curvature="0"
         id="path3920"
         d="m -471.46416,423.67093 c 21.02337,-1.15304 42.42476,-0.52084 63.78686,-0.96006 0,0 2.03831,13.32823 2.03831,13.32823 -21.57636,-0.044 -42.93667,0.70197 -64.32472,0.10032 0,0 -1.50045,-12.46849 -1.50045,-12.46849 0,0 0,0 0,0" />
      <path
         style="fill:#a00000;stroke:none"
         inkscape:connector-curvature="0"
         id="path3922"
         d="m -469.96371,436.13942 c 21.38805,0.60165 42.74836,-0.14429 64.32472,-0.10032 0,0 2.09276,13.68429 2.09276,13.68429 -21.70484,0.10427 -43.28628,0.20795 -64.74537,0.31103 0,0 -1.67211,-13.895 -1.67211,-13.895 0,0 0,0 0,0" />
      <path
         style="fill:#780000;stroke:none"
         inkscape:connector-curvature="0"
         id="path3924"
         d="m -468.2916,450.03442 c 21.45909,-0.10308 43.04053,-0.20676 64.74537,-0.31103 0,0 2.1636,14.14746 2.1636,14.14746 -21.85376,0.14421 -43.62587,-0.0308 -65.20551,0.31907 0,0 -1.70346,-14.1555 -1.70346,-14.1555 0,0 0,0 0,0" />
      <path
         style="fill:#500000;stroke:none"
         inkscape:connector-curvature="0"
         id="path3926"
         d="m -466.58814,464.18992 c 21.57964,-0.34983 43.35175,-0.17486 65.20551,-0.31907 0,0 2.14495,14.02556 2.14495,14.02556 -22.02175,0.0405 -43.92747,2e-5 -65.68843,0.10465 0,0 -1.66203,-13.81114 -1.66203,-13.81114 0,0 0,0 0,0" />
      <path
         style="fill:#280000;stroke:none"
         inkscape:connector-curvature="0"
         id="path3928"
         d="m -464.92611,478.00106 c 21.76096,-0.10463 43.66668,-0.0642 65.68843,-0.10465 0,0 2.2004,14.38814 2.2004,14.38814 -22.18719,-0.0174 -44.24556,-0.0348 -66.17819,-0.0683 0,0 -1.71064,-14.21519 -1.71064,-14.21519 0,0 0,0 0,0" />
      <path
         style="fill:#000000;stroke:none"
         inkscape:connector-curvature="0"
         id="path3930"
         d="m -463.21547,492.21625 c 21.93263,0.0335 43.991,0.0509 66.17819,0.0683 0,0 2.18096,14.26097 2.18096,14.26097 0,0 -66.65608,-0.17704 -66.65608,-0.17704 0,0 -1.70307,-14.15223 -1.70307,-14.15223 0,0 0,0 0,0" />
    </g>
    <text
       xml:space="preserve"
       style="font-size:48px;font-style:normal;font-variant:normal;font-weight:bold;font-stretch:normal;text-align:start;line-height:125%;letter-spacing:0px;word-spacing:0px;writing-mode:lr-tb;text-anchor:start;fill:#ffffff;fill-opacity:1;stroke:none;font-family:DejaVu Sans;-inkscape-font-specification:DejaVu Sans Bold"
       x="957.31512"
       y="1120.4615"
       id="text7305"
       sodipodi:linespacing="125%"><tspan
         sodipodi:role="line"
         id="tspan7307"
         x="957.31512"
         y="1120.4615">0.0</tspan></text>
    <text
       sodipodi:linespacing="125%"
       id="text7309"
       y="686.46155"
       x="913.31512"
       style="font-size:48px;font-style:normal;font-variant:normal;font-weight:bold;font-stretch:normal;text-align:start;line-height:125%;letter-spacing:0px;word-spacing:0px;writing-mode:lr-tb;text-anchor:start;fill:#ffffff;fill-opacity:1;stroke:none;font-family:DejaVu Sans;-inkscape-font-specification:DejaVu Sans Bold"
       xml:space="preserve"><tspan
         y="686.46155"
         x="913.31512"
         id="tspan7311"
         sodipodi:role="line">1.0</tspan></text>
    <text
       xml:space="preserve"
       style="font-size:48px;font-style:normal;font-variant:normal;font-weight:bold;font-stretch:normal;text-align:start;line-height:125%;letter-spacing:0px;word-spacing:0px;writing-mode:lr-tb;text-anchor:start;fill:#ffffff;fill-opacity:1;stroke:none;font-family:DejaVu Sans;-inkscape-font-specification:DejaVu Sans Bold"
       x="875.31512"
       y="380.46149"
       id="text7313"
       sodipodi:linespacing="125%"><tspan
         sodipodi:role="line"
         id="tspan7315"
         x="875.31512"
         y="380.46149">2.0</tspan></text>
  </g>
</svg>
