<?xml version="1.0" encoding="utf-8" standalone="no"?>
<!DOCTYPE svg PUBLIC "-//W3C//DTD SVG 1.1//EN"
  "http://www.w3.org/Graphics/SVG/1.1/DTD/svg11.dtd">
<!-- Created with matplotlib (http://matplotlib.org/) -->
<svg height="406pt" version="1.1" viewBox="0 0 499 406" width="499pt" xmlns="http://www.w3.org/2000/svg" xmlns:xlink="http://www.w3.org/1999/xlink">
 <defs>
  <style type="text/css">
*{stroke-linecap:butt;stroke-linejoin:round;}
  </style>
 </defs>
 <g id="figure_1">
  <g id="patch_1">
   <path d="
M0 406.256
L499.796 406.256
L499.796 0
L0 0
z
" style="fill:none;"/>
  </g>
  <g id="axes_1">
   <g id="patch_2">
    <path d="
M43.4156 179.598
L489.816 179.598
L489.816 22.5072
L43.4156 22.5072
z
" style="fill:none;"/>
   </g>
   <g id="line2d_1">
    <path clip-path="url(#p2ad02bd805)" d="
M43.3727 179.598
L129.244 179.504
L130.464 179.279
L131.489 178.834
L132.726 178.097
L133.141 177.644
L133.557 176.914
L133.973 175.795
L134.6 173.397
L135.651 168.264
L136.284 164.553
L136.92 159.424
L137.559 151.974
L138.413 138.643
L142.314 72.0067
L143.414 58.631
L144.298 50.6707
L144.964 46.622
L145.633 43.8756
L146.305 42.0609
L146.754 41.3135
L147.204 40.9692
L147.429 40.9575
L147.881 41.2769
L148.334 42.1439
L148.789 43.7199
L149.244 46.1714
L149.929 51.7825
L150.847 61.983
L155.269 114.174
L156.688 127.556
L159.558 151.78
L160.767 160.661
L161.496 164.67
L162.227 167.667
L162.962 169.821
L163.699 171.358
L166.427 175.9
L167.428 177.155
L168.434 177.975
L169.446 178.466
L170.972 178.864
L173.284 179.247
L175.884 179.422
L183.885 179.55
L207.969 179.571
L228.444 179.441
L234.082 179.226
L238.818 178.842
L241.561 178.396
L245.729 177.491
L248.897 176.576
L253.537 174.947
L267.168 169.735
L276.357 166.247
L279.483 165.245
L282.244 164.6
L285.429 164.097
L290.268 163.584
L294.769 163.118
L308.224 161.056
L311.673 160.9
L315.158 160.978
L318.678 161.287
L324.925 162.154
L333.12 163.265
L340.563 163.963
L348.159 164.688
L352.985 165.451
L356.889 166.297
L370.364 169.509
L374.958 170.239
L379.606 170.742
L384.832 171.053
L391.191 171.199
L398.733 171.119
L408.072 170.793
L423.324 169.998
L442.089 169.064
L461.628 168.319
L480.679 167.768
L489.819 167.617
L489.819 167.617" style="fill:none;stroke:#ffffff;stroke-linecap:square;stroke-width:3.0;"/>
   </g>
   <g id="line2d_2">
    <path clip-path="url(#p2ad02bd805)" d="
M43.3727 179.598
L129.244 179.504
L130.464 179.279
L131.489 178.834
L132.726 178.097
L133.141 177.644
L133.557 176.914
L133.973 175.795
L134.6 173.397
L135.651 168.264
L136.284 164.553
L136.92 159.424
L137.559 151.974
L138.413 138.643
L142.314 72.0067
L143.414 58.631
L144.298 50.6707
L144.964 46.622
L145.633 43.8756
L146.305 42.0609
L146.754 41.3135
L147.204 40.9692
L147.429 40.9575
L147.881 41.2769
L148.334 42.1439
L148.789 43.7199
L149.244 46.1714
L149.929 51.7825
L150.847 61.983
L155.269 114.174
L156.688 127.556
L159.558 151.78
L160.767 160.661
L161.496 164.67
L162.227 167.667
L162.962 169.821
L163.699 171.358
L166.427 175.9
L167.428 177.155
L168.434 177.975
L169.446 178.466
L170.972 178.864
L173.284 179.247
L175.884 179.422
L183.885 179.55
L207.969 179.571
L228.444 179.441
L234.082 179.226
L238.818 178.842
L241.561 178.396
L245.729 177.491
L248.897 176.576
L253.537 174.947
L267.168 169.735
L276.357 166.247
L279.483 165.245
L282.244 164.6
L285.429 164.097
L290.268 163.584
L294.769 163.118
L308.224 161.056
L311.673 160.9
L315.158 160.978
L318.678 161.287
L324.925 162.154
L333.12 163.265
L340.563 163.963
L348.159 164.688
L352.985 165.451
L356.889 166.297
L370.364 169.509
L374.958 170.239
L379.606 170.742
L384.832 171.053
L391.191 171.199
L398.733 171.119
L408.072 170.793
L423.324 169.998
L442.089 169.064
L461.628 168.319
L480.679 167.768
L489.819 167.617
L489.819 167.617" style="fill:none;stroke:#ff0000;stroke-linecap:square;"/>
   </g>
   <g id="line2d_3">
    <path clip-path="url(#p2ad02bd805)" d="
M43.3727 179.598
L162.227 179.497
L166.427 179.213
L168.687 178.883
L171.484 178.236
L173.284 177.65
L174.84 176.923
L177.46 175.359
L179.314 174.145
L181.184 172.58
L185.795 168.233
L190.507 163.608
L192.476 161.517
L194.464 158.997
L200.239 151.384
L202.001 149.065
L203.479 147.089
L204.37 146.237
L205.564 145.5
L208.272 144.254
L209.181 144.097
L210.399 144.151
L211.931 144.433
L212.546 144.745
L213.163 145.326
L213.781 146.28
L214.712 148.378
L216.583 153.606
L219.734 162.172
L221.006 165.066
L221.964 166.727
L223.247 168.421
L224.86 170.151
L226.157 171.281
L227.461 172.123
L228.772 172.694
L230.42 173.107
L233.747 173.613
L236.101 173.728
L242.597 173.693
L256.794 173.213
L265.289 172.767
L274.42 172.034
L287.034 170.764
L308.224 168.344
L324.025 166.569
L330.825 166.061
L338.688 165.707
L355.909 165.017
L362.821 165.064
L369.35 165.314
L377.534 165.897
L385.885 166.731
L403.652 168.511
L414.223 169.302
L424.475 169.845
L433.198 170.093
L442.688 170.117
L453.595 169.897
L469.162 169.338
L489.819 168.461
L489.819 168.461" style="fill:none;stroke:#ffffff;stroke-linecap:square;stroke-width:3.0;"/>
   </g>
   <g id="line2d_4">
    <path clip-path="url(#p2ad02bd805)" d="
M43.3727 179.598
L162.227 179.497
L166.427 179.213
L168.687 178.883
L171.484 178.236
L173.284 177.65
L174.84 176.923
L177.46 175.359
L179.314 174.145
L181.184 172.58
L185.795 168.233
L190.507 163.608
L192.476 161.517
L194.464 158.997
L200.239 151.384
L202.001 149.065
L203.479 147.089
L204.37 146.237
L205.564 145.5
L208.272 144.254
L209.181 144.097
L210.399 144.151
L211.931 144.433
L212.546 144.745
L213.163 145.326
L213.781 146.28
L214.712 148.378
L216.583 153.606
L219.734 162.172
L221.006 165.066
L221.964 166.727
L223.247 168.421
L224.86 170.151
L226.157 171.281
L227.461 172.123
L228.772 172.694
L230.42 173.107
L233.747 173.613
L236.101 173.728
L242.597 173.693
L256.794 173.213
L265.289 172.767
L274.42 172.034
L287.034 170.764
L308.224 168.344
L324.025 166.569
L330.825 166.061
L338.688 165.707
L355.909 165.017
L362.821 165.064
L369.35 165.314
L377.534 165.897
L385.885 166.731
L403.652 168.511
L414.223 169.302
L424.475 169.845
L433.198 170.093
L442.688 170.117
L453.595 169.897
L469.162 169.338
L489.819 168.461
L489.819 168.461" style="fill:none;stroke:#0000ff;stroke-linecap:square;"/>
   </g>
   <g id="line2d_5">
    <path clip-path="url(#p2ad02bd805)" d="
M43.3727 179.598
L128.033 179.509
L129.041 179.222
L129.853 178.768
L130.669 178.004
L131.283 177.118
L131.9 175.799
L132.519 173.895
L133.349 170.399
L134.391 164.665
L136.284 152.552
L137.133 145.621
L137.985 136.218
L141.658 92.0389
L142.973 80.6795
L143.855 74.8787
L144.52 72.0481
L144.964 70.8821
L145.41 70.1639
L145.857 69.7787
L146.305 69.6276
L146.754 69.6814
L147.204 69.9278
L147.881 70.634
L148.334 71.3633
L148.789 72.3957
L149.472 74.7129
L150.158 78.1045
L151.538 86.6701
L154.564 106.695
L160.524 147.269
L161.739 153.91
L162.962 159.175
L164.439 164.339
L166.676 171.437
L167.679 173.713
L168.687 175.334
L169.699 176.453
L170.972 177.429
L172.511 178.304
L173.802 178.789
L175.101 179.064
L177.46 179.267
L181.184 179.454
L192.759 179.552
L220.687 179.506
L231.414 179.305
L237.117 178.936
L240.186 178.551
L244.333 177.735
L248.19 176.77
L254.258 174.945
L269.82 170.103
L279.876 166.589
L284.231 165.391
L288.647 164.424
L301.849 161.991
L306.512 161.227
L309.513 160.98
L313.411 160.905
L316.913 161.047
L321.787 161.505
L349.119 164.605
L354.444 165.532
L359.844 166.741
L369.35 168.892
L374.445 169.78
L379.087 170.377
L384.306 170.798
L390.657 171.064
L397.647 171.107
L406.409 170.926
L418.182 170.438
L459.142 168.582
L480.032 167.886
L489.819 167.669
L489.819 167.669" style="fill:none;stroke:#ffffff;stroke-linecap:square;stroke-width:3.6;"/>
   </g>
   <g id="line2d_6">
    <path clip-path="url(#p2ad02bd805)" d="
M43.3727 179.598
L128.033 179.509
L129.041 179.222
L129.853 178.768
L130.669 178.004
L131.283 177.118
L131.9 175.799
L132.519 173.895
L133.349 170.399
L134.391 164.665
L136.284 152.552
L137.133 145.621
L137.985 136.218
L141.658 92.0389
L142.973 80.6795
L143.855 74.8787
L144.52 72.0481
L144.964 70.8821
L145.41 70.1639
L145.857 69.7787
L146.305 69.6276
L146.754 69.6814
L147.204 69.9278
L147.881 70.634
L148.334 71.3633
L148.789 72.3957
L149.472 74.7129
L150.158 78.1045
L151.538 86.6701
L154.564 106.695
L160.524 147.269
L161.739 153.91
L162.962 159.175
L164.439 164.339
L166.676 171.437
L167.679 173.713
L168.687 175.334
L169.699 176.453
L170.972 177.429
L172.511 178.304
L173.802 178.789
L175.101 179.064
L177.46 179.267
L181.184 179.454
L192.759 179.552
L220.687 179.506
L231.414 179.305
L237.117 178.936
L240.186 178.551
L244.333 177.735
L248.19 176.77
L254.258 174.945
L269.82 170.103
L279.876 166.589
L284.231 165.391
L288.647 164.424
L301.849 161.991
L306.512 161.227
L309.513 160.98
L313.411 160.905
L316.913 161.047
L321.787 161.505
L349.119 164.605
L354.444 165.532
L359.844 166.741
L369.35 168.892
L374.445 169.78
L379.087 170.377
L384.306 170.798
L390.657 171.064
L397.647 171.107
L406.409 170.926
L418.182 170.438
L459.142 168.582
L480.032 167.886
L489.819 167.669
L489.819 167.669" style="fill:none;stroke:#ff0000;stroke-linecap:square;stroke-width:1.6;"/>
   </g>
   <g id="line2d_7">
    <path clip-path="url(#p2ad02bd805)" d="
M43.3727 179.598
L162.962 179.498
L167.679 179.175
L170.208 178.736
L172.768 178.105
L174.321 177.508
L175.884 176.678
L179.58 174.369
L181.453 172.83
L189.668 165.443
L192.194 163.06
L193.894 161.084
L197.333 157.052
L199.364 155.016
L203.479 151.491
L204.37 150.978
L205.564 150.578
L207.064 150.324
L208.272 150.317
L209.181 150.5
L210.399 150.976
L211.931 151.798
L213.163 152.703
L214.091 153.636
L215.334 155.198
L217.839 158.84
L220.687 162.948
L222.604 165.284
L224.86 167.634
L226.483 169.076
L228.116 170.23
L229.43 170.917
L231.414 171.661
L233.747 172.367
L235.427 172.643
L239.501 172.963
L243.29 173.021
L251.744 172.938
L263.049 172.625
L270.963 172.168
L280.269 171.408
L293.946 170.043
L326.73 166.599
L335.894 165.999
L352.015 165.183
L358.364 165.072
L365.821 165.188
L372.399 165.522
L380.125 166.109
L415.916 169.293
L425.629 169.806
L434.374 170.057
L444.488 170.097
L455.437 169.894
L471.063 169.357
L489.819 168.575
L489.819 168.575" style="fill:none;stroke:#ffffff;stroke-linecap:square;stroke-width:3.6;"/>
   </g>
   <g id="line2d_8">
    <path clip-path="url(#p2ad02bd805)" d="
M43.3727 179.598
L162.962 179.498
L167.679 179.175
L170.208 178.736
L172.768 178.105
L174.321 177.508
L175.884 176.678
L179.58 174.369
L181.453 172.83
L189.668 165.443
L192.194 163.06
L193.894 161.084
L197.333 157.052
L199.364 155.016
L203.479 151.491
L204.37 150.978
L205.564 150.578
L207.064 150.324
L208.272 150.317
L209.181 150.5
L210.399 150.976
L211.931 151.798
L213.163 152.703
L214.091 153.636
L215.334 155.198
L217.839 158.84
L220.687 162.948
L222.604 165.284
L224.86 167.634
L226.483 169.076
L228.116 170.23
L229.43 170.917
L231.414 171.661
L233.747 172.367
L235.427 172.643
L239.501 172.963
L243.29 173.021
L251.744 172.938
L263.049 172.625
L270.963 172.168
L280.269 171.408
L293.946 170.043
L326.73 166.599
L335.894 165.999
L352.015 165.183
L358.364 165.072
L365.821 165.188
L372.399 165.522
L380.125 166.109
L415.916 169.293
L425.629 169.806
L434.374 170.057
L444.488 170.097
L455.437 169.894
L471.063 169.357
L489.819 168.575
L489.819 168.575" style="fill:none;stroke:#0000ff;stroke-linecap:square;stroke-width:1.6;"/>
   </g>
   <g id="line2d_9">
    <path clip-path="url(#p2ad02bd805)" d="
M43.3727 179.598
L125.637 179.559
L126.233 179.193
L126.83 178.558
L127.631 177.304
L128.435 175.514
L129.244 173.039
L130.669 167.556
L132.106 161.393
L136.92 138.027
L137.772 135.242
L138.628 133.257
L139.92 130.885
L141.222 128.975
L142.533 127.499
L143.414 126.767
L144.077 126.437
L144.742 126.342
L145.633 126.495
L146.979 127.014
L148.561 127.839
L149.472 128.548
L150.617 129.826
L151.769 131.035
L154.329 133.363
L155.741 135.159
L157.64 138.015
L161.009 143.113
L163.946 147.715
L165.928 151.228
L170.972 160.4
L176.671 170.2
L179.048 173.732
L180.113 174.918
L181.184 175.814
L182.53 176.637
L185.248 177.975
L186.619 178.413
L188.555 178.746
L192.476 179.113
L197.333 179.307
L205.564 179.419
L218.469 179.371
L229.101 179.14
L233.747 178.857
L238.477 178.376
L241.561 177.822
L256.794 174.727
L263.421 173.548
L267.546 172.493
L274.034 170.566
L285.83 166.806
L302.27 162.512
L306.939 161.777
L309.944 161.556
L315.158 161.417
L320.007 161.553
L326.278 161.943
L335.43 162.79
L343.867 163.806
L351.53 164.943
L361.826 166.685
L374.445 168.772
L381.688 169.738
L387.999 170.338
L394.407 170.721
L402.006 170.923
L410.299 170.914
L421.032 170.655
L435.553 170.058
L483.925 167.886
L489.819 167.722
L489.819 167.722" style="fill:none;stroke:#ffffff;stroke-linecap:square;stroke-width:4.56;"/>
   </g>
   <g id="line2d_10">
    <path clip-path="url(#p2ad02bd805)" d="
M43.3727 179.598
L125.637 179.559
L126.233 179.193
L126.83 178.558
L127.631 177.304
L128.435 175.514
L129.244 173.039
L130.669 167.556
L132.106 161.393
L136.92 138.027
L137.772 135.242
L138.628 133.257
L139.92 130.885
L141.222 128.975
L142.533 127.499
L143.414 126.767
L144.077 126.437
L144.742 126.342
L145.633 126.495
L146.979 127.014
L148.561 127.839
L149.472 128.548
L150.617 129.826
L151.769 131.035
L154.329 133.363
L155.741 135.159
L157.64 138.015
L161.009 143.113
L163.946 147.715
L165.928 151.228
L170.972 160.4
L176.671 170.2
L179.048 173.732
L180.113 174.918
L181.184 175.814
L182.53 176.637
L185.248 177.975
L186.619 178.413
L188.555 178.746
L192.476 179.113
L197.333 179.307
L205.564 179.419
L218.469 179.371
L229.101 179.14
L233.747 178.857
L238.477 178.376
L241.561 177.822
L256.794 174.727
L263.421 173.548
L267.546 172.493
L274.034 170.566
L285.83 166.806
L302.27 162.512
L306.939 161.777
L309.944 161.556
L315.158 161.417
L320.007 161.553
L326.278 161.943
L335.43 162.79
L343.867 163.806
L351.53 164.943
L361.826 166.685
L374.445 168.772
L381.688 169.738
L387.999 170.338
L394.407 170.721
L402.006 170.923
L410.299 170.914
L421.032 170.655
L435.553 170.058
L483.925 167.886
L489.819 167.722
L489.819 167.722" style="fill:none;stroke:#ff0000;stroke-linecap:square;stroke-width:2.56;"/>
   </g>
   <g id="line2d_11">
    <path clip-path="url(#p2ad02bd805)" d="
M43.3727 179.598
L167.177 179.497
L170.717 179.243
L173.543 178.873
L175.362 178.38
L179.048 177.001
L180.648 176.158
L192.194 169.262
L194.179 167.685
L196.756 165.707
L198.491 164.637
L200.239 163.802
L204.37 162.138
L206.163 161.768
L208.574 161.485
L210.399 161.501
L213.163 161.763
L215.646 162.217
L218.785 163.066
L223.247 164.428
L231.746 167.123
L235.764 168.232
L241.217 169.46
L246.781 170.424
L250.673 170.874
L255.342 171.207
L261.565 171.369
L269.06 171.32
L277.916 171.04
L288.243 170.476
L301.008 169.524
L341.034 166.277
L350.564 165.759
L357.872 165.585
L365.821 165.635
L373.421 165.909
L382.21 166.434
L403.103 168.012
L418.751 169.074
L430.272 169.628
L440.297 169.88
L450.54 169.924
L462.252 169.75
L476.811 169.311
L489.819 168.813
L489.819 168.813" style="fill:none;stroke:#ffffff;stroke-linecap:square;stroke-width:4.56;"/>
   </g>
   <g id="line2d_12">
    <path clip-path="url(#p2ad02bd805)" d="
M43.3727 179.598
L167.177 179.497
L170.717 179.243
L173.543 178.873
L175.362 178.38
L179.048 177.001
L180.648 176.158
L192.194 169.262
L194.179 167.685
L196.756 165.707
L198.491 164.637
L200.239 163.802
L204.37 162.138
L206.163 161.768
L208.574 161.485
L210.399 161.501
L213.163 161.763
L215.646 162.217
L218.785 163.066
L223.247 164.428
L231.746 167.123
L235.764 168.232
L241.217 169.46
L246.781 170.424
L250.673 170.874
L255.342 171.207
L261.565 171.369
L269.06 171.32
L277.916 171.04
L288.243 170.476
L301.008 169.524
L341.034 166.277
L350.564 165.759
L357.872 165.585
L365.821 165.635
L373.421 165.909
L382.21 166.434
L403.103 168.012
L418.751 169.074
L430.272 169.628
L440.297 169.88
L450.54 169.924
L462.252 169.75
L476.811 169.311
L489.819 168.813
L489.819 168.813" style="fill:none;stroke:#0000ff;stroke-linecap:square;stroke-width:2.56;"/>
   </g>
   <g id="matplotlib.axis_1">
    <g id="xtick_1">
     <g id="line2d_13">
      <defs>
       <path d="
M0 0
L0 -4" id="m93b0483c22" style="stroke:#000000;stroke-width:0.5;"/>
      </defs>
      <g>
       <use style="stroke:#000000;stroke-width:0.5;" x="43.415625" xlink:href="#m93b0483c22" y="179.598159091"/>
      </g>
     </g>
     <g id="line2d_14">
      <defs>
       <path d="
M0 0
L0 4" id="m741efc42ff" style="stroke:#000000;stroke-width:0.5;"/>
      </defs>
      <g>
       <use style="stroke:#000000;stroke-width:0.5;" x="43.415625" xlink:href="#m741efc42ff" y="22.50725"/>
      </g>
     </g>
     <g id="text_1">
      <!-- 1 -->
      <defs>
       <path d="
M37.25 0
L28.4688 0
L28.4688 56
Q25.2969 52.9844 20.1406 49.9531
Q14.9844 46.9219 10.8906 45.4062
L10.8906 53.9062
Q18.2656 57.375 23.7812 62.2969
Q29.2969 67.2344 31.5938 71.875
L37.25 71.875
z
" id="ArialMT-31"/>
      </defs>
      <g transform="translate(41.8340625 192.187534091)scale(0.12 -0.12)">
       <use xlink:href="#ArialMT-31"/>
      </g>
     </g>
    </g>
    <g id="xtick_2">
     <g id="line2d_15">
      <g>
       <use style="stroke:#000000;stroke-width:0.5;" x="117.815625" xlink:href="#m93b0483c22" y="179.598159091"/>
      </g>
     </g>
     <g id="line2d_16">
      <g>
       <use style="stroke:#000000;stroke-width:0.5;" x="117.815625" xlink:href="#m741efc42ff" y="22.50725"/>
      </g>
     </g>
     <g id="text_2">
      <!-- 2 -->
      <defs>
       <path d="
M50.3438 8.45312
L50.3438 0
L3.03125 0
Q2.9375 3.17188 4.04688 6.10938
Q5.85938 10.9375 9.82812 15.625
Q13.8125 20.3125 21.3438 26.4688
Q33.0156 36.0312 37.1094 41.625
Q41.2188 47.2188 41.2188 52.2031
Q41.2188 57.4219 37.4688 61
Q33.7344 64.5938 27.7344 64.5938
Q21.3906 64.5938 17.5781 60.7812
Q13.7656 56.9844 13.7188 50.25
L4.6875 51.1719
Q5.60938 61.2812 11.6562 66.5781
Q17.7188 71.875 27.9375 71.875
Q38.2344 71.875 44.2344 66.1562
Q50.25 60.4531 50.25 52
Q50.25 47.7031 48.4844 43.5469
Q46.7344 39.4062 42.6562 34.8125
Q38.5781 30.2188 29.1094 22.2188
Q21.1875 15.5781 18.9375 13.2031
Q16.7031 10.8438 15.2344 8.45312
z
" id="ArialMT-32"/>
      </defs>
      <g transform="translate(114.97125 192.187534091)scale(0.12 -0.12)">
       <use xlink:href="#ArialMT-32"/>
      </g>
     </g>
    </g>
    <g id="xtick_3">
     <g id="line2d_17">
      <g>
       <use style="stroke:#000000;stroke-width:0.5;" x="192.215625" xlink:href="#m93b0483c22" y="179.598159091"/>
      </g>
     </g>
     <g id="line2d_18">
      <g>
       <use style="stroke:#000000;stroke-width:0.5;" x="192.215625" xlink:href="#m741efc42ff" y="22.50725"/>
      </g>
     </g>
     <g id="text_3">
      <!-- 3 -->
      <defs>
       <path d="
M4.20312 18.8906
L12.9844 20.0625
Q14.5 12.5938 18.1406 9.29688
Q21.7812 6 27 6
Q33.2031 6 37.4688 10.2969
Q41.75 14.5938 41.75 20.9531
Q41.75 27 37.7969 30.9219
Q33.8438 34.8594 27.7344 34.8594
Q25.25 34.8594 21.5312 33.8906
L22.5156 41.6094
Q23.3906 41.5 23.9219 41.5
Q29.5469 41.5 34.0312 44.4219
Q38.5312 47.3594 38.5312 53.4688
Q38.5312 58.2969 35.25 61.4688
Q31.9844 64.6562 26.8125 64.6562
Q21.6875 64.6562 18.2656 61.4219
Q14.8438 58.2031 13.875 51.7656
L5.07812 53.3281
Q6.6875 62.1562 12.3906 67.0156
Q18.1094 71.875 26.6094 71.875
Q32.4688 71.875 37.3906 69.3594
Q42.3281 66.8438 44.9375 62.5
Q47.5625 58.1562 47.5625 53.2656
Q47.5625 48.6406 45.0625 44.8281
Q42.5781 41.0156 37.7031 38.7656
Q44.0469 37.3125 47.5625 32.6875
Q51.0781 28.0781 51.0781 21.1406
Q51.0781 11.7656 44.2344 5.25
Q37.4062 -1.26562 26.9531 -1.26562
Q17.5312 -1.26562 11.2969 4.34375
Q5.07812 9.96875 4.20312 18.8906" id="ArialMT-33"/>
      </defs>
      <g transform="translate(189.403125 192.187534091)scale(0.12 -0.12)">
       <use xlink:href="#ArialMT-33"/>
      </g>
     </g>
    </g>
    <g id="xtick_4">
     <g id="line2d_19">
      <g>
       <use style="stroke:#000000;stroke-width:0.5;" x="266.615625" xlink:href="#m93b0483c22" y="179.598159091"/>
      </g>
     </g>
     <g id="line2d_20">
      <g>
       <use style="stroke:#000000;stroke-width:0.5;" x="266.615625" xlink:href="#m741efc42ff" y="22.50725"/>
      </g>
     </g>
     <g id="text_4">
      <!-- 4 -->
      <defs>
       <path d="
M32.3281 0
L32.3281 17.1406
L1.26562 17.1406
L1.26562 25.2031
L33.9375 71.5781
L41.1094 71.5781
L41.1094 25.2031
L50.7812 25.2031
L50.7812 17.1406
L41.1094 17.1406
L41.1094 0
z

M32.3281 25.2031
L32.3281 57.4688
L9.90625 25.2031
z
" id="ArialMT-34"/>
      </defs>
      <g transform="translate(263.6446875 192.187534091)scale(0.12 -0.12)">
       <use xlink:href="#ArialMT-34"/>
      </g>
     </g>
    </g>
    <g id="xtick_5">
     <g id="line2d_21">
      <g>
       <use style="stroke:#000000;stroke-width:0.5;" x="341.015625" xlink:href="#m93b0483c22" y="179.598159091"/>
      </g>
     </g>
     <g id="line2d_22">
      <g>
       <use style="stroke:#000000;stroke-width:0.5;" x="341.015625" xlink:href="#m741efc42ff" y="22.50725"/>
      </g>
     </g>
     <g id="text_5">
      <!-- 5 -->
      <defs>
       <path d="
M4.15625 18.75
L13.375 19.5312
Q14.4062 12.7969 18.1406 9.39062
Q21.875 6 27.1562 6
Q33.5 6 37.8906 10.7812
Q42.2812 15.5781 42.2812 23.4844
Q42.2812 31 38.0625 35.3438
Q33.8438 39.7031 27 39.7031
Q22.75 39.7031 19.3281 37.7656
Q15.9219 35.8438 13.9688 32.7656
L5.71875 33.8438
L12.6406 70.6094
L48.25 70.6094
L48.25 62.2031
L19.6719 62.2031
L15.8281 42.9688
Q22.2656 47.4688 29.3438 47.4688
Q38.7188 47.4688 45.1562 40.9688
Q51.6094 34.4688 51.6094 24.2656
Q51.6094 14.5469 45.9531 7.46875
Q39.0625 -1.21875 27.1562 -1.21875
Q17.3906 -1.21875 11.2031 4.25
Q5.03125 9.71875 4.15625 18.75" id="ArialMT-35"/>
      </defs>
      <g transform="translate(338.1684375 192.187534091)scale(0.12 -0.12)">
       <use xlink:href="#ArialMT-35"/>
      </g>
     </g>
    </g>
    <g id="xtick_6">
     <g id="line2d_23">
      <g>
       <use style="stroke:#000000;stroke-width:0.5;" x="415.415625" xlink:href="#m93b0483c22" y="179.598159091"/>
      </g>
     </g>
     <g id="line2d_24">
      <g>
       <use style="stroke:#000000;stroke-width:0.5;" x="415.415625" xlink:href="#m741efc42ff" y="22.50725"/>
      </g>
     </g>
     <g id="text_6">
      <!-- 6 -->
      <defs>
       <path d="
M49.75 54.0469
L41.0156 53.375
Q39.8438 58.5469 37.7031 60.8906
Q34.125 64.6562 28.9062 64.6562
Q24.7031 64.6562 21.5312 62.3125
Q17.3906 59.2812 14.9844 53.4688
Q12.5938 47.6562 12.5 36.9219
Q15.6719 41.75 20.2656 44.0938
Q24.8594 46.4375 29.8906 46.4375
Q38.6719 46.4375 44.8438 39.9688
Q51.0312 33.5 51.0312 23.25
Q51.0312 16.5 48.125 10.7188
Q45.2188 4.9375 40.1406 1.85938
Q35.0625 -1.21875 28.6094 -1.21875
Q17.625 -1.21875 10.6875 6.85938
Q3.76562 14.9375 3.76562 33.5
Q3.76562 54.25 11.4219 63.6719
Q18.1094 71.875 29.4375 71.875
Q37.8906 71.875 43.2812 67.1406
Q48.6875 62.4062 49.75 54.0469
M13.875 23.1875
Q13.875 18.6562 15.7969 14.5
Q17.7188 10.3594 21.1875 8.17188
Q24.6562 6 28.4688 6
Q34.0312 6 38.0312 10.4844
Q42.0469 14.9844 42.0469 22.7031
Q42.0469 30.125 38.0781 34.3906
Q34.125 38.6719 28.125 38.6719
Q22.1719 38.6719 18.0156 34.3906
Q13.875 30.125 13.875 23.1875" id="ArialMT-36"/>
      </defs>
      <g transform="translate(412.5796875 192.187534091)scale(0.12 -0.12)">
       <use xlink:href="#ArialMT-36"/>
      </g>
     </g>
    </g>
    <g id="xtick_7">
     <g id="line2d_25">
      <g>
       <use style="stroke:#000000;stroke-width:0.5;" x="489.815625" xlink:href="#m93b0483c22" y="179.598159091"/>
      </g>
     </g>
     <g id="line2d_26">
      <g>
       <use style="stroke:#000000;stroke-width:0.5;" x="489.815625" xlink:href="#m741efc42ff" y="22.50725"/>
      </g>
     </g>
     <g id="text_7">
      <!-- 7 -->
      <defs>
       <path d="
M4.73438 62.2031
L4.73438 70.6562
L51.0781 70.6562
L51.0781 63.8125
Q44.2344 56.5469 37.5156 44.4844
Q30.8125 32.4219 27.1562 19.6719
Q24.5156 10.6875 23.7812 0
L14.75 0
Q14.8906 8.45312 18.0625 20.4062
Q21.2344 32.375 27.1719 43.4844
Q33.1094 54.5938 39.7969 62.2031
z
" id="ArialMT-37"/>
      </defs>
      <g transform="translate(487.035 192.187534091)scale(0.12 -0.12)">
       <use xlink:href="#ArialMT-37"/>
      </g>
     </g>
    </g>
   </g>
   <g id="matplotlib.axis_2">
    <g id="ytick_1">
     <g id="line2d_27">
      <defs>
       <path d="
M0 0
L4 0" id="m728421d6d4" style="stroke:#000000;stroke-width:0.5;"/>
      </defs>
      <g>
       <use style="stroke:#000000;stroke-width:0.5;" x="43.415625" xlink:href="#m728421d6d4" y="179.598159091"/>
      </g>
     </g>
     <g id="line2d_28">
      <defs>
       <path d="
M0 0
L-4 0" id="mcb0005524f" style="stroke:#000000;stroke-width:0.5;"/>
      </defs>
      <g>
       <use style="stroke:#000000;stroke-width:0.5;" x="489.815625" xlink:href="#mcb0005524f" y="179.598159091"/>
      </g>
     </g>
     <g id="text_8">
      <!-- 0 -->
      <defs>
       <path d="
M4.15625 35.2969
Q4.15625 48 6.76562 55.7344
Q9.375 63.4844 14.5156 67.6719
Q19.6719 71.875 27.4844 71.875
Q33.25 71.875 37.5938 69.5469
Q41.9375 67.2344 44.7656 62.8594
Q47.6094 58.5 49.2188 52.2188
Q50.8281 45.9531 50.8281 35.2969
Q50.8281 22.7031 48.2344 14.9688
Q45.6562 7.23438 40.5 3
Q35.3594 -1.21875 27.4844 -1.21875
Q17.1406 -1.21875 11.2344 6.20312
Q4.15625 15.1406 4.15625 35.2969
M13.1875 35.2969
Q13.1875 17.6719 17.3125 11.8281
Q21.4375 6 27.4844 6
Q33.5469 6 37.6719 11.8594
Q41.7969 17.7188 41.7969 35.2969
Q41.7969 52.9844 37.6719 58.7812
Q33.5469 64.5938 27.3906 64.5938
Q21.3438 64.5938 17.7188 59.4688
Q13.1875 52.9375 13.1875 35.2969" id="ArialMT-30"/>
      </defs>
      <g transform="translate(33.815 182.700346591)scale(0.12 -0.12)">
       <use xlink:href="#ArialMT-30"/>
      </g>
     </g>
    </g>
    <g id="ytick_2">
     <g id="line2d_29">
      <g>
       <use style="stroke:#000000;stroke-width:0.5;" x="43.415625" xlink:href="#m728421d6d4" y="157.156600649"/>
      </g>
     </g>
     <g id="line2d_30">
      <g>
       <use style="stroke:#000000;stroke-width:0.5;" x="489.815625" xlink:href="#mcb0005524f" y="157.156600649"/>
      </g>
     </g>
     <g id="text_9">
      <!-- 2 -->
      <g transform="translate(33.726875 160.258788149)scale(0.12 -0.12)">
       <use xlink:href="#ArialMT-32"/>
      </g>
     </g>
    </g>
    <g id="ytick_3">
     <g id="line2d_31">
      <g>
       <use style="stroke:#000000;stroke-width:0.5;" x="43.415625" xlink:href="#m728421d6d4" y="134.715042208"/>
      </g>
     </g>
     <g id="line2d_32">
      <g>
       <use style="stroke:#000000;stroke-width:0.5;" x="489.815625" xlink:href="#mcb0005524f" y="134.715042208"/>
      </g>
     </g>
     <g id="text_10">
      <!-- 4 -->
      <g transform="translate(33.47375 137.817229708)scale(0.12 -0.12)">
       <use xlink:href="#ArialMT-34"/>
      </g>
     </g>
    </g>
    <g id="ytick_4">
     <g id="line2d_33">
      <g>
       <use style="stroke:#000000;stroke-width:0.5;" x="43.415625" xlink:href="#m728421d6d4" y="112.273483766"/>
      </g>
     </g>
     <g id="line2d_34">
      <g>
       <use style="stroke:#000000;stroke-width:0.5;" x="489.815625" xlink:href="#mcb0005524f" y="112.273483766"/>
      </g>
     </g>
     <g id="text_11">
      <!-- 6 -->
      <g transform="translate(33.74375 115.375671266)scale(0.12 -0.12)">
       <use xlink:href="#ArialMT-36"/>
      </g>
     </g>
    </g>
    <g id="ytick_5">
     <g id="line2d_35">
      <g>
       <use style="stroke:#000000;stroke-width:0.5;" x="43.415625" xlink:href="#m728421d6d4" y="89.8319253247"/>
      </g>
     </g>
     <g id="line2d_36">
      <g>
       <use style="stroke:#000000;stroke-width:0.5;" x="489.815625" xlink:href="#mcb0005524f" y="89.8319253247"/>
      </g>
     </g>
     <g id="text_12">
      <!-- 8 -->
      <defs>
       <path d="
M17.6719 38.8125
Q12.2031 40.8281 9.5625 44.5312
Q6.9375 48.25 6.9375 53.4219
Q6.9375 61.2344 12.5469 66.5469
Q18.1719 71.875 27.4844 71.875
Q36.8594 71.875 42.5781 66.4219
Q48.2969 60.9844 48.2969 53.1719
Q48.2969 48.1875 45.6719 44.5
Q43.0625 40.8281 37.75 38.8125
Q44.3438 36.6719 47.7812 31.875
Q51.2188 27.0938 51.2188 20.4531
Q51.2188 11.2812 44.7188 5.03125
Q38.2344 -1.21875 27.6406 -1.21875
Q17.0469 -1.21875 10.5469 5.04688
Q4.04688 11.3281 4.04688 20.7031
Q4.04688 27.6875 7.59375 32.3906
Q11.1406 37.1094 17.6719 38.8125
M15.9219 53.7188
Q15.9219 48.6406 19.1875 45.4062
Q22.4688 42.1875 27.6875 42.1875
Q32.7656 42.1875 36.0156 45.375
Q39.2656 48.5781 39.2656 53.2188
Q39.2656 58.0625 35.9062 61.3594
Q32.5625 64.6562 27.5938 64.6562
Q22.5625 64.6562 19.2344 61.4219
Q15.9219 58.2031 15.9219 53.7188
M13.0938 20.6562
Q13.0938 16.8906 14.875 13.375
Q16.6562 9.85938 20.1719 7.92188
Q23.6875 6 27.7344 6
Q34.0312 6 38.125 10.0469
Q42.2344 14.1094 42.2344 20.3594
Q42.2344 26.7031 38.0156 30.8594
Q33.7969 35.0156 27.4375 35.0156
Q21.2344 35.0156 17.1562 30.9062
Q13.0938 26.8125 13.0938 20.6562" id="ArialMT-38"/>
      </defs>
      <g transform="translate(33.755 92.9341128247)scale(0.12 -0.12)">
       <use xlink:href="#ArialMT-38"/>
      </g>
     </g>
    </g>
    <g id="ytick_6">
     <g id="line2d_37">
      <g>
       <use style="stroke:#000000;stroke-width:0.5;" x="43.415625" xlink:href="#m728421d6d4" y="67.3903668831"/>
      </g>
     </g>
     <g id="line2d_38">
      <g>
       <use style="stroke:#000000;stroke-width:0.5;" x="489.815625" xlink:href="#mcb0005524f" y="67.3903668831"/>
      </g>
     </g>
     <g id="text_13">
      <!-- 10 -->
      <g transform="translate(27.95 70.4925543831)scale(0.12 -0.12)">
       <use xlink:href="#ArialMT-31"/>
       <use x="55.615234375" xlink:href="#ArialMT-30"/>
      </g>
     </g>
    </g>
    <g id="ytick_7">
     <g id="line2d_39">
      <g>
       <use style="stroke:#000000;stroke-width:0.5;" x="43.415625" xlink:href="#m728421d6d4" y="44.9488084416"/>
      </g>
     </g>
     <g id="line2d_40">
      <g>
       <use style="stroke:#000000;stroke-width:0.5;" x="489.815625" xlink:href="#mcb0005524f" y="44.9488084416"/>
      </g>
     </g>
     <g id="text_14">
      <!-- 12 -->
      <g transform="translate(28.008125 48.0509959416)scale(0.12 -0.12)">
       <use xlink:href="#ArialMT-31"/>
       <use x="55.615234375" xlink:href="#ArialMT-32"/>
      </g>
     </g>
    </g>
    <g id="ytick_8">
     <g id="line2d_41">
      <g>
       <use style="stroke:#000000;stroke-width:0.5;" x="43.415625" xlink:href="#m728421d6d4" y="22.50725"/>
      </g>
     </g>
     <g id="line2d_42">
      <g>
       <use style="stroke:#000000;stroke-width:0.5;" x="489.815625" xlink:href="#mcb0005524f" y="22.50725"/>
      </g>
     </g>
     <g id="text_15">
      <!-- 14 -->
      <g transform="translate(27.955625 25.6094375)scale(0.12 -0.12)">
       <use xlink:href="#ArialMT-31"/>
       <use x="55.615234375" xlink:href="#ArialMT-34"/>
      </g>
     </g>
    </g>
    <g id="text_16">
     <!-- g(r) -->
     <defs>
      <path d="
M4.98438 -4.29688
L13.5312 -5.5625
Q14.0625 -9.51562 16.5 -11.3281
Q19.7812 -13.7656 25.4375 -13.7656
Q31.5469 -13.7656 34.8594 -11.3281
Q38.1875 -8.89062 39.3594 -4.5
Q40.0469 -1.8125 39.9844 6.78125
Q34.2344 0 25.6406 0
Q14.9375 0 9.07812 7.71875
Q3.21875 15.4375 3.21875 26.2188
Q3.21875 33.6406 5.90625 39.9062
Q8.59375 46.1875 13.6875 49.6094
Q18.7969 53.0312 25.6875 53.0312
Q34.8594 53.0312 40.8281 45.6094
L40.8281 51.8594
L48.9219 51.8594
L48.9219 7.03125
Q48.9219 -5.07812 46.4531 -10.125
Q44 -15.1875 38.6406 -18.1094
Q33.2969 -21.0469 25.4844 -21.0469
Q16.2188 -21.0469 10.5 -16.875
Q4.78125 -12.7031 4.98438 -4.29688
M12.25 26.8594
Q12.25 16.6562 16.2969 11.9688
Q20.3594 7.28125 26.4688 7.28125
Q32.5156 7.28125 36.6094 11.9375
Q40.7188 16.6094 40.7188 26.5625
Q40.7188 36.0781 36.5 40.9062
Q32.2812 45.75 26.3125 45.75
Q20.4531 45.75 16.3438 40.9844
Q12.25 36.2344 12.25 26.8594" id="ArialMT-67"/>
      <path d="
M12.3594 -21.0469
L6.0625 -21.0469
Q20.6562 2.39062 20.6562 25.875
Q20.6562 35.0625 18.5625 44.0938
Q16.8906 51.4219 13.9219 58.1562
Q12.0156 62.5469 6.0625 72.7969
L12.3594 72.7969
Q21.5312 60.5469 25.9219 48.1875
Q29.6875 37.5469 29.6875 25.9219
Q29.6875 12.75 24.625 0.4375
Q19.5781 -11.8594 12.3594 -21.0469" id="ArialMT-29"/>
      <path d="
M6.5 0
L6.5 51.8594
L14.4062 51.8594
L14.4062 44
Q17.4375 49.5156 20 51.2656
Q22.5625 53.0312 25.6406 53.0312
Q30.0781 53.0312 34.6719 50.2031
L31.6406 42.0469
Q28.4219 43.9531 25.2031 43.9531
Q22.3125 43.9531 20.0156 42.2188
Q17.7188 40.4844 16.75 37.4062
Q15.2812 32.7188 15.2812 27.1562
L15.2812 0
z
" id="ArialMT-72"/>
      <path d="
M23.3906 -21.0469
Q16.1094 -11.8594 11.0781 0.4375
Q6.0625 12.75 6.0625 25.9219
Q6.0625 37.5469 9.8125 48.1875
Q14.2031 60.5469 23.3906 72.7969
L29.6875 72.7969
Q23.7812 62.6406 21.875 58.2969
Q18.8906 51.5625 17.1875 44.2344
Q15.0938 35.1094 15.0938 25.875
Q15.0938 2.39062 29.6875 -21.0469
z
" id="ArialMT-28"/>
     </defs>
     <g transform="translate(20.424375 109.973017045)rotate(-90.0)scale(0.12 -0.12)">
      <use xlink:href="#ArialMT-67"/>
      <use x="55.615234375" xlink:href="#ArialMT-28"/>
      <use x="88.916015625" xlink:href="#ArialMT-72"/>
      <use x="122.216796875" xlink:href="#ArialMT-29"/>
     </g>
    </g>
   </g>
   <g id="patch_3">
    <path d="
M43.4156 22.5072
L489.816 22.5072" style="fill:none;stroke:#000000;"/>
   </g>
   <g id="patch_4">
    <path d="
M489.816 179.598
L489.816 22.5072" style="fill:none;stroke:#000000;"/>
   </g>
   <g id="patch_5">
    <path d="
M43.4156 179.598
L489.816 179.598" style="fill:none;stroke:#000000;"/>
   </g>
   <g id="patch_6">
    <path d="
M43.4156 179.598
L43.4156 22.5072" style="fill:none;stroke:#000000;"/>
   </g>
   <g id="text_17">
    <!-- U-OW, U-HW -->
    <defs>
     <path d="
M8.01562 0
L8.01562 71.5781
L17.4844 71.5781
L17.4844 42.1875
L54.6875 42.1875
L54.6875 71.5781
L64.1562 71.5781
L64.1562 0
L54.6875 0
L54.6875 33.7344
L17.4844 33.7344
L17.4844 0
z
" id="ArialMT-48"/>
     <path d="
M3.17188 21.4844
L3.17188 30.3281
L30.1719 30.3281
L30.1719 21.4844
z
" id="ArialMT-2d"/>
     <path d="
M8.89062 0
L8.89062 10.0156
L18.8906 10.0156
L18.8906 0
Q18.8906 -5.51562 16.9375 -8.90625
Q14.9844 -12.3125 10.75 -14.1562
L8.29688 -10.4062
Q11.0781 -9.1875 12.3906 -6.8125
Q13.7188 -4.4375 13.875 0
z
" id="ArialMT-2c"/>
     <path d="
M20.2188 0
L1.21875 71.5781
L10.9375 71.5781
L21.8281 24.6562
Q23.5781 17.2812 24.8594 10.0156
Q27.5938 21.4844 28.0781 23.25
L41.7031 71.5781
L53.125 71.5781
L63.375 35.3594
Q67.2344 21.875 68.9531 10.0156
Q70.3125 16.7969 72.5156 25.5938
L83.7344 71.5781
L93.2656 71.5781
L73.6406 0
L64.5 0
L49.4219 54.5469
Q47.5156 61.375 47.1719 62.9375
Q46.0469 58.0156 45.0625 54.5469
L29.8906 0
z
" id="ArialMT-57"/>
     <path d="
M54.6875 71.5781
L64.1562 71.5781
L64.1562 30.2188
Q64.1562 19.4375 61.7188 13.0781
Q59.2812 6.73438 52.9062 2.75
Q46.5312 -1.21875 36.1875 -1.21875
Q26.125 -1.21875 19.7188 2.25
Q13.3281 5.71875 10.5938 12.2812
Q7.85938 18.8438 7.85938 30.2188
L7.85938 71.5781
L17.3281 71.5781
L17.3281 30.2812
Q17.3281 20.9531 19.0625 16.5312
Q20.7969 12.1094 25.0156 9.71875
Q29.25 7.32812 35.3594 7.32812
Q45.7969 7.32812 50.2344 12.0625
Q54.6875 16.7969 54.6875 30.2812
z
" id="ArialMT-55"/>
     <path d="
M4.82812 34.8594
Q4.82812 52.6875 14.3906 62.7656
Q23.9688 72.8594 39.1094 72.8594
Q49.0312 72.8594 56.9844 68.1094
Q64.9375 63.375 69.1094 54.9062
Q73.2969 46.4375 73.2969 35.6875
Q73.2969 24.8125 68.8906 16.2188
Q64.5 7.625 56.4375 3.20312
Q48.3906 -1.21875 39.0625 -1.21875
Q28.9531 -1.21875 20.9844 3.65625
Q13.0312 8.54688 8.92188 16.9844
Q4.82812 25.4375 4.82812 34.8594
M14.5938 34.7188
Q14.5938 21.7812 21.5469 14.3281
Q28.5156 6.89062 39.0156 6.89062
Q49.7031 6.89062 56.6094 14.4062
Q63.5312 21.9219 63.5312 35.75
Q63.5312 44.4844 60.5781 51
Q57.625 57.5156 51.9219 61.1094
Q46.2344 64.7031 39.1562 64.7031
Q29.1094 64.7031 21.8438 57.7812
Q14.5938 50.875 14.5938 34.7188" id="ArialMT-4f"/>
     <path id="ArialMT-20"/>
    </defs>
    <g transform="translate(223.505625 17.50725)scale(0.144 -0.144)">
     <use xlink:href="#ArialMT-55"/>
     <use x="72.216796875" xlink:href="#ArialMT-2d"/>
     <use x="105.517578125" xlink:href="#ArialMT-4f"/>
     <use x="183.30078125" xlink:href="#ArialMT-57"/>
     <use x="272.185546875" xlink:href="#ArialMT-2c"/>
     <use x="299.96875" xlink:href="#ArialMT-20"/>
     <use x="327.751953125" xlink:href="#ArialMT-55"/>
     <use x="399.96875" xlink:href="#ArialMT-2d"/>
     <use x="433.26953125" xlink:href="#ArialMT-48"/>
     <use x="505.486328125" xlink:href="#ArialMT-57"/>
    </g>
   </g>
  </g>
  <g id="axes_2">
   <g id="patch_7">
    <path d="
M43.4156 368.107
L489.816 368.107
L489.816 211.016
L43.4156 211.016
z
" style="fill:none;"/>
   </g>
   <g id="line2d_43">
    <path clip-path="url(#p7af6e845db)" d="
M43.3727 368.107
L151.538 368.018
L152.696 367.772
L153.861 367.294
L154.564 366.807
L155.269 366.07
L156.214 364.67
L157.64 362.015
L159.077 358.902
L159.799 357.004
L160.524 354.444
L161.252 350.85
L162.227 344.677
L164.687 327.037
L166.427 314.498
L167.177 310.301
L167.93 307.213
L168.434 305.771
L168.939 304.812
L169.953 303.391
L170.462 302.159
L170.972 300.065
L171.74 295.258
L173.026 284.985
L175.362 266.74
L177.197 252.865
L180.648 224.596
L181.184 221.963
L181.721 220.376
L182.26 219.66
L182.8 219.548
L183.342 219.769
L184.156 220.337
L184.701 220.962
L185.248 221.908
L185.795 223.276
L186.619 226.049
L189.111 235.96
L189.947 240.172
L190.787 245.552
L195.321 277.2
L195.894 280.004
L196.469 281.595
L196.756 281.785
L197.045 281.513
L197.333 280.825
L197.911 278.49
L200.239 265.809
L201.412 259.076
L202.591 250.491
L204.072 239.946
L204.966 235.148
L205.863 231.419
L206.763 228.492
L207.667 226.178
L208.878 223.8
L210.094 221.929
L211.624 219.913
L211.931 219.705
L212.238 219.702
L212.546 219.974
L212.854 220.594
L213.163 221.632
L213.781 225.225
L214.401 230.671
L217.524 261.834
L220.052 281.409
L221.964 295.037
L223.891 307.109
L225.832 317.655
L227.461 325.405
L228.772 330.534
L229.76 333.496
L230.751 335.782
L231.746 337.557
L233.078 339.385
L234.754 341.233
L236.439 342.804
L237.796 343.737
L239.159 344.378
L240.873 344.873
L244.333 345.495
L247.133 345.838
L249.961 345.96
L255.342 345.921
L260.826 345.62
L266.792 345.076
L276.357 343.946
L280.663 343.282
L286.231 342.255
L291.49 341.019
L296.007 339.706
L306.512 336.552
L308.653 336.178
L311.673 335.906
L313.847 335.897
L316.474 336.175
L320.007 336.547
L323.129 336.644
L327.182 336.509
L331.741 336.139
L335.43 335.58
L339.625 334.772
L344.817 333.424
L350.082 331.911
L360.339 328.64
L364.318 326.844
L367.834 325.036
L380.125 318.304
L382.21 317.426
L383.781 316.955
L385.885 316.569
L388.529 316.318
L390.657 316.307
L392.796 316.552
L395.484 317.158
L398.733 318.144
L402.006 319.405
L411.977 323.522
L415.351 324.598
L418.182 325.294
L421.604 325.884
L425.629 326.328
L435.553 327.114
L470.429 329.543
L480.679 329.833
L489.819 329.997
L489.819 329.997" style="fill:none;stroke:#ffffff;stroke-linecap:square;stroke-width:3.0;"/>
   </g>
   <g id="line2d_44">
    <path clip-path="url(#p7af6e845db)" d="
M43.3727 368.107
L151.538 368.018
L152.696 367.772
L153.861 367.294
L154.564 366.807
L155.269 366.07
L156.214 364.67
L157.64 362.015
L159.077 358.902
L159.799 357.004
L160.524 354.444
L161.252 350.85
L162.227 344.677
L164.687 327.037
L166.427 314.498
L167.177 310.301
L167.93 307.213
L168.434 305.771
L168.939 304.812
L169.953 303.391
L170.462 302.159
L170.972 300.065
L171.74 295.258
L173.026 284.985
L175.362 266.74
L177.197 252.865
L180.648 224.596
L181.184 221.963
L181.721 220.376
L182.26 219.66
L182.8 219.548
L183.342 219.769
L184.156 220.337
L184.701 220.962
L185.248 221.908
L185.795 223.276
L186.619 226.049
L189.111 235.96
L189.947 240.172
L190.787 245.552
L195.321 277.2
L195.894 280.004
L196.469 281.595
L196.756 281.785
L197.045 281.513
L197.333 280.825
L197.911 278.49
L200.239 265.809
L201.412 259.076
L202.591 250.491
L204.072 239.946
L204.966 235.148
L205.863 231.419
L206.763 228.492
L207.667 226.178
L208.878 223.8
L210.094 221.929
L211.624 219.913
L211.931 219.705
L212.238 219.702
L212.546 219.974
L212.854 220.594
L213.163 221.632
L213.781 225.225
L214.401 230.671
L217.524 261.834
L220.052 281.409
L221.964 295.037
L223.891 307.109
L225.832 317.655
L227.461 325.405
L228.772 330.534
L229.76 333.496
L230.751 335.782
L231.746 337.557
L233.078 339.385
L234.754 341.233
L236.439 342.804
L237.796 343.737
L239.159 344.378
L240.873 344.873
L244.333 345.495
L247.133 345.838
L249.961 345.96
L255.342 345.921
L260.826 345.62
L266.792 345.076
L276.357 343.946
L280.663 343.282
L286.231 342.255
L291.49 341.019
L296.007 339.706
L306.512 336.552
L308.653 336.178
L311.673 335.906
L313.847 335.897
L316.474 336.175
L320.007 336.547
L323.129 336.644
L327.182 336.509
L331.741 336.139
L335.43 335.58
L339.625 334.772
L344.817 333.424
L350.082 331.911
L360.339 328.64
L364.318 326.844
L367.834 325.036
L380.125 318.304
L382.21 317.426
L383.781 316.955
L385.885 316.569
L388.529 316.318
L390.657 316.307
L392.796 316.552
L395.484 317.158
L398.733 318.144
L402.006 319.405
L411.977 323.522
L415.351 324.598
L418.182 325.294
L421.604 325.884
L425.629 326.328
L435.553 327.114
L470.429 329.543
L480.679 329.833
L489.819 329.997
L489.819 329.997" style="fill:none;stroke:#ff0000;stroke-linecap:square;"/>
   </g>
   <g id="line2d_45">
    <path clip-path="url(#p7af6e845db)" d="
M43.3727 368.107
L65.6262 368.001
L66.6087 367.753
L67.7259 367.228
L68.3521 366.731
L68.9823 365.888
L69.8713 364.234
L70.7682 362.083
L71.5433 359.671
L72.455 356
L74.0369 348.396
L78.0984 328.403
L78.7904 326.509
L79.6266 324.845
L80.4692 323.611
L81.1762 322.928
L81.7451 322.666
L82.1736 322.718
L82.6038 323.047
L83.1799 323.845
L84.3409 325.957
L85.5138 328.601
L87.2954 333.225
L91.7142 345.345
L94.2225 351.046
L95.6559 353.936
L96.4593 355.074
L98.736 357.668
L100.887 359.783
L102.228 360.879
L103.412 361.526
L105.64 362.4
L108.61 363.34
L110.924 363.777
L114.192 364.174
L117.347 364.355
L122.112 364.4
L128.033 364.164
L132.726 363.777
L138.628 363.058
L144.298 362.102
L149.016 361.072
L153.394 359.894
L156.688 358.845
L161.739 356.945
L164.687 355.58
L168.939 353.387
L172.768 351.12
L176.146 348.858
L180.381 345.796
L186.619 340.722
L189.668 337.881
L195.607 332.047
L197.911 329.656
L209.485 318.722
L214.091 314.497
L223.568 305.634
L225.832 303.271
L227.461 301.139
L229.76 298.134
L231.746 295.642
L233.747 293.006
L234.418 292.379
L235.09 291.961
L235.764 291.743
L236.439 291.71
L237.117 291.852
L238.136 292.365
L239.159 293.199
L240.529 294.69
L241.561 295.769
L242.252 296.281
L242.944 296.54
L243.985 296.607
L245.38 296.618
L246.08 296.809
L246.781 297.239
L247.485 297.994
L248.19 299.155
L249.252 301.568
L252.101 308.752
L253.178 310.899
L254.258 312.586
L256.067 314.804
L257.888 317.18
L259.354 318.954
L260.457 319.912
L266.039 323.983
L270.2 327.753
L275.581 332.583
L278.307 334.583
L280.663 336.074
L283.037 337.283
L286.632 338.811
L289.457 339.789
L292.306 340.549
L296.007 341.295
L298.915 341.675
L302.27 341.868
L305.659 341.836
L308.224 341.577
L311.673 340.935
L319.121 339.47
L325.826 338.795
L333.581 338.255
L335.894 337.895
L338.688 337.179
L343.867 335.626
L346.723 334.745
L349.119 334.285
L353.957 333.42
L362.821 331.604
L375.986 328.565
L386.412 326.088
L393.332 324.699
L398.733 323.852
L404.202 323.198
L409.741 322.788
L415.351 322.582
L421.032 322.602
L426.785 322.847
L433.198 323.339
L440.894 324.205
L448.11 325.25
L469.795 328.618
L476.811 329.381
L483.274 329.87
L489.819 330.187
L489.819 330.187" style="fill:none;stroke:#ffffff;stroke-linecap:square;stroke-width:3.0;"/>
   </g>
   <g id="line2d_46">
    <path clip-path="url(#p7af6e845db)" d="
M43.3727 368.107
L65.6262 368.001
L66.6087 367.753
L67.7259 367.228
L68.3521 366.731
L68.9823 365.888
L69.8713 364.234
L70.7682 362.083
L71.5433 359.671
L72.455 356
L74.0369 348.396
L78.0984 328.403
L78.7904 326.509
L79.6266 324.845
L80.4692 323.611
L81.1762 322.928
L81.7451 322.666
L82.1736 322.718
L82.6038 323.047
L83.1799 323.845
L84.3409 325.957
L85.5138 328.601
L87.2954 333.225
L91.7142 345.345
L94.2225 351.046
L95.6559 353.936
L96.4593 355.074
L98.736 357.668
L100.887 359.783
L102.228 360.879
L103.412 361.526
L105.64 362.4
L108.61 363.34
L110.924 363.777
L114.192 364.174
L117.347 364.355
L122.112 364.4
L128.033 364.164
L132.726 363.777
L138.628 363.058
L144.298 362.102
L149.016 361.072
L153.394 359.894
L156.688 358.845
L161.739 356.945
L164.687 355.58
L168.939 353.387
L172.768 351.12
L176.146 348.858
L180.381 345.796
L186.619 340.722
L189.668 337.881
L195.607 332.047
L197.911 329.656
L209.485 318.722
L214.091 314.497
L223.568 305.634
L225.832 303.271
L227.461 301.139
L229.76 298.134
L231.746 295.642
L233.747 293.006
L234.418 292.379
L235.09 291.961
L235.764 291.743
L236.439 291.71
L237.117 291.852
L238.136 292.365
L239.159 293.199
L240.529 294.69
L241.561 295.769
L242.252 296.281
L242.944 296.54
L243.985 296.607
L245.38 296.618
L246.08 296.809
L246.781 297.239
L247.485 297.994
L248.19 299.155
L249.252 301.568
L252.101 308.752
L253.178 310.899
L254.258 312.586
L256.067 314.804
L257.888 317.18
L259.354 318.954
L260.457 319.912
L266.039 323.983
L270.2 327.753
L275.581 332.583
L278.307 334.583
L280.663 336.074
L283.037 337.283
L286.632 338.811
L289.457 339.789
L292.306 340.549
L296.007 341.295
L298.915 341.675
L302.27 341.868
L305.659 341.836
L308.224 341.577
L311.673 340.935
L319.121 339.47
L325.826 338.795
L333.581 338.255
L335.894 337.895
L338.688 337.179
L343.867 335.626
L346.723 334.745
L349.119 334.285
L353.957 333.42
L362.821 331.604
L375.986 328.565
L386.412 326.088
L393.332 324.699
L398.733 323.852
L404.202 323.198
L409.741 322.788
L415.351 322.582
L421.032 322.602
L426.785 322.847
L433.198 323.339
L440.894 324.205
L448.11 325.25
L469.795 328.618
L476.811 329.381
L483.274 329.87
L489.819 330.187
L489.819 330.187" style="fill:none;stroke:#0000ff;stroke-linecap:square;"/>
   </g>
   <g id="line2d_47">
    <path clip-path="url(#p7af6e845db)" d="
M43.3727 368.107
L148.108 368.002
L151.307 367.609
L152 367.068
L152.696 366.217
L153.627 364.637
L154.329 362.998
L155.034 360.73
L155.741 357.691
L156.925 351.489
L159.799 334.975
L161.983 322.714
L165.928 302.101
L166.927 298.3
L167.679 296.285
L168.434 294.941
L169.192 294.153
L169.699 293.625
L170.208 292.733
L170.717 291.16
L171.228 288.689
L172.254 282.001
L173.543 273.509
L174.84 266.527
L176.146 260.694
L178.517 251.3
L179.847 246.729
L180.648 244.777
L181.184 244.088
L181.453 243.973
L181.721 244.001
L182.26 244.399
L183.071 245.526
L184.974 248.654
L185.795 250.438
L188 255.725
L190.227 259.572
L191.068 261.917
L194.179 271.365
L195.035 273.306
L195.607 274.069
L195.894 274.18
L196.181 274.058
L196.469 273.666
L196.756 272.964
L197.333 270.604
L198.201 265.459
L199.655 256.415
L202.001 243.23
L203.479 234.439
L204.072 232
L204.668 230.466
L205.265 229.699
L205.564 229.556
L205.863 229.547
L206.463 229.86
L207.064 230.507
L207.969 231.872
L210.094 235.223
L211.011 236.315
L212.238 237.66
L212.854 238.871
L213.472 240.861
L214.091 243.838
L215.334 251.653
L216.896 261.376
L218.785 271.331
L223.247 294.684
L225.508 305.897
L227.788 316.166
L229.43 322.503
L230.751 326.739
L232.078 330.313
L233.747 334.105
L235.764 338.128
L237.117 340.348
L238.136 341.654
L239.159 342.646
L240.186 343.332
L241.561 343.913
L245.729 345.247
L247.837 345.62
L250.317 345.794
L255.342 345.901
L260.089 345.718
L265.289 345.309
L272.879 344.433
L283.037 342.973
L291.082 341.615
L299.751 339.907
L307.367 338.478
L312.107 337.899
L316.474 337.534
L323.577 336.967
L329.911 336.213
L334.042 335.547
L340.094 334.331
L347.68 332.378
L355.909 329.892
L358.857 328.906
L361.826 327.647
L367.329 325.047
L373.933 321.841
L378.051 320.126
L381.166 319.004
L383.257 318.455
L385.358 318.127
L388.529 317.879
L391.191 317.879
L393.332 318.085
L396.564 318.659
L399.821 319.454
L403.652 320.647
L411.977 323.345
L415.351 324.182
L418.751 324.81
L422.75 325.315
L462.876 329.397
L471.063 329.847
L480.679 330.146
L489.819 330.304
L489.819 330.304" style="fill:none;stroke:#ffffff;stroke-linecap:square;stroke-width:3.6;"/>
   </g>
   <g id="line2d_48">
    <path clip-path="url(#p7af6e845db)" d="
M43.3727 368.107
L148.108 368.002
L151.307 367.609
L152 367.068
L152.696 366.217
L153.627 364.637
L154.329 362.998
L155.034 360.73
L155.741 357.691
L156.925 351.489
L159.799 334.975
L161.983 322.714
L165.928 302.101
L166.927 298.3
L167.679 296.285
L168.434 294.941
L169.192 294.153
L169.699 293.625
L170.208 292.733
L170.717 291.16
L171.228 288.689
L172.254 282.001
L173.543 273.509
L174.84 266.527
L176.146 260.694
L178.517 251.3
L179.847 246.729
L180.648 244.777
L181.184 244.088
L181.453 243.973
L181.721 244.001
L182.26 244.399
L183.071 245.526
L184.974 248.654
L185.795 250.438
L188 255.725
L190.227 259.572
L191.068 261.917
L194.179 271.365
L195.035 273.306
L195.607 274.069
L195.894 274.18
L196.181 274.058
L196.469 273.666
L196.756 272.964
L197.333 270.604
L198.201 265.459
L199.655 256.415
L202.001 243.23
L203.479 234.439
L204.072 232
L204.668 230.466
L205.265 229.699
L205.564 229.556
L205.863 229.547
L206.463 229.86
L207.064 230.507
L207.969 231.872
L210.094 235.223
L211.011 236.315
L212.238 237.66
L212.854 238.871
L213.472 240.861
L214.091 243.838
L215.334 251.653
L216.896 261.376
L218.785 271.331
L223.247 294.684
L225.508 305.897
L227.788 316.166
L229.43 322.503
L230.751 326.739
L232.078 330.313
L233.747 334.105
L235.764 338.128
L237.117 340.348
L238.136 341.654
L239.159 342.646
L240.186 343.332
L241.561 343.913
L245.729 345.247
L247.837 345.62
L250.317 345.794
L255.342 345.901
L260.089 345.718
L265.289 345.309
L272.879 344.433
L283.037 342.973
L291.082 341.615
L299.751 339.907
L307.367 338.478
L312.107 337.899
L316.474 337.534
L323.577 336.967
L329.911 336.213
L334.042 335.547
L340.094 334.331
L347.68 332.378
L355.909 329.892
L358.857 328.906
L361.826 327.647
L367.329 325.047
L373.933 321.841
L378.051 320.126
L381.166 319.004
L383.257 318.455
L385.358 318.127
L388.529 317.879
L391.191 317.879
L393.332 318.085
L396.564 318.659
L399.821 319.454
L403.652 320.647
L411.977 323.345
L415.351 324.182
L418.751 324.81
L422.75 325.315
L462.876 329.397
L471.063 329.847
L480.679 330.146
L489.819 330.304
L489.819 330.304" style="fill:none;stroke:#ff0000;stroke-linecap:square;stroke-width:1.6;"/>
   </g>
   <g id="line2d_49">
    <path clip-path="url(#p7af6e845db)" d="
M43.3727 368.107
L65.5041 367.997
L66.3621 367.785
L67.3521 367.275
L68.1012 366.728
L68.7298 365.948
L69.4893 364.571
L70.3828 362.499
L71.2843 359.824
L72.3243 355.953
L74.1699 347.945
L76.3195 338.762
L78.0984 332.333
L78.7904 330.794
L79.6266 329.526
L80.4692 328.652
L81.3182 328.09
L81.8878 327.93
L82.3169 327.996
L82.8915 328.38
L83.759 329.324
L84.9259 330.909
L86.4012 333.418
L87.8953 336.38
L94.381 350.18
L95.8162 352.789
L96.9438 354.32
L99.394 357.234
L101.555 359.46
L102.734 360.39
L104.094 361.113
L106.855 362.282
L108.786 362.937
L110.924 363.408
L114.008 363.877
L116.972 364.125
L121.532 364.269
L126.83 364.151
L131.9 363.828
L137.772 363.201
L143.414 362.334
L147.881 361.449
L152.232 360.385
L156.451 359.152
L161.739 357.267
L164.687 355.966
L168.687 354.007
L172.254 351.99
L175.362 350
L180.113 346.641
L185.521 342.276
L188.277 339.809
L194.749 333.533
L198.491 329.662
L207.064 321.798
L214.091 316.099
L222.284 309.79
L225.508 306.776
L229.101 303.255
L230.751 302.199
L234.082 300.352
L235.09 300.125
L236.101 300.108
L237.456 300.326
L238.477 300.675
L239.501 301.246
L240.873 302.382
L244.682 305.833
L246.781 307.798
L248.544 309.796
L251.744 313.659
L253.897 315.771
L256.431 317.914
L258.62 319.548
L260.457 320.654
L263.794 322.553
L271.728 327.764
L276.746 331.355
L281.058 333.989
L283.833 335.417
L287.437 337.015
L290.675 338.248
L293.946 339.239
L297.25 340.021
L300.169 340.492
L303.114 340.758
L306.085 340.811
L308.224 340.64
L311.24 340.155
L319.564 338.703
L327.182 338.123
L332.66 337.806
L335.43 337.477
L338.221 336.843
L347.201 334.648
L354.444 333.381
L363.32 331.671
L373.933 329.282
L385.885 326.542
L392.796 325.188
L398.733 324.271
L404.753 323.57
L410.299 323.163
L415.916 322.947
L421.604 322.942
L427.365 323.153
L433.786 323.6
L441.491 324.396
L448.717 325.372
L472.335 328.744
L480.032 329.494
L487.191 329.965
L489.819 330.097
L489.819 330.097" style="fill:none;stroke:#ffffff;stroke-linecap:square;stroke-width:3.6;"/>
   </g>
   <g id="line2d_50">
    <path clip-path="url(#p7af6e845db)" d="
M43.3727 368.107
L65.5041 367.997
L66.3621 367.785
L67.3521 367.275
L68.1012 366.728
L68.7298 365.948
L69.4893 364.571
L70.3828 362.499
L71.2843 359.824
L72.3243 355.953
L74.1699 347.945
L76.3195 338.762
L78.0984 332.333
L78.7904 330.794
L79.6266 329.526
L80.4692 328.652
L81.3182 328.09
L81.8878 327.93
L82.3169 327.996
L82.8915 328.38
L83.759 329.324
L84.9259 330.909
L86.4012 333.418
L87.8953 336.38
L94.381 350.18
L95.8162 352.789
L96.9438 354.32
L99.394 357.234
L101.555 359.46
L102.734 360.39
L104.094 361.113
L106.855 362.282
L108.786 362.937
L110.924 363.408
L114.008 363.877
L116.972 364.125
L121.532 364.269
L126.83 364.151
L131.9 363.828
L137.772 363.201
L143.414 362.334
L147.881 361.449
L152.232 360.385
L156.451 359.152
L161.739 357.267
L164.687 355.966
L168.687 354.007
L172.254 351.99
L175.362 350
L180.113 346.641
L185.521 342.276
L188.277 339.809
L194.749 333.533
L198.491 329.662
L207.064 321.798
L214.091 316.099
L222.284 309.79
L225.508 306.776
L229.101 303.255
L230.751 302.199
L234.082 300.352
L235.09 300.125
L236.101 300.108
L237.456 300.326
L238.477 300.675
L239.501 301.246
L240.873 302.382
L244.682 305.833
L246.781 307.798
L248.544 309.796
L251.744 313.659
L253.897 315.771
L256.431 317.914
L258.62 319.548
L260.457 320.654
L263.794 322.553
L271.728 327.764
L276.746 331.355
L281.058 333.989
L283.833 335.417
L287.437 337.015
L290.675 338.248
L293.946 339.239
L297.25 340.021
L300.169 340.492
L303.114 340.758
L306.085 340.811
L308.224 340.64
L311.24 340.155
L319.564 338.703
L327.182 338.123
L332.66 337.806
L335.43 337.477
L338.221 336.843
L347.201 334.648
L354.444 333.381
L363.32 331.671
L373.933 329.282
L385.885 326.542
L392.796 325.188
L398.733 324.271
L404.753 323.57
L410.299 323.163
L415.916 322.947
L421.604 322.942
L427.365 323.153
L433.786 323.6
L441.491 324.396
L448.717 325.372
L472.335 328.744
L480.032 329.494
L487.191 329.965
L489.819 330.097
L489.819 330.097" style="fill:none;stroke:#0000ff;stroke-linecap:square;stroke-width:1.6;"/>
   </g>
   <g id="line2d_51">
    <path clip-path="url(#p7af6e845db)" d="
M43.3727 368.107
L142.973 368.215
L143.634 368.234
L144.077 368.092
L144.742 367.553
L145.633 366.421
L146.754 364.719
L147.429 363.294
L148.108 361.268
L149.016 357.734
L153.161 340.459
L155.505 332.032
L157.401 326.066
L158.836 322.083
L161.009 316.965
L162.962 311.916
L165.679 304.157
L168.687 294.97
L171.228 286.823
L172.768 283.115
L174.58 279.263
L175.623 277.615
L176.934 276.066
L178.253 274.755
L179.048 274.171
L179.847 273.838
L180.381 273.79
L180.916 273.902
L181.453 274.193
L182.26 274.903
L185.521 278.309
L186.895 280.403
L187.447 280.77
L187.723 280.727
L188 280.502
L188.555 279.593
L189.389 277.542
L190.507 274.776
L191.912 272.046
L193.894 268.165
L195.894 264.114
L196.469 263.338
L197.045 262.952
L197.622 262.953
L198.201 263.211
L199.947 264.231
L201.118 264.607
L202.886 265.052
L203.479 265.374
L204.072 265.888
L204.966 267.025
L206.163 268.983
L210.094 275.725
L212.546 279.753
L213.781 282.178
L216.27 287.852
L219.734 295.339
L224.86 306.057
L227.461 311.011
L230.751 316.744
L233.747 321.514
L237.117 326.437
L240.186 330.612
L243.29 334.437
L246.43 337.939
L248.19 339.628
L250.317 341.313
L252.818 343.056
L254.258 343.843
L255.705 344.396
L257.159 344.708
L259.354 344.887
L263.794 345.059
L267.924 344.874
L274.807 344.371
L283.037 343.526
L292.306 342.325
L312.541 339.275
L323.577 337.482
L331.741 335.825
L339.156 334.017
L347.68 331.664
L356.889 328.911
L359.844 327.822
L367.834 324.625
L370.872 323.628
L373.933 322.876
L378.051 322.125
L381.688 321.678
L384.832 321.518
L389.592 321.55
L393.332 321.759
L398.19 322.274
L404.202 323.15
L410.299 324.053
L413.661 324.29
L424.475 324.755
L430.272 325.411
L445.693 327.464
L456.053 328.778
L463.501 329.502
L471.063 330.018
L480.032 330.408
L489.819 330.603
L489.819 330.603" style="fill:none;stroke:#ffffff;stroke-linecap:square;stroke-width:4.56;"/>
   </g>
   <g id="line2d_52">
    <path clip-path="url(#p7af6e845db)" d="
M43.3727 368.107
L142.973 368.215
L143.634 368.234
L144.077 368.092
L144.742 367.553
L145.633 366.421
L146.754 364.719
L147.429 363.294
L148.108 361.268
L149.016 357.734
L153.161 340.459
L155.505 332.032
L157.401 326.066
L158.836 322.083
L161.009 316.965
L162.962 311.916
L165.679 304.157
L168.687 294.97
L171.228 286.823
L172.768 283.115
L174.58 279.263
L175.623 277.615
L176.934 276.066
L178.253 274.755
L179.048 274.171
L179.847 273.838
L180.381 273.79
L180.916 273.902
L181.453 274.193
L182.26 274.903
L185.521 278.309
L186.895 280.403
L187.447 280.77
L187.723 280.727
L188 280.502
L188.555 279.593
L189.389 277.542
L190.507 274.776
L191.912 272.046
L193.894 268.165
L195.894 264.114
L196.469 263.338
L197.045 262.952
L197.622 262.953
L198.201 263.211
L199.947 264.231
L201.118 264.607
L202.886 265.052
L203.479 265.374
L204.072 265.888
L204.966 267.025
L206.163 268.983
L210.094 275.725
L212.546 279.753
L213.781 282.178
L216.27 287.852
L219.734 295.339
L224.86 306.057
L227.461 311.011
L230.751 316.744
L233.747 321.514
L237.117 326.437
L240.186 330.612
L243.29 334.437
L246.43 337.939
L248.19 339.628
L250.317 341.313
L252.818 343.056
L254.258 343.843
L255.705 344.396
L257.159 344.708
L259.354 344.887
L263.794 345.059
L267.924 344.874
L274.807 344.371
L283.037 343.526
L292.306 342.325
L312.541 339.275
L323.577 337.482
L331.741 335.825
L339.156 334.017
L347.68 331.664
L356.889 328.911
L359.844 327.822
L367.834 324.625
L370.872 323.628
L373.933 322.876
L378.051 322.125
L381.688 321.678
L384.832 321.518
L389.592 321.55
L393.332 321.759
L398.19 322.274
L404.202 323.15
L410.299 324.053
L413.661 324.29
L424.475 324.755
L430.272 325.411
L445.693 327.464
L456.053 328.778
L463.501 329.502
L471.063 330.018
L480.032 330.408
L489.819 330.603
L489.819 330.603" style="fill:none;stroke:#ff0000;stroke-linecap:square;stroke-width:2.56;"/>
   </g>
   <g id="line2d_53">
    <path clip-path="url(#p7af6e845db)" d="
M43.3727 368.107
L64.412 368
L66.2391 367.767
L66.8558 367.376
L68.3521 365.994
L68.9823 365.083
L69.7438 363.592
L70.8969 360.765
L71.933 357.666
L73.7716 352.06
L75.5083 347.24
L76.4553 345.287
L78.2364 342.207
L79.0684 341.248
L79.9067 340.644
L80.7515 340.308
L82.0306 340.031
L82.7476 340.097
L84.0496 340.553
L85.2194 341.131
L86.9966 342.309
L88.4982 343.575
L90.479 345.584
L97.9183 353.371
L101.053 356.22
L103.242 357.971
L105.123 359.166
L108.257 360.905
L110.029 361.64
L112.73 362.456
L115.483 363.058
L118.666 363.466
L122.306 363.729
L127.23 363.794
L131.489 363.652
L136.92 363.228
L141.658 362.641
L146.754 361.799
L151.538 360.769
L156.214 359.532
L161.739 357.741
L165.43 356.262
L168.939 354.697
L173.026 352.591
L176.146 350.74
L180.648 347.8
L186.619 343.325
L195.035 336.515
L198.782 333.263
L205.863 327.689
L210.705 324.429
L214.401 322.151
L217.524 320.64
L225.183 317.205
L228.444 316.061
L230.09 315.751
L233.078 315.496
L234.754 315.531
L237.456 315.901
L240.873 316.549
L243.29 317.237
L258.62 322.176
L261.565 323.052
L265.289 324.413
L274.807 328.169
L279.091 329.868
L292.306 334.627
L296.007 335.669
L301.008 336.86
L303.96 337.296
L306.512 337.477
L309.083 337.398
L319.564 336.705
L324.475 336.667
L333.581 336.452
L336.358 336.142
L347.201 334.553
L357.38 333.022
L365.821 331.529
L392.796 326.492
L399.277 325.631
L405.857 324.969
L412.537 324.534
L419.32 324.311
L425.629 324.312
L433.198 324.537
L441.491 325.047
L449.931 325.81
L466.009 327.544
L478.097 328.724
L487.847 329.453
L489.819 329.575
L489.819 329.575" style="fill:none;stroke:#ffffff;stroke-linecap:square;stroke-width:4.56;"/>
   </g>
   <g id="line2d_54">
    <path clip-path="url(#p7af6e845db)" d="
M43.3727 368.107
L64.412 368
L66.2391 367.767
L66.8558 367.376
L68.3521 365.994
L68.9823 365.083
L69.7438 363.592
L70.8969 360.765
L71.933 357.666
L73.7716 352.06
L75.5083 347.24
L76.4553 345.287
L78.2364 342.207
L79.0684 341.248
L79.9067 340.644
L80.7515 340.308
L82.0306 340.031
L82.7476 340.097
L84.0496 340.553
L85.2194 341.131
L86.9966 342.309
L88.4982 343.575
L90.479 345.584
L97.9183 353.371
L101.053 356.22
L103.242 357.971
L105.123 359.166
L108.257 360.905
L110.029 361.64
L112.73 362.456
L115.483 363.058
L118.666 363.466
L122.306 363.729
L127.23 363.794
L131.489 363.652
L136.92 363.228
L141.658 362.641
L146.754 361.799
L151.538 360.769
L156.214 359.532
L161.739 357.741
L165.43 356.262
L168.939 354.697
L173.026 352.591
L176.146 350.74
L180.648 347.8
L186.619 343.325
L195.035 336.515
L198.782 333.263
L205.863 327.689
L210.705 324.429
L214.401 322.151
L217.524 320.64
L225.183 317.205
L228.444 316.061
L230.09 315.751
L233.078 315.496
L234.754 315.531
L237.456 315.901
L240.873 316.549
L243.29 317.237
L258.62 322.176
L261.565 323.052
L265.289 324.413
L274.807 328.169
L279.091 329.868
L292.306 334.627
L296.007 335.669
L301.008 336.86
L303.96 337.296
L306.512 337.477
L309.083 337.398
L319.564 336.705
L324.475 336.667
L333.581 336.452
L336.358 336.142
L347.201 334.553
L357.38 333.022
L365.821 331.529
L392.796 326.492
L399.277 325.631
L405.857 324.969
L412.537 324.534
L419.32 324.311
L425.629 324.312
L433.198 324.537
L441.491 325.047
L449.931 325.81
L466.009 327.544
L478.097 328.724
L487.847 329.453
L489.819 329.575
L489.819 329.575" style="fill:none;stroke:#0000ff;stroke-linecap:square;stroke-width:2.56;"/>
   </g>
   <g id="matplotlib.axis_3">
    <g id="xtick_8">
     <g id="line2d_55">
      <g>
       <use style="stroke:#000000;stroke-width:0.5;" x="43.415625" xlink:href="#m93b0483c22" y="368.10725"/>
      </g>
     </g>
     <g id="line2d_56">
      <g>
       <use style="stroke:#000000;stroke-width:0.5;" x="43.415625" xlink:href="#m741efc42ff" y="211.016340909"/>
      </g>
     </g>
     <g id="text_18">
      <!-- 1 -->
      <g transform="translate(41.8340625 380.696625)scale(0.12 -0.12)">
       <use xlink:href="#ArialMT-31"/>
      </g>
     </g>
    </g>
    <g id="xtick_9">
     <g id="line2d_57">
      <g>
       <use style="stroke:#000000;stroke-width:0.5;" x="117.815625" xlink:href="#m93b0483c22" y="368.10725"/>
      </g>
     </g>
     <g id="line2d_58">
      <g>
       <use style="stroke:#000000;stroke-width:0.5;" x="117.815625" xlink:href="#m741efc42ff" y="211.016340909"/>
      </g>
     </g>
     <g id="text_19">
      <!-- 2 -->
      <g transform="translate(114.97125 380.696625)scale(0.12 -0.12)">
       <use xlink:href="#ArialMT-32"/>
      </g>
     </g>
    </g>
    <g id="xtick_10">
     <g id="line2d_59">
      <g>
       <use style="stroke:#000000;stroke-width:0.5;" x="192.215625" xlink:href="#m93b0483c22" y="368.10725"/>
      </g>
     </g>
     <g id="line2d_60">
      <g>
       <use style="stroke:#000000;stroke-width:0.5;" x="192.215625" xlink:href="#m741efc42ff" y="211.016340909"/>
      </g>
     </g>
     <g id="text_20">
      <!-- 3 -->
      <g transform="translate(189.403125 380.696625)scale(0.12 -0.12)">
       <use xlink:href="#ArialMT-33"/>
      </g>
     </g>
    </g>
    <g id="xtick_11">
     <g id="line2d_61">
      <g>
       <use style="stroke:#000000;stroke-width:0.5;" x="266.615625" xlink:href="#m93b0483c22" y="368.10725"/>
      </g>
     </g>
     <g id="line2d_62">
      <g>
       <use style="stroke:#000000;stroke-width:0.5;" x="266.615625" xlink:href="#m741efc42ff" y="211.016340909"/>
      </g>
     </g>
     <g id="text_21">
      <!-- 4 -->
      <g transform="translate(263.6446875 380.696625)scale(0.12 -0.12)">
       <use xlink:href="#ArialMT-34"/>
      </g>
     </g>
    </g>
    <g id="xtick_12">
     <g id="line2d_63">
      <g>
       <use style="stroke:#000000;stroke-width:0.5;" x="341.015625" xlink:href="#m93b0483c22" y="368.10725"/>
      </g>
     </g>
     <g id="line2d_64">
      <g>
       <use style="stroke:#000000;stroke-width:0.5;" x="341.015625" xlink:href="#m741efc42ff" y="211.016340909"/>
      </g>
     </g>
     <g id="text_22">
      <!-- 5 -->
      <g transform="translate(338.1684375 380.696625)scale(0.12 -0.12)">
       <use xlink:href="#ArialMT-35"/>
      </g>
     </g>
    </g>
    <g id="xtick_13">
     <g id="line2d_65">
      <g>
       <use style="stroke:#000000;stroke-width:0.5;" x="415.415625" xlink:href="#m93b0483c22" y="368.10725"/>
      </g>
     </g>
     <g id="line2d_66">
      <g>
       <use style="stroke:#000000;stroke-width:0.5;" x="415.415625" xlink:href="#m741efc42ff" y="211.016340909"/>
      </g>
     </g>
     <g id="text_23">
      <!-- 6 -->
      <g transform="translate(412.5796875 380.696625)scale(0.12 -0.12)">
       <use xlink:href="#ArialMT-36"/>
      </g>
     </g>
    </g>
    <g id="xtick_14">
     <g id="line2d_67">
      <g>
       <use style="stroke:#000000;stroke-width:0.5;" x="489.815625" xlink:href="#m93b0483c22" y="368.10725"/>
      </g>
     </g>
     <g id="line2d_68">
      <g>
       <use style="stroke:#000000;stroke-width:0.5;" x="489.815625" xlink:href="#m741efc42ff" y="211.016340909"/>
      </g>
     </g>
     <g id="text_24">
      <!-- 7 -->
      <g transform="translate(487.035 380.696625)scale(0.12 -0.12)">
       <use xlink:href="#ArialMT-37"/>
      </g>
     </g>
    </g>
    <g id="text_25">
     <!-- r, A -->
     <defs>
      <path d="
M-0.140625 0
L27.3438 71.5781
L37.5469 71.5781
L66.8438 0
L56.0625 0
L47.7031 21.6875
L17.7812 21.6875
L9.90625 0
z

M20.5156 29.3906
L44.7812 29.3906
L37.3125 49.2188
Q33.8906 58.25 32.2344 64.0625
Q30.8594 57.1719 28.375 50.3906
z
" id="ArialMT-41"/>
     </defs>
     <g transform="translate(257.9334375 396.671)scale(0.12 -0.12)">
      <use xlink:href="#ArialMT-72"/>
      <use x="27.80078125" xlink:href="#ArialMT-2c"/>
      <use x="55.583984375" xlink:href="#ArialMT-20"/>
      <use x="77.8671875" xlink:href="#ArialMT-41"/>
     </g>
    </g>
   </g>
   <g id="matplotlib.axis_4">
    <g id="ytick_9">
     <g id="line2d_69">
      <g>
       <use style="stroke:#000000;stroke-width:0.5;" x="43.415625" xlink:href="#m728421d6d4" y="368.10725"/>
      </g>
     </g>
     <g id="line2d_70">
      <g>
       <use style="stroke:#000000;stroke-width:0.5;" x="489.815625" xlink:href="#mcb0005524f" y="368.10725"/>
      </g>
     </g>
     <g id="text_26">
      <!-- 0.0 -->
      <defs>
       <path d="
M9.07812 0
L9.07812 10.0156
L19.0938 10.0156
L19.0938 0
z
" id="ArialMT-2e"/>
      </defs>
      <g transform="translate(23.808125 371.2094375)scale(0.12 -0.12)">
       <use xlink:href="#ArialMT-30"/>
       <use x="55.615234375" xlink:href="#ArialMT-2e"/>
       <use x="83.3984375" xlink:href="#ArialMT-30"/>
      </g>
     </g>
    </g>
    <g id="ytick_10">
     <g id="line2d_71">
      <g>
       <use style="stroke:#000000;stroke-width:0.5;" x="43.415625" xlink:href="#m728421d6d4" y="348.470886364"/>
      </g>
     </g>
     <g id="line2d_72">
      <g>
       <use style="stroke:#000000;stroke-width:0.5;" x="489.815625" xlink:href="#mcb0005524f" y="348.470886364"/>
      </g>
     </g>
     <g id="text_27">
      <!-- 0.5 -->
      <g transform="translate(23.714375 351.573073864)scale(0.12 -0.12)">
       <use xlink:href="#ArialMT-30"/>
       <use x="55.615234375" xlink:href="#ArialMT-2e"/>
       <use x="83.3984375" xlink:href="#ArialMT-35"/>
      </g>
     </g>
    </g>
    <g id="ytick_11">
     <g id="line2d_73">
      <g>
       <use style="stroke:#000000;stroke-width:0.5;" x="43.415625" xlink:href="#m728421d6d4" y="328.834522727"/>
      </g>
     </g>
     <g id="line2d_74">
      <g>
       <use style="stroke:#000000;stroke-width:0.5;" x="489.815625" xlink:href="#mcb0005524f" y="328.834522727"/>
      </g>
     </g>
     <g id="text_28">
      <!-- 1.0 -->
      <g transform="translate(24.61625 331.936710227)scale(0.12 -0.12)">
       <use xlink:href="#ArialMT-31"/>
       <use x="55.615234375" xlink:href="#ArialMT-2e"/>
       <use x="83.3984375" xlink:href="#ArialMT-30"/>
      </g>
     </g>
    </g>
    <g id="ytick_12">
     <g id="line2d_75">
      <g>
       <use style="stroke:#000000;stroke-width:0.5;" x="43.415625" xlink:href="#m728421d6d4" y="309.198159091"/>
      </g>
     </g>
     <g id="line2d_76">
      <g>
       <use style="stroke:#000000;stroke-width:0.5;" x="489.815625" xlink:href="#mcb0005524f" y="309.198159091"/>
      </g>
     </g>
     <g id="text_29">
      <!-- 1.5 -->
      <g transform="translate(24.5225 312.300346591)scale(0.12 -0.12)">
       <use xlink:href="#ArialMT-31"/>
       <use x="55.615234375" xlink:href="#ArialMT-2e"/>
       <use x="83.3984375" xlink:href="#ArialMT-35"/>
      </g>
     </g>
    </g>
    <g id="ytick_13">
     <g id="line2d_77">
      <g>
       <use style="stroke:#000000;stroke-width:0.5;" x="43.415625" xlink:href="#m728421d6d4" y="289.561795455"/>
      </g>
     </g>
     <g id="line2d_78">
      <g>
       <use style="stroke:#000000;stroke-width:0.5;" x="489.815625" xlink:href="#mcb0005524f" y="289.561795455"/>
      </g>
     </g>
     <g id="text_30">
      <!-- 2.0 -->
      <g transform="translate(23.661875 292.663982955)scale(0.12 -0.12)">
       <use xlink:href="#ArialMT-32"/>
       <use x="55.615234375" xlink:href="#ArialMT-2e"/>
       <use x="83.3984375" xlink:href="#ArialMT-30"/>
      </g>
     </g>
    </g>
    <g id="ytick_14">
     <g id="line2d_79">
      <g>
       <use style="stroke:#000000;stroke-width:0.5;" x="43.415625" xlink:href="#m728421d6d4" y="269.925431818"/>
      </g>
     </g>
     <g id="line2d_80">
      <g>
       <use style="stroke:#000000;stroke-width:0.5;" x="489.815625" xlink:href="#mcb0005524f" y="269.925431818"/>
      </g>
     </g>
     <g id="text_31">
      <!-- 2.5 -->
      <g transform="translate(23.568125 273.027619318)scale(0.12 -0.12)">
       <use xlink:href="#ArialMT-32"/>
       <use x="55.615234375" xlink:href="#ArialMT-2e"/>
       <use x="83.3984375" xlink:href="#ArialMT-35"/>
      </g>
     </g>
    </g>
    <g id="ytick_15">
     <g id="line2d_81">
      <g>
       <use style="stroke:#000000;stroke-width:0.5;" x="43.415625" xlink:href="#m728421d6d4" y="250.289068182"/>
      </g>
     </g>
     <g id="line2d_82">
      <g>
       <use style="stroke:#000000;stroke-width:0.5;" x="489.815625" xlink:href="#mcb0005524f" y="250.289068182"/>
      </g>
     </g>
     <g id="text_32">
      <!-- 3.0 -->
      <g transform="translate(23.81375 253.391255682)scale(0.12 -0.12)">
       <use xlink:href="#ArialMT-33"/>
       <use x="55.615234375" xlink:href="#ArialMT-2e"/>
       <use x="83.3984375" xlink:href="#ArialMT-30"/>
      </g>
     </g>
    </g>
    <g id="ytick_16">
     <g id="line2d_83">
      <g>
       <use style="stroke:#000000;stroke-width:0.5;" x="43.415625" xlink:href="#m728421d6d4" y="230.652704545"/>
      </g>
     </g>
     <g id="line2d_84">
      <g>
       <use style="stroke:#000000;stroke-width:0.5;" x="489.815625" xlink:href="#mcb0005524f" y="230.652704545"/>
      </g>
     </g>
     <g id="text_33">
      <!-- 3.5 -->
      <g transform="translate(23.72 233.754892045)scale(0.12 -0.12)">
       <use xlink:href="#ArialMT-33"/>
       <use x="55.615234375" xlink:href="#ArialMT-2e"/>
       <use x="83.3984375" xlink:href="#ArialMT-35"/>
      </g>
     </g>
    </g>
    <g id="ytick_17">
     <g id="line2d_85">
      <g>
       <use style="stroke:#000000;stroke-width:0.5;" x="43.415625" xlink:href="#m728421d6d4" y="211.016340909"/>
      </g>
     </g>
     <g id="line2d_86">
      <g>
       <use style="stroke:#000000;stroke-width:0.5;" x="489.815625" xlink:href="#mcb0005524f" y="211.016340909"/>
      </g>
     </g>
     <g id="text_34">
      <!-- 4.0 -->
      <g transform="translate(23.46125 214.118528409)scale(0.12 -0.12)">
       <use xlink:href="#ArialMT-34"/>
       <use x="55.615234375" xlink:href="#ArialMT-2e"/>
       <use x="83.3984375" xlink:href="#ArialMT-30"/>
      </g>
     </g>
    </g>
    <g id="text_35">
     <!-- g(r) -->
     <g transform="translate(15.935625 298.482107955)rotate(-90.0)scale(0.12 -0.12)">
      <use xlink:href="#ArialMT-67"/>
      <use x="55.615234375" xlink:href="#ArialMT-28"/>
      <use x="88.916015625" xlink:href="#ArialMT-72"/>
      <use x="122.216796875" xlink:href="#ArialMT-29"/>
     </g>
    </g>
   </g>
   <g id="patch_8">
    <path d="
M43.4156 211.016
L489.816 211.016" style="fill:none;stroke:#000000;"/>
   </g>
   <g id="patch_9">
    <path d="
M489.816 368.107
L489.816 211.016" style="fill:none;stroke:#000000;"/>
   </g>
   <g id="patch_10">
    <path d="
M43.4156 368.107
L489.816 368.107" style="fill:none;stroke:#000000;"/>
   </g>
   <g id="patch_11">
    <path d="
M43.4156 368.107
L43.4156 211.016" style="fill:none;stroke:#000000;"/>
   </g>
   <g id="text_36">
    <!-- O-OW, O-HW -->
    <g transform="translate(222.704625 206.016340909)scale(0.144 -0.144)">
     <use xlink:href="#ArialMT-4f"/>
     <use x="77.783203125" xlink:href="#ArialMT-2d"/>
     <use x="111.083984375" xlink:href="#ArialMT-4f"/>
     <use x="188.8671875" xlink:href="#ArialMT-57"/>
     <use x="277.751953125" xlink:href="#ArialMT-2c"/>
     <use x="305.53515625" xlink:href="#ArialMT-20"/>
     <use x="333.318359375" xlink:href="#ArialMT-4f"/>
     <use x="411.1015625" xlink:href="#ArialMT-2d"/>
     <use x="444.40234375" xlink:href="#ArialMT-48"/>
     <use x="516.619140625" xlink:href="#ArialMT-57"/>
    </g>
   </g>
  </g>
 </g>
 <defs>
  <clipPath id="p7af6e845db">
   <rect height="157.090909091" width="446.4" x="43.415625" y="211.016340909"/>
  </clipPath>
  <clipPath id="p2ad02bd805">
   <rect height="157.090909091" width="446.4" x="43.415625" y="22.50725"/>
  </clipPath>
 </defs>
</svg>
