<?xml version="1.0" encoding="utf-8" standalone="no"?>
<!DOCTYPE svg PUBLIC "-//W3C//DTD SVG 1.1//EN"
  "http://www.w3.org/Graphics/SVG/1.1/DTD/svg11.dtd">
<!-- Created with matplotlib (http://matplotlib.org/) -->
<svg height="406pt" version="1.1" viewBox="0 0 499 406" width="499pt" xmlns="http://www.w3.org/2000/svg" xmlns:xlink="http://www.w3.org/1999/xlink">
 <defs>
  <style type="text/css">
*{stroke-linecap:butt;stroke-linejoin:round;}
  </style>
 </defs>
 <g id="figure_1">
  <g id="patch_1">
   <path d="
M0 406.256
L499.496 406.256
L499.496 0
L0 0
z
" style="fill:none;"/>
  </g>
  <g id="axes_1">
   <g id="patch_2">
    <path d="
M43.1156 179.598
L489.516 179.598
L489.516 22.5072
L43.1156 22.5072
z
" style="fill:none;"/>
   </g>
   <g id="line2d_1">
    <path clip-path="url(#p64c10568c1)" d="
M43.0727 179.598
L220.069 179.49
L221.025 179.254
L221.984 178.743
L222.947 177.988
L224.236 176.678
L226.508 173.967
L227.488 172.614
L228.472 170.846
L229.46 168.449
L230.451 165.392
L231.446 161.689
L233.113 154.371
L236.139 139.693
L238.177 128.69
L239.886 118.246
L241.952 103.988
L246.481 71.3187
L247.537 65.422
L248.597 60.8358
L250.017 55.902
L252.878 46.6726
L253.597 45.0708
L254.319 44.018
L254.68 43.7085
L255.042 43.5488
L255.405 43.5429
L255.767 43.6949
L256.131 44.0089
L256.859 45.1073
L257.588 46.7122
L258.687 49.7189
L261.265 57.6129
L262.749 62.849
L269.52 88.3135
L270.663 91.6888
L271.428 93.3877
L272.195 94.6265
L273.348 95.9147
L276.446 98.5745
L277.616 99.3314
L279.183 100.018
L281.153 100.842
L283.135 101.955
L285.931 103.593
L286.734 103.831
L287.54 103.874
L288.752 103.67
L291.598 102.814
L292.415 102.342
L293.235 101.583
L294.057 100.457
L295.294 98.1884
L296.95 94.4853
L298.615 90.3136
L300.288 85.5073
L301.97 79.9617
L304.084 72.1974
L305.785 65.1816
L307.495 56.96
L310.508 41.875
L311.807 36.6321
L313.111 32.3888
L313.983 30.1281
L314.858 28.3273
L315.735 26.9874
L316.613 26.1093
L317.495 25.6937
L317.936 25.6603
L318.378 25.7441
L319.264 26.2662
L320.151 27.2661
L321.042 28.7477
L321.934 30.6642
L323.277 34.138
L325.978 42.0542
L329.155 51.2514
L330.983 55.9041
L332.36 58.898
L333.742 61.4097
L335.13 63.4379
L336.523 65.0006
L337.921 66.189
L339.325 67.115
L341.676 68.3484
L345.469 70.3143
L348.819 72.3431
L352.199 74.6779
L355.12 76.946
L365.521 85.3668
L368.038 86.96
L371.08 88.5713
L374.145 89.9378
L377.234 91.0636
L379.825 91.742
L382.957 92.2939
L386.641 92.7311
L389.824 92.8792
L393.032 92.8185
L396.264 92.5557
L400.066 92.0262
L404.453 91.206
L408.884 90.1547
L414.487 88.5868
L428.225 84.6381
L432.898 83.5269
L437.619 82.6328
L444.188 81.6511
L448.417 81.2523
L455.137 80.9073
L460.706 80.855
L468.23 81.0026
L480.379 81.4939
L489.519 81.8506
L489.519 81.8506" style="fill:none;stroke:#ffffff;stroke-linecap:square;stroke-width:3.0;"/>
   </g>
   <g id="line2d_2">
    <path clip-path="url(#p64c10568c1)" d="
M43.0727 179.598
L220.069 179.49
L221.025 179.254
L221.984 178.743
L222.947 177.988
L224.236 176.678
L226.508 173.967
L227.488 172.614
L228.472 170.846
L229.46 168.449
L230.451 165.392
L231.446 161.689
L233.113 154.371
L236.139 139.693
L238.177 128.69
L239.886 118.246
L241.952 103.988
L246.481 71.3187
L247.537 65.422
L248.597 60.8358
L250.017 55.902
L252.878 46.6726
L253.597 45.0708
L254.319 44.018
L254.68 43.7085
L255.042 43.5488
L255.405 43.5429
L255.767 43.6949
L256.131 44.0089
L256.859 45.1073
L257.588 46.7122
L258.687 49.7189
L261.265 57.6129
L262.749 62.849
L269.52 88.3135
L270.663 91.6888
L271.428 93.3877
L272.195 94.6265
L273.348 95.9147
L276.446 98.5745
L277.616 99.3314
L279.183 100.018
L281.153 100.842
L283.135 101.955
L285.931 103.593
L286.734 103.831
L287.54 103.874
L288.752 103.67
L291.598 102.814
L292.415 102.342
L293.235 101.583
L294.057 100.457
L295.294 98.1884
L296.95 94.4853
L298.615 90.3136
L300.288 85.5073
L301.97 79.9617
L304.084 72.1974
L305.785 65.1816
L307.495 56.96
L310.508 41.875
L311.807 36.6321
L313.111 32.3888
L313.983 30.1281
L314.858 28.3273
L315.735 26.9874
L316.613 26.1093
L317.495 25.6937
L317.936 25.6603
L318.378 25.7441
L319.264 26.2662
L320.151 27.2661
L321.042 28.7477
L321.934 30.6642
L323.277 34.138
L325.978 42.0542
L329.155 51.2514
L330.983 55.9041
L332.36 58.898
L333.742 61.4097
L335.13 63.4379
L336.523 65.0006
L337.921 66.189
L339.325 67.115
L341.676 68.3484
L345.469 70.3143
L348.819 72.3431
L352.199 74.6779
L355.12 76.946
L365.521 85.3668
L368.038 86.96
L371.08 88.5713
L374.145 89.9378
L377.234 91.0636
L379.825 91.742
L382.957 92.2939
L386.641 92.7311
L389.824 92.8792
L393.032 92.8185
L396.264 92.5557
L400.066 92.0262
L404.453 91.206
L408.884 90.1547
L414.487 88.5868
L428.225 84.6381
L432.898 83.5269
L437.619 82.6328
L444.188 81.6511
L448.417 81.2523
L455.137 80.9073
L460.706 80.855
L468.23 81.0026
L480.379 81.4939
L489.519 81.8506
L489.519 81.8506" style="fill:none;stroke:#000000;stroke-linecap:square;"/>
   </g>
   <g id="line2d_3">
    <path clip-path="url(#p64c10568c1)" d="
M43.0727 179.598
L187.7 179.494
L191.33 179.201
L191.894 178.881
L192.742 178.025
L195.307 174.623
L196.169 173.343
L197.033 171.678
L198.191 168.91
L200.232 163.445
L201.406 159.694
L202.882 154.698
L203.475 153.196
L204.07 152.223
L204.666 151.664
L205.863 151.068
L207.066 150.276
L208.274 149.521
L209.185 149.284
L210.099 149.346
L211.017 149.656
L211.938 150.214
L212.863 151.108
L213.791 152.416
L217.224 157.908
L219.434 161.135
L221.344 163.857
L222.947 165.661
L224.56 167.134
L226.508 168.593
L228.144 169.558
L229.46 170.099
L231.114 170.522
L233.113 170.779
L234.79 170.792
L236.817 170.561
L238.859 170.077
L240.917 169.37
L243.338 168.314
L246.13 166.848
L248.244 165.47
L250.729 163.522
L253.597 161.039
L256.131 158.507
L259.054 155.26
L262.006 151.665
L264.614 148.133
L268.381 142.628
L272.195 136.739
L277.226 128.435
L284.33 116.29
L291.19 104.112
L296.536 94.0623
L301.128 85.5907
L303.66 81.3673
L305.785 78.3108
L307.495 76.2616
L309.644 74.1309
L312.241 71.912
L313.983 70.6965
L316.174 69.5149
L320.151 67.6994
L321.934 67.1082
L323.725 66.7338
L325.526 66.5791
L328.699 66.6089
L331.441 66.812
L333.742 67.2289
L337.455 67.9453
L339.325 68.0907
L341.676 67.9908
L345.469 67.5957
L347.38 67.1882
L350.264 66.286
L354.632 64.9672
L357.572 64.2891
L360.534 63.8279
L363.02 63.6464
L365.521 63.6707
L368.544 63.9597
L372.61 64.6271
L375.686 65.333
L377.751 65.9968
L379.825 66.9138
L382.433 68.3785
L385.585 70.4393
L389.292 73.1626
L400.066 81.354
L403.352 83.4043
L406.109 84.8617
L409.441 86.3306
L412.799 87.5608
L416.748 88.7676
L420.732 89.7597
L424.752 90.5387
L428.807 91.1044
L432.312 91.3919
L436.434 91.492
L440.594 91.3833
L444.79 91.019
L449.631 90.3561
L455.137 89.3539
L462.576 87.7453
L486.236 82.4717
L489.519 81.8491
L489.519 81.8491" style="fill:none;stroke:#ffffff;stroke-linecap:square;stroke-width:3.0;"/>
   </g>
   <g id="line2d_4">
    <path clip-path="url(#p64c10568c1)" d="
M43.0727 179.598
L187.7 179.494
L191.33 179.201
L191.894 178.881
L192.742 178.025
L195.307 174.623
L196.169 173.343
L197.033 171.678
L198.191 168.91
L200.232 163.445
L201.406 159.694
L202.882 154.698
L203.475 153.196
L204.07 152.223
L204.666 151.664
L205.863 151.068
L207.066 150.276
L208.274 149.521
L209.185 149.284
L210.099 149.346
L211.017 149.656
L211.938 150.214
L212.863 151.108
L213.791 152.416
L217.224 157.908
L219.434 161.135
L221.344 163.857
L222.947 165.661
L224.56 167.134
L226.508 168.593
L228.144 169.558
L229.46 170.099
L231.114 170.522
L233.113 170.779
L234.79 170.792
L236.817 170.561
L238.859 170.077
L240.917 169.37
L243.338 168.314
L246.13 166.848
L248.244 165.47
L250.729 163.522
L253.597 161.039
L256.131 158.507
L259.054 155.26
L262.006 151.665
L264.614 148.133
L268.381 142.628
L272.195 136.739
L277.226 128.435
L284.33 116.29
L291.19 104.112
L296.536 94.0623
L301.128 85.5907
L303.66 81.3673
L305.785 78.3108
L307.495 76.2616
L309.644 74.1309
L312.241 71.912
L313.983 70.6965
L316.174 69.5149
L320.151 67.6994
L321.934 67.1082
L323.725 66.7338
L325.526 66.5791
L328.699 66.6089
L331.441 66.812
L333.742 67.2289
L337.455 67.9453
L339.325 68.0907
L341.676 67.9908
L345.469 67.5957
L347.38 67.1882
L350.264 66.286
L354.632 64.9672
L357.572 64.2891
L360.534 63.8279
L363.02 63.6464
L365.521 63.6707
L368.544 63.9597
L372.61 64.6271
L375.686 65.333
L377.751 65.9968
L379.825 66.9138
L382.433 68.3785
L385.585 70.4393
L389.292 73.1626
L400.066 81.354
L403.352 83.4043
L406.109 84.8617
L409.441 86.3306
L412.799 87.5608
L416.748 88.7676
L420.732 89.7597
L424.752 90.5387
L428.807 91.1044
L432.312 91.3919
L436.434 91.492
L440.594 91.3833
L444.79 91.019
L449.631 90.3561
L455.137 89.3539
L462.576 87.7453
L486.236 82.4717
L489.519 81.8491
L489.519 81.8491" style="fill:none;stroke:#c0c0c0;stroke-linecap:square;"/>
   </g>
   <g id="line2d_5">
    <path clip-path="url(#p64c10568c1)" d="
M43.0727 179.598
L216.283 179.507
L218.485 179.446
L220.069 179.421
L220.706 179.238
L221.344 178.884
L222.304 178.061
L223.591 176.554
L225.208 174.258
L227.161 171.133
L228.472 168.577
L229.46 166.189
L230.451 163.325
L231.778 158.699
L233.447 151.768
L235.464 142.347
L237.836 130.072
L240.229 116.408
L242.297 103.299
L245.78 80.2999
L247.185 72.7924
L248.244 68.4372
L249.306 65.0333
L251.086 60.2511
L252.518 56.8927
L253.237 55.5853
L253.958 54.6384
L254.68 54.0873
L255.405 53.9561
L256.131 54.2689
L256.859 55.0278
L257.588 56.1437
L259.054 58.9917
L261.635 64.528
L263.494 69.053
L268.002 80.3037
L269.9 84.3435
L271.428 87.0072
L272.963 89.1359
L275.669 92.358
L277.616 94.3911
L279.183 95.73
L281.153 97.1242
L284.33 99.0347
L285.53 99.6079
L286.332 99.8337
L287.137 99.8725
L287.943 99.7191
L289.157 99.2243
L290.782 98.2975
L292.006 97.3895
L293.235 96.1089
L294.469 94.3313
L296.121 91.4032
L298.615 86.4594
L300.288 82.5954
L301.97 77.9937
L303.66 72.558
L305.359 66.2597
L307.495 57.3119
L309.644 48.1981
L310.94 43.5278
L312.241 39.7482
L313.111 37.7263
L313.983 36.1031
L314.858 34.8704
L315.735 34.0109
L316.613 33.5069
L317.495 33.3406
L318.378 33.5021
L319.264 33.9895
L320.151 34.8014
L321.042 35.9348
L322.381 38.1599
L324.175 41.7818
L330.068 54.362
L331.441 56.7706
L332.82 58.7796
L334.204 60.4183
L335.594 61.7468
L336.988 62.8245
L338.856 63.97
L344.042 66.8115
L347.38 69.207
L351.715 72.5428
L355.609 75.8674
L365.019 84.1701
L367.534 85.9871
L370.064 87.5563
L373.121 89.1783
L376.202 90.5359
L378.787 91.404
L381.388 91.9966
L384.532 92.4793
L387.699 92.7576
L390.891 92.8159
L394.107 92.6723
L397.89 92.267
L402.254 91.5687
L406.663 90.6615
L411.677 89.4108
L432.898 83.8093
L438.212 82.7973
L444.79 81.7852
L449.024 81.3548
L455.753 80.9102
L461.952 80.7491
L468.23 80.7816
L477.797 81.0867
L489.519 81.6271
L489.519 81.6271" style="fill:none;stroke:#ffffff;stroke-linecap:square;stroke-width:3.6;"/>
   </g>
   <g id="line2d_6">
    <path clip-path="url(#p64c10568c1)" d="
M43.0727 179.598
L216.283 179.507
L218.485 179.446
L220.069 179.421
L220.706 179.238
L221.344 178.884
L222.304 178.061
L223.591 176.554
L225.208 174.258
L227.161 171.133
L228.472 168.577
L229.46 166.189
L230.451 163.325
L231.778 158.699
L233.447 151.768
L235.464 142.347
L237.836 130.072
L240.229 116.408
L242.297 103.299
L245.78 80.2999
L247.185 72.7924
L248.244 68.4372
L249.306 65.0333
L251.086 60.2511
L252.518 56.8927
L253.237 55.5853
L253.958 54.6384
L254.68 54.0873
L255.405 53.9561
L256.131 54.2689
L256.859 55.0278
L257.588 56.1437
L259.054 58.9917
L261.635 64.528
L263.494 69.053
L268.002 80.3037
L269.9 84.3435
L271.428 87.0072
L272.963 89.1359
L275.669 92.358
L277.616 94.3911
L279.183 95.73
L281.153 97.1242
L284.33 99.0347
L285.53 99.6079
L286.332 99.8337
L287.137 99.8725
L287.943 99.7191
L289.157 99.2243
L290.782 98.2975
L292.006 97.3895
L293.235 96.1089
L294.469 94.3313
L296.121 91.4032
L298.615 86.4594
L300.288 82.5954
L301.97 77.9937
L303.66 72.558
L305.359 66.2597
L307.495 57.3119
L309.644 48.1981
L310.94 43.5278
L312.241 39.7482
L313.111 37.7263
L313.983 36.1031
L314.858 34.8704
L315.735 34.0109
L316.613 33.5069
L317.495 33.3406
L318.378 33.5021
L319.264 33.9895
L320.151 34.8014
L321.042 35.9348
L322.381 38.1599
L324.175 41.7818
L330.068 54.362
L331.441 56.7706
L332.82 58.7796
L334.204 60.4183
L335.594 61.7468
L336.988 62.8245
L338.856 63.97
L344.042 66.8115
L347.38 69.207
L351.715 72.5428
L355.609 75.8674
L365.019 84.1701
L367.534 85.9871
L370.064 87.5563
L373.121 89.1783
L376.202 90.5359
L378.787 91.404
L381.388 91.9966
L384.532 92.4793
L387.699 92.7576
L390.891 92.8159
L394.107 92.6723
L397.89 92.267
L402.254 91.5687
L406.663 90.6615
L411.677 89.4108
L432.898 83.8093
L438.212 82.7973
L444.79 81.7852
L449.024 81.3548
L455.753 80.9102
L461.952 80.7491
L468.23 80.7816
L477.797 81.0867
L489.519 81.6271
L489.519 81.6271" style="fill:none;stroke:#000000;stroke-linecap:square;stroke-width:1.6;"/>
   </g>
   <g id="line2d_7">
    <path clip-path="url(#p64c10568c1)" d="
M43.0727 179.598
L187.7 179.491
L191.049 179.26
L191.612 178.996
L192.176 178.51
L193.026 177.391
L196.169 172.395
L197.322 170.013
L199.939 163.703
L201.112 160.517
L203.179 154.395
L203.772 153.277
L204.368 152.609
L204.965 152.242
L207.367 151.171
L208.274 150.829
L209.185 150.775
L210.099 150.997
L211.017 151.435
L211.938 152.063
L212.863 152.905
L214.101 154.382
L220.069 162.177
L221.664 164.048
L223.268 165.583
L225.208 167.141
L227.161 168.471
L228.472 169.169
L229.79 169.648
L231.778 170.11
L233.782 170.378
L235.464 170.375
L237.496 170.127
L239.543 169.65
L241.606 168.955
L244.033 167.909
L246.481 166.641
L248.244 165.516
L250.729 163.623
L253.597 161.187
L256.131 158.694
L259.054 155.466
L262.006 151.884
L264.614 148.346
L268.381 142.807
L272.195 136.881
L277.616 127.873
L287.54 110.884
L299.451 90.3032
L302.814 85.2771
L305.359 81.8976
L307.924 78.9175
L310.94 75.7847
L313.547 73.353
L315.735 71.6469
L318.821 69.5319
L320.596 68.4953
L322.381 67.7025
L324.175 67.1629
L325.978 66.847
L329.611 66.5167
L331.9 66.4989
L334.667 66.7684
L337.921 67.0554
L340.263 67.0378
L344.992 66.6731
L347.38 66.3067
L357.572 64.2364
L361.03 63.9129
L364.018 63.8432
L366.526 63.9805
L369.556 64.4122
L373.121 65.1783
L376.202 66.0577
L378.787 67.046
L381.388 68.3273
L385.058 70.4339
L388.76 72.8354
L394.107 76.6488
L398.977 80.0187
L402.803 82.3798
L406.109 84.1344
L409.441 85.6407
L413.361 87.1491
L417.315 88.4358
L421.304 89.5098
L425.329 90.358
L429.389 90.9739
L432.898 91.2815
L437.026 91.4003
L441.191 91.2998
L445.393 90.9418
L450.24 90.2925
L455.753 89.3057
L463.201 87.7182
L488.204 82.2063
L489.519 81.9581
L489.519 81.9581" style="fill:none;stroke:#ffffff;stroke-linecap:square;stroke-width:3.6;"/>
   </g>
   <g id="line2d_8">
    <path clip-path="url(#p64c10568c1)" d="
M43.0727 179.598
L187.7 179.491
L191.049 179.26
L191.612 178.996
L192.176 178.51
L193.026 177.391
L196.169 172.395
L197.322 170.013
L199.939 163.703
L201.112 160.517
L203.179 154.395
L203.772 153.277
L204.368 152.609
L204.965 152.242
L207.367 151.171
L208.274 150.829
L209.185 150.775
L210.099 150.997
L211.017 151.435
L211.938 152.063
L212.863 152.905
L214.101 154.382
L220.069 162.177
L221.664 164.048
L223.268 165.583
L225.208 167.141
L227.161 168.471
L228.472 169.169
L229.79 169.648
L231.778 170.11
L233.782 170.378
L235.464 170.375
L237.496 170.127
L239.543 169.65
L241.606 168.955
L244.033 167.909
L246.481 166.641
L248.244 165.516
L250.729 163.623
L253.597 161.187
L256.131 158.694
L259.054 155.466
L262.006 151.884
L264.614 148.346
L268.381 142.807
L272.195 136.881
L277.616 127.873
L287.54 110.884
L299.451 90.3032
L302.814 85.2771
L305.359 81.8976
L307.924 78.9175
L310.94 75.7847
L313.547 73.353
L315.735 71.6469
L318.821 69.5319
L320.596 68.4953
L322.381 67.7025
L324.175 67.1629
L325.978 66.847
L329.611 66.5167
L331.9 66.4989
L334.667 66.7684
L337.921 67.0554
L340.263 67.0378
L344.992 66.6731
L347.38 66.3067
L357.572 64.2364
L361.03 63.9129
L364.018 63.8432
L366.526 63.9805
L369.556 64.4122
L373.121 65.1783
L376.202 66.0577
L378.787 67.046
L381.388 68.3273
L385.058 70.4339
L388.76 72.8354
L394.107 76.6488
L398.977 80.0187
L402.803 82.3798
L406.109 84.1344
L409.441 85.6407
L413.361 87.1491
L417.315 88.4358
L421.304 89.5098
L425.329 90.358
L429.389 90.9739
L432.898 91.2815
L437.026 91.4003
L441.191 91.2998
L445.393 90.9418
L450.24 90.2925
L455.753 89.3057
L463.201 87.7182
L488.204 82.2063
L489.519 81.9581
L489.519 81.9581" style="fill:none;stroke:#c0c0c0;stroke-linecap:square;stroke-width:1.6;"/>
   </g>
   <g id="line2d_9">
    <path clip-path="url(#p64c10568c1)" d="
M43.0727 179.598
L214.412 179.504
L216.283 179.206
L220.069 178.275
L220.706 177.85
L221.344 177.201
L222.304 175.873
L223.913 173.118
L227.488 166.4
L228.801 163.421
L230.12 159.662
L231.446 154.995
L233.113 148.012
L240.573 115.231
L244.382 101.238
L245.78 96.8948
L246.833 94.1771
L247.89 91.9884
L248.952 90.3136
L250.017 89.0198
L251.444 87.6655
L252.518 86.9078
L253.597 86.4149
L254.68 86.2205
L255.767 86.3474
L256.859 86.808
L258.687 87.9922
L260.157 88.8394
L261.265 89.2468
L262.377 89.3953
L263.494 89.303
L270.663 88.1839
L271.428 88.2712
L272.963 88.7877
L274.12 89.1693
L275.281 89.2947
L276.446 89.1415
L277.616 88.7388
L279.183 87.9076
L283.533 85.364
L285.931 84.3832
L287.943 83.4778
L292.825 80.9089
L294.469 79.7303
L295.707 78.5622
L296.95 77.074
L298.198 75.2165
L299.451 72.9724
L300.708 70.326
L301.97 67.249
L303.66 62.4165
L306.212 54.6603
L307.067 52.5622
L307.924 50.8627
L309.213 48.8894
L310.508 47.3566
L311.807 46.1176
L313.111 45.2433
L313.983 44.9073
L314.858 44.7803
L315.735 44.8498
L316.613 45.1023
L317.936 45.7933
L319.264 46.8073
L321.042 48.5512
L326.43 54.3411
L328.244 55.8181
L329.611 56.6735
L330.983 57.2337
L331.9 57.4071
L333.281 57.4299
L335.13 57.4023
L336.523 57.6125
L338.388 58.1674
L340.734 59.065
L342.148 59.7731
L343.567 60.7042
L345.469 62.2323
L350.264 66.4626
L353.171 69.352
L363.02 79.4308
L366.023 82.034
L369.05 84.3379
L372.099 86.3398
L375.172 88.0705
L377.751 89.2947
L380.345 90.2443
L382.957 90.9373
L385.585 91.4269
L388.76 91.7845
L391.96 91.8881
L395.184 91.7464
L398.977 91.354
L403.352 90.6812
L408.328 89.704
L415.051 88.1159
L429.972 84.5371
L435.843 83.3529
L442.388 82.2498
L447.81 81.5494
L454.522 80.9631
L460.706 80.6525
L466.968 80.5366
L475.869 80.6573
L489.519 81.1181
L489.519 81.1181" style="fill:none;stroke:#ffffff;stroke-linecap:square;stroke-width:4.56;"/>
   </g>
   <g id="line2d_10">
    <path clip-path="url(#p64c10568c1)" d="
M43.0727 179.598
L214.412 179.504
L216.283 179.206
L220.069 178.275
L220.706 177.85
L221.344 177.201
L222.304 175.873
L223.913 173.118
L227.488 166.4
L228.801 163.421
L230.12 159.662
L231.446 154.995
L233.113 148.012
L240.573 115.231
L244.382 101.238
L245.78 96.8948
L246.833 94.1771
L247.89 91.9884
L248.952 90.3136
L250.017 89.0198
L251.444 87.6655
L252.518 86.9078
L253.597 86.4149
L254.68 86.2205
L255.767 86.3474
L256.859 86.808
L258.687 87.9922
L260.157 88.8394
L261.265 89.2468
L262.377 89.3953
L263.494 89.303
L270.663 88.1839
L271.428 88.2712
L272.963 88.7877
L274.12 89.1693
L275.281 89.2947
L276.446 89.1415
L277.616 88.7388
L279.183 87.9076
L283.533 85.364
L285.931 84.3832
L287.943 83.4778
L292.825 80.9089
L294.469 79.7303
L295.707 78.5622
L296.95 77.074
L298.198 75.2165
L299.451 72.9724
L300.708 70.326
L301.97 67.249
L303.66 62.4165
L306.212 54.6603
L307.067 52.5622
L307.924 50.8627
L309.213 48.8894
L310.508 47.3566
L311.807 46.1176
L313.111 45.2433
L313.983 44.9073
L314.858 44.7803
L315.735 44.8498
L316.613 45.1023
L317.936 45.7933
L319.264 46.8073
L321.042 48.5512
L326.43 54.3411
L328.244 55.8181
L329.611 56.6735
L330.983 57.2337
L331.9 57.4071
L333.281 57.4299
L335.13 57.4023
L336.523 57.6125
L338.388 58.1674
L340.734 59.065
L342.148 59.7731
L343.567 60.7042
L345.469 62.2323
L350.264 66.4626
L353.171 69.352
L363.02 79.4308
L366.023 82.034
L369.05 84.3379
L372.099 86.3398
L375.172 88.0705
L377.751 89.2947
L380.345 90.2443
L382.957 90.9373
L385.585 91.4269
L388.76 91.7845
L391.96 91.8881
L395.184 91.7464
L398.977 91.354
L403.352 90.6812
L408.328 89.704
L415.051 88.1159
L429.972 84.5371
L435.843 83.3529
L442.388 82.2498
L447.81 81.5494
L454.522 80.9631
L460.706 80.6525
L466.968 80.5366
L475.869 80.6573
L489.519 81.1181
L489.519 81.1181" style="fill:none;stroke:#000000;stroke-linecap:square;stroke-width:2.56;"/>
   </g>
   <g id="line2d_11">
    <path clip-path="url(#p64c10568c1)" d="
M43.0727 179.598
L187.147 179.499
L190.768 179.182
L191.33 178.924
L191.894 178.421
L192.459 177.616
L193.31 175.993
L196.169 170.151
L198.191 166.434
L199.355 164.718
L201.406 161.891
L203.179 159.001
L203.772 158.344
L204.368 157.929
L205.264 157.596
L208.578 156.879
L209.794 157.01
L211.324 157.466
L213.172 158.271
L215.346 159.46
L218.169 161.283
L222.304 163.996
L225.857 165.967
L228.144 167.064
L230.12 167.743
L233.113 168.511
L234.454 168.676
L236.478 168.653
L238.859 168.422
L240.573 168.043
L242.99 167.236
L245.429 166.19
L247.537 165.04
L249.306 163.816
L252.16 161.535
L254.319 159.562
L256.494 157.294
L259.421 153.87
L262.377 150.057
L265.364 145.781
L269.9 138.841
L276.836 127.772
L283.135 117.872
L292.825 103.258
L298.198 95.5393
L306.212 85.0905
L310.075 80.528
L313.111 77.2358
L315.296 75.2308
L318.378 72.7814
L320.596 71.22
L322.829 69.9213
L325.075 68.864
L329.611 67.0745
L332.36 66.152
L339.794 64.1783
L344.992 62.9279
L350.264 61.8841
L353.171 61.5445
L356.589 61.355
L360.039 61.399
L364.018 61.7132
L366.526 62.1151
L369.05 62.7602
L372.61 63.9375
L376.717 65.5545
L379.825 67.0133
L384.006 69.2653
L389.292 72.3635
L398.977 78.1245
L403.902 80.7717
L408.884 83.151
L413.923 85.321
L418.451 87.0097
L422.45 88.2718
L426.485 89.2894
L429.972 89.9685
L433.486 90.4242
L437.619 90.7155
L441.191 90.7837
L445.393 90.6137
L450.24 90.1638
L455.137 89.471
L461.328 88.3549
L471.399 86.2683
L486.891 83.0211
L489.519 82.5136
L489.519 82.5136" style="fill:none;stroke:#ffffff;stroke-linecap:square;stroke-width:4.56;"/>
   </g>
   <g id="line2d_12">
    <path clip-path="url(#p64c10568c1)" d="
M43.0727 179.598
L187.147 179.499
L190.768 179.182
L191.33 178.924
L191.894 178.421
L192.459 177.616
L193.31 175.993
L196.169 170.151
L198.191 166.434
L199.355 164.718
L201.406 161.891
L203.179 159.001
L203.772 158.344
L204.368 157.929
L205.264 157.596
L208.578 156.879
L209.794 157.01
L211.324 157.466
L213.172 158.271
L215.346 159.46
L218.169 161.283
L222.304 163.996
L225.857 165.967
L228.144 167.064
L230.12 167.743
L233.113 168.511
L234.454 168.676
L236.478 168.653
L238.859 168.422
L240.573 168.043
L242.99 167.236
L245.429 166.19
L247.537 165.04
L249.306 163.816
L252.16 161.535
L254.319 159.562
L256.494 157.294
L259.421 153.87
L262.377 150.057
L265.364 145.781
L269.9 138.841
L276.836 127.772
L283.135 117.872
L292.825 103.258
L298.198 95.5393
L306.212 85.0905
L310.075 80.528
L313.111 77.2358
L315.296 75.2308
L318.378 72.7814
L320.596 71.22
L322.829 69.9213
L325.075 68.864
L329.611 67.0745
L332.36 66.152
L339.794 64.1783
L344.992 62.9279
L350.264 61.8841
L353.171 61.5445
L356.589 61.355
L360.039 61.399
L364.018 61.7132
L366.526 62.1151
L369.05 62.7602
L372.61 63.9375
L376.717 65.5545
L379.825 67.0133
L384.006 69.2653
L389.292 72.3635
L398.977 78.1245
L403.902 80.7717
L408.884 83.151
L413.923 85.321
L418.451 87.0097
L422.45 88.2718
L426.485 89.2894
L429.972 89.9685
L433.486 90.4242
L437.619 90.7155
L441.191 90.7837
L445.393 90.6137
L450.24 90.1638
L455.137 89.471
L461.328 88.3549
L471.399 86.2683
L486.891 83.0211
L489.519 82.5136
L489.519 82.5136" style="fill:none;stroke:#c0c0c0;stroke-linecap:square;stroke-width:2.56;"/>
   </g>
   <g id="matplotlib.axis_1">
    <g id="xtick_1">
     <g id="line2d_13">
      <defs>
       <path d="
M0 0
L0 -4" id="m93b0483c22" style="stroke:#000000;stroke-width:0.5;"/>
      </defs>
      <g>
       <use style="stroke:#000000;stroke-width:0.5;" x="43.115625" xlink:href="#m93b0483c22" y="179.598159091"/>
      </g>
     </g>
     <g id="line2d_14">
      <defs>
       <path d="
M0 0
L0 4" id="m741efc42ff" style="stroke:#000000;stroke-width:0.5;"/>
      </defs>
      <g>
       <use style="stroke:#000000;stroke-width:0.5;" x="43.115625" xlink:href="#m741efc42ff" y="22.50725"/>
      </g>
     </g>
     <g id="text_1">
      <!-- 1 -->
      <defs>
       <path d="
M37.25 0
L28.4688 0
L28.4688 56
Q25.2969 52.9844 20.1406 49.9531
Q14.9844 46.9219 10.8906 45.4062
L10.8906 53.9062
Q18.2656 57.375 23.7812 62.2969
Q29.2969 67.2344 31.5938 71.875
L37.25 71.875
z
" id="ArialMT-31"/>
      </defs>
      <g transform="translate(41.5340625 192.187534091)scale(0.12 -0.12)">
       <use xlink:href="#ArialMT-31"/>
      </g>
     </g>
    </g>
    <g id="xtick_2">
     <g id="line2d_15">
      <g>
       <use style="stroke:#000000;stroke-width:0.5;" x="117.515625" xlink:href="#m93b0483c22" y="179.598159091"/>
      </g>
     </g>
     <g id="line2d_16">
      <g>
       <use style="stroke:#000000;stroke-width:0.5;" x="117.515625" xlink:href="#m741efc42ff" y="22.50725"/>
      </g>
     </g>
     <g id="text_2">
      <!-- 2 -->
      <defs>
       <path d="
M50.3438 8.45312
L50.3438 0
L3.03125 0
Q2.9375 3.17188 4.04688 6.10938
Q5.85938 10.9375 9.82812 15.625
Q13.8125 20.3125 21.3438 26.4688
Q33.0156 36.0312 37.1094 41.625
Q41.2188 47.2188 41.2188 52.2031
Q41.2188 57.4219 37.4688 61
Q33.7344 64.5938 27.7344 64.5938
Q21.3906 64.5938 17.5781 60.7812
Q13.7656 56.9844 13.7188 50.25
L4.6875 51.1719
Q5.60938 61.2812 11.6562 66.5781
Q17.7188 71.875 27.9375 71.875
Q38.2344 71.875 44.2344 66.1562
Q50.25 60.4531 50.25 52
Q50.25 47.7031 48.4844 43.5469
Q46.7344 39.4062 42.6562 34.8125
Q38.5781 30.2188 29.1094 22.2188
Q21.1875 15.5781 18.9375 13.2031
Q16.7031 10.8438 15.2344 8.45312
z
" id="ArialMT-32"/>
      </defs>
      <g transform="translate(114.67125 192.187534091)scale(0.12 -0.12)">
       <use xlink:href="#ArialMT-32"/>
      </g>
     </g>
    </g>
    <g id="xtick_3">
     <g id="line2d_17">
      <g>
       <use style="stroke:#000000;stroke-width:0.5;" x="191.915625" xlink:href="#m93b0483c22" y="179.598159091"/>
      </g>
     </g>
     <g id="line2d_18">
      <g>
       <use style="stroke:#000000;stroke-width:0.5;" x="191.915625" xlink:href="#m741efc42ff" y="22.50725"/>
      </g>
     </g>
     <g id="text_3">
      <!-- 3 -->
      <defs>
       <path d="
M4.20312 18.8906
L12.9844 20.0625
Q14.5 12.5938 18.1406 9.29688
Q21.7812 6 27 6
Q33.2031 6 37.4688 10.2969
Q41.75 14.5938 41.75 20.9531
Q41.75 27 37.7969 30.9219
Q33.8438 34.8594 27.7344 34.8594
Q25.25 34.8594 21.5312 33.8906
L22.5156 41.6094
Q23.3906 41.5 23.9219 41.5
Q29.5469 41.5 34.0312 44.4219
Q38.5312 47.3594 38.5312 53.4688
Q38.5312 58.2969 35.25 61.4688
Q31.9844 64.6562 26.8125 64.6562
Q21.6875 64.6562 18.2656 61.4219
Q14.8438 58.2031 13.875 51.7656
L5.07812 53.3281
Q6.6875 62.1562 12.3906 67.0156
Q18.1094 71.875 26.6094 71.875
Q32.4688 71.875 37.3906 69.3594
Q42.3281 66.8438 44.9375 62.5
Q47.5625 58.1562 47.5625 53.2656
Q47.5625 48.6406 45.0625 44.8281
Q42.5781 41.0156 37.7031 38.7656
Q44.0469 37.3125 47.5625 32.6875
Q51.0781 28.0781 51.0781 21.1406
Q51.0781 11.7656 44.2344 5.25
Q37.4062 -1.26562 26.9531 -1.26562
Q17.5312 -1.26562 11.2969 4.34375
Q5.07812 9.96875 4.20312 18.8906" id="ArialMT-33"/>
      </defs>
      <g transform="translate(189.103125 192.187534091)scale(0.12 -0.12)">
       <use xlink:href="#ArialMT-33"/>
      </g>
     </g>
    </g>
    <g id="xtick_4">
     <g id="line2d_19">
      <g>
       <use style="stroke:#000000;stroke-width:0.5;" x="266.315625" xlink:href="#m93b0483c22" y="179.598159091"/>
      </g>
     </g>
     <g id="line2d_20">
      <g>
       <use style="stroke:#000000;stroke-width:0.5;" x="266.315625" xlink:href="#m741efc42ff" y="22.50725"/>
      </g>
     </g>
     <g id="text_4">
      <!-- 4 -->
      <defs>
       <path d="
M32.3281 0
L32.3281 17.1406
L1.26562 17.1406
L1.26562 25.2031
L33.9375 71.5781
L41.1094 71.5781
L41.1094 25.2031
L50.7812 25.2031
L50.7812 17.1406
L41.1094 17.1406
L41.1094 0
z

M32.3281 25.2031
L32.3281 57.4688
L9.90625 25.2031
z
" id="ArialMT-34"/>
      </defs>
      <g transform="translate(263.3446875 192.187534091)scale(0.12 -0.12)">
       <use xlink:href="#ArialMT-34"/>
      </g>
     </g>
    </g>
    <g id="xtick_5">
     <g id="line2d_21">
      <g>
       <use style="stroke:#000000;stroke-width:0.5;" x="340.715625" xlink:href="#m93b0483c22" y="179.598159091"/>
      </g>
     </g>
     <g id="line2d_22">
      <g>
       <use style="stroke:#000000;stroke-width:0.5;" x="340.715625" xlink:href="#m741efc42ff" y="22.50725"/>
      </g>
     </g>
     <g id="text_5">
      <!-- 5 -->
      <defs>
       <path d="
M4.15625 18.75
L13.375 19.5312
Q14.4062 12.7969 18.1406 9.39062
Q21.875 6 27.1562 6
Q33.5 6 37.8906 10.7812
Q42.2812 15.5781 42.2812 23.4844
Q42.2812 31 38.0625 35.3438
Q33.8438 39.7031 27 39.7031
Q22.75 39.7031 19.3281 37.7656
Q15.9219 35.8438 13.9688 32.7656
L5.71875 33.8438
L12.6406 70.6094
L48.25 70.6094
L48.25 62.2031
L19.6719 62.2031
L15.8281 42.9688
Q22.2656 47.4688 29.3438 47.4688
Q38.7188 47.4688 45.1562 40.9688
Q51.6094 34.4688 51.6094 24.2656
Q51.6094 14.5469 45.9531 7.46875
Q39.0625 -1.21875 27.1562 -1.21875
Q17.3906 -1.21875 11.2031 4.25
Q5.03125 9.71875 4.15625 18.75" id="ArialMT-35"/>
      </defs>
      <g transform="translate(337.8684375 192.187534091)scale(0.12 -0.12)">
       <use xlink:href="#ArialMT-35"/>
      </g>
     </g>
    </g>
    <g id="xtick_6">
     <g id="line2d_23">
      <g>
       <use style="stroke:#000000;stroke-width:0.5;" x="415.115625" xlink:href="#m93b0483c22" y="179.598159091"/>
      </g>
     </g>
     <g id="line2d_24">
      <g>
       <use style="stroke:#000000;stroke-width:0.5;" x="415.115625" xlink:href="#m741efc42ff" y="22.50725"/>
      </g>
     </g>
     <g id="text_6">
      <!-- 6 -->
      <defs>
       <path d="
M49.75 54.0469
L41.0156 53.375
Q39.8438 58.5469 37.7031 60.8906
Q34.125 64.6562 28.9062 64.6562
Q24.7031 64.6562 21.5312 62.3125
Q17.3906 59.2812 14.9844 53.4688
Q12.5938 47.6562 12.5 36.9219
Q15.6719 41.75 20.2656 44.0938
Q24.8594 46.4375 29.8906 46.4375
Q38.6719 46.4375 44.8438 39.9688
Q51.0312 33.5 51.0312 23.25
Q51.0312 16.5 48.125 10.7188
Q45.2188 4.9375 40.1406 1.85938
Q35.0625 -1.21875 28.6094 -1.21875
Q17.625 -1.21875 10.6875 6.85938
Q3.76562 14.9375 3.76562 33.5
Q3.76562 54.25 11.4219 63.6719
Q18.1094 71.875 29.4375 71.875
Q37.8906 71.875 43.2812 67.1406
Q48.6875 62.4062 49.75 54.0469
M13.875 23.1875
Q13.875 18.6562 15.7969 14.5
Q17.7188 10.3594 21.1875 8.17188
Q24.6562 6 28.4688 6
Q34.0312 6 38.0312 10.4844
Q42.0469 14.9844 42.0469 22.7031
Q42.0469 30.125 38.0781 34.3906
Q34.125 38.6719 28.125 38.6719
Q22.1719 38.6719 18.0156 34.3906
Q13.875 30.125 13.875 23.1875" id="ArialMT-36"/>
      </defs>
      <g transform="translate(412.2796875 192.187534091)scale(0.12 -0.12)">
       <use xlink:href="#ArialMT-36"/>
      </g>
     </g>
    </g>
    <g id="xtick_7">
     <g id="line2d_25">
      <g>
       <use style="stroke:#000000;stroke-width:0.5;" x="489.515625" xlink:href="#m93b0483c22" y="179.598159091"/>
      </g>
     </g>
     <g id="line2d_26">
      <g>
       <use style="stroke:#000000;stroke-width:0.5;" x="489.515625" xlink:href="#m741efc42ff" y="22.50725"/>
      </g>
     </g>
     <g id="text_7">
      <!-- 7 -->
      <defs>
       <path d="
M4.73438 62.2031
L4.73438 70.6562
L51.0781 70.6562
L51.0781 63.8125
Q44.2344 56.5469 37.5156 44.4844
Q30.8125 32.4219 27.1562 19.6719
Q24.5156 10.6875 23.7812 0
L14.75 0
Q14.8906 8.45312 18.0625 20.4062
Q21.2344 32.375 27.1719 43.4844
Q33.1094 54.5938 39.7969 62.2031
z
" id="ArialMT-37"/>
      </defs>
      <g transform="translate(486.735 192.187534091)scale(0.12 -0.12)">
       <use xlink:href="#ArialMT-37"/>
      </g>
     </g>
    </g>
   </g>
   <g id="matplotlib.axis_2">
    <g id="ytick_1">
     <g id="line2d_27">
      <defs>
       <path d="
M0 0
L4 0" id="m728421d6d4" style="stroke:#000000;stroke-width:0.5;"/>
      </defs>
      <g>
       <use style="stroke:#000000;stroke-width:0.5;" x="43.115625" xlink:href="#m728421d6d4" y="179.598159091"/>
      </g>
     </g>
     <g id="line2d_28">
      <defs>
       <path d="
M0 0
L-4 0" id="mcb0005524f" style="stroke:#000000;stroke-width:0.5;"/>
      </defs>
      <g>
       <use style="stroke:#000000;stroke-width:0.5;" x="489.515625" xlink:href="#mcb0005524f" y="179.598159091"/>
      </g>
     </g>
     <g id="text_8">
      <!-- 0.0 -->
      <defs>
       <path d="
M4.15625 35.2969
Q4.15625 48 6.76562 55.7344
Q9.375 63.4844 14.5156 67.6719
Q19.6719 71.875 27.4844 71.875
Q33.25 71.875 37.5938 69.5469
Q41.9375 67.2344 44.7656 62.8594
Q47.6094 58.5 49.2188 52.2188
Q50.8281 45.9531 50.8281 35.2969
Q50.8281 22.7031 48.2344 14.9688
Q45.6562 7.23438 40.5 3
Q35.3594 -1.21875 27.4844 -1.21875
Q17.1406 -1.21875 11.2344 6.20312
Q4.15625 15.1406 4.15625 35.2969
M13.1875 35.2969
Q13.1875 17.6719 17.3125 11.8281
Q21.4375 6 27.4844 6
Q33.5469 6 37.6719 11.8594
Q41.7969 17.7188 41.7969 35.2969
Q41.7969 52.9844 37.6719 58.7812
Q33.5469 64.5938 27.3906 64.5938
Q21.3438 64.5938 17.7188 59.4688
Q13.1875 52.9375 13.1875 35.2969" id="ArialMT-30"/>
       <path d="
M9.07812 0
L9.07812 10.0156
L19.0938 10.0156
L19.0938 0
z
" id="ArialMT-2e"/>
      </defs>
      <g transform="translate(23.508125 182.700346591)scale(0.12 -0.12)">
       <use xlink:href="#ArialMT-30"/>
       <use x="55.615234375" xlink:href="#ArialMT-2e"/>
       <use x="83.3984375" xlink:href="#ArialMT-30"/>
      </g>
     </g>
    </g>
    <g id="ytick_2">
     <g id="line2d_29">
      <g>
       <use style="stroke:#000000;stroke-width:0.5;" x="43.115625" xlink:href="#m728421d6d4" y="159.961795455"/>
      </g>
     </g>
     <g id="line2d_30">
      <g>
       <use style="stroke:#000000;stroke-width:0.5;" x="489.515625" xlink:href="#mcb0005524f" y="159.961795455"/>
      </g>
     </g>
     <g id="text_9">
      <!-- 0.2 -->
      <g transform="translate(23.56625 163.063982955)scale(0.12 -0.12)">
       <use xlink:href="#ArialMT-30"/>
       <use x="55.615234375" xlink:href="#ArialMT-2e"/>
       <use x="83.3984375" xlink:href="#ArialMT-32"/>
      </g>
     </g>
    </g>
    <g id="ytick_3">
     <g id="line2d_31">
      <g>
       <use style="stroke:#000000;stroke-width:0.5;" x="43.115625" xlink:href="#m728421d6d4" y="140.325431818"/>
      </g>
     </g>
     <g id="line2d_32">
      <g>
       <use style="stroke:#000000;stroke-width:0.5;" x="489.515625" xlink:href="#mcb0005524f" y="140.325431818"/>
      </g>
     </g>
     <g id="text_10">
      <!-- 0.4 -->
      <g transform="translate(23.51375 143.427619318)scale(0.12 -0.12)">
       <use xlink:href="#ArialMT-30"/>
       <use x="55.615234375" xlink:href="#ArialMT-2e"/>
       <use x="83.3984375" xlink:href="#ArialMT-34"/>
      </g>
     </g>
    </g>
    <g id="ytick_4">
     <g id="line2d_33">
      <g>
       <use style="stroke:#000000;stroke-width:0.5;" x="43.115625" xlink:href="#m728421d6d4" y="120.689068182"/>
      </g>
     </g>
     <g id="line2d_34">
      <g>
       <use style="stroke:#000000;stroke-width:0.5;" x="489.515625" xlink:href="#mcb0005524f" y="120.689068182"/>
      </g>
     </g>
     <g id="text_11">
      <!-- 0.6 -->
      <g transform="translate(23.48375 123.791255682)scale(0.12 -0.12)">
       <use xlink:href="#ArialMT-30"/>
       <use x="55.615234375" xlink:href="#ArialMT-2e"/>
       <use x="83.3984375" xlink:href="#ArialMT-36"/>
      </g>
     </g>
    </g>
    <g id="ytick_5">
     <g id="line2d_35">
      <g>
       <use style="stroke:#000000;stroke-width:0.5;" x="43.115625" xlink:href="#m728421d6d4" y="101.052704545"/>
      </g>
     </g>
     <g id="line2d_36">
      <g>
       <use style="stroke:#000000;stroke-width:0.5;" x="489.515625" xlink:href="#mcb0005524f" y="101.052704545"/>
      </g>
     </g>
     <g id="text_12">
      <!-- 0.8 -->
      <defs>
       <path d="
M17.6719 38.8125
Q12.2031 40.8281 9.5625 44.5312
Q6.9375 48.25 6.9375 53.4219
Q6.9375 61.2344 12.5469 66.5469
Q18.1719 71.875 27.4844 71.875
Q36.8594 71.875 42.5781 66.4219
Q48.2969 60.9844 48.2969 53.1719
Q48.2969 48.1875 45.6719 44.5
Q43.0625 40.8281 37.75 38.8125
Q44.3438 36.6719 47.7812 31.875
Q51.2188 27.0938 51.2188 20.4531
Q51.2188 11.2812 44.7188 5.03125
Q38.2344 -1.21875 27.6406 -1.21875
Q17.0469 -1.21875 10.5469 5.04688
Q4.04688 11.3281 4.04688 20.7031
Q4.04688 27.6875 7.59375 32.3906
Q11.1406 37.1094 17.6719 38.8125
M15.9219 53.7188
Q15.9219 48.6406 19.1875 45.4062
Q22.4688 42.1875 27.6875 42.1875
Q32.7656 42.1875 36.0156 45.375
Q39.2656 48.5781 39.2656 53.2188
Q39.2656 58.0625 35.9062 61.3594
Q32.5625 64.6562 27.5938 64.6562
Q22.5625 64.6562 19.2344 61.4219
Q15.9219 58.2031 15.9219 53.7188
M13.0938 20.6562
Q13.0938 16.8906 14.875 13.375
Q16.6562 9.85938 20.1719 7.92188
Q23.6875 6 27.7344 6
Q34.0312 6 38.125 10.0469
Q42.2344 14.1094 42.2344 20.3594
Q42.2344 26.7031 38.0156 30.8594
Q33.7969 35.0156 27.4375 35.0156
Q21.2344 35.0156 17.1562 30.9062
Q13.0938 26.8125 13.0938 20.6562" id="ArialMT-38"/>
      </defs>
      <g transform="translate(23.46125 104.154892045)scale(0.12 -0.12)">
       <use xlink:href="#ArialMT-30"/>
       <use x="55.615234375" xlink:href="#ArialMT-2e"/>
       <use x="83.3984375" xlink:href="#ArialMT-38"/>
      </g>
     </g>
    </g>
    <g id="ytick_6">
     <g id="line2d_37">
      <g>
       <use style="stroke:#000000;stroke-width:0.5;" x="43.115625" xlink:href="#m728421d6d4" y="81.4163409091"/>
      </g>
     </g>
     <g id="line2d_38">
      <g>
       <use style="stroke:#000000;stroke-width:0.5;" x="489.515625" xlink:href="#mcb0005524f" y="81.4163409091"/>
      </g>
     </g>
     <g id="text_13">
      <!-- 1.0 -->
      <g transform="translate(24.31625 84.5185284091)scale(0.12 -0.12)">
       <use xlink:href="#ArialMT-31"/>
       <use x="55.615234375" xlink:href="#ArialMT-2e"/>
       <use x="83.3984375" xlink:href="#ArialMT-30"/>
      </g>
     </g>
    </g>
    <g id="ytick_7">
     <g id="line2d_39">
      <g>
       <use style="stroke:#000000;stroke-width:0.5;" x="43.115625" xlink:href="#m728421d6d4" y="61.7799772727"/>
      </g>
     </g>
     <g id="line2d_40">
      <g>
       <use style="stroke:#000000;stroke-width:0.5;" x="489.515625" xlink:href="#mcb0005524f" y="61.7799772727"/>
      </g>
     </g>
     <g id="text_14">
      <!-- 1.2 -->
      <g transform="translate(24.374375 64.8821647727)scale(0.12 -0.12)">
       <use xlink:href="#ArialMT-31"/>
       <use x="55.615234375" xlink:href="#ArialMT-2e"/>
       <use x="83.3984375" xlink:href="#ArialMT-32"/>
      </g>
     </g>
    </g>
    <g id="ytick_8">
     <g id="line2d_41">
      <g>
       <use style="stroke:#000000;stroke-width:0.5;" x="43.115625" xlink:href="#m728421d6d4" y="42.1436136364"/>
      </g>
     </g>
     <g id="line2d_42">
      <g>
       <use style="stroke:#000000;stroke-width:0.5;" x="489.515625" xlink:href="#mcb0005524f" y="42.1436136364"/>
      </g>
     </g>
     <g id="text_15">
      <!-- 1.4 -->
      <g transform="translate(24.321875 45.2458011364)scale(0.12 -0.12)">
       <use xlink:href="#ArialMT-31"/>
       <use x="55.615234375" xlink:href="#ArialMT-2e"/>
       <use x="83.3984375" xlink:href="#ArialMT-34"/>
      </g>
     </g>
    </g>
    <g id="ytick_9">
     <g id="line2d_43">
      <g>
       <use style="stroke:#000000;stroke-width:0.5;" x="43.115625" xlink:href="#m728421d6d4" y="22.50725"/>
      </g>
     </g>
     <g id="line2d_44">
      <g>
       <use style="stroke:#000000;stroke-width:0.5;" x="489.515625" xlink:href="#mcb0005524f" y="22.50725"/>
      </g>
     </g>
     <g id="text_16">
      <!-- 1.6 -->
      <g transform="translate(24.291875 25.6094375)scale(0.12 -0.12)">
       <use xlink:href="#ArialMT-31"/>
       <use x="55.615234375" xlink:href="#ArialMT-2e"/>
       <use x="83.3984375" xlink:href="#ArialMT-36"/>
      </g>
     </g>
    </g>
    <g id="text_17">
     <!-- g(r) -->
     <defs>
      <path d="
M4.98438 -4.29688
L13.5312 -5.5625
Q14.0625 -9.51562 16.5 -11.3281
Q19.7812 -13.7656 25.4375 -13.7656
Q31.5469 -13.7656 34.8594 -11.3281
Q38.1875 -8.89062 39.3594 -4.5
Q40.0469 -1.8125 39.9844 6.78125
Q34.2344 0 25.6406 0
Q14.9375 0 9.07812 7.71875
Q3.21875 15.4375 3.21875 26.2188
Q3.21875 33.6406 5.90625 39.9062
Q8.59375 46.1875 13.6875 49.6094
Q18.7969 53.0312 25.6875 53.0312
Q34.8594 53.0312 40.8281 45.6094
L40.8281 51.8594
L48.9219 51.8594
L48.9219 7.03125
Q48.9219 -5.07812 46.4531 -10.125
Q44 -15.1875 38.6406 -18.1094
Q33.2969 -21.0469 25.4844 -21.0469
Q16.2188 -21.0469 10.5 -16.875
Q4.78125 -12.7031 4.98438 -4.29688
M12.25 26.8594
Q12.25 16.6562 16.2969 11.9688
Q20.3594 7.28125 26.4688 7.28125
Q32.5156 7.28125 36.6094 11.9375
Q40.7188 16.6094 40.7188 26.5625
Q40.7188 36.0781 36.5 40.9062
Q32.2812 45.75 26.3125 45.75
Q20.4531 45.75 16.3438 40.9844
Q12.25 36.2344 12.25 26.8594" id="ArialMT-67"/>
      <path d="
M12.3594 -21.0469
L6.0625 -21.0469
Q20.6562 2.39062 20.6562 25.875
Q20.6562 35.0625 18.5625 44.0938
Q16.8906 51.4219 13.9219 58.1562
Q12.0156 62.5469 6.0625 72.7969
L12.3594 72.7969
Q21.5312 60.5469 25.9219 48.1875
Q29.6875 37.5469 29.6875 25.9219
Q29.6875 12.75 24.625 0.4375
Q19.5781 -11.8594 12.3594 -21.0469" id="ArialMT-29"/>
      <path d="
M6.5 0
L6.5 51.8594
L14.4062 51.8594
L14.4062 44
Q17.4375 49.5156 20 51.2656
Q22.5625 53.0312 25.6406 53.0312
Q30.0781 53.0312 34.6719 50.2031
L31.6406 42.0469
Q28.4219 43.9531 25.2031 43.9531
Q22.3125 43.9531 20.0156 42.2188
Q17.7188 40.4844 16.75 37.4062
Q15.2812 32.7188 15.2812 27.1562
L15.2812 0
z
" id="ArialMT-72"/>
      <path d="
M23.3906 -21.0469
Q16.1094 -11.8594 11.0781 0.4375
Q6.0625 12.75 6.0625 25.9219
Q6.0625 37.5469 9.8125 48.1875
Q14.2031 60.5469 23.3906 72.7969
L29.6875 72.7969
Q23.7812 62.6406 21.875 58.2969
Q18.8906 51.5625 17.1875 44.2344
Q15.0938 35.1094 15.0938 25.875
Q15.0938 2.39062 29.6875 -21.0469
z
" id="ArialMT-28"/>
     </defs>
     <g transform="translate(15.935625 109.973017045)rotate(-90.0)scale(0.12 -0.12)">
      <use xlink:href="#ArialMT-67"/>
      <use x="55.615234375" xlink:href="#ArialMT-28"/>
      <use x="88.916015625" xlink:href="#ArialMT-72"/>
      <use x="122.216796875" xlink:href="#ArialMT-29"/>
     </g>
    </g>
   </g>
   <g id="patch_3">
    <path d="
M43.1156 22.5072
L489.516 22.5072" style="fill:none;stroke:#000000;"/>
   </g>
   <g id="patch_4">
    <path d="
M489.516 179.598
L489.516 22.5072" style="fill:none;stroke:#000000;"/>
   </g>
   <g id="patch_5">
    <path d="
M43.1156 179.598
L489.516 179.598" style="fill:none;stroke:#000000;"/>
   </g>
   <g id="patch_6">
    <path d="
M43.1156 179.598
L43.1156 22.5072" style="fill:none;stroke:#000000;"/>
   </g>
   <g id="text_18">
    <!-- U-OW, U-HW -->
    <defs>
     <path d="
M8.01562 0
L8.01562 71.5781
L17.4844 71.5781
L17.4844 42.1875
L54.6875 42.1875
L54.6875 71.5781
L64.1562 71.5781
L64.1562 0
L54.6875 0
L54.6875 33.7344
L17.4844 33.7344
L17.4844 0
z
" id="ArialMT-48"/>
     <path d="
M3.17188 21.4844
L3.17188 30.3281
L30.1719 30.3281
L30.1719 21.4844
z
" id="ArialMT-2d"/>
     <path d="
M8.89062 0
L8.89062 10.0156
L18.8906 10.0156
L18.8906 0
Q18.8906 -5.51562 16.9375 -8.90625
Q14.9844 -12.3125 10.75 -14.1562
L8.29688 -10.4062
Q11.0781 -9.1875 12.3906 -6.8125
Q13.7188 -4.4375 13.875 0
z
" id="ArialMT-2c"/>
     <path d="
M20.2188 0
L1.21875 71.5781
L10.9375 71.5781
L21.8281 24.6562
Q23.5781 17.2812 24.8594 10.0156
Q27.5938 21.4844 28.0781 23.25
L41.7031 71.5781
L53.125 71.5781
L63.375 35.3594
Q67.2344 21.875 68.9531 10.0156
Q70.3125 16.7969 72.5156 25.5938
L83.7344 71.5781
L93.2656 71.5781
L73.6406 0
L64.5 0
L49.4219 54.5469
Q47.5156 61.375 47.1719 62.9375
Q46.0469 58.0156 45.0625 54.5469
L29.8906 0
z
" id="ArialMT-57"/>
     <path d="
M54.6875 71.5781
L64.1562 71.5781
L64.1562 30.2188
Q64.1562 19.4375 61.7188 13.0781
Q59.2812 6.73438 52.9062 2.75
Q46.5312 -1.21875 36.1875 -1.21875
Q26.125 -1.21875 19.7188 2.25
Q13.3281 5.71875 10.5938 12.2812
Q7.85938 18.8438 7.85938 30.2188
L7.85938 71.5781
L17.3281 71.5781
L17.3281 30.2812
Q17.3281 20.9531 19.0625 16.5312
Q20.7969 12.1094 25.0156 9.71875
Q29.25 7.32812 35.3594 7.32812
Q45.7969 7.32812 50.2344 12.0625
Q54.6875 16.7969 54.6875 30.2812
z
" id="ArialMT-55"/>
     <path d="
M4.82812 34.8594
Q4.82812 52.6875 14.3906 62.7656
Q23.9688 72.8594 39.1094 72.8594
Q49.0312 72.8594 56.9844 68.1094
Q64.9375 63.375 69.1094 54.9062
Q73.2969 46.4375 73.2969 35.6875
Q73.2969 24.8125 68.8906 16.2188
Q64.5 7.625 56.4375 3.20312
Q48.3906 -1.21875 39.0625 -1.21875
Q28.9531 -1.21875 20.9844 3.65625
Q13.0312 8.54688 8.92188 16.9844
Q4.82812 25.4375 4.82812 34.8594
M14.5938 34.7188
Q14.5938 21.7812 21.5469 14.3281
Q28.5156 6.89062 39.0156 6.89062
Q49.7031 6.89062 56.6094 14.4062
Q63.5312 21.9219 63.5312 35.75
Q63.5312 44.4844 60.5781 51
Q57.625 57.5156 51.9219 61.1094
Q46.2344 64.7031 39.1562 64.7031
Q29.1094 64.7031 21.8438 57.7812
Q14.5938 50.875 14.5938 34.7188" id="ArialMT-4f"/>
     <path id="ArialMT-20"/>
    </defs>
    <g transform="translate(43.115625 17.50725)scale(0.144 -0.144)">
     <use xlink:href="#ArialMT-55"/>
     <use x="72.216796875" xlink:href="#ArialMT-2d"/>
     <use x="105.517578125" xlink:href="#ArialMT-4f"/>
     <use x="183.30078125" xlink:href="#ArialMT-57"/>
     <use x="272.185546875" xlink:href="#ArialMT-2c"/>
     <use x="299.96875" xlink:href="#ArialMT-20"/>
     <use x="327.751953125" xlink:href="#ArialMT-55"/>
     <use x="399.96875" xlink:href="#ArialMT-2d"/>
     <use x="433.26953125" xlink:href="#ArialMT-48"/>
     <use x="505.486328125" xlink:href="#ArialMT-57"/>
    </g>
   </g>
  </g>
  <g id="axes_2">
   <g id="patch_7">
    <path d="
M43.1156 368.107
L489.516 368.107
L489.516 211.016
L43.1156 211.016
z
" style="fill:none;"/>
   </g>
   <g id="line2d_45">
    <path clip-path="url(#p8743e5922f)" d="
M43.0727 368.107
L155.205 368
L157.34 367.708
L158.777 367.312
L159.982 366.735
L160.952 366.057
L161.683 365.327
L162.417 364.268
L163.153 362.786
L164.139 360.26
L165.379 356.473
L166.627 351.835
L167.882 346.048
L169.146 339.01
L170.928 327.611
L173.243 311.35
L179.547 265.42
L180.884 258.368
L182.5 251.293
L184.674 242.817
L185.495 240.29
L186.319 238.403
L187.147 237.159
L187.7 236.68
L188.255 236.443
L189.089 236.387
L190.768 236.619
L191.612 236.982
L192.176 237.438
L193.026 238.463
L194.164 240.269
L195.881 243.438
L198.191 248.189
L205.264 263.017
L207.972 267.546
L209.794 270.246
L211.324 272.138
L214.412 275.721
L215.97 277.559
L217.539 279.039
L222.625 283.588
L224.236 285.347
L227.488 289.387
L230.782 293.773
L235.464 300.343
L239.201 305.619
L242.99 310.607
L246.481 314.834
L248.952 317.47
L252.16 320.494
L253.958 321.935
L256.131 323.348
L258.687 324.716
L261.265 325.812
L264.24 326.813
L266.115 327.192
L268.381 327.398
L270.282 327.422
L271.811 327.239
L272.963 326.907
L274.12 326.337
L275.281 325.486
L276.836 324
L278.791 321.762
L280.363 319.571
L281.944 316.9
L284.33 312.314
L286.332 308.624
L287.54 306.855
L289.157 304.965
L292.415 301.566
L293.235 301.031
L294.057 300.765
L294.881 300.715
L296.536 300.931
L299.033 301.375
L300.288 301.865
L301.549 302.629
L307.495 306.668
L312.241 309.526
L313.983 310.376
L316.174 311.163
L319.707 312.147
L321.934 312.538
L323.725 312.586
L325.075 312.39
L326.43 311.948
L327.79 311.221
L329.155 310.163
L330.525 308.699
L331.9 306.746
L333.281 304.264
L334.667 301.278
L336.523 296.608
L340.734 285.625
L343.567 279.084
L346.901 271.978
L351.23 263.429
L353.171 259.906
L354.632 257.665
L356.099 255.842
L358.064 253.799
L360.039 252.002
L361.03 251.331
L362.023 250.921
L363.02 250.825
L364.018 250.972
L370.572 252.606
L372.099 252.806
L373.121 252.693
L374.145 252.242
L375.172 251.356
L376.202 250.051
L377.234 248.368
L378.787 245.232
L383.481 234.758
L384.532 232.998
L385.585 231.585
L386.641 230.556
L387.699 229.946
L388.229 229.812
L388.76 229.798
L389.292 229.909
L389.824 230.15
L390.357 230.527
L391.425 231.705
L392.496 233.391
L394.107 236.565
L401.159 251.966
L403.902 257.701
L406.109 261.719
L408.328 265.182
L409.999 267.429
L411.677 269.347
L413.361 270.899
L415.051 272.084
L416.748 272.964
L418.451 273.604
L420.161 274.021
L421.877 274.209
L423.599 274.171
L425.907 273.881
L431.141 272.914
L437.026 271.836
L441.191 271.354
L445.996 271.011
L449.631 270.963
L453.908 271.141
L466.338 271.786
L473.948 271.939
L489.519 272.014
L489.519 272.014" style="fill:none;stroke:#ffffff;stroke-linecap:square;stroke-width:3.0;"/>
   </g>
   <g id="line2d_46">
    <path clip-path="url(#p8743e5922f)" d="
M43.0727 368.107
L155.205 368
L157.34 367.708
L158.777 367.312
L159.982 366.735
L160.952 366.057
L161.683 365.327
L162.417 364.268
L163.153 362.786
L164.139 360.26
L165.379 356.473
L166.627 351.835
L167.882 346.048
L169.146 339.01
L170.928 327.611
L173.243 311.35
L179.547 265.42
L180.884 258.368
L182.5 251.293
L184.674 242.817
L185.495 240.29
L186.319 238.403
L187.147 237.159
L187.7 236.68
L188.255 236.443
L189.089 236.387
L190.768 236.619
L191.612 236.982
L192.176 237.438
L193.026 238.463
L194.164 240.269
L195.881 243.438
L198.191 248.189
L205.264 263.017
L207.972 267.546
L209.794 270.246
L211.324 272.138
L214.412 275.721
L215.97 277.559
L217.539 279.039
L222.625 283.588
L224.236 285.347
L227.488 289.387
L230.782 293.773
L235.464 300.343
L239.201 305.619
L242.99 310.607
L246.481 314.834
L248.952 317.47
L252.16 320.494
L253.958 321.935
L256.131 323.348
L258.687 324.716
L261.265 325.812
L264.24 326.813
L266.115 327.192
L268.381 327.398
L270.282 327.422
L271.811 327.239
L272.963 326.907
L274.12 326.337
L275.281 325.486
L276.836 324
L278.791 321.762
L280.363 319.571
L281.944 316.9
L284.33 312.314
L286.332 308.624
L287.54 306.855
L289.157 304.965
L292.415 301.566
L293.235 301.031
L294.057 300.765
L294.881 300.715
L296.536 300.931
L299.033 301.375
L300.288 301.865
L301.549 302.629
L307.495 306.668
L312.241 309.526
L313.983 310.376
L316.174 311.163
L319.707 312.147
L321.934 312.538
L323.725 312.586
L325.075 312.39
L326.43 311.948
L327.79 311.221
L329.155 310.163
L330.525 308.699
L331.9 306.746
L333.281 304.264
L334.667 301.278
L336.523 296.608
L340.734 285.625
L343.567 279.084
L346.901 271.978
L351.23 263.429
L353.171 259.906
L354.632 257.665
L356.099 255.842
L358.064 253.799
L360.039 252.002
L361.03 251.331
L362.023 250.921
L363.02 250.825
L364.018 250.972
L370.572 252.606
L372.099 252.806
L373.121 252.693
L374.145 252.242
L375.172 251.356
L376.202 250.051
L377.234 248.368
L378.787 245.232
L383.481 234.758
L384.532 232.998
L385.585 231.585
L386.641 230.556
L387.699 229.946
L388.229 229.812
L388.76 229.798
L389.292 229.909
L389.824 230.15
L390.357 230.527
L391.425 231.705
L392.496 233.391
L394.107 236.565
L401.159 251.966
L403.902 257.701
L406.109 261.719
L408.328 265.182
L409.999 267.429
L411.677 269.347
L413.361 270.899
L415.051 272.084
L416.748 272.964
L418.451 273.604
L420.161 274.021
L421.877 274.209
L423.599 274.171
L425.907 273.881
L431.141 272.914
L437.026 271.836
L441.191 271.354
L445.996 271.011
L449.631 270.963
L453.908 271.141
L466.338 271.786
L473.948 271.939
L489.519 272.014
L489.519 272.014" style="fill:none;stroke:#000000;stroke-linecap:square;"/>
   </g>
   <g id="line2d_47">
    <path clip-path="url(#p8743e5922f)" d="
M43.0727 368.107
L65.3262 368.02
L66.0621 367.759
L67.1765 367.055
L67.8012 366.529
L68.3037 365.825
L68.9355 364.511
L70.0828 361.466
L70.9843 358.739
L71.633 355.795
L72.417 351.043
L74.4032 336.999
L76.2913 321.189
L77.6605 310.168
L78.3516 306.951
L80.3102 299.632
L81.1603 297.527
L81.7306 296.672
L82.0169 296.488
L82.3038 296.497
L82.7356 296.829
L83.3139 297.733
L84.0409 299.399
L84.9194 302.053
L86.6966 308.425
L88.3494 314.994
L91.2592 327.145
L94.081 337.401
L95.5162 342.068
L96.4821 344.346
L98.7646 348.94
L100.921 352.762
L101.928 354.225
L102.773 355.077
L104.823 356.658
L107.605 358.552
L109.018 359.199
L111.344 359.959
L113.892 360.593
L115.925 360.889
L119.888 361.173
L122.783 361.161
L127.13 360.931
L130.778 360.517
L134.51 359.869
L138.542 358.978
L142.233 357.934
L146.005 356.666
L149.858 355.089
L153.561 353.334
L157.34 351.312
L161.196 349.012
L165.13 346.343
L169.399 343.219
L175.323 338.554
L185.495 329.938
L192.742 323.791
L196.745 320.746
L199.939 318.562
L202.586 317.038
L207.367 314.609
L221.664 308.049
L231.114 303.675
L235.464 301.652
L238.859 300.385
L241.261 299.691
L243.685 299.224
L245.78 299.053
L247.537 299.122
L249.306 299.419
L251.444 300
L253.597 300.79
L256.131 301.992
L259.421 303.856
L268.381 309.106
L271.428 310.647
L274.507 311.892
L277.616 312.942
L280.363 313.576
L283.931 314.145
L287.943 314.555
L292.006 314.755
L295.294 314.714
L299.869 314.42
L303.66 313.922
L307.495 313.237
L310.94 312.351
L315.735 310.855
L326.882 307.266
L333.742 305.249
L335.13 304.649
L336.988 303.549
L339.794 301.532
L342.148 299.66
L346.901 295.662
L348.339 294.94
L353.171 292.797
L358.557 289.986
L361.03 288.375
L364.018 286.168
L368.038 282.89
L372.099 279.294
L387.169 265.598
L391.425 262.105
L394.645 259.719
L397.89 257.605
L401.159 255.749
L403.902 254.409
L406.663 253.295
L409.999 252.217
L412.799 251.536
L415.051 251.173
L417.315 251.016
L419.59 251.101
L421.877 251.403
L424.752 252.028
L428.225 253.051
L431.141 254.118
L435.253 255.931
L443.587 259.625
L447.81 261.315
L453.908 263.691
L456.986 265.141
L461.328 267.49
L465.709 269.813
L468.862 271.202
L472.035 272.37
L475.228 273.322
L478.441 274.043
L481.675 274.554
L485.582 274.955
L489.519 275.205
L489.519 275.205" style="fill:none;stroke:#ffffff;stroke-linecap:square;stroke-width:3.0;"/>
   </g>
   <g id="line2d_48">
    <path clip-path="url(#p8743e5922f)" d="
M43.0727 368.107
L65.3262 368.02
L66.0621 367.759
L67.1765 367.055
L67.8012 366.529
L68.3037 365.825
L68.9355 364.511
L70.0828 361.466
L70.9843 358.739
L71.633 355.795
L72.417 351.043
L74.4032 336.999
L76.2913 321.189
L77.6605 310.168
L78.3516 306.951
L80.3102 299.632
L81.1603 297.527
L81.7306 296.672
L82.0169 296.488
L82.3038 296.497
L82.7356 296.829
L83.3139 297.733
L84.0409 299.399
L84.9194 302.053
L86.6966 308.425
L88.3494 314.994
L91.2592 327.145
L94.081 337.401
L95.5162 342.068
L96.4821 344.346
L98.7646 348.94
L100.921 352.762
L101.928 354.225
L102.773 355.077
L104.823 356.658
L107.605 358.552
L109.018 359.199
L111.344 359.959
L113.892 360.593
L115.925 360.889
L119.888 361.173
L122.783 361.161
L127.13 360.931
L130.778 360.517
L134.51 359.869
L138.542 358.978
L142.233 357.934
L146.005 356.666
L149.858 355.089
L153.561 353.334
L157.34 351.312
L161.196 349.012
L165.13 346.343
L169.399 343.219
L175.323 338.554
L185.495 329.938
L192.742 323.791
L196.745 320.746
L199.939 318.562
L202.586 317.038
L207.367 314.609
L221.664 308.049
L231.114 303.675
L235.464 301.652
L238.859 300.385
L241.261 299.691
L243.685 299.224
L245.78 299.053
L247.537 299.122
L249.306 299.419
L251.444 300
L253.597 300.79
L256.131 301.992
L259.421 303.856
L268.381 309.106
L271.428 310.647
L274.507 311.892
L277.616 312.942
L280.363 313.576
L283.931 314.145
L287.943 314.555
L292.006 314.755
L295.294 314.714
L299.869 314.42
L303.66 313.922
L307.495 313.237
L310.94 312.351
L315.735 310.855
L326.882 307.266
L333.742 305.249
L335.13 304.649
L336.988 303.549
L339.794 301.532
L342.148 299.66
L346.901 295.662
L348.339 294.94
L353.171 292.797
L358.557 289.986
L361.03 288.375
L364.018 286.168
L368.038 282.89
L372.099 279.294
L387.169 265.598
L391.425 262.105
L394.645 259.719
L397.89 257.605
L401.159 255.749
L403.902 254.409
L406.663 253.295
L409.999 252.217
L412.799 251.536
L415.051 251.173
L417.315 251.016
L419.59 251.101
L421.877 251.403
L424.752 252.028
L428.225 253.051
L431.141 254.118
L435.253 255.931
L443.587 259.625
L447.81 261.315
L453.908 263.691
L456.986 265.141
L461.328 267.49
L465.709 269.813
L468.862 271.202
L472.035 272.37
L475.228 273.322
L478.441 274.043
L481.675 274.554
L485.582 274.955
L489.519 275.205
L489.519 275.205" style="fill:none;stroke:#c0c0c0;stroke-linecap:square;"/>
   </g>
   <g id="line2d_49">
    <path clip-path="url(#p8743e5922f)" d="
M43.0727 368.107
L154.734 368.005
L156.625 367.719
L158.057 367.315
L159.258 366.725
L160.224 366.005
L161.196 364.987
L161.927 363.899
L162.662 362.388
L163.646 359.669
L164.882 355.474
L166.127 350.549
L167.379 344.67
L168.639 337.732
L170.672 324.993
L178.748 273.758
L180.081 267.338
L181.421 262.171
L183.042 256.971
L184.674 252.214
L185.77 249.691
L186.595 248.312
L187.423 247.389
L188.255 246.899
L189.089 246.699
L191.049 246.578
L191.894 246.743
L192.742 247.17
L193.879 248.088
L195.307 249.604
L197.033 251.773
L199.647 255.452
L202.882 260.421
L205.264 263.875
L208.578 268.245
L211.017 271.132
L214.412 274.96
L217.224 278.234
L223.268 284.978
L225.857 288.427
L233.447 298.569
L237.836 304.188
L241.261 308.2
L244.73 311.938
L247.537 314.706
L250.373 317.143
L253.237 319.385
L255.405 320.82
L258.32 322.452
L261.265 323.818
L264.24 324.966
L266.115 325.435
L268.381 325.729
L270.282 325.794
L271.811 325.601
L272.963 325.225
L274.12 324.572
L275.281 323.598
L276.836 321.913
L279.183 318.927
L281.548 315.554
L286.332 308.569
L287.54 307.351
L289.157 306.173
L292.415 304.153
L293.235 303.843
L294.057 303.703
L295.294 303.733
L299.033 304.243
L300.708 304.714
L303.237 305.8
L307.067 307.365
L313.547 309.737
L316.174 310.381
L320.596 311.2
L322.381 311.368
L323.725 311.322
L325.075 311.05
L326.43 310.492
L327.79 309.597
L329.155 308.325
L330.525 306.677
L331.9 304.667
L333.742 301.488
L336.058 296.946
L342.62 283.673
L346.901 275.469
L349.3 270.08
L352.685 262.335
L354.144 259.568
L355.12 258.093
L356.589 256.337
L358.557 254.439
L360.534 252.8
L361.526 252.182
L362.521 251.767
L364.018 251.485
L368.038 251.052
L371.08 250.356
L372.61 249.793
L373.633 249.164
L374.658 248.231
L375.686 246.979
L377.234 244.633
L379.825 240.028
L381.388 237.368
L382.433 235.879
L383.481 234.731
L384.532 233.919
L385.585 233.407
L386.641 233.163
L387.699 233.165
L388.76 233.438
L389.824 234.021
L390.891 234.952
L391.96 236.25
L393.569 238.716
L397.347 245.347
L406.109 260.845
L408.328 264.086
L410.558 266.933
L412.237 268.744
L413.923 270.217
L415.616 271.364
L417.315 272.24
L419.02 272.89
L420.732 273.311
L422.45 273.487
L424.175 273.447
L428.225 273.017
L434.663 272.173
L438.807 271.718
L444.79 271.307
L449.024 271.231
L453.908 271.391
L466.968 271.91
L475.869 272.046
L489.519 272.126
L489.519 272.126" style="fill:none;stroke:#ffffff;stroke-linecap:square;stroke-width:3.6;"/>
   </g>
   <g id="line2d_50">
    <path clip-path="url(#p8743e5922f)" d="
M43.0727 368.107
L154.734 368.005
L156.625 367.719
L158.057 367.315
L159.258 366.725
L160.224 366.005
L161.196 364.987
L161.927 363.899
L162.662 362.388
L163.646 359.669
L164.882 355.474
L166.127 350.549
L167.379 344.67
L168.639 337.732
L170.672 324.993
L178.748 273.758
L180.081 267.338
L181.421 262.171
L183.042 256.971
L184.674 252.214
L185.77 249.691
L186.595 248.312
L187.423 247.389
L188.255 246.899
L189.089 246.699
L191.049 246.578
L191.894 246.743
L192.742 247.17
L193.879 248.088
L195.307 249.604
L197.033 251.773
L199.647 255.452
L202.882 260.421
L205.264 263.875
L208.578 268.245
L211.017 271.132
L214.412 274.96
L217.224 278.234
L223.268 284.978
L225.857 288.427
L233.447 298.569
L237.836 304.188
L241.261 308.2
L244.73 311.938
L247.537 314.706
L250.373 317.143
L253.237 319.385
L255.405 320.82
L258.32 322.452
L261.265 323.818
L264.24 324.966
L266.115 325.435
L268.381 325.729
L270.282 325.794
L271.811 325.601
L272.963 325.225
L274.12 324.572
L275.281 323.598
L276.836 321.913
L279.183 318.927
L281.548 315.554
L286.332 308.569
L287.54 307.351
L289.157 306.173
L292.415 304.153
L293.235 303.843
L294.057 303.703
L295.294 303.733
L299.033 304.243
L300.708 304.714
L303.237 305.8
L307.067 307.365
L313.547 309.737
L316.174 310.381
L320.596 311.2
L322.381 311.368
L323.725 311.322
L325.075 311.05
L326.43 310.492
L327.79 309.597
L329.155 308.325
L330.525 306.677
L331.9 304.667
L333.742 301.488
L336.058 296.946
L342.62 283.673
L346.901 275.469
L349.3 270.08
L352.685 262.335
L354.144 259.568
L355.12 258.093
L356.589 256.337
L358.557 254.439
L360.534 252.8
L361.526 252.182
L362.521 251.767
L364.018 251.485
L368.038 251.052
L371.08 250.356
L372.61 249.793
L373.633 249.164
L374.658 248.231
L375.686 246.979
L377.234 244.633
L379.825 240.028
L381.388 237.368
L382.433 235.879
L383.481 234.731
L384.532 233.919
L385.585 233.407
L386.641 233.163
L387.699 233.165
L388.76 233.438
L389.824 234.021
L390.891 234.952
L391.96 236.25
L393.569 238.716
L397.347 245.347
L406.109 260.845
L408.328 264.086
L410.558 266.933
L412.237 268.744
L413.923 270.217
L415.616 271.364
L417.315 272.24
L419.02 272.89
L420.732 273.311
L422.45 273.487
L424.175 273.447
L428.225 273.017
L434.663 272.173
L438.807 271.718
L444.79 271.307
L449.024 271.231
L453.908 271.391
L466.968 271.91
L475.869 272.046
L489.519 272.126
L489.519 272.126" style="fill:none;stroke:#000000;stroke-linecap:square;stroke-width:1.6;"/>
   </g>
   <g id="line2d_51">
    <path clip-path="url(#p8743e5922f)" d="
M43.0727 368.107
L65.3262 368.004
L66.0621 367.696
L66.9278 367.047
L67.8012 366.214
L68.3037 365.41
L68.9355 363.934
L70.0828 360.503
L71.1137 356.906
L71.8937 353.151
L73.0749 346.047
L75.0737 332.864
L77.3853 317.204
L77.9364 314.636
L78.9077 311.482
L80.1692 307.748
L81.0182 305.892
L81.5878 305.043
L82.0169 304.731
L82.4476 304.764
L82.8799 305.074
L83.6042 305.956
L84.333 307.175
L85.3612 309.421
L87.1451 313.968
L88.5008 317.97
L95.1958 339.264
L96.3206 342.001
L98.6002 346.758
L100.921 351.094
L101.928 352.673
L102.773 353.633
L104.651 355.302
L107.43 357.504
L108.663 358.211
L110.445 358.953
L113.159 359.852
L115.183 360.31
L118.177 360.678
L121.039 360.863
L124.942 360.818
L128.741 360.564
L132.426 360.075
L137.046 359.194
L140.922 358.207
L145.333 356.818
L148.716 355.508
L152.396 353.865
L156.151 351.951
L160.467 349.48
L163.892 347.231
L168.639 343.842
L174.54 339.27
L181.96 333.072
L192.742 324.115
L196.456 321.404
L199.939 319.092
L202.586 317.591
L207.669 315.04
L220.706 309.162
L236.478 302.354
L239.543 301.431
L241.952 300.926
L244.382 300.642
L246.481 300.589
L248.244 300.732
L250.373 301.141
L252.878 301.847
L255.767 302.919
L259.054 304.415
L269.9 309.537
L272.963 310.721
L277.226 312.093
L279.969 312.744
L283.931 313.435
L288.347 313.968
L292.415 314.251
L296.121 314.276
L300.288 314.098
L304.509 313.649
L307.924 313.105
L311.373 312.306
L315.735 311.063
L333.742 305.432
L335.13 304.801
L336.988 303.668
L344.042 298.719
L346.423 297.065
L348.339 296.017
L353.171 293.522
L357.572 290.937
L360.534 288.975
L364.018 286.371
L368.038 283.052
L372.61 278.972
L384.532 268.097
L389.292 264.145
L393.032 261.319
L396.264 259.143
L400.066 256.891
L403.352 255.176
L406.663 253.719
L409.999 252.525
L412.799 251.751
L415.051 251.315
L417.315 251.076
L419.59 251.061
L421.877 251.259
L424.752 251.776
L427.645 252.527
L430.556 253.493
L433.486 254.703
L456.986 265.292
L466.338 269.895
L470.129 271.396
L473.948 272.645
L477.153 273.481
L480.379 274.125
L484.276 274.667
L489.519 275.134
L489.519 275.134" style="fill:none;stroke:#ffffff;stroke-linecap:square;stroke-width:3.6;"/>
   </g>
   <g id="line2d_52">
    <path clip-path="url(#p8743e5922f)" d="
M43.0727 368.107
L65.3262 368.004
L66.0621 367.696
L66.9278 367.047
L67.8012 366.214
L68.3037 365.41
L68.9355 363.934
L70.0828 360.503
L71.1137 356.906
L71.8937 353.151
L73.0749 346.047
L75.0737 332.864
L77.3853 317.204
L77.9364 314.636
L78.9077 311.482
L80.1692 307.748
L81.0182 305.892
L81.5878 305.043
L82.0169 304.731
L82.4476 304.764
L82.8799 305.074
L83.6042 305.956
L84.333 307.175
L85.3612 309.421
L87.1451 313.968
L88.5008 317.97
L95.1958 339.264
L96.3206 342.001
L98.6002 346.758
L100.921 351.094
L101.928 352.673
L102.773 353.633
L104.651 355.302
L107.43 357.504
L108.663 358.211
L110.445 358.953
L113.159 359.852
L115.183 360.31
L118.177 360.678
L121.039 360.863
L124.942 360.818
L128.741 360.564
L132.426 360.075
L137.046 359.194
L140.922 358.207
L145.333 356.818
L148.716 355.508
L152.396 353.865
L156.151 351.951
L160.467 349.48
L163.892 347.231
L168.639 343.842
L174.54 339.27
L181.96 333.072
L192.742 324.115
L196.456 321.404
L199.939 319.092
L202.586 317.591
L207.669 315.04
L220.706 309.162
L236.478 302.354
L239.543 301.431
L241.952 300.926
L244.382 300.642
L246.481 300.589
L248.244 300.732
L250.373 301.141
L252.878 301.847
L255.767 302.919
L259.054 304.415
L269.9 309.537
L272.963 310.721
L277.226 312.093
L279.969 312.744
L283.931 313.435
L288.347 313.968
L292.415 314.251
L296.121 314.276
L300.288 314.098
L304.509 313.649
L307.924 313.105
L311.373 312.306
L315.735 311.063
L333.742 305.432
L335.13 304.801
L336.988 303.668
L344.042 298.719
L346.423 297.065
L348.339 296.017
L353.171 293.522
L357.572 290.937
L360.534 288.975
L364.018 286.371
L368.038 283.052
L372.61 278.972
L384.532 268.097
L389.292 264.145
L393.032 261.319
L396.264 259.143
L400.066 256.891
L403.352 255.176
L406.663 253.719
L409.999 252.525
L412.799 251.751
L415.051 251.315
L417.315 251.076
L419.59 251.061
L421.877 251.259
L424.752 251.776
L427.645 252.527
L430.556 253.493
L433.486 254.703
L456.986 265.292
L466.338 269.895
L470.129 271.396
L473.948 272.645
L477.153 273.481
L480.379 274.125
L484.276 274.667
L489.519 275.134
L489.519 275.134" style="fill:none;stroke:#c0c0c0;stroke-linecap:square;stroke-width:1.6;"/>
   </g>
   <g id="line2d_53">
    <path clip-path="url(#p8743e5922f)" d="
M43.0727 368.107
L152.628 368.009
L154.264 367.848
L155.205 367.542
L156.151 367.001
L157.34 366.022
L158.296 364.897
L159.258 363.303
L160.224 361.15
L161.196 358.393
L162.417 354.185
L163.892 348.273
L165.877 339.342
L168.134 328.072
L170.672 313.972
L173.243 300.067
L174.801 292.763
L176.897 284.291
L178.748 277.248
L179.813 273.889
L180.884 271.153
L181.96 268.985
L184.129 265.339
L185.495 263.332
L186.595 262.092
L187.423 261.46
L188.255 261.117
L189.368 260.963
L192.742 260.927
L194.164 261.084
L195.307 261.449
L197.322 262.409
L199.647 263.761
L201.701 265.235
L204.368 267.503
L207.367 270.288
L210.099 273.14
L213.791 277.387
L217.224 281.631
L221.984 287.579
L230.782 297.938
L234.454 301.772
L237.156 304.209
L240.229 306.704
L243.685 309.164
L247.537 311.642
L250.373 313.185
L257.223 316.563
L260.157 317.782
L264.24 319.228
L266.115 319.659
L267.624 319.789
L269.14 319.699
L270.663 319.362
L272.195 318.756
L273.734 317.87
L275.281 316.709
L280.363 312.592
L281.944 311.753
L284.729 310.619
L286.734 310.006
L288.347 309.781
L294.057 309.448
L307.495 309.673
L316.613 309.226
L320.596 308.993
L322.381 308.688
L323.725 308.238
L325.075 307.503
L326.43 306.485
L328.244 304.791
L330.068 302.803
L332.36 299.933
L336.988 293.536
L338.856 290.712
L340.734 287.465
L344.042 281.186
L346.901 275.398
L351.715 265.397
L353.171 262.864
L354.632 260.79
L356.099 259.204
L357.572 257.958
L360.039 256.223
L363.02 254.132
L366.023 251.712
L369.556 248.607
L372.099 246.098
L373.633 244.321
L375.172 242.227
L378.787 237.05
L380.345 235.324
L381.388 234.49
L382.433 233.975
L383.481 233.813
L384.532 233.956
L385.585 234.334
L387.169 235.187
L388.76 236.282
L390.357 237.667
L391.96 239.397
L394.107 242.126
L400.066 250.309
L405.004 257.136
L407.772 260.557
L409.999 262.995
L411.677 264.587
L413.361 265.916
L415.051 266.974
L417.315 268.069
L419.59 268.928
L421.877 269.587
L425.329 270.295
L432.312 271.509
L435.843 271.694
L454.522 272.332
L462.576 272.425
L473.948 272.344
L489.519 272.217
L489.519 272.217" style="fill:none;stroke:#ffffff;stroke-linecap:square;stroke-width:4.56;"/>
   </g>
   <g id="line2d_54">
    <path clip-path="url(#p8743e5922f)" d="
M43.0727 368.107
L152.628 368.009
L154.264 367.848
L155.205 367.542
L156.151 367.001
L157.34 366.022
L158.296 364.897
L159.258 363.303
L160.224 361.15
L161.196 358.393
L162.417 354.185
L163.892 348.273
L165.877 339.342
L168.134 328.072
L170.672 313.972
L173.243 300.067
L174.801 292.763
L176.897 284.291
L178.748 277.248
L179.813 273.889
L180.884 271.153
L181.96 268.985
L184.129 265.339
L185.495 263.332
L186.595 262.092
L187.423 261.46
L188.255 261.117
L189.368 260.963
L192.742 260.927
L194.164 261.084
L195.307 261.449
L197.322 262.409
L199.647 263.761
L201.701 265.235
L204.368 267.503
L207.367 270.288
L210.099 273.14
L213.791 277.387
L217.224 281.631
L221.984 287.579
L230.782 297.938
L234.454 301.772
L237.156 304.209
L240.229 306.704
L243.685 309.164
L247.537 311.642
L250.373 313.185
L257.223 316.563
L260.157 317.782
L264.24 319.228
L266.115 319.659
L267.624 319.789
L269.14 319.699
L270.663 319.362
L272.195 318.756
L273.734 317.87
L275.281 316.709
L280.363 312.592
L281.944 311.753
L284.729 310.619
L286.734 310.006
L288.347 309.781
L294.057 309.448
L307.495 309.673
L316.613 309.226
L320.596 308.993
L322.381 308.688
L323.725 308.238
L325.075 307.503
L326.43 306.485
L328.244 304.791
L330.068 302.803
L332.36 299.933
L336.988 293.536
L338.856 290.712
L340.734 287.465
L344.042 281.186
L346.901 275.398
L351.715 265.397
L353.171 262.864
L354.632 260.79
L356.099 259.204
L357.572 257.958
L360.039 256.223
L363.02 254.132
L366.023 251.712
L369.556 248.607
L372.099 246.098
L373.633 244.321
L375.172 242.227
L378.787 237.05
L380.345 235.324
L381.388 234.49
L382.433 233.975
L383.481 233.813
L384.532 233.956
L385.585 234.334
L387.169 235.187
L388.76 236.282
L390.357 237.667
L391.96 239.397
L394.107 242.126
L400.066 250.309
L405.004 257.136
L407.772 260.557
L409.999 262.995
L411.677 264.587
L413.361 265.916
L415.051 266.974
L417.315 268.069
L419.59 268.928
L421.877 269.587
L425.329 270.295
L432.312 271.509
L435.843 271.694
L454.522 272.332
L462.576 272.425
L473.948 272.344
L489.519 272.217
L489.519 272.217" style="fill:none;stroke:#000000;stroke-linecap:square;stroke-width:2.56;"/>
   </g>
   <g id="line2d_55">
    <path clip-path="url(#p8743e5922f)" d="
M43.0727 368.107
L65.0821 368.005
L65.6934 367.791
L66.3087 367.305
L67.3011 366.11
L67.9266 365.165
L68.5559 363.715
L69.4438 360.898
L70.855 355.466
L72.6797 347.447
L75.6131 334.563
L77.5228 328.296
L78.213 326.762
L79.7471 324.168
L80.8762 322.616
L81.7306 321.776
L82.3038 321.536
L82.8799 321.558
L83.8952 321.857
L84.7726 322.333
L85.9528 323.275
L87.1451 324.481
L88.1982 325.843
L89.5661 328.015
L94.2396 336.227
L96.4821 339.944
L100.42 345.924
L102.603 348.886
L104.307 350.768
L107.605 354.01
L109.195 355.235
L111.344 356.539
L113.525 357.63
L115.183 358.242
L117.799 358.86
L120.463 359.318
L122.978 359.497
L126.53 359.554
L129.757 359.375
L133.257 358.941
L137.685 358.122
L141.358 357.189
L145.333 355.938
L148.716 354.63
L152.396 352.981
L156.151 351.038
L160.224 348.672
L163.399 346.564
L168.134 343.137
L174.801 337.938
L185.495 329.359
L191.049 325.168
L194.449 322.889
L198.772 320.296
L201.995 318.561
L207.972 315.739
L217.224 311.794
L222.304 309.797
L228.472 307.636
L234.454 305.858
L238.177 305.062
L241.606 304.524
L244.382 304.31
L247.537 304.264
L250.017 304.439
L253.597 304.948
L257.954 305.782
L268.381 308.17
L275.669 309.796
L281.548 310.906
L287.137 311.732
L292.006 312.267
L296.121 312.499
L300.288 312.525
L304.509 312.295
L307.924 311.926
L311.373 311.291
L315.296 310.322
L320.596 308.745
L332.82 304.685
L335.13 303.697
L337.455 302.364
L341.204 300.188
L350.747 294.912
L354.632 292.502
L358.557 289.789
L362.521 286.788
L367.029 283.061
L385.058 267.853
L389.824 264.252
L394.107 261.307
L397.347 259.325
L401.159 257.242
L404.453 255.654
L407.772 254.306
L411.117 253.182
L413.923 252.478
L416.748 252.034
L419.59 251.848
L421.877 251.897
L424.752 252.205
L428.225 252.841
L431.726 253.73
L435.843 255.066
L441.191 256.984
L446.6 259.224
L452.682 261.965
L466.968 268.612
L471.399 270.256
L475.869 271.668
L479.732 272.673
L483.625 273.475
L488.861 274.307
L489.519 274.395
L489.519 274.395" style="fill:none;stroke:#ffffff;stroke-linecap:square;stroke-width:4.56;"/>
   </g>
   <g id="line2d_56">
    <path clip-path="url(#p8743e5922f)" d="
M43.0727 368.107
L65.0821 368.005
L65.6934 367.791
L66.3087 367.305
L67.3011 366.11
L67.9266 365.165
L68.5559 363.715
L69.4438 360.898
L70.855 355.466
L72.6797 347.447
L75.6131 334.563
L77.5228 328.296
L78.213 326.762
L79.7471 324.168
L80.8762 322.616
L81.7306 321.776
L82.3038 321.536
L82.8799 321.558
L83.8952 321.857
L84.7726 322.333
L85.9528 323.275
L87.1451 324.481
L88.1982 325.843
L89.5661 328.015
L94.2396 336.227
L96.4821 339.944
L100.42 345.924
L102.603 348.886
L104.307 350.768
L107.605 354.01
L109.195 355.235
L111.344 356.539
L113.525 357.63
L115.183 358.242
L117.799 358.86
L120.463 359.318
L122.978 359.497
L126.53 359.554
L129.757 359.375
L133.257 358.941
L137.685 358.122
L141.358 357.189
L145.333 355.938
L148.716 354.63
L152.396 352.981
L156.151 351.038
L160.224 348.672
L163.399 346.564
L168.134 343.137
L174.801 337.938
L185.495 329.359
L191.049 325.168
L194.449 322.889
L198.772 320.296
L201.995 318.561
L207.972 315.739
L217.224 311.794
L222.304 309.797
L228.472 307.636
L234.454 305.858
L238.177 305.062
L241.606 304.524
L244.382 304.31
L247.537 304.264
L250.017 304.439
L253.597 304.948
L257.954 305.782
L268.381 308.17
L275.669 309.796
L281.548 310.906
L287.137 311.732
L292.006 312.267
L296.121 312.499
L300.288 312.525
L304.509 312.295
L307.924 311.926
L311.373 311.291
L315.296 310.322
L320.596 308.745
L332.82 304.685
L335.13 303.697
L337.455 302.364
L341.204 300.188
L350.747 294.912
L354.632 292.502
L358.557 289.789
L362.521 286.788
L367.029 283.061
L385.058 267.853
L389.824 264.252
L394.107 261.307
L397.347 259.325
L401.159 257.242
L404.453 255.654
L407.772 254.306
L411.117 253.182
L413.923 252.478
L416.748 252.034
L419.59 251.848
L421.877 251.897
L424.752 252.205
L428.225 252.841
L431.726 253.73
L435.843 255.066
L441.191 256.984
L446.6 259.224
L452.682 261.965
L466.968 268.612
L471.399 270.256
L475.869 271.668
L479.732 272.673
L483.625 273.475
L488.861 274.307
L489.519 274.395
L489.519 274.395" style="fill:none;stroke:#c0c0c0;stroke-linecap:square;stroke-width:2.56;"/>
   </g>
   <g id="matplotlib.axis_3">
    <g id="xtick_8">
     <g id="line2d_57">
      <g>
       <use style="stroke:#000000;stroke-width:0.5;" x="43.115625" xlink:href="#m93b0483c22" y="368.10725"/>
      </g>
     </g>
     <g id="line2d_58">
      <g>
       <use style="stroke:#000000;stroke-width:0.5;" x="43.115625" xlink:href="#m741efc42ff" y="211.016340909"/>
      </g>
     </g>
     <g id="text_19">
      <!-- 1 -->
      <g transform="translate(41.5340625 380.696625)scale(0.12 -0.12)">
       <use xlink:href="#ArialMT-31"/>
      </g>
     </g>
    </g>
    <g id="xtick_9">
     <g id="line2d_59">
      <g>
       <use style="stroke:#000000;stroke-width:0.5;" x="117.515625" xlink:href="#m93b0483c22" y="368.10725"/>
      </g>
     </g>
     <g id="line2d_60">
      <g>
       <use style="stroke:#000000;stroke-width:0.5;" x="117.515625" xlink:href="#m741efc42ff" y="211.016340909"/>
      </g>
     </g>
     <g id="text_20">
      <!-- 2 -->
      <g transform="translate(114.67125 380.696625)scale(0.12 -0.12)">
       <use xlink:href="#ArialMT-32"/>
      </g>
     </g>
    </g>
    <g id="xtick_10">
     <g id="line2d_61">
      <g>
       <use style="stroke:#000000;stroke-width:0.5;" x="191.915625" xlink:href="#m93b0483c22" y="368.10725"/>
      </g>
     </g>
     <g id="line2d_62">
      <g>
       <use style="stroke:#000000;stroke-width:0.5;" x="191.915625" xlink:href="#m741efc42ff" y="211.016340909"/>
      </g>
     </g>
     <g id="text_21">
      <!-- 3 -->
      <g transform="translate(189.103125 380.696625)scale(0.12 -0.12)">
       <use xlink:href="#ArialMT-33"/>
      </g>
     </g>
    </g>
    <g id="xtick_11">
     <g id="line2d_63">
      <g>
       <use style="stroke:#000000;stroke-width:0.5;" x="266.315625" xlink:href="#m93b0483c22" y="368.10725"/>
      </g>
     </g>
     <g id="line2d_64">
      <g>
       <use style="stroke:#000000;stroke-width:0.5;" x="266.315625" xlink:href="#m741efc42ff" y="211.016340909"/>
      </g>
     </g>
     <g id="text_22">
      <!-- 4 -->
      <g transform="translate(263.3446875 380.696625)scale(0.12 -0.12)">
       <use xlink:href="#ArialMT-34"/>
      </g>
     </g>
    </g>
    <g id="xtick_12">
     <g id="line2d_65">
      <g>
       <use style="stroke:#000000;stroke-width:0.5;" x="340.715625" xlink:href="#m93b0483c22" y="368.10725"/>
      </g>
     </g>
     <g id="line2d_66">
      <g>
       <use style="stroke:#000000;stroke-width:0.5;" x="340.715625" xlink:href="#m741efc42ff" y="211.016340909"/>
      </g>
     </g>
     <g id="text_23">
      <!-- 5 -->
      <g transform="translate(337.8684375 380.696625)scale(0.12 -0.12)">
       <use xlink:href="#ArialMT-35"/>
      </g>
     </g>
    </g>
    <g id="xtick_13">
     <g id="line2d_67">
      <g>
       <use style="stroke:#000000;stroke-width:0.5;" x="415.115625" xlink:href="#m93b0483c22" y="368.10725"/>
      </g>
     </g>
     <g id="line2d_68">
      <g>
       <use style="stroke:#000000;stroke-width:0.5;" x="415.115625" xlink:href="#m741efc42ff" y="211.016340909"/>
      </g>
     </g>
     <g id="text_24">
      <!-- 6 -->
      <g transform="translate(412.2796875 380.696625)scale(0.12 -0.12)">
       <use xlink:href="#ArialMT-36"/>
      </g>
     </g>
    </g>
    <g id="xtick_14">
     <g id="line2d_69">
      <g>
       <use style="stroke:#000000;stroke-width:0.5;" x="489.515625" xlink:href="#m93b0483c22" y="368.10725"/>
      </g>
     </g>
     <g id="line2d_70">
      <g>
       <use style="stroke:#000000;stroke-width:0.5;" x="489.515625" xlink:href="#m741efc42ff" y="211.016340909"/>
      </g>
     </g>
     <g id="text_25">
      <!-- 7 -->
      <g transform="translate(486.735 380.696625)scale(0.12 -0.12)">
       <use xlink:href="#ArialMT-37"/>
      </g>
     </g>
    </g>
    <g id="text_26">
     <!-- r, A -->
     <defs>
      <path d="
M-0.140625 0
L27.3438 71.5781
L37.5469 71.5781
L66.8438 0
L56.0625 0
L47.7031 21.6875
L17.7812 21.6875
L9.90625 0
z

M20.5156 29.3906
L44.7812 29.3906
L37.3125 49.2188
Q33.8906 58.25 32.2344 64.0625
Q30.8594 57.1719 28.375 50.3906
z
" id="ArialMT-41"/>
     </defs>
     <g transform="translate(257.6334375 396.671)scale(0.12 -0.12)">
      <use xlink:href="#ArialMT-72"/>
      <use x="27.80078125" xlink:href="#ArialMT-2c"/>
      <use x="55.583984375" xlink:href="#ArialMT-20"/>
      <use x="77.8671875" xlink:href="#ArialMT-41"/>
     </g>
    </g>
   </g>
   <g id="matplotlib.axis_4">
    <g id="ytick_10">
     <g id="line2d_71">
      <g>
       <use style="stroke:#000000;stroke-width:0.5;" x="43.115625" xlink:href="#m728421d6d4" y="368.10725"/>
      </g>
     </g>
     <g id="line2d_72">
      <g>
       <use style="stroke:#000000;stroke-width:0.5;" x="489.515625" xlink:href="#mcb0005524f" y="368.10725"/>
      </g>
     </g>
     <g id="text_27">
      <!-- 0.0 -->
      <g transform="translate(23.508125 371.2094375)scale(0.12 -0.12)">
       <use xlink:href="#ArialMT-30"/>
       <use x="55.615234375" xlink:href="#ArialMT-2e"/>
       <use x="83.3984375" xlink:href="#ArialMT-30"/>
      </g>
     </g>
    </g>
    <g id="ytick_11">
     <g id="line2d_73">
      <g>
       <use style="stroke:#000000;stroke-width:0.5;" x="43.115625" xlink:href="#m728421d6d4" y="348.470886364"/>
      </g>
     </g>
     <g id="line2d_74">
      <g>
       <use style="stroke:#000000;stroke-width:0.5;" x="489.515625" xlink:href="#mcb0005524f" y="348.470886364"/>
      </g>
     </g>
     <g id="text_28">
      <!-- 0.2 -->
      <g transform="translate(23.56625 351.573073864)scale(0.12 -0.12)">
       <use xlink:href="#ArialMT-30"/>
       <use x="55.615234375" xlink:href="#ArialMT-2e"/>
       <use x="83.3984375" xlink:href="#ArialMT-32"/>
      </g>
     </g>
    </g>
    <g id="ytick_12">
     <g id="line2d_75">
      <g>
       <use style="stroke:#000000;stroke-width:0.5;" x="43.115625" xlink:href="#m728421d6d4" y="328.834522727"/>
      </g>
     </g>
     <g id="line2d_76">
      <g>
       <use style="stroke:#000000;stroke-width:0.5;" x="489.515625" xlink:href="#mcb0005524f" y="328.834522727"/>
      </g>
     </g>
     <g id="text_29">
      <!-- 0.4 -->
      <g transform="translate(23.51375 331.936710227)scale(0.12 -0.12)">
       <use xlink:href="#ArialMT-30"/>
       <use x="55.615234375" xlink:href="#ArialMT-2e"/>
       <use x="83.3984375" xlink:href="#ArialMT-34"/>
      </g>
     </g>
    </g>
    <g id="ytick_13">
     <g id="line2d_77">
      <g>
       <use style="stroke:#000000;stroke-width:0.5;" x="43.115625" xlink:href="#m728421d6d4" y="309.198159091"/>
      </g>
     </g>
     <g id="line2d_78">
      <g>
       <use style="stroke:#000000;stroke-width:0.5;" x="489.515625" xlink:href="#mcb0005524f" y="309.198159091"/>
      </g>
     </g>
     <g id="text_30">
      <!-- 0.6 -->
      <g transform="translate(23.48375 312.300346591)scale(0.12 -0.12)">
       <use xlink:href="#ArialMT-30"/>
       <use x="55.615234375" xlink:href="#ArialMT-2e"/>
       <use x="83.3984375" xlink:href="#ArialMT-36"/>
      </g>
     </g>
    </g>
    <g id="ytick_14">
     <g id="line2d_79">
      <g>
       <use style="stroke:#000000;stroke-width:0.5;" x="43.115625" xlink:href="#m728421d6d4" y="289.561795455"/>
      </g>
     </g>
     <g id="line2d_80">
      <g>
       <use style="stroke:#000000;stroke-width:0.5;" x="489.515625" xlink:href="#mcb0005524f" y="289.561795455"/>
      </g>
     </g>
     <g id="text_31">
      <!-- 0.8 -->
      <g transform="translate(23.46125 292.663982955)scale(0.12 -0.12)">
       <use xlink:href="#ArialMT-30"/>
       <use x="55.615234375" xlink:href="#ArialMT-2e"/>
       <use x="83.3984375" xlink:href="#ArialMT-38"/>
      </g>
     </g>
    </g>
    <g id="ytick_15">
     <g id="line2d_81">
      <g>
       <use style="stroke:#000000;stroke-width:0.5;" x="43.115625" xlink:href="#m728421d6d4" y="269.925431818"/>
      </g>
     </g>
     <g id="line2d_82">
      <g>
       <use style="stroke:#000000;stroke-width:0.5;" x="489.515625" xlink:href="#mcb0005524f" y="269.925431818"/>
      </g>
     </g>
     <g id="text_32">
      <!-- 1.0 -->
      <g transform="translate(24.31625 273.027619318)scale(0.12 -0.12)">
       <use xlink:href="#ArialMT-31"/>
       <use x="55.615234375" xlink:href="#ArialMT-2e"/>
       <use x="83.3984375" xlink:href="#ArialMT-30"/>
      </g>
     </g>
    </g>
    <g id="ytick_16">
     <g id="line2d_83">
      <g>
       <use style="stroke:#000000;stroke-width:0.5;" x="43.115625" xlink:href="#m728421d6d4" y="250.289068182"/>
      </g>
     </g>
     <g id="line2d_84">
      <g>
       <use style="stroke:#000000;stroke-width:0.5;" x="489.515625" xlink:href="#mcb0005524f" y="250.289068182"/>
      </g>
     </g>
     <g id="text_33">
      <!-- 1.2 -->
      <g transform="translate(24.374375 253.391255682)scale(0.12 -0.12)">
       <use xlink:href="#ArialMT-31"/>
       <use x="55.615234375" xlink:href="#ArialMT-2e"/>
       <use x="83.3984375" xlink:href="#ArialMT-32"/>
      </g>
     </g>
    </g>
    <g id="ytick_17">
     <g id="line2d_85">
      <g>
       <use style="stroke:#000000;stroke-width:0.5;" x="43.115625" xlink:href="#m728421d6d4" y="230.652704545"/>
      </g>
     </g>
     <g id="line2d_86">
      <g>
       <use style="stroke:#000000;stroke-width:0.5;" x="489.515625" xlink:href="#mcb0005524f" y="230.652704545"/>
      </g>
     </g>
     <g id="text_34">
      <!-- 1.4 -->
      <g transform="translate(24.321875 233.754892045)scale(0.12 -0.12)">
       <use xlink:href="#ArialMT-31"/>
       <use x="55.615234375" xlink:href="#ArialMT-2e"/>
       <use x="83.3984375" xlink:href="#ArialMT-34"/>
      </g>
     </g>
    </g>
    <g id="ytick_18">
     <g id="line2d_87">
      <g>
       <use style="stroke:#000000;stroke-width:0.5;" x="43.115625" xlink:href="#m728421d6d4" y="211.016340909"/>
      </g>
     </g>
     <g id="line2d_88">
      <g>
       <use style="stroke:#000000;stroke-width:0.5;" x="489.515625" xlink:href="#mcb0005524f" y="211.016340909"/>
      </g>
     </g>
     <g id="text_35">
      <!-- 1.6 -->
      <g transform="translate(24.291875 214.118528409)scale(0.12 -0.12)">
       <use xlink:href="#ArialMT-31"/>
       <use x="55.615234375" xlink:href="#ArialMT-2e"/>
       <use x="83.3984375" xlink:href="#ArialMT-36"/>
      </g>
     </g>
    </g>
    <g id="text_36">
     <!-- g(r) -->
     <g transform="translate(15.935625 298.482107955)rotate(-90.0)scale(0.12 -0.12)">
      <use xlink:href="#ArialMT-67"/>
      <use x="55.615234375" xlink:href="#ArialMT-28"/>
      <use x="88.916015625" xlink:href="#ArialMT-72"/>
      <use x="122.216796875" xlink:href="#ArialMT-29"/>
     </g>
    </g>
   </g>
   <g id="patch_8">
    <path d="
M43.1156 211.016
L489.516 211.016" style="fill:none;stroke:#000000;"/>
   </g>
   <g id="patch_9">
    <path d="
M489.516 368.107
L489.516 211.016" style="fill:none;stroke:#000000;"/>
   </g>
   <g id="patch_10">
    <path d="
M43.1156 368.107
L489.516 368.107" style="fill:none;stroke:#000000;"/>
   </g>
   <g id="patch_11">
    <path d="
M43.1156 368.107
L43.1156 211.016" style="fill:none;stroke:#000000;"/>
   </g>
   <g id="text_37">
    <!-- O-OW, O-HW -->
    <g transform="translate(43.115625 206.016340909)scale(0.144 -0.144)">
     <use xlink:href="#ArialMT-4f"/>
     <use x="77.783203125" xlink:href="#ArialMT-2d"/>
     <use x="111.083984375" xlink:href="#ArialMT-4f"/>
     <use x="188.8671875" xlink:href="#ArialMT-57"/>
     <use x="277.751953125" xlink:href="#ArialMT-2c"/>
     <use x="305.53515625" xlink:href="#ArialMT-20"/>
     <use x="333.318359375" xlink:href="#ArialMT-4f"/>
     <use x="411.1015625" xlink:href="#ArialMT-2d"/>
     <use x="444.40234375" xlink:href="#ArialMT-48"/>
     <use x="516.619140625" xlink:href="#ArialMT-57"/>
    </g>
   </g>
  </g>
 </g>
 <defs>
  <clipPath id="p8743e5922f">
   <rect height="157.090909091" width="446.4" x="43.115625" y="211.016340909"/>
  </clipPath>
  <clipPath id="p64c10568c1">
   <rect height="157.090909091" width="446.4" x="43.115625" y="22.50725"/>
  </clipPath>
 </defs>
</svg>
