<?xml version="1.0" encoding="utf-8" standalone="no"?>
<!DOCTYPE svg PUBLIC "-//W3C//DTD SVG 1.1//EN"
  "http://www.w3.org/Graphics/SVG/1.1/DTD/svg11.dtd">
<!-- Created with matplotlib (http://matplotlib.org/) -->
<svg height="281pt" version="1.1" viewBox="0 0 496 281" width="496pt" xmlns="http://www.w3.org/2000/svg" xmlns:xlink="http://www.w3.org/1999/xlink">
 <defs>
  <style type="text/css">
*{stroke-linecap:butt;stroke-linejoin:round;}
  </style>
 </defs>
 <g id="figure_1">
  <g id="patch_1">
   <path d="
M0 281.236
L496.224 281.236
L496.224 0
L0 0
z
" style="fill:none;"/>
  </g>
  <g id="axes_1">
   <g id="patch_2">
    <path d="
M39.8438 243.087
L486.244 243.087
L486.244 12.6872
L39.8438 12.6872
z
" style="fill:none;"/>
   </g>
   <g id="line2d_1">
    <path clip-path="url(#peac924533e)" d="
M132.142 -1
L133.588 46.3824
L135.076 87.9659
L136.564 122.27
L138.052 150.16
L139.54 172.504
L141.028 190.055
L142.516 203.326
L144.004 212.892
L145.492 219.205
L146.98 222.594
L148.468 223.46
L149.956 222.24
L151.444 219.107
L152.932 214.361
L154.42 208.276
L155.908 200.924
L157.396 192.667
L158.884 183.512
L161.86 163.254
L164.836 141.557
L167.812 119.46
L170.788 99.1736
L172.276 89.4669
L173.764 81.3817
L175.252 74.6822
L176.74 69.5584
L178.228 65.0474
L179.716 62.5294
L181.204 58.7363
L182.692 58.7285
L184.18 58.0217
L185.668 56.4105
L187.156 56.0509
L188.644 56.4333
L190.132 56.3017
L191.62 56.6631
L193.108 57.867
L194.596 57.7999
L196.084 58.3228
L197.572 60.1788
L199.06 60.244
L200.548 62.7723
L202.036 63.6754
L203.524 65.8867
L205.012 66.6599
L206.5 68.6938
L207.988 71.1129
L209.476 72.5679
L212.452 76.7452
L213.94 79.5542
L215.428 81.9818
L216.916 83.7674
L218.404 86.7356
L219.892 89.1431
L224.356 97.4614
L225.844 100.043
L227.332 103.215
L231.796 111.147
L233.284 114.099
L239.236 124.665
L240.724 126.977
L243.7 132.089
L249.652 140.69
L254.116 146.337
L258.58 151.488
L260.068 153.164
L266.02 158.655
L270.484 162.336
L276.436 166.725
L282.388 170.513
L286.852 172.914
L288.34 173.697
L294.292 176.256
L300.244 178.022
L303.22 178.551
L307.684 178.999
L312.148 178.908
L316.612 178.331
L324.052 176.297
L327.028 175.209
L335.956 171.59
L340.42 169.769
L347.86 167.378
L352.324 166.357
L359.764 165.343
L362.74 165.174
L373.156 164.931
L376.132 164.97
L395.476 165.452
L396.964 165.571
L399.94 165.599
L405.892 165.879
L408.868 165.985
L414.82 166.239
L423.748 166.608
L429.7 166.831
L434.164 166.933
L438.628 167.09
L446.068 167.218
L453.508 167.366
L459.46 167.367
L465.412 167.35
L487.732 167.013
L487.732 167.013" style="fill:none;stroke:#000000;stroke-dasharray:6.000000,6.000000;stroke-dashoffset:0.0;"/>
   </g>
   <g id="line2d_2">
    <path clip-path="url(#peac924533e)" d="
M124.007 -1
L124.26 16.0065
L124.863 38.8734
L125.672 57.6934
L128.122 108.232
L129.985 133.768
L131.238 156.026
L132.079 166.515
L135.701 203.1
L136.564 208.856
L137.432 213.159
L138.304 216.364
L139.181 218.86
L140.062 220.771
L140.726 221.798
L141.393 222.501
L142.285 223.082
L143.182 223.391
L144.083 223.433
L144.762 223.255
L145.444 222.807
L146.128 221.976
L146.815 220.725
L147.966 218.031
L149.356 214.289
L150.523 210.549
L153.116 201.172
L154.307 196.211
L155.264 191.366
L156.227 185.293
L159.635 161.8
L161.61 151.14
L162.605 143.305
L166.127 112.361
L169.197 91.4405
L171.008 78.4549
L171.79 74.1499
L172.837 69.8633
L173.625 66.6674
L174.681 61.1008
L176.008 53.9785
L176.809 50.9532
L177.881 48.0375
L183.323 34.981
L184.428 33.1497
L185.817 31.3695
L188.34 28.6005
L189.471 27.6371
L190.892 26.7349
L192.609 25.9178
L194.05 25.4989
L195.501 25.3463
L196.96 25.4413
L198.429 25.7825
L199.907 26.39
L201.394 27.2913
L203.192 28.6777
L205.913 31.1063
L207.133 32.4911
L208.359 34.3559
L211.451 39.8757
L216.797 49.825
L218.072 52.6717
L220.641 59.2648
L222.585 64.0027
L224.872 69.3036
L226.188 73.0888
L227.51 77.6048
L231.855 93.3733
L234.905 103.693
L237.301 112.919
L239.026 119.085
L240.761 124.365
L243.21 131.078
L245.68 137.315
L247.814 142.091
L249.965 146.263
L252.133 149.942
L253.951 152.576
L256.517 155.84
L259.477 159.284
L262.092 161.965
L265.488 165.025
L268.156 167.184
L270.848 169.011
L273.954 170.918
L275.911 171.885
L277.881 172.639
L280.261 173.299
L283.462 173.916
L287.51 174.465
L290.374 174.858
L296.597 176.202
L303.367 177.555
L306.372 177.84
L309.404 177.895
L312.463 177.735
L315.549 177.355
L320.903 176.406
L330.47 174.685
L337.933 173.718
L343.629 172.935
L346.992 172.207
L350.385 171.254
L352.827 170.356
L356.272 168.838
L368.318 163.261
L371.9 161.999
L374.996 161.139
L378.116 160.518
L381.786 160.04
L385.488 159.768
L389.224 159.698
L394.075 159.856
L399.531 160.257
L406.727 161.039
L420.903 162.892
L430.802 164.075
L441.518 165.127
L453.714 166.093
L468.127 167.046
L479.052 167.564
L486.248 167.779
L486.248 167.779" style="fill:none;stroke:#ff0000;stroke-linecap:square;"/>
   </g>
   <g id="line2d_3">
    <path clip-path="url(#peac924533e)" d="
M39.8438 166.287
L486.244 166.287" style="fill:none;stroke:#000000;stroke-linecap:square;"/>
   </g>
   <g id="line2d_4">
    <path clip-path="url(#peac924533e)" d="
M123.76 -1
L123.858 17.3832
L124.059 34.6161
L124.662 64.6323
L125.267 83.8376
L126.078 102.942
L127.097 121.924
L128.947 150.9
L129.985 164.194
L131.029 174.657
L131.868 181.093
L134.842 199.692
L135.916 205.453
L136.781 209.067
L137.65 211.854
L138.742 214.498
L139.621 216.146
L140.505 217.308
L141.17 217.813
L141.838 218.071
L142.733 218.182
L143.858 218.081
L144.762 217.821
L145.444 217.463
L146.128 216.884
L147.045 215.744
L148.66 213.239
L150.055 210.752
L151.462 207.795
L152.879 204.327
L154.307 200.274
L155.505 196.228
L156.952 190.347
L161.115 172.013
L162.107 166.109
L163.605 155.338
L166.127 137.37
L168.168 123.303
L170.23 106.513
L171.269 98.7044
L172.051 94.2681
L174.416 83.0833
L176.275 71.9623
L177.076 68.8539
L178.419 64.9406
L180.585 58.6716
L182.772 52.1197
L183.875 49.5459
L184.983 47.4489
L186.935 44.3487
L188.905 41.4901
L190.322 39.9295
L192.035 38.4075
L193.473 37.3695
L194.919 36.6045
L196.375 36.1275
L197.84 35.9297
L199.019 35.964
L200.204 36.1923
L201.394 36.629
L202.891 37.4047
L205.306 38.9539
L206.522 39.9074
L207.439 40.895
L208.666 42.6784
L212.698 49.3999
L217.434 57.821
L219.033 61.4448
L222.585 69.7408
L224.872 74.6779
L226.188 78.1591
L227.51 82.2948
L232.192 97.8046
L234.905 106.344
L240.066 123.563
L242.158 129.082
L244.618 134.954
L246.745 139.458
L248.53 142.783
L250.325 145.729
L252.133 148.31
L253.951 150.525
L256.885 153.648
L261.342 158.084
L265.109 161.495
L268.156 164.065
L272.397 167.231
L274.735 168.777
L277.091 170.051
L279.863 171.329
L282.659 172.385
L285.885 173.379
L294.926 175.72
L301.662 177.276
L304.223 177.662
L307.236 177.861
L310.712 177.872
L314.223 177.637
L319.109 177.025
L326.796 175.819
L335.584 174.549
L343.151 173.391
L346.992 172.523
L350.872 171.427
L354.3 170.186
L358.752 168.316
L368.318 164.196
L372.415 162.731
L375.515 161.824
L378.638 161.126
L382.313 160.535
L386.552 160.101
L390.297 159.942
L395.161 159.977
L400.63 160.258
L407.286 160.847
L417.46 162.015
L434.941 164.016
L448.188 165.261
L463.696 166.478
L476.46 167.262
L486.248 167.68
L486.248 167.68" style="fill:none;stroke:#ff0000;stroke-linecap:square;stroke-width:1.6;"/>
   </g>
   <g id="line2d_5">
    <path clip-path="url(#peac924533e)" d="
M39.8438 166.287
L486.244 166.287" style="fill:none;stroke:#000000;stroke-linecap:square;"/>
   </g>
   <g id="line2d_6">
    <path clip-path="url(#peac924533e)" d="
M119.084 -1
L119.317 16.8395
L119.706 29.2991
L119.902 31.1351
L120.097 29.8534
L120.293 23.5656
L120.489 1.65256
M122.065 37.6307
L122.264 65.0087
L122.462 80.0219
L122.86 99.2122
L123.458 117.464
L124.26 133.775
L125.267 148.929
L126.281 160.797
L127.097 167.894
L128.122 174.777
L129.569 183.171
L130.401 187.016
L131.448 190.756
L132.713 194.531
L133.561 196.495
L134.414 197.82
L135.486 198.943
L136.781 199.988
L138.086 200.783
L139.621 201.446
L140.726 201.68
L141.838 201.656
L143.858 201.315
L145.672 200.826
L147.045 200.158
L148.66 199.416
L150.523 198.609
L151.933 197.747
L153.591 196.474
L157.195 193.322
L159.39 191.142
L161.115 189.112
L162.605 187.002
L164.61 183.742
L166.636 180.036
L168.168 176.845
L169.454 173.722
L171.008 169.236
L172.837 163.225
L173.888 159.058
L175.476 151.541
L177.612 141.572
L180.585 128.462
L183.323 113.94
L184.428 109.59
L186.096 104.092
L190.322 90.9841
L192.322 86.3409
L194.919 80.8632
L196.375 78.2461
L197.84 76.1077
L199.314 74.3882
L200.798 73.0288
L202.291 71.987
L203.794 71.2512
L205.306 70.7945
L206.218 70.676
L207.133 70.7687
L208.052 71.1518
L209.282 72.0319
L211.451 73.9531
L213.325 75.8807
L216.48 79.529
L218.072 81.702
L220.319 85.2523
L223.237 89.816
L224.872 92.373
L226.188 94.8728
L227.842 98.6386
L232.53 110.012
L234.564 114.992
L236.957 121.542
L239.026 127.04
L240.761 131.005
L242.858 135.186
L244.265 137.568
L245.68 139.578
L247.814 142.204
L249.965 144.53
L251.77 146.162
L254.317 148.127
L259.849 152.241
L265.868 157.566
L269.692 160.73
L275.519 165.338
L278.672 167.358
L281.458 168.879
L285.48 170.728
L294.51 174.53
L297.017 175.407
L299.965 176.139
L303.367 176.806
L305.941 177.058
L310.712 177.26
L314.664 177.178
L320.005 176.845
L325.883 176.246
L332.322 175.408
L338.404 174.412
L344.108 173.266
L350.385 171.744
L356.272 170.082
L364.766 167.422
L375.515 164.065
L380.209 162.824
L384.957 161.82
L389.224 161.148
L393.533 160.708
L398.434 160.436
L403.391 160.387
L408.965 160.554
L415.748 160.989
L424.373 161.778
L437.919 163.265
L458.056 165.465
L469.4 166.494
L479.702 167.222
L486.248 167.577
L486.248 167.577" style="fill:none;stroke:#ff0000;stroke-linecap:square;stroke-width:2.56;"/>
   </g>
   <g id="line2d_7">
    <path clip-path="url(#peac924533e)" d="
M39.8438 166.287
L486.244 166.287" style="fill:none;stroke:#000000;stroke-linecap:square;"/>
   </g>
   <g id="matplotlib.axis_1">
    <g id="xtick_1">
     <g id="line2d_8">
      <defs>
       <path d="
M0 0
L0 -4" id="m93b0483c22" style="stroke:#000000;stroke-width:0.5;"/>
      </defs>
      <g>
       <use style="stroke:#000000;stroke-width:0.5;" x="39.84375" xlink:href="#m93b0483c22" y="243.0871875"/>
      </g>
     </g>
     <g id="line2d_9">
      <defs>
       <path d="
M0 0
L0 4" id="m741efc42ff" style="stroke:#000000;stroke-width:0.5;"/>
      </defs>
      <g>
       <use style="stroke:#000000;stroke-width:0.5;" x="39.84375" xlink:href="#m741efc42ff" y="12.6871875"/>
      </g>
     </g>
     <g id="text_1">
      <!-- 1 -->
      <defs>
       <path d="
M37.25 0
L28.4688 0
L28.4688 56
Q25.2969 52.9844 20.1406 49.9531
Q14.9844 46.9219 10.8906 45.4062
L10.8906 53.9062
Q18.2656 57.375 23.7812 62.2969
Q29.2969 67.2344 31.5938 71.875
L37.25 71.875
z
" id="ArialMT-31"/>
      </defs>
      <g transform="translate(38.2621875 255.6765625)scale(0.12 -0.12)">
       <use xlink:href="#ArialMT-31"/>
      </g>
     </g>
    </g>
    <g id="xtick_2">
     <g id="line2d_10">
      <g>
       <use style="stroke:#000000;stroke-width:0.5;" x="114.24375" xlink:href="#m93b0483c22" y="243.0871875"/>
      </g>
     </g>
     <g id="line2d_11">
      <g>
       <use style="stroke:#000000;stroke-width:0.5;" x="114.24375" xlink:href="#m741efc42ff" y="12.6871875"/>
      </g>
     </g>
     <g id="text_2">
      <!-- 2 -->
      <defs>
       <path d="
M50.3438 8.45312
L50.3438 0
L3.03125 0
Q2.9375 3.17188 4.04688 6.10938
Q5.85938 10.9375 9.82812 15.625
Q13.8125 20.3125 21.3438 26.4688
Q33.0156 36.0312 37.1094 41.625
Q41.2188 47.2188 41.2188 52.2031
Q41.2188 57.4219 37.4688 61
Q33.7344 64.5938 27.7344 64.5938
Q21.3906 64.5938 17.5781 60.7812
Q13.7656 56.9844 13.7188 50.25
L4.6875 51.1719
Q5.60938 61.2812 11.6562 66.5781
Q17.7188 71.875 27.9375 71.875
Q38.2344 71.875 44.2344 66.1562
Q50.25 60.4531 50.25 52
Q50.25 47.7031 48.4844 43.5469
Q46.7344 39.4062 42.6562 34.8125
Q38.5781 30.2188 29.1094 22.2188
Q21.1875 15.5781 18.9375 13.2031
Q16.7031 10.8438 15.2344 8.45312
z
" id="ArialMT-32"/>
      </defs>
      <g transform="translate(111.399375 255.6765625)scale(0.12 -0.12)">
       <use xlink:href="#ArialMT-32"/>
      </g>
     </g>
    </g>
    <g id="xtick_3">
     <g id="line2d_12">
      <g>
       <use style="stroke:#000000;stroke-width:0.5;" x="188.64375" xlink:href="#m93b0483c22" y="243.0871875"/>
      </g>
     </g>
     <g id="line2d_13">
      <g>
       <use style="stroke:#000000;stroke-width:0.5;" x="188.64375" xlink:href="#m741efc42ff" y="12.6871875"/>
      </g>
     </g>
     <g id="text_3">
      <!-- 3 -->
      <defs>
       <path d="
M4.20312 18.8906
L12.9844 20.0625
Q14.5 12.5938 18.1406 9.29688
Q21.7812 6 27 6
Q33.2031 6 37.4688 10.2969
Q41.75 14.5938 41.75 20.9531
Q41.75 27 37.7969 30.9219
Q33.8438 34.8594 27.7344 34.8594
Q25.25 34.8594 21.5312 33.8906
L22.5156 41.6094
Q23.3906 41.5 23.9219 41.5
Q29.5469 41.5 34.0312 44.4219
Q38.5312 47.3594 38.5312 53.4688
Q38.5312 58.2969 35.25 61.4688
Q31.9844 64.6562 26.8125 64.6562
Q21.6875 64.6562 18.2656 61.4219
Q14.8438 58.2031 13.875 51.7656
L5.07812 53.3281
Q6.6875 62.1562 12.3906 67.0156
Q18.1094 71.875 26.6094 71.875
Q32.4688 71.875 37.3906 69.3594
Q42.3281 66.8438 44.9375 62.5
Q47.5625 58.1562 47.5625 53.2656
Q47.5625 48.6406 45.0625 44.8281
Q42.5781 41.0156 37.7031 38.7656
Q44.0469 37.3125 47.5625 32.6875
Q51.0781 28.0781 51.0781 21.1406
Q51.0781 11.7656 44.2344 5.25
Q37.4062 -1.26562 26.9531 -1.26562
Q17.5312 -1.26562 11.2969 4.34375
Q5.07812 9.96875 4.20312 18.8906" id="ArialMT-33"/>
      </defs>
      <g transform="translate(185.83125 255.6765625)scale(0.12 -0.12)">
       <use xlink:href="#ArialMT-33"/>
      </g>
     </g>
    </g>
    <g id="xtick_4">
     <g id="line2d_14">
      <g>
       <use style="stroke:#000000;stroke-width:0.5;" x="263.04375" xlink:href="#m93b0483c22" y="243.0871875"/>
      </g>
     </g>
     <g id="line2d_15">
      <g>
       <use style="stroke:#000000;stroke-width:0.5;" x="263.04375" xlink:href="#m741efc42ff" y="12.6871875"/>
      </g>
     </g>
     <g id="text_4">
      <!-- 4 -->
      <defs>
       <path d="
M32.3281 0
L32.3281 17.1406
L1.26562 17.1406
L1.26562 25.2031
L33.9375 71.5781
L41.1094 71.5781
L41.1094 25.2031
L50.7812 25.2031
L50.7812 17.1406
L41.1094 17.1406
L41.1094 0
z

M32.3281 25.2031
L32.3281 57.4688
L9.90625 25.2031
z
" id="ArialMT-34"/>
      </defs>
      <g transform="translate(260.0728125 255.6765625)scale(0.12 -0.12)">
       <use xlink:href="#ArialMT-34"/>
      </g>
     </g>
    </g>
    <g id="xtick_5">
     <g id="line2d_16">
      <g>
       <use style="stroke:#000000;stroke-width:0.5;" x="337.44375" xlink:href="#m93b0483c22" y="243.0871875"/>
      </g>
     </g>
     <g id="line2d_17">
      <g>
       <use style="stroke:#000000;stroke-width:0.5;" x="337.44375" xlink:href="#m741efc42ff" y="12.6871875"/>
      </g>
     </g>
     <g id="text_5">
      <!-- 5 -->
      <defs>
       <path d="
M4.15625 18.75
L13.375 19.5312
Q14.4062 12.7969 18.1406 9.39062
Q21.875 6 27.1562 6
Q33.5 6 37.8906 10.7812
Q42.2812 15.5781 42.2812 23.4844
Q42.2812 31 38.0625 35.3438
Q33.8438 39.7031 27 39.7031
Q22.75 39.7031 19.3281 37.7656
Q15.9219 35.8438 13.9688 32.7656
L5.71875 33.8438
L12.6406 70.6094
L48.25 70.6094
L48.25 62.2031
L19.6719 62.2031
L15.8281 42.9688
Q22.2656 47.4688 29.3438 47.4688
Q38.7188 47.4688 45.1562 40.9688
Q51.6094 34.4688 51.6094 24.2656
Q51.6094 14.5469 45.9531 7.46875
Q39.0625 -1.21875 27.1562 -1.21875
Q17.3906 -1.21875 11.2031 4.25
Q5.03125 9.71875 4.15625 18.75" id="ArialMT-35"/>
      </defs>
      <g transform="translate(334.5965625 255.6765625)scale(0.12 -0.12)">
       <use xlink:href="#ArialMT-35"/>
      </g>
     </g>
    </g>
    <g id="xtick_6">
     <g id="line2d_18">
      <g>
       <use style="stroke:#000000;stroke-width:0.5;" x="411.84375" xlink:href="#m93b0483c22" y="243.0871875"/>
      </g>
     </g>
     <g id="line2d_19">
      <g>
       <use style="stroke:#000000;stroke-width:0.5;" x="411.84375" xlink:href="#m741efc42ff" y="12.6871875"/>
      </g>
     </g>
     <g id="text_6">
      <!-- 6 -->
      <defs>
       <path d="
M49.75 54.0469
L41.0156 53.375
Q39.8438 58.5469 37.7031 60.8906
Q34.125 64.6562 28.9062 64.6562
Q24.7031 64.6562 21.5312 62.3125
Q17.3906 59.2812 14.9844 53.4688
Q12.5938 47.6562 12.5 36.9219
Q15.6719 41.75 20.2656 44.0938
Q24.8594 46.4375 29.8906 46.4375
Q38.6719 46.4375 44.8438 39.9688
Q51.0312 33.5 51.0312 23.25
Q51.0312 16.5 48.125 10.7188
Q45.2188 4.9375 40.1406 1.85938
Q35.0625 -1.21875 28.6094 -1.21875
Q17.625 -1.21875 10.6875 6.85938
Q3.76562 14.9375 3.76562 33.5
Q3.76562 54.25 11.4219 63.6719
Q18.1094 71.875 29.4375 71.875
Q37.8906 71.875 43.2812 67.1406
Q48.6875 62.4062 49.75 54.0469
M13.875 23.1875
Q13.875 18.6562 15.7969 14.5
Q17.7188 10.3594 21.1875 8.17188
Q24.6562 6 28.4688 6
Q34.0312 6 38.0312 10.4844
Q42.0469 14.9844 42.0469 22.7031
Q42.0469 30.125 38.0781 34.3906
Q34.125 38.6719 28.125 38.6719
Q22.1719 38.6719 18.0156 34.3906
Q13.875 30.125 13.875 23.1875" id="ArialMT-36"/>
      </defs>
      <g transform="translate(409.0078125 255.6765625)scale(0.12 -0.12)">
       <use xlink:href="#ArialMT-36"/>
      </g>
     </g>
    </g>
    <g id="xtick_7">
     <g id="line2d_20">
      <g>
       <use style="stroke:#000000;stroke-width:0.5;" x="486.24375" xlink:href="#m93b0483c22" y="243.0871875"/>
      </g>
     </g>
     <g id="line2d_21">
      <g>
       <use style="stroke:#000000;stroke-width:0.5;" x="486.24375" xlink:href="#m741efc42ff" y="12.6871875"/>
      </g>
     </g>
     <g id="text_7">
      <!-- 7 -->
      <defs>
       <path d="
M4.73438 62.2031
L4.73438 70.6562
L51.0781 70.6562
L51.0781 63.8125
Q44.2344 56.5469 37.5156 44.4844
Q30.8125 32.4219 27.1562 19.6719
Q24.5156 10.6875 23.7812 0
L14.75 0
Q14.8906 8.45312 18.0625 20.4062
Q21.2344 32.375 27.1719 43.4844
Q33.1094 54.5938 39.7969 62.2031
z
" id="ArialMT-37"/>
      </defs>
      <g transform="translate(483.463125 255.6765625)scale(0.12 -0.12)">
       <use xlink:href="#ArialMT-37"/>
      </g>
     </g>
    </g>
    <g id="text_8">
     <!-- r, A -->
     <defs>
      <path d="
M-0.140625 0
L27.3438 71.5781
L37.5469 71.5781
L66.8438 0
L56.0625 0
L47.7031 21.6875
L17.7812 21.6875
L9.90625 0
z

M20.5156 29.3906
L44.7812 29.3906
L37.3125 49.2188
Q33.8906 58.25 32.2344 64.0625
Q30.8594 57.1719 28.375 50.3906
z
" id="ArialMT-41"/>
      <path d="
M8.89062 0
L8.89062 10.0156
L18.8906 10.0156
L18.8906 0
Q18.8906 -5.51562 16.9375 -8.90625
Q14.9844 -12.3125 10.75 -14.1562
L8.29688 -10.4062
Q11.0781 -9.1875 12.3906 -6.8125
Q13.7188 -4.4375 13.875 0
z
" id="ArialMT-2c"/>
      <path d="
M6.5 0
L6.5 51.8594
L14.4062 51.8594
L14.4062 44
Q17.4375 49.5156 20 51.2656
Q22.5625 53.0312 25.6406 53.0312
Q30.0781 53.0312 34.6719 50.2031
L31.6406 42.0469
Q28.4219 43.9531 25.2031 43.9531
Q22.3125 43.9531 20.0156 42.2188
Q17.7188 40.4844 16.75 37.4062
Q15.2812 32.7188 15.2812 27.1562
L15.2812 0
z
" id="ArialMT-72"/>
      <path id="ArialMT-20"/>
     </defs>
     <g transform="translate(254.3615625 271.6509375)scale(0.12 -0.12)">
      <use xlink:href="#ArialMT-72"/>
      <use x="27.80078125" xlink:href="#ArialMT-2c"/>
      <use x="55.583984375" xlink:href="#ArialMT-20"/>
      <use x="77.8671875" xlink:href="#ArialMT-41"/>
     </g>
    </g>
   </g>
   <g id="matplotlib.axis_2">
    <g id="ytick_1">
     <g id="line2d_22">
      <defs>
       <path d="
M0 0
L4 0" id="m728421d6d4" style="stroke:#000000;stroke-width:0.5;"/>
      </defs>
      <g>
       <use style="stroke:#000000;stroke-width:0.5;" x="39.84375" xlink:href="#m728421d6d4" y="243.0871875"/>
      </g>
     </g>
     <g id="line2d_23">
      <defs>
       <path d="
M0 0
L-4 0" id="mcb0005524f" style="stroke:#000000;stroke-width:0.5;"/>
      </defs>
      <g>
       <use style="stroke:#000000;stroke-width:0.5;" x="486.24375" xlink:href="#mcb0005524f" y="243.0871875"/>
      </g>
     </g>
     <g id="text_9">
      <!-- −2 -->
      <defs>
       <path d="
M52.8281 31.2031
L5.5625 31.2031
L5.5625 39.4062
L52.8281 39.4062
z
" id="ArialMT-2212"/>
      </defs>
      <g transform="translate(23.46125 246.189375)scale(0.12 -0.12)">
       <use xlink:href="#ArialMT-2212"/>
       <use x="58.3984375" xlink:href="#ArialMT-32"/>
      </g>
     </g>
    </g>
    <g id="ytick_2">
     <g id="line2d_24">
      <g>
       <use style="stroke:#000000;stroke-width:0.5;" x="39.84375" xlink:href="#m728421d6d4" y="204.6871875"/>
      </g>
     </g>
     <g id="line2d_25">
      <g>
       <use style="stroke:#000000;stroke-width:0.5;" x="486.24375" xlink:href="#mcb0005524f" y="204.6871875"/>
      </g>
     </g>
     <g id="text_10">
      <!-- −1 -->
      <g transform="translate(25.0325 207.789375)scale(0.12 -0.12)">
       <use xlink:href="#ArialMT-2212"/>
       <use x="58.3984375" xlink:href="#ArialMT-31"/>
      </g>
     </g>
    </g>
    <g id="ytick_3">
     <g id="line2d_26">
      <g>
       <use style="stroke:#000000;stroke-width:0.5;" x="39.84375" xlink:href="#m728421d6d4" y="166.2871875"/>
      </g>
     </g>
     <g id="line2d_27">
      <g>
       <use style="stroke:#000000;stroke-width:0.5;" x="486.24375" xlink:href="#mcb0005524f" y="166.2871875"/>
      </g>
     </g>
     <g id="text_11">
      <!-- 0 -->
      <defs>
       <path d="
M4.15625 35.2969
Q4.15625 48 6.76562 55.7344
Q9.375 63.4844 14.5156 67.6719
Q19.6719 71.875 27.4844 71.875
Q33.25 71.875 37.5938 69.5469
Q41.9375 67.2344 44.7656 62.8594
Q47.6094 58.5 49.2188 52.2188
Q50.8281 45.9531 50.8281 35.2969
Q50.8281 22.7031 48.2344 14.9688
Q45.6562 7.23438 40.5 3
Q35.3594 -1.21875 27.4844 -1.21875
Q17.1406 -1.21875 11.2344 6.20312
Q4.15625 15.1406 4.15625 35.2969
M13.1875 35.2969
Q13.1875 17.6719 17.3125 11.8281
Q21.4375 6 27.4844 6
Q33.5469 6 37.6719 11.8594
Q41.7969 17.7188 41.7969 35.2969
Q41.7969 52.9844 37.6719 58.7812
Q33.5469 64.5938 27.3906 64.5938
Q21.3438 64.5938 17.7188 59.4688
Q13.1875 52.9375 13.1875 35.2969" id="ArialMT-30"/>
      </defs>
      <g transform="translate(30.243125 169.389375)scale(0.12 -0.12)">
       <use xlink:href="#ArialMT-30"/>
      </g>
     </g>
    </g>
    <g id="ytick_4">
     <g id="line2d_28">
      <g>
       <use style="stroke:#000000;stroke-width:0.5;" x="39.84375" xlink:href="#m728421d6d4" y="127.8871875"/>
      </g>
     </g>
     <g id="line2d_29">
      <g>
       <use style="stroke:#000000;stroke-width:0.5;" x="486.24375" xlink:href="#mcb0005524f" y="127.8871875"/>
      </g>
     </g>
     <g id="text_12">
      <!-- 1 -->
      <g transform="translate(32.680625 130.989375)scale(0.12 -0.12)">
       <use xlink:href="#ArialMT-31"/>
      </g>
     </g>
    </g>
    <g id="ytick_5">
     <g id="line2d_30">
      <g>
       <use style="stroke:#000000;stroke-width:0.5;" x="39.84375" xlink:href="#m728421d6d4" y="89.4871875"/>
      </g>
     </g>
     <g id="line2d_31">
      <g>
       <use style="stroke:#000000;stroke-width:0.5;" x="486.24375" xlink:href="#mcb0005524f" y="89.4871875"/>
      </g>
     </g>
     <g id="text_13">
      <!-- 2 -->
      <g transform="translate(30.155 92.589375)scale(0.12 -0.12)">
       <use xlink:href="#ArialMT-32"/>
      </g>
     </g>
    </g>
    <g id="ytick_6">
     <g id="line2d_32">
      <g>
       <use style="stroke:#000000;stroke-width:0.5;" x="39.84375" xlink:href="#m728421d6d4" y="51.0871875"/>
      </g>
     </g>
     <g id="line2d_33">
      <g>
       <use style="stroke:#000000;stroke-width:0.5;" x="486.24375" xlink:href="#mcb0005524f" y="51.0871875"/>
      </g>
     </g>
     <g id="text_14">
      <!-- 3 -->
      <g transform="translate(30.21875 54.189375)scale(0.12 -0.12)">
       <use xlink:href="#ArialMT-33"/>
      </g>
     </g>
    </g>
    <g id="ytick_7">
     <g id="line2d_34">
      <g>
       <use style="stroke:#000000;stroke-width:0.5;" x="39.84375" xlink:href="#m728421d6d4" y="12.6871875"/>
      </g>
     </g>
     <g id="line2d_35">
      <g>
       <use style="stroke:#000000;stroke-width:0.5;" x="486.24375" xlink:href="#mcb0005524f" y="12.6871875"/>
      </g>
     </g>
     <g id="text_15">
      <!-- 4 -->
      <g transform="translate(29.901875 15.789375)scale(0.12 -0.12)">
       <use xlink:href="#ArialMT-34"/>
      </g>
     </g>
    </g>
    <g id="text_16">
     <!-- W(r), kcal/mol -->
     <defs>
      <path d="
M40.4375 19
L49.0781 17.875
Q47.6562 8.9375 41.8125 3.875
Q35.9844 -1.17188 27.4844 -1.17188
Q16.8438 -1.17188 10.375 5.78125
Q3.90625 12.75 3.90625 25.7344
Q3.90625 34.125 6.6875 40.4219
Q9.46875 46.7344 15.1562 49.875
Q20.8438 53.0312 27.5469 53.0312
Q35.9844 53.0312 41.3594 48.75
Q46.7344 44.4844 48.25 36.625
L39.7031 35.2969
Q38.4844 40.5312 35.375 43.1562
Q32.2812 45.7969 27.875 45.7969
Q21.2344 45.7969 17.0781 41.0312
Q12.9375 36.2812 12.9375 25.9844
Q12.9375 15.5312 16.9375 10.7969
Q20.9531 6.0625 27.3906 6.0625
Q32.5625 6.0625 36.0312 9.23438
Q39.5 12.4062 40.4375 19" id="ArialMT-63"/>
      <path d="
M40.4375 6.39062
Q35.5469 2.25 31.0312 0.53125
Q26.5156 -1.17188 21.3438 -1.17188
Q12.7969 -1.17188 8.20312 3
Q3.60938 7.17188 3.60938 13.6719
Q3.60938 17.4844 5.34375 20.625
Q7.07812 23.7812 9.89062 25.6875
Q12.7031 27.5938 16.2188 28.5625
Q18.7969 29.25 24.0312 29.8906
Q34.6719 31.1562 39.7031 32.9062
Q39.75 34.7188 39.75 35.2031
Q39.75 40.5781 37.25 42.7812
Q33.8906 45.75 27.25 45.75
Q21.0469 45.75 18.0938 43.5781
Q15.1406 41.4062 13.7188 35.8906
L5.125 37.0625
Q6.29688 42.5781 8.98438 45.9688
Q11.6719 49.3594 16.75 51.1875
Q21.8281 53.0312 28.5156 53.0312
Q35.1562 53.0312 39.2969 51.4688
Q43.4531 49.9062 45.4062 47.5312
Q47.3594 45.1719 48.1406 41.5469
Q48.5781 39.3125 48.5781 33.4531
L48.5781 21.7344
Q48.5781 9.46875 49.1406 6.21875
Q49.7031 2.98438 51.375 0
L42.1875 0
Q40.8281 2.73438 40.4375 6.39062
M39.7031 26.0312
Q34.9062 24.0781 25.3438 22.7031
Q19.9219 21.9219 17.6719 20.9375
Q15.4375 19.9688 14.2031 18.0938
Q12.9844 16.2188 12.9844 13.9219
Q12.9844 10.4062 15.6406 8.0625
Q18.3125 5.71875 23.4375 5.71875
Q28.5156 5.71875 32.4688 7.9375
Q36.4219 10.1562 38.2812 14.0156
Q39.7031 17 39.7031 22.7969
z
" id="ArialMT-61"/>
      <path d="
M0 -1.21875
L20.75 72.7969
L27.7812 72.7969
L7.07812 -1.21875
z
" id="ArialMT-2f"/>
      <path d="
M6.59375 0
L6.59375 51.8594
L14.4531 51.8594
L14.4531 44.5781
Q16.8906 48.3906 20.9375 50.7031
Q25 53.0312 30.1719 53.0312
Q35.9375 53.0312 39.625 50.6406
Q43.3125 48.25 44.8281 43.9531
Q50.9844 53.0312 60.8438 53.0312
Q68.5625 53.0312 72.7031 48.75
Q76.8594 44.4844 76.8594 35.5938
L76.8594 0
L68.1094 0
L68.1094 32.6719
Q68.1094 37.9375 67.25 40.25
Q66.4062 42.5781 64.1562 43.9844
Q61.9219 45.4062 58.8906 45.4062
Q53.4219 45.4062 49.7969 41.7656
Q46.1875 38.1406 46.1875 30.125
L46.1875 0
L37.4062 0
L37.4062 33.6875
Q37.4062 39.5469 35.25 42.4688
Q33.1094 45.4062 28.2188 45.4062
Q24.5156 45.4062 21.3594 43.4531
Q18.2188 41.5 16.7969 37.7344
Q15.375 33.9844 15.375 26.9062
L15.375 0
z
" id="ArialMT-6d"/>
      <path d="
M20.2188 0
L1.21875 71.5781
L10.9375 71.5781
L21.8281 24.6562
Q23.5781 17.2812 24.8594 10.0156
Q27.5938 21.4844 28.0781 23.25
L41.7031 71.5781
L53.125 71.5781
L63.375 35.3594
Q67.2344 21.875 68.9531 10.0156
Q70.3125 16.7969 72.5156 25.5938
L83.7344 71.5781
L93.2656 71.5781
L73.6406 0
L64.5 0
L49.4219 54.5469
Q47.5156 61.375 47.1719 62.9375
Q46.0469 58.0156 45.0625 54.5469
L29.8906 0
z
" id="ArialMT-57"/>
      <path d="
M6.39062 0
L6.39062 71.5781
L15.1875 71.5781
L15.1875 0
z
" id="ArialMT-6c"/>
      <path d="
M6.64062 0
L6.64062 71.5781
L15.4375 71.5781
L15.4375 30.7656
L36.2344 51.8594
L47.6094 51.8594
L27.7812 32.625
L49.6094 0
L38.7656 0
L21.625 26.5156
L15.4375 20.5625
L15.4375 0
z
" id="ArialMT-6b"/>
      <path d="
M3.32812 25.9219
Q3.32812 40.3281 11.3281 47.2656
Q18.0156 53.0312 27.6406 53.0312
Q38.3281 53.0312 45.1094 46.0156
Q51.9062 39.0156 51.9062 26.6562
Q51.9062 16.6562 48.9062 10.9062
Q45.9062 5.17188 40.1562 2
Q34.4219 -1.17188 27.6406 -1.17188
Q16.75 -1.17188 10.0312 5.8125
Q3.32812 12.7969 3.32812 25.9219
M12.3594 25.9219
Q12.3594 15.9688 16.7031 11.0156
Q21.0469 6.0625 27.6406 6.0625
Q34.1875 6.0625 38.5312 11.0312
Q42.875 16.0156 42.875 26.2188
Q42.875 35.8438 38.5 40.7969
Q34.125 45.75 27.6406 45.75
Q21.0469 45.75 16.7031 40.8125
Q12.3594 35.8906 12.3594 25.9219" id="ArialMT-6f"/>
      <path d="
M12.3594 -21.0469
L6.0625 -21.0469
Q20.6562 2.39062 20.6562 25.875
Q20.6562 35.0625 18.5625 44.0938
Q16.8906 51.4219 13.9219 58.1562
Q12.0156 62.5469 6.0625 72.7969
L12.3594 72.7969
Q21.5312 60.5469 25.9219 48.1875
Q29.6875 37.5469 29.6875 25.9219
Q29.6875 12.75 24.625 0.4375
Q19.5781 -11.8594 12.3594 -21.0469" id="ArialMT-29"/>
      <path d="
M23.3906 -21.0469
Q16.1094 -11.8594 11.0781 0.4375
Q6.0625 12.75 6.0625 25.9219
Q6.0625 37.5469 9.8125 48.1875
Q14.2031 60.5469 23.3906 72.7969
L29.6875 72.7969
Q23.7812 62.6406 21.875 58.2969
Q18.8906 51.5625 17.1875 44.2344
Q15.0938 35.1094 15.0938 25.875
Q15.0938 2.39062 29.6875 -21.0469
z
" id="ArialMT-28"/>
     </defs>
     <g transform="translate(15.935625 164.46)rotate(-90.0)scale(0.12 -0.12)">
      <use xlink:href="#ArialMT-57"/>
      <use x="94.384765625" xlink:href="#ArialMT-28"/>
      <use x="127.685546875" xlink:href="#ArialMT-72"/>
      <use x="160.986328125" xlink:href="#ArialMT-29"/>
      <use x="194.287109375" xlink:href="#ArialMT-2c"/>
      <use x="222.0703125" xlink:href="#ArialMT-20"/>
      <use x="249.853515625" xlink:href="#ArialMT-6b"/>
      <use x="299.853515625" xlink:href="#ArialMT-63"/>
      <use x="349.853515625" xlink:href="#ArialMT-61"/>
      <use x="405.46875" xlink:href="#ArialMT-6c"/>
      <use x="427.685546875" xlink:href="#ArialMT-2f"/>
      <use x="455.46875" xlink:href="#ArialMT-6d"/>
      <use x="538.76953125" xlink:href="#ArialMT-6f"/>
      <use x="594.384765625" xlink:href="#ArialMT-6c"/>
     </g>
    </g>
   </g>
   <g id="patch_3">
    <path d="
M39.8438 12.6872
L486.244 12.6872" style="fill:none;stroke:#000000;"/>
   </g>
   <g id="patch_4">
    <path d="
M486.244 243.087
L486.244 12.6872" style="fill:none;stroke:#000000;"/>
   </g>
   <g id="patch_5">
    <path d="
M39.8438 243.087
L486.244 243.087" style="fill:none;stroke:#000000;"/>
   </g>
   <g id="patch_6">
    <path d="
M39.8438 243.087
L39.8438 12.6872" style="fill:none;stroke:#000000;"/>
   </g>
  </g>
 </g>
 <defs>
  <clipPath id="peac924533e">
   <rect height="230.4" width="446.4" x="39.84375" y="12.6871875"/>
  </clipPath>
 </defs>
</svg>
