<?xml version="1.0" encoding="utf-8" standalone="no"?>
<!DOCTYPE svg PUBLIC "-//W3C//DTD SVG 1.1//EN"
  "http://www.w3.org/Graphics/SVG/1.1/DTD/svg11.dtd">
<!-- Created with matplotlib (http://matplotlib.org/) -->
<svg height="396pt" version="1.1" viewBox="0 0 403 396" width="403pt" xmlns="http://www.w3.org/2000/svg" xmlns:xlink="http://www.w3.org/1999/xlink">
 <defs>
  <style type="text/css">
*{stroke-linecap:butt;stroke-linejoin:round;}
  </style>
 </defs>
 <g id="figure_1">
  <g id="patch_1">
   <path d="
M0 396.436
L403.172 396.436
L403.172 0
L0 0
z
" style="fill:none;"/>
  </g>
  <g id="axes_1">
   <g id="patch_2">
    <path d="
M53.295 358.287
L388.095 358.287
L388.095 12.6872
L53.295 12.6872
z
" style="fill:none;"/>
   </g>
   <g id="line2d_1">
    <path clip-path="url(#p557800865e)" d="
M363.146 85.3305
L358.551 84.4189
L353.956 83.6346
L349.361 82.5826
L344.765 81.3845
L340.17 79.7322
L335.575 78.0773
L330.98 76.6267
L326.385 74.5122
L321.789 71.77
L317.194 68.3098
L312.599 63.9335
L308.004 58.8367
L303.409 54.1811
L298.813 50.1887
L294.218 46.6924
L289.623 44.5727
L285.028 44.3549
L280.433 45.1234
L275.837 46.1409
L271.242 43.4038
L266.647 45.3089
L262.052 49.8558
L257.457 54.3292
L252.861 60.9216
L248.266 67.2626
L243.671 73.0117
L239.076 78.5052
L234.481 83.366
L229.885 87.1937
L225.29 89.6406
L220.695 90.4568
L216.1 89.6265
L211.505 87.2832
L206.909 83.7157
L202.314 79.134
L197.719 73.6981
L193.124 67.6995
L188.529 61.259
L183.933 54.9951
L179.338 50.0627
L174.743 46.3417
L170.148 45.233
L165.553 46.2328
L160.957 44.9902
L156.362 44.4697
L151.767 45.952
L147.172 48.6081
L142.577 52.1857
L137.981 56.2328
L133.386 60.2771
L128.791 64.0642
L124.196 67.3853
L119.601 70.4766
L115.005 73.5575
L110.41 76.396
L105.815 78.7531
L101.22 80.4688
L96.6246 81.7273
L92.0294 82.7214
L87.4342 83.6666
L82.839 84.7616
L78.2439 85.8503" style="fill:none;stroke:#c0c0c0;stroke-dasharray:6.000000,6.000000;stroke-dashoffset:0.0;"/>
   </g>
   <g id="line2d_2">
    <defs>
     <path d="
M-3 3
L3 3
L3 -3
L-3 -3
z
" id="m11cc215737" style="stroke:#000000;stroke-linejoin:miter;stroke-width:0.5;"/>
    </defs>
    <g clip-path="url(#p557800865e)">
     <use style="fill:#c0c0c0;stroke:#000000;stroke-linejoin:miter;stroke-width:0.5;" x="376.434746794" xlink:href="#m11cc215737" y="89.9705983978"/>
     <use style="fill:#c0c0c0;stroke:#000000;stroke-linejoin:miter;stroke-width:0.5;" x="363.146148904" xlink:href="#m11cc215737" y="85.3305433773"/>
     <use style="fill:#c0c0c0;stroke:#000000;stroke-linejoin:miter;stroke-width:0.5;" x="348.901034014" xlink:href="#m11cc215737" y="82.4663806939"/>
     <use style="fill:#c0c0c0;stroke:#000000;stroke-linejoin:miter;stroke-width:0.5;" x="334.655919123" xlink:href="#m11cc215737" y="77.8073006174"/>
     <use style="fill:#c0c0c0;stroke:#000000;stroke-linejoin:miter;stroke-width:0.5;" x="320.410804233" xlink:href="#m11cc215737" y="70.8082608653"/>
     <use style="fill:#c0c0c0;stroke:#000000;stroke-linejoin:miter;stroke-width:0.5;" x="306.165689343" xlink:href="#m11cc215737" y="56.8662103258"/>
     <use style="fill:#c0c0c0;stroke:#000000;stroke-linejoin:miter;stroke-width:0.5;" x="291.920574452" xlink:href="#m11cc215737" y="45.3859526099"/>
     <use style="fill:#c0c0c0;stroke:#000000;stroke-linejoin:miter;stroke-width:0.5;" x="277.675459562" xlink:href="#m11cc215737" y="46.0175447506"/>
     <use style="fill:#c0c0c0;stroke:#000000;stroke-linejoin:miter;stroke-width:0.5;" x="263.430344671" xlink:href="#m11cc215737" y="48.6711766319"/>
     <use style="fill:#c0c0c0;stroke:#000000;stroke-linejoin:miter;stroke-width:0.5;" x="249.185229781" xlink:href="#m11cc215737" y="66.0713306798"/>
     <use style="fill:#c0c0c0;stroke:#000000;stroke-linejoin:miter;stroke-width:0.5;" x="234.94011489" xlink:href="#m11cc215737" y="82.9208315391"/>
     <use style="fill:#c0c0c0;stroke:#000000;stroke-linejoin:miter;stroke-width:0.5;" x="220.695" xlink:href="#m11cc215737" y="90.4567630271"/>
     <use style="fill:#c0c0c0;stroke:#000000;stroke-linejoin:miter;stroke-width:0.5;" x="206.44988511" xlink:href="#m11cc215737" y="83.3009315148"/>
     <use style="fill:#c0c0c0;stroke:#000000;stroke-linejoin:miter;stroke-width:0.5;" x="192.204770219" xlink:href="#m11cc215737" y="66.4480798299"/>
     <use style="fill:#c0c0c0;stroke:#000000;stroke-linejoin:miter;stroke-width:0.5;" x="177.959655329" xlink:href="#m11cc215737" y="48.8396415118"/>
     <use style="fill:#c0c0c0;stroke:#000000;stroke-linejoin:miter;stroke-width:0.5;" x="163.714540438" xlink:href="#m11cc215737" y="45.9060183577"/>
     <use style="fill:#c0c0c0;stroke:#000000;stroke-linejoin:miter;stroke-width:0.5;" x="149.469425548" xlink:href="#m11cc215737" y="47.1501218394"/>
     <use style="fill:#c0c0c0;stroke:#000000;stroke-linejoin:miter;stroke-width:0.5;" x="135.224310657" xlink:href="#m11cc215737" y="58.6744228985"/>
     <use style="fill:#c0c0c0;stroke:#000000;stroke-linejoin:miter;stroke-width:0.5;" x="120.979195767" xlink:href="#m11cc215737" y="69.5448637038"/>
     <use style="fill:#c0c0c0;stroke:#000000;stroke-linejoin:miter;stroke-width:0.5;" x="106.734080877" xlink:href="#m11cc215737" y="78.3348827876"/>
     <use style="fill:#c0c0c0;stroke:#000000;stroke-linejoin:miter;stroke-width:0.5;" x="92.4889659859" xlink:href="#m11cc215737" y="82.6291340722"/>
     <use style="fill:#c0c0c0;stroke:#000000;stroke-linejoin:miter;stroke-width:0.5;" x="78.243851096" xlink:href="#m11cc215737" y="85.8502805511"/>
     <use style="fill:#c0c0c0;stroke:#000000;stroke-linejoin:miter;stroke-width:0.5;" x="67.2612947874" xlink:href="#m11cc215737" y="88.1480714066"/>
    </g>
   </g>
   <g id="line2d_3">
    <path clip-path="url(#p557800865e)" d="
M359.78 180.28
L355.294 179.725
L350.807 179.023
L346.321 178.481
L341.834 177.146
L337.347 175.362
L332.861 173.403
L328.374 171.276
L323.887 168.901
L319.401 166.188
L314.914 162.53
L310.428 158.201
L305.941 153.367
L301.454 148.059
L296.968 142.419
L292.481 136.556
L287.994 130.736
L283.508 125.382
L279.021 120.819
L274.535 116.548
L270.048 112.843
L265.561 109.921
L261.075 106.838
L256.588 102.711
L252.101 99.4359
L247.615 98.6288
L243.128 99.0398
L238.642 100.924
L234.155 104.167
L229.668 108.365
L225.182 111.641
L220.695 112.797
L216.208 111.632
L211.722 108.274
L207.235 104.349
L202.748 100.967
L198.262 99.1661
L193.775 98.6396
L189.289 99.1796
L184.802 102.335
L180.315 106.707
L175.829 109.706
L171.342 112.538
L166.855 116.319
L162.369 120.595
L157.882 125.255
L153.396 130.531
L148.909 136.321
L144.422 142.169
L139.936 147.694
L135.449 152.863
L130.962 157.308
L126.476 160.974
L121.989 164.423
L117.503 167.891
L113.016 171.084
L108.529 173.712
L104.043 175.665
L99.5561 177.048
L95.0695 178.072
L90.5828 178.918
L86.0962 179.786
L81.6096 180.769" style="fill:none;stroke:#c0c0c0;stroke-dasharray:6.000000,6.000000;stroke-dashoffset:0.0;"/>
   </g>
   <g id="line2d_4">
    <defs>
     <path d="
M-1.9984e-16 4.24264
L2.54558 0
L2.44249e-16 -4.24264
L-2.54558 -8.88178e-16
z
" id="m1b93415e84" style="stroke:#000000;stroke-linejoin:miter;stroke-width:0.5;"/>
    </defs>
    <g clip-path="url(#p557800865e)">
     <use style="fill:#c0c0c0;stroke:#000000;stroke-linejoin:miter;stroke-width:0.5;" x="369.687861933" xlink:href="#m1b93415e84" y="181.818751871"/>
     <use style="fill:#c0c0c0;stroke:#000000;stroke-linejoin:miter;stroke-width:0.5;" x="359.780424038" xlink:href="#m1b93415e84" y="180.280145447"/>
     <use style="fill:#c0c0c0;stroke:#000000;stroke-linejoin:miter;stroke-width:0.5;" x="345.871881634" xlink:href="#m1b93415e84" y="178.378360451"/>
     <use style="fill:#c0c0c0;stroke:#000000;stroke-linejoin:miter;stroke-width:0.5;" x="331.96333923" xlink:href="#m1b93415e84" y="172.993032106"/>
     <use style="fill:#c0c0c0;stroke:#000000;stroke-linejoin:miter;stroke-width:0.5;" x="318.054796827" xlink:href="#m1b93415e84" y="165.184437195"/>
     <use style="fill:#c0c0c0;stroke:#000000;stroke-linejoin:miter;stroke-width:0.5;" x="304.146254423" xlink:href="#m1b93415e84" y="151.290752687"/>
     <use style="fill:#c0c0c0;stroke:#000000;stroke-linejoin:miter;stroke-width:0.5;" x="290.237712019" xlink:href="#m1b93415e84" y="133.617493827"/>
     <use style="fill:#c0c0c0;stroke:#000000;stroke-linejoin:miter;stroke-width:0.5;" x="276.329169615" xlink:href="#m1b93415e84" y="118.22794465"/>
     <use style="fill:#c0c0c0;stroke:#000000;stroke-linejoin:miter;stroke-width:0.5;" x="262.420627211" xlink:href="#m1b93415e84" y="107.86346004"/>
     <use style="fill:#c0c0c0;stroke:#000000;stroke-linejoin:miter;stroke-width:0.5;" x="248.512084808" xlink:href="#m1b93415e84" y="98.6513188033"/>
     <use style="fill:#c0c0c0;stroke:#000000;stroke-linejoin:miter;stroke-width:0.5;" x="234.603542404" xlink:href="#m1b93415e84" y="103.802338149"/>
     <use style="fill:#c0c0c0;stroke:#000000;stroke-linejoin:miter;stroke-width:0.5;" x="220.695" xlink:href="#m1b93415e84" y="112.797481995"/>
     <use style="fill:#c0c0c0;stroke:#000000;stroke-linejoin:miter;stroke-width:0.5;" x="206.786457596" xlink:href="#m1b93415e84" y="103.962414276"/>
     <use style="fill:#c0c0c0;stroke:#000000;stroke-linejoin:miter;stroke-width:0.5;" x="192.877915192" xlink:href="#m1b93415e84" y="98.630935131"/>
     <use style="fill:#c0c0c0;stroke:#000000;stroke-linejoin:miter;stroke-width:0.5;" x="178.969372789" xlink:href="#m1b93415e84" y="107.747591964"/>
     <use style="fill:#c0c0c0;stroke:#000000;stroke-linejoin:miter;stroke-width:0.5;" x="165.060830385" xlink:href="#m1b93415e84" y="118.000318572"/>
     <use style="fill:#c0c0c0;stroke:#000000;stroke-linejoin:miter;stroke-width:0.5;" x="151.152287981" xlink:href="#m1b93415e84" y="133.382237315"/>
     <use style="fill:#c0c0c0;stroke:#000000;stroke-linejoin:miter;stroke-width:0.5;" x="137.243745577" xlink:href="#m1b93415e84" y="150.853535658"/>
     <use style="fill:#c0c0c0;stroke:#000000;stroke-linejoin:miter;stroke-width:0.5;" x="123.335203173" xlink:href="#m1b93415e84" y="163.377048071"/>
     <use style="fill:#c0c0c0;stroke:#000000;stroke-linejoin:miter;stroke-width:0.5;" x="109.42666077" xlink:href="#m1b93415e84" y="173.238605468"/>
     <use style="fill:#c0c0c0;stroke:#000000;stroke-linejoin:miter;stroke-width:0.5;" x="95.5181183664" xlink:href="#m1b93415e84" y="177.980095973"/>
     <use style="fill:#c0c0c0;stroke:#000000;stroke-linejoin:miter;stroke-width:0.5;" x="81.6095759621" xlink:href="#m1b93415e84" y="180.769448686"/>
     <use style="fill:#c0c0c0;stroke:#000000;stroke-linejoin:miter;stroke-width:0.5;" x="71.0114947916" xlink:href="#m1b93415e84" y="182.21537286"/>
    </g>
   </g>
   <g id="line2d_5">
    <defs>
     <path d="
M0 3
C0.795609 3 1.55874 2.6839 2.12132 2.12132
C2.6839 1.55874 3 0.795609 3 0
C3 -0.795609 2.6839 -1.55874 2.12132 -2.12132
C1.55874 -2.6839 0.795609 -3 0 -3
C-0.795609 -3 -1.55874 -2.6839 -2.12132 -2.12132
C-2.6839 -1.55874 -3 -0.795609 -3 0
C-3 0.795609 -2.6839 1.55874 -2.12132 2.12132
C-1.55874 2.6839 -0.795609 3 0 3
z
" id="m8b0675cc3b" style="stroke:#000000;stroke-width:0.5;"/>
    </defs>
    <g clip-path="url(#p557800865e)">
     <use style="stroke:#000000;stroke-width:0.5;" x="78.2436091009" xlink:href="#m8b0675cc3b" y="321.461822257"/>
     <use style="stroke:#000000;stroke-width:0.5;" x="92.4814192516" xlink:href="#m8b0675cc3b" y="323.893030393"/>
     <use style="stroke:#000000;stroke-width:0.5;" x="106.745320767" xlink:href="#m8b0675cc3b" y="300.97830712"/>
     <use style="stroke:#000000;stroke-width:0.5;" x="120.953024207" xlink:href="#m8b0675cc3b" y="291.389845443"/>
     <use style="stroke:#000000;stroke-width:0.5;" x="135.271214106" xlink:href="#m8b0675cc3b" y="259.079704858"/>
     <use style="stroke:#000000;stroke-width:0.5;" x="149.424718602" xlink:href="#m8b0675cc3b" y="199.941707244"/>
     <use style="stroke:#000000;stroke-width:0.5;" x="163.720289252" xlink:href="#m8b0675cc3b" y="138.310072042"/>
     <use style="stroke:#000000;stroke-width:0.5;" x="177.973221865" xlink:href="#m8b0675cc3b" y="139.862839664"/>
     <use style="stroke:#000000;stroke-width:0.5;" x="192.195779015" xlink:href="#m8b0675cc3b" y="159.691951995"/>
     <use style="stroke:#000000;stroke-width:0.5;" x="206.44940263" xlink:href="#m8b0675cc3b" y="178.678487579"/>
     <use style="stroke:#000000;stroke-width:0.5;" x="220.689720294" xlink:href="#m8b0675cc3b" y="197.379441482"/>
     <use style="stroke:#000000;stroke-width:0.5;" x="234.94059737" xlink:href="#m8b0675cc3b" y="178.678487579"/>
     <use style="stroke:#000000;stroke-width:0.5;" x="249.194220985" xlink:href="#m8b0675cc3b" y="159.691951995"/>
     <use style="stroke:#000000;stroke-width:0.5;" x="263.416778135" xlink:href="#m8b0675cc3b" y="139.862839664"/>
     <use style="stroke:#000000;stroke-width:0.5;" x="277.669710748" xlink:href="#m8b0675cc3b" y="138.310072042"/>
     <use style="stroke:#000000;stroke-width:0.5;" x="291.965281398" xlink:href="#m8b0675cc3b" y="199.941707244"/>
     <use style="stroke:#000000;stroke-width:0.5;" x="306.118785894" xlink:href="#m8b0675cc3b" y="259.079704858"/>
     <use style="stroke:#000000;stroke-width:0.5;" x="320.436975793" xlink:href="#m8b0675cc3b" y="291.389845443"/>
     <use style="stroke:#000000;stroke-width:0.5;" x="334.644679233" xlink:href="#m8b0675cc3b" y="300.97830712"/>
     <use style="stroke:#000000;stroke-width:0.5;" x="348.908580748" xlink:href="#m8b0675cc3b" y="323.893030393"/>
     <use style="stroke:#000000;stroke-width:0.5;" x="363.146390899" xlink:href="#m8b0675cc3b" y="321.461822257"/>
    </g>
   </g>
   <g id="line2d_6">
    <g clip-path="url(#p557800865e)">
     <use style="stroke:#000000;stroke-width:0.5;" x="84.4779538797" xlink:href="#m8b0675cc3b" y="332.95858976"/>
     <use style="stroke:#000000;stroke-width:0.5;" x="356.91204612" xlink:href="#m8b0675cc3b" y="332.95858976"/>
    </g>
   </g>
   <g id="line2d_7">
    <path clip-path="url(#p557800865e)" d="
M78.2436 321.462
L79.9176 325.026
L81.5916 327.504
L83.2656 328.993
L84.9396 329.593
L86.6136 329.4
L88.2876 328.514
L89.9616 327.031
L91.6356 325.051
L93.3096 322.672
L96.6576 317.107
L101.68 308.215
L103.354 305.499
L105.028 303.07
L106.702 301.026
L108.376 299.432
L110.05 298.212
L111.724 297.25
L116.746 294.759
L118.42 293.675
L120.094 292.272
L121.768 290.436
L123.442 288.117
L125.116 285.325
L126.79 282.075
L128.464 278.381
L130.138 274.256
L131.812 269.717
L133.486 264.776
L135.16 259.448
L138.508 247.684
L141.856 234.51
L145.204 220.004
L148.552 204.247
L156.922 162.634
L158.596 155.267
L160.27 148.667
L161.944 143.029
L163.618 138.543
L165.292 135.357
L166.966 133.385
L168.64 132.477
L170.314 132.48
L171.988 133.242
L173.662 134.61
L175.336 136.434
L178.684 140.84
L192.076 159.537
L197.098 165.763
L200.446 169.952
L203.794 174.543
L205.468 177.087
L208.816 182.79
L212.164 188.698
L213.838 191.398
L215.512 193.749
L217.186 195.618
L218.86 196.871
L220.534 197.375
L222.208 197.029
L223.882 195.909
L225.556 194.148
L227.23 191.879
L228.904 189.237
L237.274 175.019
L240.622 170.373
L245.644 164.114
L248.992 159.952
L252.34 155.495
L259.036 146.014
L264.058 138.993
L265.732 136.825
L267.406 134.931
L269.08 133.463
L270.754 132.572
L272.428 132.411
L274.102 133.132
L275.776 134.887
L277.45 137.827
L279.124 142.068
L280.798 147.499
L282.472 153.928
L284.146 161.163
L287.494 177.275
L294.19 210.752
L297.538 226.014
L300.886 239.991
L304.234 252.606
L307.582 263.778
L309.256 268.795
L310.93 273.413
L312.604 277.618
L314.278 281.397
L315.952 284.734
L317.626 287.615
L319.3 290.027
L320.974 291.955
L322.648 293.433
L324.322 294.569
L327.67 296.28
L331.018 298.01
L332.692 299.171
L334.366 300.684
L336.04 302.642
L337.714 305.005
L341.062 310.551
L346.084 319.448
L347.758 322.176
L349.432 324.621
L351.106 326.685
L352.78 328.271
L354.454 329.28
L356.128 329.614
L357.802 329.175
L359.476 327.865
L361.15 325.585
L362.824 322.238
L362.824 322.238" style="fill:none;stroke:#000000;stroke-dasharray:6.000000,6.000000;stroke-dashoffset:0.0;"/>
   </g>
   <g id="matplotlib.axis_1">
    <g id="xtick_1">
     <g id="line2d_8">
      <defs>
       <path d="
M0 0
L0 -4" id="m93b0483c22" style="stroke:#000000;stroke-width:0.5;"/>
      </defs>
      <g>
       <use style="stroke:#000000;stroke-width:0.5;" x="53.295" xlink:href="#m93b0483c22" y="358.2871875"/>
      </g>
     </g>
     <g id="line2d_9">
      <defs>
       <path d="
M0 0
L0 4" id="m741efc42ff" style="stroke:#000000;stroke-width:0.5;"/>
      </defs>
      <g>
       <use style="stroke:#000000;stroke-width:0.5;" x="53.295" xlink:href="#m741efc42ff" y="12.6871875"/>
      </g>
     </g>
     <g id="text_1">
      <!-- −2.0 -->
      <defs>
       <path d="
M9.07812 0
L9.07812 10.0156
L19.0938 10.0156
L19.0938 0
z
" id="ArialMT-2e"/>
       <path d="
M4.15625 35.2969
Q4.15625 48 6.76562 55.7344
Q9.375 63.4844 14.5156 67.6719
Q19.6719 71.875 27.4844 71.875
Q33.25 71.875 37.5938 69.5469
Q41.9375 67.2344 44.7656 62.8594
Q47.6094 58.5 49.2188 52.2188
Q50.8281 45.9531 50.8281 35.2969
Q50.8281 22.7031 48.2344 14.9688
Q45.6562 7.23438 40.5 3
Q35.3594 -1.21875 27.4844 -1.21875
Q17.1406 -1.21875 11.2344 6.20312
Q4.15625 15.1406 4.15625 35.2969
M13.1875 35.2969
Q13.1875 17.6719 17.3125 11.8281
Q21.4375 6 27.4844 6
Q33.5469 6 37.6719 11.8594
Q41.7969 17.7188 41.7969 35.2969
Q41.7969 52.9844 37.6719 58.7812
Q33.5469 64.5938 27.3906 64.5938
Q21.3438 64.5938 17.7188 59.4688
Q13.1875 52.9375 13.1875 35.2969" id="ArialMT-30"/>
       <path d="
M52.8281 31.2031
L5.5625 31.2031
L5.5625 39.4062
L52.8281 39.4062
z
" id="ArialMT-2212"/>
       <path d="
M50.3438 8.45312
L50.3438 0
L3.03125 0
Q2.9375 3.17188 4.04688 6.10938
Q5.85938 10.9375 9.82812 15.625
Q13.8125 20.3125 21.3438 26.4688
Q33.0156 36.0312 37.1094 41.625
Q41.2188 47.2188 41.2188 52.2031
Q41.2188 57.4219 37.4688 61
Q33.7344 64.5938 27.7344 64.5938
Q21.3906 64.5938 17.5781 60.7812
Q13.7656 56.9844 13.7188 50.25
L4.6875 51.1719
Q5.60938 61.2812 11.6562 66.5781
Q17.7188 71.875 27.9375 71.875
Q38.2344 71.875 44.2344 66.1562
Q50.25 60.4531 50.25 52
Q50.25 47.7031 48.4844 43.5469
Q46.7344 39.4062 42.6562 34.8125
Q38.5781 30.2188 29.1094 22.2188
Q21.1875 15.5781 18.9375 13.2031
Q16.7031 10.8438 15.2344 8.45312
z
" id="ArialMT-32"/>
      </defs>
      <g transform="translate(42.07125 370.8765625)scale(0.12 -0.12)">
       <use xlink:href="#ArialMT-2212"/>
       <use x="58.3984375" xlink:href="#ArialMT-32"/>
       <use x="114.013671875" xlink:href="#ArialMT-2e"/>
       <use x="141.796875" xlink:href="#ArialMT-30"/>
      </g>
     </g>
    </g>
    <g id="xtick_2">
     <g id="line2d_10">
      <g>
       <use style="stroke:#000000;stroke-width:0.5;" x="95.145" xlink:href="#m93b0483c22" y="358.2871875"/>
      </g>
     </g>
     <g id="line2d_11">
      <g>
       <use style="stroke:#000000;stroke-width:0.5;" x="95.145" xlink:href="#m741efc42ff" y="12.6871875"/>
      </g>
     </g>
     <g id="text_2">
      <!-- −1.5 -->
      <defs>
       <path d="
M37.25 0
L28.4688 0
L28.4688 56
Q25.2969 52.9844 20.1406 49.9531
Q14.9844 46.9219 10.8906 45.4062
L10.8906 53.9062
Q18.2656 57.375 23.7812 62.2969
Q29.2969 67.2344 31.5938 71.875
L37.25 71.875
z
" id="ArialMT-31"/>
       <path d="
M4.15625 18.75
L13.375 19.5312
Q14.4062 12.7969 18.1406 9.39062
Q21.875 6 27.1562 6
Q33.5 6 37.8906 10.7812
Q42.2812 15.5781 42.2812 23.4844
Q42.2812 31 38.0625 35.3438
Q33.8438 39.7031 27 39.7031
Q22.75 39.7031 19.3281 37.7656
Q15.9219 35.8438 13.9688 32.7656
L5.71875 33.8438
L12.6406 70.6094
L48.25 70.6094
L48.25 62.2031
L19.6719 62.2031
L15.8281 42.9688
Q22.2656 47.4688 29.3438 47.4688
Q38.7188 47.4688 45.1562 40.9688
Q51.6094 34.4688 51.6094 24.2656
Q51.6094 14.5469 45.9531 7.46875
Q39.0625 -1.21875 27.1562 -1.21875
Q17.3906 -1.21875 11.2031 4.25
Q5.03125 9.71875 4.15625 18.75" id="ArialMT-35"/>
      </defs>
      <g transform="translate(83.874375 370.8765625)scale(0.12 -0.12)">
       <use xlink:href="#ArialMT-2212"/>
       <use x="58.3984375" xlink:href="#ArialMT-31"/>
       <use x="114.013671875" xlink:href="#ArialMT-2e"/>
       <use x="141.796875" xlink:href="#ArialMT-35"/>
      </g>
     </g>
    </g>
    <g id="xtick_3">
     <g id="line2d_12">
      <g>
       <use style="stroke:#000000;stroke-width:0.5;" x="136.995" xlink:href="#m93b0483c22" y="358.2871875"/>
      </g>
     </g>
     <g id="line2d_13">
      <g>
       <use style="stroke:#000000;stroke-width:0.5;" x="136.995" xlink:href="#m741efc42ff" y="12.6871875"/>
      </g>
     </g>
     <g id="text_3">
      <!-- −1.0 -->
      <g transform="translate(125.77125 370.8765625)scale(0.12 -0.12)">
       <use xlink:href="#ArialMT-2212"/>
       <use x="58.3984375" xlink:href="#ArialMT-31"/>
       <use x="114.013671875" xlink:href="#ArialMT-2e"/>
       <use x="141.796875" xlink:href="#ArialMT-30"/>
      </g>
     </g>
    </g>
    <g id="xtick_4">
     <g id="line2d_14">
      <g>
       <use style="stroke:#000000;stroke-width:0.5;" x="178.845" xlink:href="#m93b0483c22" y="358.2871875"/>
      </g>
     </g>
     <g id="line2d_15">
      <g>
       <use style="stroke:#000000;stroke-width:0.5;" x="178.845" xlink:href="#m741efc42ff" y="12.6871875"/>
      </g>
     </g>
     <g id="text_4">
      <!-- −0.5 -->
      <g transform="translate(167.574375 370.8765625)scale(0.12 -0.12)">
       <use xlink:href="#ArialMT-2212"/>
       <use x="58.3984375" xlink:href="#ArialMT-30"/>
       <use x="114.013671875" xlink:href="#ArialMT-2e"/>
       <use x="141.796875" xlink:href="#ArialMT-35"/>
      </g>
     </g>
    </g>
    <g id="xtick_5">
     <g id="line2d_16">
      <g>
       <use style="stroke:#000000;stroke-width:0.5;" x="220.695" xlink:href="#m93b0483c22" y="358.2871875"/>
      </g>
     </g>
     <g id="line2d_17">
      <g>
       <use style="stroke:#000000;stroke-width:0.5;" x="220.695" xlink:href="#m741efc42ff" y="12.6871875"/>
      </g>
     </g>
     <g id="text_5">
      <!-- 0.0 -->
      <g transform="translate(212.89125 370.8765625)scale(0.12 -0.12)">
       <use xlink:href="#ArialMT-30"/>
       <use x="55.615234375" xlink:href="#ArialMT-2e"/>
       <use x="83.3984375" xlink:href="#ArialMT-30"/>
      </g>
     </g>
    </g>
    <g id="xtick_6">
     <g id="line2d_18">
      <g>
       <use style="stroke:#000000;stroke-width:0.5;" x="262.545" xlink:href="#m93b0483c22" y="358.2871875"/>
      </g>
     </g>
     <g id="line2d_19">
      <g>
       <use style="stroke:#000000;stroke-width:0.5;" x="262.545" xlink:href="#m741efc42ff" y="12.6871875"/>
      </g>
     </g>
     <g id="text_6">
      <!-- 0.5 -->
      <g transform="translate(254.694375 370.8765625)scale(0.12 -0.12)">
       <use xlink:href="#ArialMT-30"/>
       <use x="55.615234375" xlink:href="#ArialMT-2e"/>
       <use x="83.3984375" xlink:href="#ArialMT-35"/>
      </g>
     </g>
    </g>
    <g id="xtick_7">
     <g id="line2d_20">
      <g>
       <use style="stroke:#000000;stroke-width:0.5;" x="304.395" xlink:href="#m93b0483c22" y="358.2871875"/>
      </g>
     </g>
     <g id="line2d_21">
      <g>
       <use style="stroke:#000000;stroke-width:0.5;" x="304.395" xlink:href="#m741efc42ff" y="12.6871875"/>
      </g>
     </g>
     <g id="text_7">
      <!-- 1.0 -->
      <g transform="translate(296.9953125 370.8765625)scale(0.12 -0.12)">
       <use xlink:href="#ArialMT-31"/>
       <use x="55.615234375" xlink:href="#ArialMT-2e"/>
       <use x="83.3984375" xlink:href="#ArialMT-30"/>
      </g>
     </g>
    </g>
    <g id="xtick_8">
     <g id="line2d_22">
      <g>
       <use style="stroke:#000000;stroke-width:0.5;" x="346.245" xlink:href="#m93b0483c22" y="358.2871875"/>
      </g>
     </g>
     <g id="line2d_23">
      <g>
       <use style="stroke:#000000;stroke-width:0.5;" x="346.245" xlink:href="#m741efc42ff" y="12.6871875"/>
      </g>
     </g>
     <g id="text_8">
      <!-- 1.5 -->
      <g transform="translate(338.7984375 370.8765625)scale(0.12 -0.12)">
       <use xlink:href="#ArialMT-31"/>
       <use x="55.615234375" xlink:href="#ArialMT-2e"/>
       <use x="83.3984375" xlink:href="#ArialMT-35"/>
      </g>
     </g>
    </g>
    <g id="xtick_9">
     <g id="line2d_24">
      <g>
       <use style="stroke:#000000;stroke-width:0.5;" x="388.095" xlink:href="#m93b0483c22" y="358.2871875"/>
      </g>
     </g>
     <g id="line2d_25">
      <g>
       <use style="stroke:#000000;stroke-width:0.5;" x="388.095" xlink:href="#m741efc42ff" y="12.6871875"/>
      </g>
     </g>
     <g id="text_9">
      <!-- 2.0 -->
      <g transform="translate(380.218125 370.8765625)scale(0.12 -0.12)">
       <use xlink:href="#ArialMT-32"/>
       <use x="55.615234375" xlink:href="#ArialMT-2e"/>
       <use x="83.3984375" xlink:href="#ArialMT-30"/>
      </g>
     </g>
    </g>
    <g id="text_10">
     <!-- q, A -->
     <defs>
      <path d="
M-0.140625 0
L27.3438 71.5781
L37.5469 71.5781
L66.8438 0
L56.0625 0
L47.7031 21.6875
L17.7812 21.6875
L9.90625 0
z

M20.5156 29.3906
L44.7812 29.3906
L37.3125 49.2188
Q33.8906 58.25 32.2344 64.0625
Q30.8594 57.1719 28.375 50.3906
z
" id="ArialMT-41"/>
      <path d="
M8.89062 0
L8.89062 10.0156
L18.8906 10.0156
L18.8906 0
Q18.8906 -5.51562 16.9375 -8.90625
Q14.9844 -12.3125 10.75 -14.1562
L8.29688 -10.4062
Q11.0781 -9.1875 12.3906 -6.8125
Q13.7188 -4.4375 13.875 0
z
" id="ArialMT-2c"/>
      <path d="
M39.6562 -19.875
L39.6562 5.51562
Q37.5938 2.64062 33.9062 0.734375
Q30.2188 -1.17188 26.0781 -1.17188
Q16.8438 -1.17188 10.1719 6.20312
Q3.51562 13.5781 3.51562 26.4219
Q3.51562 34.2344 6.21875 40.4219
Q8.9375 46.625 14.0781 49.8281
Q19.2344 53.0312 25.3906 53.0312
Q35.0156 53.0312 40.5312 44.9219
L40.5312 51.8594
L48.4375 51.8594
L48.4375 -19.875
z

M12.5469 26.0781
Q12.5469 16.0625 16.75 11.0625
Q20.9531 6.0625 26.8125 6.0625
Q32.4219 6.0625 36.4688 10.8125
Q40.5312 15.5781 40.5312 25.2969
Q40.5312 35.6406 36.25 40.8594
Q31.9844 46.0938 26.2188 46.0938
Q20.5156 46.0938 16.5312 41.2344
Q12.5469 36.375 12.5469 26.0781" id="ArialMT-71"/>
      <path id="ArialMT-20"/>
     </defs>
     <g transform="translate(210.3440625 386.8509375)scale(0.12 -0.12)">
      <use xlink:href="#ArialMT-71"/>
      <use x="55.615234375" xlink:href="#ArialMT-2c"/>
      <use x="83.3984375" xlink:href="#ArialMT-20"/>
      <use x="105.681640625" xlink:href="#ArialMT-41"/>
     </g>
    </g>
   </g>
   <g id="matplotlib.axis_2">
    <g id="ytick_1">
     <g id="line2d_26">
      <defs>
       <path d="
M0 0
L4 0" id="m728421d6d4" style="stroke:#000000;stroke-width:0.5;"/>
      </defs>
      <g>
       <use style="stroke:#000000;stroke-width:0.5;" x="53.295" xlink:href="#m728421d6d4" y="358.2871875"/>
      </g>
     </g>
     <g id="line2d_27">
      <defs>
       <path d="
M0 0
L-4 0" id="mcb0005524f" style="stroke:#000000;stroke-width:0.5;"/>
      </defs>
      <g>
       <use style="stroke:#000000;stroke-width:0.5;" x="388.095" xlink:href="#mcb0005524f" y="358.2871875"/>
      </g>
     </g>
     <g id="text_11">
      <!-- −440 -->
      <defs>
       <path d="
M32.3281 0
L32.3281 17.1406
L1.26562 17.1406
L1.26562 25.2031
L33.9375 71.5781
L41.1094 71.5781
L41.1094 25.2031
L50.7812 25.2031
L50.7812 17.1406
L41.1094 17.1406
L41.1094 0
z

M32.3281 25.2031
L32.3281 57.4688
L9.90625 25.2031
z
" id="ArialMT-34"/>
      </defs>
      <g transform="translate(23.508125 361.389375)scale(0.12 -0.12)">
       <use xlink:href="#ArialMT-2212"/>
       <use x="58.3984375" xlink:href="#ArialMT-34"/>
       <use x="114.013671875" xlink:href="#ArialMT-34"/>
       <use x="169.62890625" xlink:href="#ArialMT-30"/>
      </g>
     </g>
    </g>
    <g id="ytick_2">
     <g id="line2d_28">
      <g>
       <use style="stroke:#000000;stroke-width:0.5;" x="53.295" xlink:href="#m728421d6d4" y="319.8871875"/>
      </g>
     </g>
     <g id="line2d_29">
      <g>
       <use style="stroke:#000000;stroke-width:0.5;" x="388.095" xlink:href="#mcb0005524f" y="319.8871875"/>
      </g>
     </g>
     <g id="text_12">
      <!-- −438 -->
      <defs>
       <path d="
M17.6719 38.8125
Q12.2031 40.8281 9.5625 44.5312
Q6.9375 48.25 6.9375 53.4219
Q6.9375 61.2344 12.5469 66.5469
Q18.1719 71.875 27.4844 71.875
Q36.8594 71.875 42.5781 66.4219
Q48.2969 60.9844 48.2969 53.1719
Q48.2969 48.1875 45.6719 44.5
Q43.0625 40.8281 37.75 38.8125
Q44.3438 36.6719 47.7812 31.875
Q51.2188 27.0938 51.2188 20.4531
Q51.2188 11.2812 44.7188 5.03125
Q38.2344 -1.21875 27.6406 -1.21875
Q17.0469 -1.21875 10.5469 5.04688
Q4.04688 11.3281 4.04688 20.7031
Q4.04688 27.6875 7.59375 32.3906
Q11.1406 37.1094 17.6719 38.8125
M15.9219 53.7188
Q15.9219 48.6406 19.1875 45.4062
Q22.4688 42.1875 27.6875 42.1875
Q32.7656 42.1875 36.0156 45.375
Q39.2656 48.5781 39.2656 53.2188
Q39.2656 58.0625 35.9062 61.3594
Q32.5625 64.6562 27.5938 64.6562
Q22.5625 64.6562 19.2344 61.4219
Q15.9219 58.2031 15.9219 53.7188
M13.0938 20.6562
Q13.0938 16.8906 14.875 13.375
Q16.6562 9.85938 20.1719 7.92188
Q23.6875 6 27.7344 6
Q34.0312 6 38.125 10.0469
Q42.2344 14.1094 42.2344 20.3594
Q42.2344 26.7031 38.0156 30.8594
Q33.7969 35.0156 27.4375 35.0156
Q21.2344 35.0156 17.1562 30.9062
Q13.0938 26.8125 13.0938 20.6562" id="ArialMT-38"/>
       <path d="
M4.20312 18.8906
L12.9844 20.0625
Q14.5 12.5938 18.1406 9.29688
Q21.7812 6 27 6
Q33.2031 6 37.4688 10.2969
Q41.75 14.5938 41.75 20.9531
Q41.75 27 37.7969 30.9219
Q33.8438 34.8594 27.7344 34.8594
Q25.25 34.8594 21.5312 33.8906
L22.5156 41.6094
Q23.3906 41.5 23.9219 41.5
Q29.5469 41.5 34.0312 44.4219
Q38.5312 47.3594 38.5312 53.4688
Q38.5312 58.2969 35.25 61.4688
Q31.9844 64.6562 26.8125 64.6562
Q21.6875 64.6562 18.2656 61.4219
Q14.8438 58.2031 13.875 51.7656
L5.07812 53.3281
Q6.6875 62.1562 12.3906 67.0156
Q18.1094 71.875 26.6094 71.875
Q32.4688 71.875 37.3906 69.3594
Q42.3281 66.8438 44.9375 62.5
Q47.5625 58.1562 47.5625 53.2656
Q47.5625 48.6406 45.0625 44.8281
Q42.5781 41.0156 37.7031 38.7656
Q44.0469 37.3125 47.5625 32.6875
Q51.0781 28.0781 51.0781 21.1406
Q51.0781 11.7656 44.2344 5.25
Q37.4062 -1.26562 26.9531 -1.26562
Q17.5312 -1.26562 11.2969 4.34375
Q5.07812 9.96875 4.20312 18.8906" id="ArialMT-33"/>
      </defs>
      <g transform="translate(23.46125 322.989375)scale(0.12 -0.12)">
       <use xlink:href="#ArialMT-2212"/>
       <use x="58.3984375" xlink:href="#ArialMT-34"/>
       <use x="114.013671875" xlink:href="#ArialMT-33"/>
       <use x="169.62890625" xlink:href="#ArialMT-38"/>
      </g>
     </g>
    </g>
    <g id="ytick_3">
     <g id="line2d_30">
      <g>
       <use style="stroke:#000000;stroke-width:0.5;" x="53.295" xlink:href="#m728421d6d4" y="281.4871875"/>
      </g>
     </g>
     <g id="line2d_31">
      <g>
       <use style="stroke:#000000;stroke-width:0.5;" x="388.095" xlink:href="#mcb0005524f" y="281.4871875"/>
      </g>
     </g>
     <g id="text_13">
      <!-- −436 -->
      <defs>
       <path d="
M49.75 54.0469
L41.0156 53.375
Q39.8438 58.5469 37.7031 60.8906
Q34.125 64.6562 28.9062 64.6562
Q24.7031 64.6562 21.5312 62.3125
Q17.3906 59.2812 14.9844 53.4688
Q12.5938 47.6562 12.5 36.9219
Q15.6719 41.75 20.2656 44.0938
Q24.8594 46.4375 29.8906 46.4375
Q38.6719 46.4375 44.8438 39.9688
Q51.0312 33.5 51.0312 23.25
Q51.0312 16.5 48.125 10.7188
Q45.2188 4.9375 40.1406 1.85938
Q35.0625 -1.21875 28.6094 -1.21875
Q17.625 -1.21875 10.6875 6.85938
Q3.76562 14.9375 3.76562 33.5
Q3.76562 54.25 11.4219 63.6719
Q18.1094 71.875 29.4375 71.875
Q37.8906 71.875 43.2812 67.1406
Q48.6875 62.4062 49.75 54.0469
M13.875 23.1875
Q13.875 18.6562 15.7969 14.5
Q17.7188 10.3594 21.1875 8.17188
Q24.6562 6 28.4688 6
Q34.0312 6 38.0312 10.4844
Q42.0469 14.9844 42.0469 22.7031
Q42.0469 30.125 38.0781 34.3906
Q34.125 38.6719 28.125 38.6719
Q22.1719 38.6719 18.0156 34.3906
Q13.875 30.125 13.875 23.1875" id="ArialMT-36"/>
      </defs>
      <g transform="translate(23.48375 284.589375)scale(0.12 -0.12)">
       <use xlink:href="#ArialMT-2212"/>
       <use x="58.3984375" xlink:href="#ArialMT-34"/>
       <use x="114.013671875" xlink:href="#ArialMT-33"/>
       <use x="169.62890625" xlink:href="#ArialMT-36"/>
      </g>
     </g>
    </g>
    <g id="ytick_4">
     <g id="line2d_32">
      <g>
       <use style="stroke:#000000;stroke-width:0.5;" x="53.295" xlink:href="#m728421d6d4" y="243.0871875"/>
      </g>
     </g>
     <g id="line2d_33">
      <g>
       <use style="stroke:#000000;stroke-width:0.5;" x="388.095" xlink:href="#mcb0005524f" y="243.0871875"/>
      </g>
     </g>
     <g id="text_14">
      <!-- −434 -->
      <g transform="translate(23.51375 246.189375)scale(0.12 -0.12)">
       <use xlink:href="#ArialMT-2212"/>
       <use x="58.3984375" xlink:href="#ArialMT-34"/>
       <use x="114.013671875" xlink:href="#ArialMT-33"/>
       <use x="169.62890625" xlink:href="#ArialMT-34"/>
      </g>
     </g>
    </g>
    <g id="ytick_5">
     <g id="line2d_34">
      <g>
       <use style="stroke:#000000;stroke-width:0.5;" x="53.295" xlink:href="#m728421d6d4" y="204.6871875"/>
      </g>
     </g>
     <g id="line2d_35">
      <g>
       <use style="stroke:#000000;stroke-width:0.5;" x="388.095" xlink:href="#mcb0005524f" y="204.6871875"/>
      </g>
     </g>
     <g id="text_15">
      <!-- −432 -->
      <g transform="translate(23.56625 207.789375)scale(0.12 -0.12)">
       <use xlink:href="#ArialMT-2212"/>
       <use x="58.3984375" xlink:href="#ArialMT-34"/>
       <use x="114.013671875" xlink:href="#ArialMT-33"/>
       <use x="169.62890625" xlink:href="#ArialMT-32"/>
      </g>
     </g>
    </g>
    <g id="ytick_6">
     <g id="line2d_36">
      <g>
       <use style="stroke:#000000;stroke-width:0.5;" x="53.295" xlink:href="#m728421d6d4" y="166.2871875"/>
      </g>
     </g>
     <g id="line2d_37">
      <g>
       <use style="stroke:#000000;stroke-width:0.5;" x="388.095" xlink:href="#mcb0005524f" y="166.2871875"/>
      </g>
     </g>
     <g id="text_16">
      <!-- −430 -->
      <g transform="translate(23.508125 169.389375)scale(0.12 -0.12)">
       <use xlink:href="#ArialMT-2212"/>
       <use x="58.3984375" xlink:href="#ArialMT-34"/>
       <use x="114.013671875" xlink:href="#ArialMT-33"/>
       <use x="169.62890625" xlink:href="#ArialMT-30"/>
      </g>
     </g>
    </g>
    <g id="ytick_7">
     <g id="line2d_38">
      <g>
       <use style="stroke:#000000;stroke-width:0.5;" x="53.295" xlink:href="#m728421d6d4" y="127.8871875"/>
      </g>
     </g>
     <g id="line2d_39">
      <g>
       <use style="stroke:#000000;stroke-width:0.5;" x="388.095" xlink:href="#mcb0005524f" y="127.8871875"/>
      </g>
     </g>
     <g id="text_17">
      <!-- −428 -->
      <g transform="translate(23.46125 130.989375)scale(0.12 -0.12)">
       <use xlink:href="#ArialMT-2212"/>
       <use x="58.3984375" xlink:href="#ArialMT-34"/>
       <use x="114.013671875" xlink:href="#ArialMT-32"/>
       <use x="169.62890625" xlink:href="#ArialMT-38"/>
      </g>
     </g>
    </g>
    <g id="ytick_8">
     <g id="line2d_40">
      <g>
       <use style="stroke:#000000;stroke-width:0.5;" x="53.295" xlink:href="#m728421d6d4" y="89.4871875"/>
      </g>
     </g>
     <g id="line2d_41">
      <g>
       <use style="stroke:#000000;stroke-width:0.5;" x="388.095" xlink:href="#mcb0005524f" y="89.4871875"/>
      </g>
     </g>
     <g id="text_18">
      <!-- −426 -->
      <g transform="translate(23.48375 92.589375)scale(0.12 -0.12)">
       <use xlink:href="#ArialMT-2212"/>
       <use x="58.3984375" xlink:href="#ArialMT-34"/>
       <use x="114.013671875" xlink:href="#ArialMT-32"/>
       <use x="169.62890625" xlink:href="#ArialMT-36"/>
      </g>
     </g>
    </g>
    <g id="ytick_9">
     <g id="line2d_42">
      <g>
       <use style="stroke:#000000;stroke-width:0.5;" x="53.295" xlink:href="#m728421d6d4" y="51.0871875"/>
      </g>
     </g>
     <g id="line2d_43">
      <g>
       <use style="stroke:#000000;stroke-width:0.5;" x="388.095" xlink:href="#mcb0005524f" y="51.0871875"/>
      </g>
     </g>
     <g id="text_19">
      <!-- −424 -->
      <g transform="translate(23.51375 54.189375)scale(0.12 -0.12)">
       <use xlink:href="#ArialMT-2212"/>
       <use x="58.3984375" xlink:href="#ArialMT-34"/>
       <use x="114.013671875" xlink:href="#ArialMT-32"/>
       <use x="169.62890625" xlink:href="#ArialMT-34"/>
      </g>
     </g>
    </g>
    <g id="ytick_10">
     <g id="line2d_44">
      <g>
       <use style="stroke:#000000;stroke-width:0.5;" x="53.295" xlink:href="#m728421d6d4" y="12.6871875"/>
      </g>
     </g>
     <g id="line2d_45">
      <g>
       <use style="stroke:#000000;stroke-width:0.5;" x="388.095" xlink:href="#mcb0005524f" y="12.6871875"/>
      </g>
     </g>
     <g id="text_20">
      <!-- −422 -->
      <g transform="translate(23.56625 15.789375)scale(0.12 -0.12)">
       <use xlink:href="#ArialMT-2212"/>
       <use x="58.3984375" xlink:href="#ArialMT-34"/>
       <use x="114.013671875" xlink:href="#ArialMT-32"/>
       <use x="169.62890625" xlink:href="#ArialMT-32"/>
      </g>
     </g>
    </g>
    <g id="text_21">
     <!-- G(q), kcal/mol -->
     <defs>
      <path d="
M40.4375 19
L49.0781 17.875
Q47.6562 8.9375 41.8125 3.875
Q35.9844 -1.17188 27.4844 -1.17188
Q16.8438 -1.17188 10.375 5.78125
Q3.90625 12.75 3.90625 25.7344
Q3.90625 34.125 6.6875 40.4219
Q9.46875 46.7344 15.1562 49.875
Q20.8438 53.0312 27.5469 53.0312
Q35.9844 53.0312 41.3594 48.75
Q46.7344 44.4844 48.25 36.625
L39.7031 35.2969
Q38.4844 40.5312 35.375 43.1562
Q32.2812 45.7969 27.875 45.7969
Q21.2344 45.7969 17.0781 41.0312
Q12.9375 36.2812 12.9375 25.9844
Q12.9375 15.5312 16.9375 10.7969
Q20.9531 6.0625 27.3906 6.0625
Q32.5625 6.0625 36.0312 9.23438
Q39.5 12.4062 40.4375 19" id="ArialMT-63"/>
      <path d="
M40.4375 6.39062
Q35.5469 2.25 31.0312 0.53125
Q26.5156 -1.17188 21.3438 -1.17188
Q12.7969 -1.17188 8.20312 3
Q3.60938 7.17188 3.60938 13.6719
Q3.60938 17.4844 5.34375 20.625
Q7.07812 23.7812 9.89062 25.6875
Q12.7031 27.5938 16.2188 28.5625
Q18.7969 29.25 24.0312 29.8906
Q34.6719 31.1562 39.7031 32.9062
Q39.75 34.7188 39.75 35.2031
Q39.75 40.5781 37.25 42.7812
Q33.8906 45.75 27.25 45.75
Q21.0469 45.75 18.0938 43.5781
Q15.1406 41.4062 13.7188 35.8906
L5.125 37.0625
Q6.29688 42.5781 8.98438 45.9688
Q11.6719 49.3594 16.75 51.1875
Q21.8281 53.0312 28.5156 53.0312
Q35.1562 53.0312 39.2969 51.4688
Q43.4531 49.9062 45.4062 47.5312
Q47.3594 45.1719 48.1406 41.5469
Q48.5781 39.3125 48.5781 33.4531
L48.5781 21.7344
Q48.5781 9.46875 49.1406 6.21875
Q49.7031 2.98438 51.375 0
L42.1875 0
Q40.8281 2.73438 40.4375 6.39062
M39.7031 26.0312
Q34.9062 24.0781 25.3438 22.7031
Q19.9219 21.9219 17.6719 20.9375
Q15.4375 19.9688 14.2031 18.0938
Q12.9844 16.2188 12.9844 13.9219
Q12.9844 10.4062 15.6406 8.0625
Q18.3125 5.71875 23.4375 5.71875
Q28.5156 5.71875 32.4688 7.9375
Q36.4219 10.1562 38.2812 14.0156
Q39.7031 17 39.7031 22.7969
z
" id="ArialMT-61"/>
      <path d="
M0 -1.21875
L20.75 72.7969
L27.7812 72.7969
L7.07812 -1.21875
z
" id="ArialMT-2f"/>
      <path d="
M6.59375 0
L6.59375 51.8594
L14.4531 51.8594
L14.4531 44.5781
Q16.8906 48.3906 20.9375 50.7031
Q25 53.0312 30.1719 53.0312
Q35.9375 53.0312 39.625 50.6406
Q43.3125 48.25 44.8281 43.9531
Q50.9844 53.0312 60.8438 53.0312
Q68.5625 53.0312 72.7031 48.75
Q76.8594 44.4844 76.8594 35.5938
L76.8594 0
L68.1094 0
L68.1094 32.6719
Q68.1094 37.9375 67.25 40.25
Q66.4062 42.5781 64.1562 43.9844
Q61.9219 45.4062 58.8906 45.4062
Q53.4219 45.4062 49.7969 41.7656
Q46.1875 38.1406 46.1875 30.125
L46.1875 0
L37.4062 0
L37.4062 33.6875
Q37.4062 39.5469 35.25 42.4688
Q33.1094 45.4062 28.2188 45.4062
Q24.5156 45.4062 21.3594 43.4531
Q18.2188 41.5 16.7969 37.7344
Q15.375 33.9844 15.375 26.9062
L15.375 0
z
" id="ArialMT-6d"/>
      <path d="
M41.2188 28.0781
L41.2188 36.4688
L71.5312 36.5312
L71.5312 9.96875
Q64.5469 4.39062 57.125 1.57812
Q49.7031 -1.21875 41.8906 -1.21875
Q31.3438 -1.21875 22.7188 3.29688
Q14.1094 7.8125 9.71875 16.3594
Q5.32812 24.9062 5.32812 35.4531
Q5.32812 45.9062 9.6875 54.9531
Q14.0625 64.0156 22.2656 68.4062
Q30.4688 72.7969 41.1562 72.7969
Q48.9219 72.7969 55.1875 70.2812
Q61.4688 67.7812 65.0312 63.2812
Q68.6094 58.7969 70.4531 51.5625
L61.9219 49.2188
Q60.2969 54.6875 57.9062 57.8125
Q55.5156 60.9375 51.0625 62.8125
Q46.625 64.7031 41.2188 64.7031
Q34.7188 64.7031 29.9844 62.7188
Q25.25 60.75 22.3438 57.5156
Q19.4375 54.2969 17.8281 50.4375
Q15.0938 43.7969 15.0938 36.0312
Q15.0938 26.4688 18.3906 20.0156
Q21.6875 13.5781 27.9844 10.4531
Q34.2812 7.32812 41.3594 7.32812
Q47.5156 7.32812 53.375 9.6875
Q59.2344 12.0625 62.25 14.75
L62.25 28.0781
z
" id="ArialMT-47"/>
      <path d="
M6.39062 0
L6.39062 71.5781
L15.1875 71.5781
L15.1875 0
z
" id="ArialMT-6c"/>
      <path d="
M6.64062 0
L6.64062 71.5781
L15.4375 71.5781
L15.4375 30.7656
L36.2344 51.8594
L47.6094 51.8594
L27.7812 32.625
L49.6094 0
L38.7656 0
L21.625 26.5156
L15.4375 20.5625
L15.4375 0
z
" id="ArialMT-6b"/>
      <path d="
M3.32812 25.9219
Q3.32812 40.3281 11.3281 47.2656
Q18.0156 53.0312 27.6406 53.0312
Q38.3281 53.0312 45.1094 46.0156
Q51.9062 39.0156 51.9062 26.6562
Q51.9062 16.6562 48.9062 10.9062
Q45.9062 5.17188 40.1562 2
Q34.4219 -1.17188 27.6406 -1.17188
Q16.75 -1.17188 10.0312 5.8125
Q3.32812 12.7969 3.32812 25.9219
M12.3594 25.9219
Q12.3594 15.9688 16.7031 11.0156
Q21.0469 6.0625 27.6406 6.0625
Q34.1875 6.0625 38.5312 11.0312
Q42.875 16.0156 42.875 26.2188
Q42.875 35.8438 38.5 40.7969
Q34.125 45.75 27.6406 45.75
Q21.0469 45.75 16.7031 40.8125
Q12.3594 35.8906 12.3594 25.9219" id="ArialMT-6f"/>
      <path d="
M12.3594 -21.0469
L6.0625 -21.0469
Q20.6562 2.39062 20.6562 25.875
Q20.6562 35.0625 18.5625 44.0938
Q16.8906 51.4219 13.9219 58.1562
Q12.0156 62.5469 6.0625 72.7969
L12.3594 72.7969
Q21.5312 60.5469 25.9219 48.1875
Q29.6875 37.5469 29.6875 25.9219
Q29.6875 12.75 24.625 0.4375
Q19.5781 -11.8594 12.3594 -21.0469" id="ArialMT-29"/>
      <path d="
M23.3906 -21.0469
Q16.1094 -11.8594 11.0781 0.4375
Q6.0625 12.75 6.0625 25.9219
Q6.0625 37.5469 9.8125 48.1875
Q14.2031 60.5469 23.3906 72.7969
L29.6875 72.7969
Q23.7812 62.6406 21.875 58.2969
Q18.8906 51.5625 17.1875 44.2344
Q15.0938 35.1094 15.0938 25.875
Q15.0938 2.39062 29.6875 -21.0469
z
" id="ArialMT-28"/>
     </defs>
     <g transform="translate(15.935625 222.4021875)rotate(-90.0)scale(0.12 -0.12)">
      <use xlink:href="#ArialMT-47"/>
      <use x="77.783203125" xlink:href="#ArialMT-28"/>
      <use x="111.083984375" xlink:href="#ArialMT-71"/>
      <use x="166.69921875" xlink:href="#ArialMT-29"/>
      <use x="200.0" xlink:href="#ArialMT-2c"/>
      <use x="227.783203125" xlink:href="#ArialMT-20"/>
      <use x="255.56640625" xlink:href="#ArialMT-6b"/>
      <use x="305.56640625" xlink:href="#ArialMT-63"/>
      <use x="355.56640625" xlink:href="#ArialMT-61"/>
      <use x="411.181640625" xlink:href="#ArialMT-6c"/>
      <use x="433.3984375" xlink:href="#ArialMT-2f"/>
      <use x="461.181640625" xlink:href="#ArialMT-6d"/>
      <use x="544.482421875" xlink:href="#ArialMT-6f"/>
      <use x="600.09765625" xlink:href="#ArialMT-6c"/>
     </g>
    </g>
   </g>
   <g id="patch_3">
    <path d="
M53.295 12.6872
L388.095 12.6872" style="fill:none;stroke:#000000;"/>
   </g>
   <g id="patch_4">
    <path d="
M388.095 358.287
L388.095 12.6872" style="fill:none;stroke:#000000;"/>
   </g>
   <g id="patch_5">
    <path d="
M53.295 358.287
L388.095 358.287" style="fill:none;stroke:#000000;"/>
   </g>
   <g id="patch_6">
    <path d="
M53.295 358.287
L53.295 12.6872" style="fill:none;stroke:#000000;"/>
   </g>
   <g id="legend_1">
    <g id="patch_7">
     <path d="
M180.267 351.087
L261.123 351.087
L261.123 285.659
L180.267 285.659
L180.267 351.087
z
" style="fill:#ffffff;stroke:#000000;"/>
    </g>
    <g id="line2d_46"/>
    <g id="line2d_47">
     <g>
      <use style="fill:#c0c0c0;stroke:#000000;stroke-linejoin:miter;stroke-width:0.5;" x="200.427" xlink:href="#m11cc215737" y="296.6866875"/>
     </g>
    </g>
    <g id="text_22">
     <!-- Soft -->
     <defs>
      <path d="
M25.7812 7.85938
L27.0469 0.09375
Q23.3438 -0.6875 20.4062 -0.6875
Q15.625 -0.6875 12.9844 0.828125
Q10.3594 2.34375 9.28125 4.8125
Q8.20312 7.28125 8.20312 15.1875
L8.20312 45.0156
L1.76562 45.0156
L1.76562 51.8594
L8.20312 51.8594
L8.20312 64.7031
L16.9375 69.9688
L16.9375 51.8594
L25.7812 51.8594
L25.7812 45.0156
L16.9375 45.0156
L16.9375 14.7031
Q16.9375 10.9375 17.4062 9.85938
Q17.875 8.79688 18.9219 8.15625
Q19.9688 7.51562 21.9219 7.51562
Q23.3906 7.51562 25.7812 7.85938" id="ArialMT-74"/>
      <path d="
M4.5 23
L13.4219 23.7812
Q14.0625 18.4062 16.375 14.9688
Q18.7031 11.5312 23.5781 9.40625
Q28.4688 7.28125 34.5781 7.28125
Q39.9844 7.28125 44.1406 8.89062
Q48.2969 10.5 50.3125 13.2969
Q52.3438 16.1094 52.3438 19.4375
Q52.3438 22.7969 50.3906 25.3125
Q48.4375 27.8281 43.9531 29.5469
Q41.0625 30.6719 31.2031 33.0312
Q21.3438 35.4062 17.3906 37.5
Q12.25 40.1875 9.73438 44.1562
Q7.23438 48.1406 7.23438 53.0781
Q7.23438 58.5 10.2969 63.2031
Q13.375 67.9219 19.2812 70.3594
Q25.2031 72.7969 32.4219 72.7969
Q40.375 72.7969 46.4531 70.2344
Q52.5469 67.6719 55.8125 62.6875
Q59.0781 57.7188 59.3281 51.4219
L50.25 50.7344
Q49.5156 57.5156 45.2812 60.9844
Q41.0625 64.4531 32.8125 64.4531
Q24.2188 64.4531 20.2812 61.2969
Q16.3594 58.1562 16.3594 53.7188
Q16.3594 49.8594 19.1406 47.3594
Q21.875 44.875 33.4219 42.2656
Q44.9688 39.6562 49.2656 37.7031
Q55.5156 34.8125 58.4844 30.3906
Q61.4688 25.9844 61.4688 20.2188
Q61.4688 14.5 58.2031 9.4375
Q54.9375 4.39062 48.7969 1.57812
Q42.6719 -1.21875 35.0156 -1.21875
Q25.2969 -1.21875 18.7188 1.60938
Q12.1562 4.4375 8.42188 10.125
Q4.6875 15.8281 4.5 23" id="ArialMT-53"/>
      <path d="
M8.6875 0
L8.6875 45.0156
L0.921875 45.0156
L0.921875 51.8594
L8.6875 51.8594
L8.6875 57.375
Q8.6875 62.5938 9.625 65.1406
Q10.8906 68.5625 14.0781 70.6719
Q17.2812 72.7969 23.0469 72.7969
Q26.7656 72.7969 31.25 71.9219
L29.9375 64.2656
Q27.2031 64.75 24.75 64.75
Q20.75 64.75 19.0938 63.0312
Q17.4375 61.3281 17.4375 56.6406
L17.4375 51.8594
L27.5469 51.8594
L27.5469 45.0156
L17.4375 45.0156
L17.4375 0
z
" id="ArialMT-66"/>
     </defs>
     <g transform="translate(226.347 301.7266875)scale(0.144 -0.144)">
      <use xlink:href="#ArialMT-53"/>
      <use x="66.69921875" xlink:href="#ArialMT-6f"/>
      <use x="122.314453125" xlink:href="#ArialMT-66"/>
      <use x="150.09765625" xlink:href="#ArialMT-74"/>
     </g>
    </g>
    <g id="line2d_48"/>
    <g id="line2d_49">
     <g>
      <use style="fill:#c0c0c0;stroke:#000000;stroke-linejoin:miter;stroke-width:0.5;" x="200.427" xlink:href="#m1b93415e84" y="317.0559375"/>
     </g>
    </g>
    <g id="text_23">
     <!-- Hard -->
     <defs>
      <path d="
M8.01562 0
L8.01562 71.5781
L17.4844 71.5781
L17.4844 42.1875
L54.6875 42.1875
L54.6875 71.5781
L64.1562 71.5781
L64.1562 0
L54.6875 0
L54.6875 33.7344
L17.4844 33.7344
L17.4844 0
z
" id="ArialMT-48"/>
      <path d="
M6.5 0
L6.5 51.8594
L14.4062 51.8594
L14.4062 44
Q17.4375 49.5156 20 51.2656
Q22.5625 53.0312 25.6406 53.0312
Q30.0781 53.0312 34.6719 50.2031
L31.6406 42.0469
Q28.4219 43.9531 25.2031 43.9531
Q22.3125 43.9531 20.0156 42.2188
Q17.7188 40.4844 16.75 37.4062
Q15.2812 32.7188 15.2812 27.1562
L15.2812 0
z
" id="ArialMT-72"/>
      <path d="
M40.2344 0
L40.2344 6.54688
Q35.2969 -1.17188 25.7344 -1.17188
Q19.5312 -1.17188 14.3281 2.25
Q9.125 5.67188 6.26562 11.7969
Q3.42188 17.9219 3.42188 25.875
Q3.42188 33.6406 6 39.9688
Q8.59375 46.2969 13.7656 49.6562
Q18.9531 53.0312 25.3438 53.0312
Q30.0312 53.0312 33.6875 51.0469
Q37.3594 49.0781 39.6562 45.9062
L39.6562 71.5781
L48.3906 71.5781
L48.3906 0
z

M12.4531 25.875
Q12.4531 15.9219 16.6406 10.9844
Q20.8438 6.0625 26.5625 6.0625
Q32.3281 6.0625 36.3438 10.7656
Q40.375 15.4844 40.375 25.1406
Q40.375 35.7969 36.2656 40.7656
Q32.1719 45.75 26.1719 45.75
Q20.3125 45.75 16.375 40.9688
Q12.4531 36.1875 12.4531 25.875" id="ArialMT-64"/>
     </defs>
     <g transform="translate(226.347 322.0959375)scale(0.144 -0.144)">
      <use xlink:href="#ArialMT-48"/>
      <use x="72.216796875" xlink:href="#ArialMT-61"/>
      <use x="127.83203125" xlink:href="#ArialMT-72"/>
      <use x="161.1328125" xlink:href="#ArialMT-64"/>
     </g>
    </g>
    <g id="line2d_50"/>
    <g id="line2d_51">
     <g>
      <use style="stroke:#000000;stroke-width:0.5;" x="200.427" xlink:href="#m8b0675cc3b" y="337.4251875"/>
     </g>
    </g>
    <g id="text_24">
     <!-- QM -->
     <defs>
      <path d="
M61.9688 7.67188
Q68.5625 3.125 74.125 1.03125
L71.3438 -5.5625
Q63.625 -2.78125 55.9531 3.21875
Q48 -1.21875 38.375 -1.21875
Q28.6562 -1.21875 20.75 3.46875
Q12.8438 8.15625 8.5625 16.6406
Q4.29688 25.1406 4.29688 35.7969
Q4.29688 46.3906 8.59375 55.0781
Q12.8906 63.7656 20.8281 68.3125
Q28.7656 72.8594 38.5781 72.8594
Q48.4844 72.8594 56.4375 68.1406
Q64.4062 63.4219 68.5781 54.9531
Q72.75 46.4844 72.75 35.8438
Q72.75 27 70.0625 19.9375
Q67.3906 12.8906 61.9688 7.67188
M41.1094 19.7812
Q49.3125 17.4844 54.6406 12.9375
Q62.9844 20.5625 62.9844 35.8438
Q62.9844 44.5312 60.0312 51.0156
Q57.0781 57.5156 51.3906 61.1094
Q45.7031 64.7031 38.625 64.7031
Q28.0312 64.7031 21.0469 57.4531
Q14.0625 50.2031 14.0625 35.7969
Q14.0625 21.8281 20.9688 14.3594
Q27.875 6.89062 38.625 6.89062
Q43.7031 6.89062 48.1875 8.79688
Q43.75 11.6719 38.8125 12.8906
z
" id="ArialMT-51"/>
      <path d="
M7.42188 0
L7.42188 71.5781
L21.6875 71.5781
L38.625 20.9062
Q40.9688 13.8125 42.0469 10.2969
Q43.2656 14.2031 45.8438 21.7812
L62.9844 71.5781
L75.7344 71.5781
L75.7344 0
L66.6094 0
L66.6094 59.9062
L45.7969 0
L37.25 0
L16.5469 60.9375
L16.5469 0
z
" id="ArialMT-4d"/>
     </defs>
     <g transform="translate(226.347 342.4651875)scale(0.144 -0.144)">
      <use xlink:href="#ArialMT-51"/>
      <use x="77.783203125" xlink:href="#ArialMT-4d"/>
     </g>
    </g>
   </g>
  </g>
 </g>
 <defs>
  <clipPath id="p557800865e">
   <rect height="345.6" width="334.8" x="53.295" y="12.6871875"/>
  </clipPath>
 </defs>
</svg>
