<?xml version="1.0" encoding="utf-8" standalone="no"?>
<!DOCTYPE svg PUBLIC "-//W3C//DTD SVG 1.1//EN"
  "http://www.w3.org/Graphics/SVG/1.1/DTD/svg11.dtd">
<!-- Created with matplotlib (http://matplotlib.org/) -->
<svg height="281pt" version="1.1" viewBox="0 0 514 281" width="514pt" xmlns="http://www.w3.org/2000/svg" xmlns:xlink="http://www.w3.org/1999/xlink">
 <defs>
  <style type="text/css">
*{stroke-linecap:butt;stroke-linejoin:round;}
  </style>
 </defs>
 <g id="figure_1">
  <g id="patch_1">
   <path d="
M0 281.236
L514.819 281.236
L514.819 0
L0 0
z
" style="fill:none;"/>
  </g>
  <g id="axes_1">
   <g id="patch_2">
    <path d="
M53.3419 243.087
L499.742 243.087
L499.742 12.6872
L53.3419 12.6872
z
" style="fill:none;"/>
   </g>
   <g id="line2d_1">
    <path clip-path="url(#pc7759a5583)" d="
M466.477 92.8522
L460.35 91.4847
L454.223 90.3083
L448.096 88.7303
L441.969 86.9332
L435.842 84.4548
L429.715 81.9724
L423.588 79.7964
L417.461 76.6247
L411.334 72.5113
L405.207 67.3211
L399.08 60.7566
L392.954 53.1114
L386.827 46.128
L380.7 40.1394
L374.573 34.8949
L368.446 31.7155
L362.319 31.3888
L356.192 32.5415
L350.065 34.0678
L343.938 29.9621
L337.811 32.8198
L331.684 39.6402
L325.557 46.3502
L319.43 56.2388
L313.303 65.7502
L307.177 74.3739
L301.05 82.6143
L294.923 89.9054
L288.796 95.647
L282.669 99.3174
L276.542 100.542
L270.415 99.2961
L264.288 95.7812
L258.161 90.4299
L252.034 83.5574
L245.907 75.4035
L239.78 66.4056
L233.653 56.7449
L227.526 47.3491
L221.399 39.9505
L215.273 34.369
L209.146 32.7059
L203.019 34.2056
L196.892 32.3417
L190.765 31.5609
L184.638 33.7845
L178.511 37.7685
L172.384 43.1349
L166.257 49.2056
L160.13 55.2721
L154.003 60.9526
L147.876 65.9343
L141.749 70.5713
L135.622 75.1926
L129.496 79.4504
L123.369 82.9861
L117.242 85.5596
L111.115 87.4474
L104.988 88.9386
L98.8609 90.3564
L92.7339 91.9988
L86.607 93.6318" style="fill:none;stroke:#c0c0c0;stroke-dasharray:6.000000,6.000000;stroke-dashoffset:0.0;"/>
   </g>
   <g id="line2d_2">
    <defs>
     <path d="
M0 3
C0.795609 3 1.55874 2.6839 2.12132 2.12132
C2.6839 1.55874 3 0.795609 3 0
C3 -0.795609 2.6839 -1.55874 2.12132 -2.12132
C1.55874 -2.6839 0.795609 -3 0 -3
C-0.795609 -3 -1.55874 -2.6839 -2.12132 -2.12132
C-2.6839 -1.55874 -3 -0.795609 -3 0
C-3 0.795609 -2.6839 1.55874 -2.12132 2.12132
C-1.55874 2.6839 -0.795609 3 0 3
z
" id="m12728d40c0" style="stroke:#000000;stroke-width:0.5;"/>
    </defs>
    <g clip-path="url(#pc7759a5583)">
     <use style="fill:#c0c0c0;stroke:#000000;stroke-width:0.5;" x="484.194870726" xlink:href="#m12728d40c0" y="99.8123038468"/>
     <use style="fill:#c0c0c0;stroke:#000000;stroke-width:0.5;" x="466.476740205" xlink:href="#m12728d40c0" y="92.8522213159"/>
     <use style="fill:#c0c0c0;stroke:#000000;stroke-width:0.5;" x="447.483253685" xlink:href="#m12728d40c0" y="88.5559772908"/>
     <use style="fill:#c0c0c0;stroke:#000000;stroke-width:0.5;" x="428.489767164" xlink:href="#m12728d40c0" y="81.5673571761"/>
     <use style="fill:#c0c0c0;stroke:#000000;stroke-width:0.5;" x="409.496280644" xlink:href="#m12728d40c0" y="71.068797548"/>
     <use style="fill:#c0c0c0;stroke:#000000;stroke-width:0.5;" x="390.502794124" xlink:href="#m12728d40c0" y="50.1557217387"/>
     <use style="fill:#c0c0c0;stroke:#000000;stroke-width:0.5;" x="371.509307603" xlink:href="#m12728d40c0" y="32.9353351648"/>
     <use style="fill:#c0c0c0;stroke:#000000;stroke-width:0.5;" x="352.515821082" xlink:href="#m12728d40c0" y="33.8827233759"/>
     <use style="fill:#c0c0c0;stroke:#000000;stroke-width:0.5;" x="333.522334562" xlink:href="#m12728d40c0" y="37.8631711978"/>
     <use style="fill:#c0c0c0;stroke:#000000;stroke-width:0.5;" x="314.528848041" xlink:href="#m12728d40c0" y="63.9634022697"/>
     <use style="fill:#c0c0c0;stroke:#000000;stroke-width:0.5;" x="295.535361521" xlink:href="#m12728d40c0" y="89.2376535587"/>
     <use style="fill:#c0c0c0;stroke:#000000;stroke-width:0.5;" x="276.541875" xlink:href="#m12728d40c0" y="100.541550791"/>
     <use style="fill:#c0c0c0;stroke:#000000;stroke-width:0.5;" x="257.548388479" xlink:href="#m12728d40c0" y="89.8078035222"/>
     <use style="fill:#c0c0c0;stroke:#000000;stroke-width:0.5;" x="238.554901959" xlink:href="#m12728d40c0" y="64.5285259949"/>
     <use style="fill:#c0c0c0;stroke:#000000;stroke-width:0.5;" x="219.561415438" xlink:href="#m12728d40c0" y="38.1158685178"/>
     <use style="fill:#c0c0c0;stroke:#000000;stroke-width:0.5;" x="200.567928918" xlink:href="#m12728d40c0" y="33.7154337865"/>
     <use style="fill:#c0c0c0;stroke:#000000;stroke-width:0.5;" x="181.574442397" xlink:href="#m12728d40c0" y="35.5815890091"/>
     <use style="fill:#c0c0c0;stroke:#000000;stroke-width:0.5;" x="162.580955876" xlink:href="#m12728d40c0" y="52.8680405977"/>
     <use style="fill:#c0c0c0;stroke:#000000;stroke-width:0.5;" x="143.587469356" xlink:href="#m12728d40c0" y="69.1737018056"/>
     <use style="fill:#c0c0c0;stroke:#000000;stroke-width:0.5;" x="124.593982836" xlink:href="#m12728d40c0" y="82.3587304314"/>
     <use style="fill:#c0c0c0;stroke:#000000;stroke-width:0.5;" x="105.600496315" xlink:href="#m12728d40c0" y="88.8001073582"/>
     <use style="fill:#c0c0c0;stroke:#000000;stroke-width:0.5;" x="86.6070097947" xlink:href="#m12728d40c0" y="93.6318270767"/>
     <use style="fill:#c0c0c0;stroke:#000000;stroke-width:0.5;" x="71.9636013832" xlink:href="#m12728d40c0" y="97.0785133598"/>
    </g>
   </g>
   <g id="line2d_3">
    <path clip-path="url(#pc7759a5583)" d="
M461.989 235.277
L456.007 234.444
L450.025 233.391
L444.043 232.577
L438.06 230.575
L432.078 227.9
L426.096 224.961
L420.114 221.771
L414.132 218.208
L408.15 214.138
L402.167 208.651
L396.185 202.158
L390.203 194.907
L384.221 186.945
L378.239 178.484
L372.257 169.691
L366.274 160.96
L360.292 152.93
L354.31 146.085
L348.328 139.678
L342.346 134.121
L336.364 129.738
L330.381 125.114
L324.399 118.923
L318.417 114.01
L312.435 112.8
L306.453 113.416
L300.471 116.242
L294.488 121.107
L288.506 127.403
L282.524 132.317
L276.542 134.053
L270.56 132.305
L264.578 127.268
L258.595 121.381
L252.613 116.307
L246.631 113.605
L240.649 112.816
L234.667 113.626
L228.685 118.358
L222.702 124.916
L216.72 129.415
L210.738 133.663
L204.756 139.335
L198.774 145.75
L192.792 152.738
L186.809 160.653
L180.827 169.337
L174.845 178.109
L168.863 186.398
L162.881 194.151
L156.898 200.818
L150.916 206.317
L144.934 211.491
L138.952 216.693
L132.97 221.482
L126.988 225.425
L121.005 228.354
L115.023 230.428
L109.041 231.965
L103.059 233.234
L97.0768 234.536
L91.0946 236.011" style="fill:none;stroke:#000000;stroke-dasharray:6.000000,6.000000;stroke-dashoffset:0.0;"/>
   </g>
   <g id="line2d_4">
    <defs>
     <path d="
M0 3
C0.795609 3 1.55874 2.6839 2.12132 2.12132
C2.6839 1.55874 3 0.795609 3 0
C3 -0.795609 2.6839 -1.55874 2.12132 -2.12132
C1.55874 -2.6839 0.795609 -3 0 -3
C-0.795609 -3 -1.55874 -2.6839 -2.12132 -2.12132
C-2.6839 -1.55874 -3 -0.795609 -3 0
C-3 0.795609 -2.6839 1.55874 -2.12132 2.12132
C-1.55874 2.6839 -0.795609 3 0 3
z
" id="m8b0675cc3b" style="stroke:#000000;stroke-width:0.5;"/>
    </defs>
    <g clip-path="url(#pc7759a5583)">
     <use style="stroke:#000000;stroke-width:0.5;" x="475.199024244" xlink:href="#m8b0675cc3b" y="237.584534057"/>
     <use style="stroke:#000000;stroke-width:0.5;" x="461.989107051" xlink:href="#m8b0675cc3b" y="235.276624421"/>
     <use style="stroke:#000000;stroke-width:0.5;" x="443.444383845" xlink:href="#m8b0675cc3b" y="232.423946927"/>
     <use style="stroke:#000000;stroke-width:0.5;" x="424.89966064" xlink:href="#m8b0675cc3b" y="224.345954408"/>
     <use style="stroke:#000000;stroke-width:0.5;" x="406.354937436" xlink:href="#m8b0675cc3b" y="212.633062042"/>
     <use style="stroke:#000000;stroke-width:0.5;" x="387.81021423" xlink:href="#m8b0675cc3b" y="191.792535281"/>
     <use style="stroke:#000000;stroke-width:0.5;" x="369.265491025" xlink:href="#m8b0675cc3b" y="165.28264699"/>
     <use style="stroke:#000000;stroke-width:0.5;" x="350.72076782" xlink:href="#m8b0675cc3b" y="142.198323225"/>
     <use style="stroke:#000000;stroke-width:0.5;" x="332.176044615" xlink:href="#m8b0675cc3b" y="126.65159631"/>
     <use style="stroke:#000000;stroke-width:0.5;" x="313.63132141" xlink:href="#m8b0675cc3b" y="112.833384455"/>
     <use style="stroke:#000000;stroke-width:0.5;" x="295.086598205" xlink:href="#m8b0675cc3b" y="120.559913473"/>
     <use style="stroke:#000000;stroke-width:0.5;" x="276.541875" xlink:href="#m8b0675cc3b" y="134.052629242"/>
     <use style="stroke:#000000;stroke-width:0.5;" x="257.997151795" xlink:href="#m8b0675cc3b" y="120.800027663"/>
     <use style="stroke:#000000;stroke-width:0.5;" x="239.45242859" xlink:href="#m8b0675cc3b" y="112.802808947"/>
     <use style="stroke:#000000;stroke-width:0.5;" x="220.907705385" xlink:href="#m8b0675cc3b" y="126.477794195"/>
     <use style="stroke:#000000;stroke-width:0.5;" x="202.36298218" xlink:href="#m8b0675cc3b" y="141.856884108"/>
     <use style="stroke:#000000;stroke-width:0.5;" x="183.818258975" xlink:href="#m8b0675cc3b" y="164.929762222"/>
     <use style="stroke:#000000;stroke-width:0.5;" x="165.27353577" xlink:href="#m8b0675cc3b" y="191.136709738"/>
     <use style="stroke:#000000;stroke-width:0.5;" x="146.728812564" xlink:href="#m8b0675cc3b" y="209.921978357"/>
     <use style="stroke:#000000;stroke-width:0.5;" x="128.18408936" xlink:href="#m8b0675cc3b" y="224.714314451"/>
     <use style="stroke:#000000;stroke-width:0.5;" x="109.639366155" xlink:href="#m8b0675cc3b" y="231.826550209"/>
     <use style="stroke:#000000;stroke-width:0.5;" x="91.0946429495" xlink:href="#m8b0675cc3b" y="236.010579279"/>
     <use style="stroke:#000000;stroke-width:0.5;" x="76.9638680555" xlink:href="#m8b0675cc3b" y="238.179465541"/>
    </g>
   </g>
   <g id="matplotlib.axis_1">
    <g id="xtick_1">
     <g id="line2d_5">
      <defs>
       <path d="
M0 0
L0 -4" id="m93b0483c22" style="stroke:#000000;stroke-width:0.5;"/>
      </defs>
      <g>
       <use style="stroke:#000000;stroke-width:0.5;" x="53.341875" xlink:href="#m93b0483c22" y="243.0871875"/>
      </g>
     </g>
     <g id="line2d_6">
      <defs>
       <path d="
M0 0
L0 4" id="m741efc42ff" style="stroke:#000000;stroke-width:0.5;"/>
      </defs>
      <g>
       <use style="stroke:#000000;stroke-width:0.5;" x="53.341875" xlink:href="#m741efc42ff" y="12.6871875"/>
      </g>
     </g>
     <g id="text_1">
      <!-- −2.0 -->
      <defs>
       <path d="
M9.07812 0
L9.07812 10.0156
L19.0938 10.0156
L19.0938 0
z
" id="ArialMT-2e"/>
       <path d="
M4.15625 35.2969
Q4.15625 48 6.76562 55.7344
Q9.375 63.4844 14.5156 67.6719
Q19.6719 71.875 27.4844 71.875
Q33.25 71.875 37.5938 69.5469
Q41.9375 67.2344 44.7656 62.8594
Q47.6094 58.5 49.2188 52.2188
Q50.8281 45.9531 50.8281 35.2969
Q50.8281 22.7031 48.2344 14.9688
Q45.6562 7.23438 40.5 3
Q35.3594 -1.21875 27.4844 -1.21875
Q17.1406 -1.21875 11.2344 6.20312
Q4.15625 15.1406 4.15625 35.2969
M13.1875 35.2969
Q13.1875 17.6719 17.3125 11.8281
Q21.4375 6 27.4844 6
Q33.5469 6 37.6719 11.8594
Q41.7969 17.7188 41.7969 35.2969
Q41.7969 52.9844 37.6719 58.7812
Q33.5469 64.5938 27.3906 64.5938
Q21.3438 64.5938 17.7188 59.4688
Q13.1875 52.9375 13.1875 35.2969" id="ArialMT-30"/>
       <path d="
M52.8281 31.2031
L5.5625 31.2031
L5.5625 39.4062
L52.8281 39.4062
z
" id="ArialMT-2212"/>
       <path d="
M50.3438 8.45312
L50.3438 0
L3.03125 0
Q2.9375 3.17188 4.04688 6.10938
Q5.85938 10.9375 9.82812 15.625
Q13.8125 20.3125 21.3438 26.4688
Q33.0156 36.0312 37.1094 41.625
Q41.2188 47.2188 41.2188 52.2031
Q41.2188 57.4219 37.4688 61
Q33.7344 64.5938 27.7344 64.5938
Q21.3906 64.5938 17.5781 60.7812
Q13.7656 56.9844 13.7188 50.25
L4.6875 51.1719
Q5.60938 61.2812 11.6562 66.5781
Q17.7188 71.875 27.9375 71.875
Q38.2344 71.875 44.2344 66.1562
Q50.25 60.4531 50.25 52
Q50.25 47.7031 48.4844 43.5469
Q46.7344 39.4062 42.6562 34.8125
Q38.5781 30.2188 29.1094 22.2188
Q21.1875 15.5781 18.9375 13.2031
Q16.7031 10.8438 15.2344 8.45312
z
" id="ArialMT-32"/>
      </defs>
      <g transform="translate(42.118125 255.6765625)scale(0.12 -0.12)">
       <use xlink:href="#ArialMT-2212"/>
       <use x="58.3984375" xlink:href="#ArialMT-32"/>
       <use x="114.013671875" xlink:href="#ArialMT-2e"/>
       <use x="141.796875" xlink:href="#ArialMT-30"/>
      </g>
     </g>
    </g>
    <g id="xtick_2">
     <g id="line2d_7">
      <g>
       <use style="stroke:#000000;stroke-width:0.5;" x="109.141875" xlink:href="#m93b0483c22" y="243.0871875"/>
      </g>
     </g>
     <g id="line2d_8">
      <g>
       <use style="stroke:#000000;stroke-width:0.5;" x="109.141875" xlink:href="#m741efc42ff" y="12.6871875"/>
      </g>
     </g>
     <g id="text_2">
      <!-- −1.5 -->
      <defs>
       <path d="
M37.25 0
L28.4688 0
L28.4688 56
Q25.2969 52.9844 20.1406 49.9531
Q14.9844 46.9219 10.8906 45.4062
L10.8906 53.9062
Q18.2656 57.375 23.7812 62.2969
Q29.2969 67.2344 31.5938 71.875
L37.25 71.875
z
" id="ArialMT-31"/>
       <path d="
M4.15625 18.75
L13.375 19.5312
Q14.4062 12.7969 18.1406 9.39062
Q21.875 6 27.1562 6
Q33.5 6 37.8906 10.7812
Q42.2812 15.5781 42.2812 23.4844
Q42.2812 31 38.0625 35.3438
Q33.8438 39.7031 27 39.7031
Q22.75 39.7031 19.3281 37.7656
Q15.9219 35.8438 13.9688 32.7656
L5.71875 33.8438
L12.6406 70.6094
L48.25 70.6094
L48.25 62.2031
L19.6719 62.2031
L15.8281 42.9688
Q22.2656 47.4688 29.3438 47.4688
Q38.7188 47.4688 45.1562 40.9688
Q51.6094 34.4688 51.6094 24.2656
Q51.6094 14.5469 45.9531 7.46875
Q39.0625 -1.21875 27.1562 -1.21875
Q17.3906 -1.21875 11.2031 4.25
Q5.03125 9.71875 4.15625 18.75" id="ArialMT-35"/>
      </defs>
      <g transform="translate(97.87125 255.6765625)scale(0.12 -0.12)">
       <use xlink:href="#ArialMT-2212"/>
       <use x="58.3984375" xlink:href="#ArialMT-31"/>
       <use x="114.013671875" xlink:href="#ArialMT-2e"/>
       <use x="141.796875" xlink:href="#ArialMT-35"/>
      </g>
     </g>
    </g>
    <g id="xtick_3">
     <g id="line2d_9">
      <g>
       <use style="stroke:#000000;stroke-width:0.5;" x="164.941875" xlink:href="#m93b0483c22" y="243.0871875"/>
      </g>
     </g>
     <g id="line2d_10">
      <g>
       <use style="stroke:#000000;stroke-width:0.5;" x="164.941875" xlink:href="#m741efc42ff" y="12.6871875"/>
      </g>
     </g>
     <g id="text_3">
      <!-- −1.0 -->
      <g transform="translate(153.718125 255.6765625)scale(0.12 -0.12)">
       <use xlink:href="#ArialMT-2212"/>
       <use x="58.3984375" xlink:href="#ArialMT-31"/>
       <use x="114.013671875" xlink:href="#ArialMT-2e"/>
       <use x="141.796875" xlink:href="#ArialMT-30"/>
      </g>
     </g>
    </g>
    <g id="xtick_4">
     <g id="line2d_11">
      <g>
       <use style="stroke:#000000;stroke-width:0.5;" x="220.741875" xlink:href="#m93b0483c22" y="243.0871875"/>
      </g>
     </g>
     <g id="line2d_12">
      <g>
       <use style="stroke:#000000;stroke-width:0.5;" x="220.741875" xlink:href="#m741efc42ff" y="12.6871875"/>
      </g>
     </g>
     <g id="text_4">
      <!-- −0.5 -->
      <g transform="translate(209.47125 255.6765625)scale(0.12 -0.12)">
       <use xlink:href="#ArialMT-2212"/>
       <use x="58.3984375" xlink:href="#ArialMT-30"/>
       <use x="114.013671875" xlink:href="#ArialMT-2e"/>
       <use x="141.796875" xlink:href="#ArialMT-35"/>
      </g>
     </g>
    </g>
    <g id="xtick_5">
     <g id="line2d_13">
      <g>
       <use style="stroke:#000000;stroke-width:0.5;" x="276.541875" xlink:href="#m93b0483c22" y="243.0871875"/>
      </g>
     </g>
     <g id="line2d_14">
      <g>
       <use style="stroke:#000000;stroke-width:0.5;" x="276.541875" xlink:href="#m741efc42ff" y="12.6871875"/>
      </g>
     </g>
     <g id="text_5">
      <!-- 0.0 -->
      <g transform="translate(268.738125 255.6765625)scale(0.12 -0.12)">
       <use xlink:href="#ArialMT-30"/>
       <use x="55.615234375" xlink:href="#ArialMT-2e"/>
       <use x="83.3984375" xlink:href="#ArialMT-30"/>
      </g>
     </g>
    </g>
    <g id="xtick_6">
     <g id="line2d_15">
      <g>
       <use style="stroke:#000000;stroke-width:0.5;" x="332.341875" xlink:href="#m93b0483c22" y="243.0871875"/>
      </g>
     </g>
     <g id="line2d_16">
      <g>
       <use style="stroke:#000000;stroke-width:0.5;" x="332.341875" xlink:href="#m741efc42ff" y="12.6871875"/>
      </g>
     </g>
     <g id="text_6">
      <!-- 0.5 -->
      <g transform="translate(324.49125 255.6765625)scale(0.12 -0.12)">
       <use xlink:href="#ArialMT-30"/>
       <use x="55.615234375" xlink:href="#ArialMT-2e"/>
       <use x="83.3984375" xlink:href="#ArialMT-35"/>
      </g>
     </g>
    </g>
    <g id="xtick_7">
     <g id="line2d_17">
      <g>
       <use style="stroke:#000000;stroke-width:0.5;" x="388.141875" xlink:href="#m93b0483c22" y="243.0871875"/>
      </g>
     </g>
     <g id="line2d_18">
      <g>
       <use style="stroke:#000000;stroke-width:0.5;" x="388.141875" xlink:href="#m741efc42ff" y="12.6871875"/>
      </g>
     </g>
     <g id="text_7">
      <!-- 1.0 -->
      <g transform="translate(380.7421875 255.6765625)scale(0.12 -0.12)">
       <use xlink:href="#ArialMT-31"/>
       <use x="55.615234375" xlink:href="#ArialMT-2e"/>
       <use x="83.3984375" xlink:href="#ArialMT-30"/>
      </g>
     </g>
    </g>
    <g id="xtick_8">
     <g id="line2d_19">
      <g>
       <use style="stroke:#000000;stroke-width:0.5;" x="443.941875" xlink:href="#m93b0483c22" y="243.0871875"/>
      </g>
     </g>
     <g id="line2d_20">
      <g>
       <use style="stroke:#000000;stroke-width:0.5;" x="443.941875" xlink:href="#m741efc42ff" y="12.6871875"/>
      </g>
     </g>
     <g id="text_8">
      <!-- 1.5 -->
      <g transform="translate(436.4953125 255.6765625)scale(0.12 -0.12)">
       <use xlink:href="#ArialMT-31"/>
       <use x="55.615234375" xlink:href="#ArialMT-2e"/>
       <use x="83.3984375" xlink:href="#ArialMT-35"/>
      </g>
     </g>
    </g>
    <g id="xtick_9">
     <g id="line2d_21">
      <g>
       <use style="stroke:#000000;stroke-width:0.5;" x="499.741875" xlink:href="#m93b0483c22" y="243.0871875"/>
      </g>
     </g>
     <g id="line2d_22">
      <g>
       <use style="stroke:#000000;stroke-width:0.5;" x="499.741875" xlink:href="#m741efc42ff" y="12.6871875"/>
      </g>
     </g>
     <g id="text_9">
      <!-- 2.0 -->
      <g transform="translate(491.865 255.6765625)scale(0.12 -0.12)">
       <use xlink:href="#ArialMT-32"/>
       <use x="55.615234375" xlink:href="#ArialMT-2e"/>
       <use x="83.3984375" xlink:href="#ArialMT-30"/>
      </g>
     </g>
    </g>
    <g id="text_10">
     <!-- q, A -->
     <defs>
      <path d="
M-0.140625 0
L27.3438 71.5781
L37.5469 71.5781
L66.8438 0
L56.0625 0
L47.7031 21.6875
L17.7812 21.6875
L9.90625 0
z

M20.5156 29.3906
L44.7812 29.3906
L37.3125 49.2188
Q33.8906 58.25 32.2344 64.0625
Q30.8594 57.1719 28.375 50.3906
z
" id="ArialMT-41"/>
      <path d="
M8.89062 0
L8.89062 10.0156
L18.8906 10.0156
L18.8906 0
Q18.8906 -5.51562 16.9375 -8.90625
Q14.9844 -12.3125 10.75 -14.1562
L8.29688 -10.4062
Q11.0781 -9.1875 12.3906 -6.8125
Q13.7188 -4.4375 13.875 0
z
" id="ArialMT-2c"/>
      <path d="
M39.6562 -19.875
L39.6562 5.51562
Q37.5938 2.64062 33.9062 0.734375
Q30.2188 -1.17188 26.0781 -1.17188
Q16.8438 -1.17188 10.1719 6.20312
Q3.51562 13.5781 3.51562 26.4219
Q3.51562 34.2344 6.21875 40.4219
Q8.9375 46.625 14.0781 49.8281
Q19.2344 53.0312 25.3906 53.0312
Q35.0156 53.0312 40.5312 44.9219
L40.5312 51.8594
L48.4375 51.8594
L48.4375 -19.875
z

M12.5469 26.0781
Q12.5469 16.0625 16.75 11.0625
Q20.9531 6.0625 26.8125 6.0625
Q32.4219 6.0625 36.4688 10.8125
Q40.5312 15.5781 40.5312 25.2969
Q40.5312 35.6406 36.25 40.8594
Q31.9844 46.0938 26.2188 46.0938
Q20.5156 46.0938 16.5312 41.2344
Q12.5469 36.375 12.5469 26.0781" id="ArialMT-71"/>
      <path id="ArialMT-20"/>
     </defs>
     <g transform="translate(266.1909375 271.6509375)scale(0.12 -0.12)">
      <use xlink:href="#ArialMT-71"/>
      <use x="55.615234375" xlink:href="#ArialMT-2c"/>
      <use x="83.3984375" xlink:href="#ArialMT-20"/>
      <use x="105.681640625" xlink:href="#ArialMT-41"/>
     </g>
    </g>
   </g>
   <g id="matplotlib.axis_2">
    <g id="ytick_1">
     <g id="line2d_23">
      <defs>
       <path d="
M0 0
L4 0" id="m728421d6d4" style="stroke:#000000;stroke-width:0.5;"/>
      </defs>
      <g>
       <use style="stroke:#000000;stroke-width:0.5;" x="53.341875" xlink:href="#m728421d6d4" y="243.0871875"/>
      </g>
     </g>
     <g id="line2d_24">
      <defs>
       <path d="
M0 0
L-4 0" id="mcb0005524f" style="stroke:#000000;stroke-width:0.5;"/>
      </defs>
      <g>
       <use style="stroke:#000000;stroke-width:0.5;" x="499.741875" xlink:href="#mcb0005524f" y="243.0871875"/>
      </g>
     </g>
     <g id="text_11">
      <!-- −431 -->
      <defs>
       <path d="
M4.20312 18.8906
L12.9844 20.0625
Q14.5 12.5938 18.1406 9.29688
Q21.7812 6 27 6
Q33.2031 6 37.4688 10.2969
Q41.75 14.5938 41.75 20.9531
Q41.75 27 37.7969 30.9219
Q33.8438 34.8594 27.7344 34.8594
Q25.25 34.8594 21.5312 33.8906
L22.5156 41.6094
Q23.3906 41.5 23.9219 41.5
Q29.5469 41.5 34.0312 44.4219
Q38.5312 47.3594 38.5312 53.4688
Q38.5312 58.2969 35.25 61.4688
Q31.9844 64.6562 26.8125 64.6562
Q21.6875 64.6562 18.2656 61.4219
Q14.8438 58.2031 13.875 51.7656
L5.07812 53.3281
Q6.6875 62.1562 12.3906 67.0156
Q18.1094 71.875 26.6094 71.875
Q32.4688 71.875 37.3906 69.3594
Q42.3281 66.8438 44.9375 62.5
Q47.5625 58.1562 47.5625 53.2656
Q47.5625 48.6406 45.0625 44.8281
Q42.5781 41.0156 37.7031 38.7656
Q44.0469 37.3125 47.5625 32.6875
Q51.0781 28.0781 51.0781 21.1406
Q51.0781 11.7656 44.2344 5.25
Q37.4062 -1.26562 26.9531 -1.26562
Q17.5312 -1.26562 11.2969 4.34375
Q5.07812 9.96875 4.20312 18.8906" id="ArialMT-33"/>
       <path d="
M32.3281 0
L32.3281 17.1406
L1.26562 17.1406
L1.26562 25.2031
L33.9375 71.5781
L41.1094 71.5781
L41.1094 25.2031
L50.7812 25.2031
L50.7812 17.1406
L41.1094 17.1406
L41.1094 0
z

M32.3281 25.2031
L32.3281 57.4688
L9.90625 25.2031
z
" id="ArialMT-34"/>
      </defs>
      <g transform="translate(25.184375 246.189375)scale(0.12 -0.12)">
       <use xlink:href="#ArialMT-2212"/>
       <use x="58.3984375" xlink:href="#ArialMT-34"/>
       <use x="114.013671875" xlink:href="#ArialMT-33"/>
       <use x="169.62890625" xlink:href="#ArialMT-31"/>
      </g>
     </g>
    </g>
    <g id="ytick_2">
     <g id="line2d_25">
      <g>
       <use style="stroke:#000000;stroke-width:0.5;" x="53.341875" xlink:href="#m728421d6d4" y="214.2871875"/>
      </g>
     </g>
     <g id="line2d_26">
      <g>
       <use style="stroke:#000000;stroke-width:0.5;" x="499.741875" xlink:href="#mcb0005524f" y="214.2871875"/>
      </g>
     </g>
     <g id="text_12">
      <!-- −430 -->
      <g transform="translate(23.555 217.389375)scale(0.12 -0.12)">
       <use xlink:href="#ArialMT-2212"/>
       <use x="58.3984375" xlink:href="#ArialMT-34"/>
       <use x="114.013671875" xlink:href="#ArialMT-33"/>
       <use x="169.62890625" xlink:href="#ArialMT-30"/>
      </g>
     </g>
    </g>
    <g id="ytick_3">
     <g id="line2d_27">
      <g>
       <use style="stroke:#000000;stroke-width:0.5;" x="53.341875" xlink:href="#m728421d6d4" y="185.4871875"/>
      </g>
     </g>
     <g id="line2d_28">
      <g>
       <use style="stroke:#000000;stroke-width:0.5;" x="499.741875" xlink:href="#mcb0005524f" y="185.4871875"/>
      </g>
     </g>
     <g id="text_13">
      <!-- −429 -->
      <defs>
       <path d="
M5.46875 16.5469
L13.9219 17.3281
Q14.9844 11.375 18.0156 8.6875
Q21.0469 6 25.7812 6
Q29.8281 6 32.875 7.85938
Q35.9375 9.71875 37.8906 12.8125
Q39.8438 15.9219 41.1562 21.1875
Q42.4844 26.4688 42.4844 31.9375
Q42.4844 32.5156 42.4375 33.6875
Q39.7969 29.5 35.2344 26.875
Q30.6719 24.2656 25.3438 24.2656
Q16.4531 24.2656 10.2969 30.7031
Q4.15625 37.1562 4.15625 47.7031
Q4.15625 58.5938 10.5781 65.2344
Q17 71.875 26.6562 71.875
Q33.6406 71.875 39.4219 68.1094
Q45.2188 64.3594 48.2188 57.3906
Q51.2188 50.4375 51.2188 37.25
Q51.2188 23.5312 48.2344 15.4062
Q45.2656 7.28125 39.375 3.03125
Q33.5 -1.21875 25.5938 -1.21875
Q17.1875 -1.21875 11.8594 3.4375
Q6.54688 8.10938 5.46875 16.5469
M41.4531 48.1406
Q41.4531 55.7188 37.4219 60.1562
Q33.4062 64.5938 27.7344 64.5938
Q21.875 64.5938 17.5312 59.8125
Q13.1875 55.0312 13.1875 47.4062
Q13.1875 40.5781 17.3125 36.2969
Q21.4375 32.0312 27.4844 32.0312
Q33.5938 32.0312 37.5156 36.2969
Q41.4531 40.5781 41.4531 48.1406" id="ArialMT-39"/>
      </defs>
      <g transform="translate(23.508125 188.589375)scale(0.12 -0.12)">
       <use xlink:href="#ArialMT-2212"/>
       <use x="58.3984375" xlink:href="#ArialMT-34"/>
       <use x="114.013671875" xlink:href="#ArialMT-32"/>
       <use x="169.62890625" xlink:href="#ArialMT-39"/>
      </g>
     </g>
    </g>
    <g id="ytick_4">
     <g id="line2d_29">
      <g>
       <use style="stroke:#000000;stroke-width:0.5;" x="53.341875" xlink:href="#m728421d6d4" y="156.6871875"/>
      </g>
     </g>
     <g id="line2d_30">
      <g>
       <use style="stroke:#000000;stroke-width:0.5;" x="499.741875" xlink:href="#mcb0005524f" y="156.6871875"/>
      </g>
     </g>
     <g id="text_14">
      <!-- −428 -->
      <defs>
       <path d="
M17.6719 38.8125
Q12.2031 40.8281 9.5625 44.5312
Q6.9375 48.25 6.9375 53.4219
Q6.9375 61.2344 12.5469 66.5469
Q18.1719 71.875 27.4844 71.875
Q36.8594 71.875 42.5781 66.4219
Q48.2969 60.9844 48.2969 53.1719
Q48.2969 48.1875 45.6719 44.5
Q43.0625 40.8281 37.75 38.8125
Q44.3438 36.6719 47.7812 31.875
Q51.2188 27.0938 51.2188 20.4531
Q51.2188 11.2812 44.7188 5.03125
Q38.2344 -1.21875 27.6406 -1.21875
Q17.0469 -1.21875 10.5469 5.04688
Q4.04688 11.3281 4.04688 20.7031
Q4.04688 27.6875 7.59375 32.3906
Q11.1406 37.1094 17.6719 38.8125
M15.9219 53.7188
Q15.9219 48.6406 19.1875 45.4062
Q22.4688 42.1875 27.6875 42.1875
Q32.7656 42.1875 36.0156 45.375
Q39.2656 48.5781 39.2656 53.2188
Q39.2656 58.0625 35.9062 61.3594
Q32.5625 64.6562 27.5938 64.6562
Q22.5625 64.6562 19.2344 61.4219
Q15.9219 58.2031 15.9219 53.7188
M13.0938 20.6562
Q13.0938 16.8906 14.875 13.375
Q16.6562 9.85938 20.1719 7.92188
Q23.6875 6 27.7344 6
Q34.0312 6 38.125 10.0469
Q42.2344 14.1094 42.2344 20.3594
Q42.2344 26.7031 38.0156 30.8594
Q33.7969 35.0156 27.4375 35.0156
Q21.2344 35.0156 17.1562 30.9062
Q13.0938 26.8125 13.0938 20.6562" id="ArialMT-38"/>
      </defs>
      <g transform="translate(23.508125 159.789375)scale(0.12 -0.12)">
       <use xlink:href="#ArialMT-2212"/>
       <use x="58.3984375" xlink:href="#ArialMT-34"/>
       <use x="114.013671875" xlink:href="#ArialMT-32"/>
       <use x="169.62890625" xlink:href="#ArialMT-38"/>
      </g>
     </g>
    </g>
    <g id="ytick_5">
     <g id="line2d_31">
      <g>
       <use style="stroke:#000000;stroke-width:0.5;" x="53.341875" xlink:href="#m728421d6d4" y="127.8871875"/>
      </g>
     </g>
     <g id="line2d_32">
      <g>
       <use style="stroke:#000000;stroke-width:0.5;" x="499.741875" xlink:href="#mcb0005524f" y="127.8871875"/>
      </g>
     </g>
     <g id="text_15">
      <!-- −427 -->
      <defs>
       <path d="
M4.73438 62.2031
L4.73438 70.6562
L51.0781 70.6562
L51.0781 63.8125
Q44.2344 56.5469 37.5156 44.4844
Q30.8125 32.4219 27.1562 19.6719
Q24.5156 10.6875 23.7812 0
L14.75 0
Q14.8906 8.45312 18.0625 20.4062
Q21.2344 32.375 27.1719 43.4844
Q33.1094 54.5938 39.7969 62.2031
z
" id="ArialMT-37"/>
      </defs>
      <g transform="translate(23.525 130.989375)scale(0.12 -0.12)">
       <use xlink:href="#ArialMT-2212"/>
       <use x="58.3984375" xlink:href="#ArialMT-34"/>
       <use x="114.013671875" xlink:href="#ArialMT-32"/>
       <use x="169.62890625" xlink:href="#ArialMT-37"/>
      </g>
     </g>
    </g>
    <g id="ytick_6">
     <g id="line2d_33">
      <g>
       <use style="stroke:#000000;stroke-width:0.5;" x="53.341875" xlink:href="#m728421d6d4" y="99.0871875"/>
      </g>
     </g>
     <g id="line2d_34">
      <g>
       <use style="stroke:#000000;stroke-width:0.5;" x="499.741875" xlink:href="#mcb0005524f" y="99.0871875"/>
      </g>
     </g>
     <g id="text_16">
      <!-- −426 -->
      <defs>
       <path d="
M49.75 54.0469
L41.0156 53.375
Q39.8438 58.5469 37.7031 60.8906
Q34.125 64.6562 28.9062 64.6562
Q24.7031 64.6562 21.5312 62.3125
Q17.3906 59.2812 14.9844 53.4688
Q12.5938 47.6562 12.5 36.9219
Q15.6719 41.75 20.2656 44.0938
Q24.8594 46.4375 29.8906 46.4375
Q38.6719 46.4375 44.8438 39.9688
Q51.0312 33.5 51.0312 23.25
Q51.0312 16.5 48.125 10.7188
Q45.2188 4.9375 40.1406 1.85938
Q35.0625 -1.21875 28.6094 -1.21875
Q17.625 -1.21875 10.6875 6.85938
Q3.76562 14.9375 3.76562 33.5
Q3.76562 54.25 11.4219 63.6719
Q18.1094 71.875 29.4375 71.875
Q37.8906 71.875 43.2812 67.1406
Q48.6875 62.4062 49.75 54.0469
M13.875 23.1875
Q13.875 18.6562 15.7969 14.5
Q17.7188 10.3594 21.1875 8.17188
Q24.6562 6 28.4688 6
Q34.0312 6 38.0312 10.4844
Q42.0469 14.9844 42.0469 22.7031
Q42.0469 30.125 38.0781 34.3906
Q34.125 38.6719 28.125 38.6719
Q22.1719 38.6719 18.0156 34.3906
Q13.875 30.125 13.875 23.1875" id="ArialMT-36"/>
      </defs>
      <g transform="translate(23.530625 102.189375)scale(0.12 -0.12)">
       <use xlink:href="#ArialMT-2212"/>
       <use x="58.3984375" xlink:href="#ArialMT-34"/>
       <use x="114.013671875" xlink:href="#ArialMT-32"/>
       <use x="169.62890625" xlink:href="#ArialMT-36"/>
      </g>
     </g>
    </g>
    <g id="ytick_7">
     <g id="line2d_35">
      <g>
       <use style="stroke:#000000;stroke-width:0.5;" x="53.341875" xlink:href="#m728421d6d4" y="70.2871875"/>
      </g>
     </g>
     <g id="line2d_36">
      <g>
       <use style="stroke:#000000;stroke-width:0.5;" x="499.741875" xlink:href="#mcb0005524f" y="70.2871875"/>
      </g>
     </g>
     <g id="text_17">
      <!-- −425 -->
      <g transform="translate(23.46125 73.389375)scale(0.12 -0.12)">
       <use xlink:href="#ArialMT-2212"/>
       <use x="58.3984375" xlink:href="#ArialMT-34"/>
       <use x="114.013671875" xlink:href="#ArialMT-32"/>
       <use x="169.62890625" xlink:href="#ArialMT-35"/>
      </g>
     </g>
    </g>
    <g id="ytick_8">
     <g id="line2d_37">
      <g>
       <use style="stroke:#000000;stroke-width:0.5;" x="53.341875" xlink:href="#m728421d6d4" y="41.4871875"/>
      </g>
     </g>
     <g id="line2d_38">
      <g>
       <use style="stroke:#000000;stroke-width:0.5;" x="499.741875" xlink:href="#mcb0005524f" y="41.4871875"/>
      </g>
     </g>
     <g id="text_18">
      <!-- −424 -->
      <g transform="translate(23.560625 44.589375)scale(0.12 -0.12)">
       <use xlink:href="#ArialMT-2212"/>
       <use x="58.3984375" xlink:href="#ArialMT-34"/>
       <use x="114.013671875" xlink:href="#ArialMT-32"/>
       <use x="169.62890625" xlink:href="#ArialMT-34"/>
      </g>
     </g>
    </g>
    <g id="ytick_9">
     <g id="line2d_39">
      <g>
       <use style="stroke:#000000;stroke-width:0.5;" x="53.341875" xlink:href="#m728421d6d4" y="12.6871875"/>
      </g>
     </g>
     <g id="line2d_40">
      <g>
       <use style="stroke:#000000;stroke-width:0.5;" x="499.741875" xlink:href="#mcb0005524f" y="12.6871875"/>
      </g>
     </g>
     <g id="text_19">
      <!-- −423 -->
      <g transform="translate(23.525 15.789375)scale(0.12 -0.12)">
       <use xlink:href="#ArialMT-2212"/>
       <use x="58.3984375" xlink:href="#ArialMT-34"/>
       <use x="114.013671875" xlink:href="#ArialMT-32"/>
       <use x="169.62890625" xlink:href="#ArialMT-33"/>
      </g>
     </g>
    </g>
    <g id="text_20">
     <!-- G(q), kcal/mol -->
     <defs>
      <path d="
M40.4375 19
L49.0781 17.875
Q47.6562 8.9375 41.8125 3.875
Q35.9844 -1.17188 27.4844 -1.17188
Q16.8438 -1.17188 10.375 5.78125
Q3.90625 12.75 3.90625 25.7344
Q3.90625 34.125 6.6875 40.4219
Q9.46875 46.7344 15.1562 49.875
Q20.8438 53.0312 27.5469 53.0312
Q35.9844 53.0312 41.3594 48.75
Q46.7344 44.4844 48.25 36.625
L39.7031 35.2969
Q38.4844 40.5312 35.375 43.1562
Q32.2812 45.7969 27.875 45.7969
Q21.2344 45.7969 17.0781 41.0312
Q12.9375 36.2812 12.9375 25.9844
Q12.9375 15.5312 16.9375 10.7969
Q20.9531 6.0625 27.3906 6.0625
Q32.5625 6.0625 36.0312 9.23438
Q39.5 12.4062 40.4375 19" id="ArialMT-63"/>
      <path d="
M40.4375 6.39062
Q35.5469 2.25 31.0312 0.53125
Q26.5156 -1.17188 21.3438 -1.17188
Q12.7969 -1.17188 8.20312 3
Q3.60938 7.17188 3.60938 13.6719
Q3.60938 17.4844 5.34375 20.625
Q7.07812 23.7812 9.89062 25.6875
Q12.7031 27.5938 16.2188 28.5625
Q18.7969 29.25 24.0312 29.8906
Q34.6719 31.1562 39.7031 32.9062
Q39.75 34.7188 39.75 35.2031
Q39.75 40.5781 37.25 42.7812
Q33.8906 45.75 27.25 45.75
Q21.0469 45.75 18.0938 43.5781
Q15.1406 41.4062 13.7188 35.8906
L5.125 37.0625
Q6.29688 42.5781 8.98438 45.9688
Q11.6719 49.3594 16.75 51.1875
Q21.8281 53.0312 28.5156 53.0312
Q35.1562 53.0312 39.2969 51.4688
Q43.4531 49.9062 45.4062 47.5312
Q47.3594 45.1719 48.1406 41.5469
Q48.5781 39.3125 48.5781 33.4531
L48.5781 21.7344
Q48.5781 9.46875 49.1406 6.21875
Q49.7031 2.98438 51.375 0
L42.1875 0
Q40.8281 2.73438 40.4375 6.39062
M39.7031 26.0312
Q34.9062 24.0781 25.3438 22.7031
Q19.9219 21.9219 17.6719 20.9375
Q15.4375 19.9688 14.2031 18.0938
Q12.9844 16.2188 12.9844 13.9219
Q12.9844 10.4062 15.6406 8.0625
Q18.3125 5.71875 23.4375 5.71875
Q28.5156 5.71875 32.4688 7.9375
Q36.4219 10.1562 38.2812 14.0156
Q39.7031 17 39.7031 22.7969
z
" id="ArialMT-61"/>
      <path d="
M0 -1.21875
L20.75 72.7969
L27.7812 72.7969
L7.07812 -1.21875
z
" id="ArialMT-2f"/>
      <path d="
M6.59375 0
L6.59375 51.8594
L14.4531 51.8594
L14.4531 44.5781
Q16.8906 48.3906 20.9375 50.7031
Q25 53.0312 30.1719 53.0312
Q35.9375 53.0312 39.625 50.6406
Q43.3125 48.25 44.8281 43.9531
Q50.9844 53.0312 60.8438 53.0312
Q68.5625 53.0312 72.7031 48.75
Q76.8594 44.4844 76.8594 35.5938
L76.8594 0
L68.1094 0
L68.1094 32.6719
Q68.1094 37.9375 67.25 40.25
Q66.4062 42.5781 64.1562 43.9844
Q61.9219 45.4062 58.8906 45.4062
Q53.4219 45.4062 49.7969 41.7656
Q46.1875 38.1406 46.1875 30.125
L46.1875 0
L37.4062 0
L37.4062 33.6875
Q37.4062 39.5469 35.25 42.4688
Q33.1094 45.4062 28.2188 45.4062
Q24.5156 45.4062 21.3594 43.4531
Q18.2188 41.5 16.7969 37.7344
Q15.375 33.9844 15.375 26.9062
L15.375 0
z
" id="ArialMT-6d"/>
      <path d="
M41.2188 28.0781
L41.2188 36.4688
L71.5312 36.5312
L71.5312 9.96875
Q64.5469 4.39062 57.125 1.57812
Q49.7031 -1.21875 41.8906 -1.21875
Q31.3438 -1.21875 22.7188 3.29688
Q14.1094 7.8125 9.71875 16.3594
Q5.32812 24.9062 5.32812 35.4531
Q5.32812 45.9062 9.6875 54.9531
Q14.0625 64.0156 22.2656 68.4062
Q30.4688 72.7969 41.1562 72.7969
Q48.9219 72.7969 55.1875 70.2812
Q61.4688 67.7812 65.0312 63.2812
Q68.6094 58.7969 70.4531 51.5625
L61.9219 49.2188
Q60.2969 54.6875 57.9062 57.8125
Q55.5156 60.9375 51.0625 62.8125
Q46.625 64.7031 41.2188 64.7031
Q34.7188 64.7031 29.9844 62.7188
Q25.25 60.75 22.3438 57.5156
Q19.4375 54.2969 17.8281 50.4375
Q15.0938 43.7969 15.0938 36.0312
Q15.0938 26.4688 18.3906 20.0156
Q21.6875 13.5781 27.9844 10.4531
Q34.2812 7.32812 41.3594 7.32812
Q47.5156 7.32812 53.375 9.6875
Q59.2344 12.0625 62.25 14.75
L62.25 28.0781
z
" id="ArialMT-47"/>
      <path d="
M6.39062 0
L6.39062 71.5781
L15.1875 71.5781
L15.1875 0
z
" id="ArialMT-6c"/>
      <path d="
M6.64062 0
L6.64062 71.5781
L15.4375 71.5781
L15.4375 30.7656
L36.2344 51.8594
L47.6094 51.8594
L27.7812 32.625
L49.6094 0
L38.7656 0
L21.625 26.5156
L15.4375 20.5625
L15.4375 0
z
" id="ArialMT-6b"/>
      <path d="
M3.32812 25.9219
Q3.32812 40.3281 11.3281 47.2656
Q18.0156 53.0312 27.6406 53.0312
Q38.3281 53.0312 45.1094 46.0156
Q51.9062 39.0156 51.9062 26.6562
Q51.9062 16.6562 48.9062 10.9062
Q45.9062 5.17188 40.1562 2
Q34.4219 -1.17188 27.6406 -1.17188
Q16.75 -1.17188 10.0312 5.8125
Q3.32812 12.7969 3.32812 25.9219
M12.3594 25.9219
Q12.3594 15.9688 16.7031 11.0156
Q21.0469 6.0625 27.6406 6.0625
Q34.1875 6.0625 38.5312 11.0312
Q42.875 16.0156 42.875 26.2188
Q42.875 35.8438 38.5 40.7969
Q34.125 45.75 27.6406 45.75
Q21.0469 45.75 16.7031 40.8125
Q12.3594 35.8906 12.3594 25.9219" id="ArialMT-6f"/>
      <path d="
M12.3594 -21.0469
L6.0625 -21.0469
Q20.6562 2.39062 20.6562 25.875
Q20.6562 35.0625 18.5625 44.0938
Q16.8906 51.4219 13.9219 58.1562
Q12.0156 62.5469 6.0625 72.7969
L12.3594 72.7969
Q21.5312 60.5469 25.9219 48.1875
Q29.6875 37.5469 29.6875 25.9219
Q29.6875 12.75 24.625 0.4375
Q19.5781 -11.8594 12.3594 -21.0469" id="ArialMT-29"/>
      <path d="
M23.3906 -21.0469
Q16.1094 -11.8594 11.0781 0.4375
Q6.0625 12.75 6.0625 25.9219
Q6.0625 37.5469 9.8125 48.1875
Q14.2031 60.5469 23.3906 72.7969
L29.6875 72.7969
Q23.7812 62.6406 21.875 58.2969
Q18.8906 51.5625 17.1875 44.2344
Q15.0938 35.1094 15.0938 25.875
Q15.0938 2.39062 29.6875 -21.0469
z
" id="ArialMT-28"/>
     </defs>
     <g transform="translate(15.935625 164.8021875)rotate(-90.0)scale(0.12 -0.12)">
      <use xlink:href="#ArialMT-47"/>
      <use x="77.783203125" xlink:href="#ArialMT-28"/>
      <use x="111.083984375" xlink:href="#ArialMT-71"/>
      <use x="166.69921875" xlink:href="#ArialMT-29"/>
      <use x="200.0" xlink:href="#ArialMT-2c"/>
      <use x="227.783203125" xlink:href="#ArialMT-20"/>
      <use x="255.56640625" xlink:href="#ArialMT-6b"/>
      <use x="305.56640625" xlink:href="#ArialMT-63"/>
      <use x="355.56640625" xlink:href="#ArialMT-61"/>
      <use x="411.181640625" xlink:href="#ArialMT-6c"/>
      <use x="433.3984375" xlink:href="#ArialMT-2f"/>
      <use x="461.181640625" xlink:href="#ArialMT-6d"/>
      <use x="544.482421875" xlink:href="#ArialMT-6f"/>
      <use x="600.09765625" xlink:href="#ArialMT-6c"/>
     </g>
    </g>
   </g>
   <g id="patch_3">
    <path d="
M53.3419 12.6872
L499.742 12.6872" style="fill:none;stroke:#000000;"/>
   </g>
   <g id="patch_4">
    <path d="
M499.742 243.087
L499.742 12.6872" style="fill:none;stroke:#000000;"/>
   </g>
   <g id="patch_5">
    <path d="
M53.3419 243.087
L499.742 243.087" style="fill:none;stroke:#000000;"/>
   </g>
   <g id="patch_6">
    <path d="
M53.3419 243.087
L53.3419 12.6872" style="fill:none;stroke:#000000;"/>
   </g>
   <g id="legend_1">
    <g id="patch_7">
     <path d="
M411.686 64.9457
L492.542 64.9457
L492.542 19.8872
L411.686 19.8872
L411.686 64.9457
z
" style="fill:#ffffff;stroke:#000000;"/>
    </g>
    <g id="line2d_41"/>
    <g id="line2d_42">
     <g>
      <use style="fill:#c0c0c0;stroke:#000000;stroke-width:0.5;" x="421.765875" xlink:href="#m12728d40c0" y="30.9144375"/>
      <use style="fill:#c0c0c0;stroke:#000000;stroke-width:0.5;" x="441.925875" xlink:href="#m12728d40c0" y="30.9144375"/>
     </g>
    </g>
    <g id="text_21">
     <!-- Soft -->
     <defs>
      <path d="
M25.7812 7.85938
L27.0469 0.09375
Q23.3438 -0.6875 20.4062 -0.6875
Q15.625 -0.6875 12.9844 0.828125
Q10.3594 2.34375 9.28125 4.8125
Q8.20312 7.28125 8.20312 15.1875
L8.20312 45.0156
L1.76562 45.0156
L1.76562 51.8594
L8.20312 51.8594
L8.20312 64.7031
L16.9375 69.9688
L16.9375 51.8594
L25.7812 51.8594
L25.7812 45.0156
L16.9375 45.0156
L16.9375 14.7031
Q16.9375 10.9375 17.4062 9.85938
Q17.875 8.79688 18.9219 8.15625
Q19.9688 7.51562 21.9219 7.51562
Q23.3906 7.51562 25.7812 7.85938" id="ArialMT-74"/>
      <path d="
M4.5 23
L13.4219 23.7812
Q14.0625 18.4062 16.375 14.9688
Q18.7031 11.5312 23.5781 9.40625
Q28.4688 7.28125 34.5781 7.28125
Q39.9844 7.28125 44.1406 8.89062
Q48.2969 10.5 50.3125 13.2969
Q52.3438 16.1094 52.3438 19.4375
Q52.3438 22.7969 50.3906 25.3125
Q48.4375 27.8281 43.9531 29.5469
Q41.0625 30.6719 31.2031 33.0312
Q21.3438 35.4062 17.3906 37.5
Q12.25 40.1875 9.73438 44.1562
Q7.23438 48.1406 7.23438 53.0781
Q7.23438 58.5 10.2969 63.2031
Q13.375 67.9219 19.2812 70.3594
Q25.2031 72.7969 32.4219 72.7969
Q40.375 72.7969 46.4531 70.2344
Q52.5469 67.6719 55.8125 62.6875
Q59.0781 57.7188 59.3281 51.4219
L50.25 50.7344
Q49.5156 57.5156 45.2812 60.9844
Q41.0625 64.4531 32.8125 64.4531
Q24.2188 64.4531 20.2812 61.2969
Q16.3594 58.1562 16.3594 53.7188
Q16.3594 49.8594 19.1406 47.3594
Q21.875 44.875 33.4219 42.2656
Q44.9688 39.6562 49.2656 37.7031
Q55.5156 34.8125 58.4844 30.3906
Q61.4688 25.9844 61.4688 20.2188
Q61.4688 14.5 58.2031 9.4375
Q54.9375 4.39062 48.7969 1.57812
Q42.6719 -1.21875 35.0156 -1.21875
Q25.2969 -1.21875 18.7188 1.60938
Q12.1562 4.4375 8.42188 10.125
Q4.6875 15.8281 4.5 23" id="ArialMT-53"/>
      <path d="
M8.6875 0
L8.6875 45.0156
L0.921875 45.0156
L0.921875 51.8594
L8.6875 51.8594
L8.6875 57.375
Q8.6875 62.5938 9.625 65.1406
Q10.8906 68.5625 14.0781 70.6719
Q17.2812 72.7969 23.0469 72.7969
Q26.7656 72.7969 31.25 71.9219
L29.9375 64.2656
Q27.2031 64.75 24.75 64.75
Q20.75 64.75 19.0938 63.0312
Q17.4375 61.3281 17.4375 56.6406
L17.4375 51.8594
L27.5469 51.8594
L27.5469 45.0156
L17.4375 45.0156
L17.4375 0
z
" id="ArialMT-66"/>
     </defs>
     <g transform="translate(457.765875 35.9544375)scale(0.144 -0.144)">
      <use xlink:href="#ArialMT-53"/>
      <use x="66.69921875" xlink:href="#ArialMT-6f"/>
      <use x="122.314453125" xlink:href="#ArialMT-66"/>
      <use x="150.09765625" xlink:href="#ArialMT-74"/>
     </g>
    </g>
    <g id="line2d_43"/>
    <g id="line2d_44">
     <g>
      <use style="stroke:#000000;stroke-width:0.5;" x="421.765875" xlink:href="#m8b0675cc3b" y="51.2836875"/>
      <use style="stroke:#000000;stroke-width:0.5;" x="441.925875" xlink:href="#m8b0675cc3b" y="51.2836875"/>
     </g>
    </g>
    <g id="text_22">
     <!-- Hard -->
     <defs>
      <path d="
M8.01562 0
L8.01562 71.5781
L17.4844 71.5781
L17.4844 42.1875
L54.6875 42.1875
L54.6875 71.5781
L64.1562 71.5781
L64.1562 0
L54.6875 0
L54.6875 33.7344
L17.4844 33.7344
L17.4844 0
z
" id="ArialMT-48"/>
      <path d="
M6.5 0
L6.5 51.8594
L14.4062 51.8594
L14.4062 44
Q17.4375 49.5156 20 51.2656
Q22.5625 53.0312 25.6406 53.0312
Q30.0781 53.0312 34.6719 50.2031
L31.6406 42.0469
Q28.4219 43.9531 25.2031 43.9531
Q22.3125 43.9531 20.0156 42.2188
Q17.7188 40.4844 16.75 37.4062
Q15.2812 32.7188 15.2812 27.1562
L15.2812 0
z
" id="ArialMT-72"/>
      <path d="
M40.2344 0
L40.2344 6.54688
Q35.2969 -1.17188 25.7344 -1.17188
Q19.5312 -1.17188 14.3281 2.25
Q9.125 5.67188 6.26562 11.7969
Q3.42188 17.9219 3.42188 25.875
Q3.42188 33.6406 6 39.9688
Q8.59375 46.2969 13.7656 49.6562
Q18.9531 53.0312 25.3438 53.0312
Q30.0312 53.0312 33.6875 51.0469
Q37.3594 49.0781 39.6562 45.9062
L39.6562 71.5781
L48.3906 71.5781
L48.3906 0
z

M12.4531 25.875
Q12.4531 15.9219 16.6406 10.9844
Q20.8438 6.0625 26.5625 6.0625
Q32.3281 6.0625 36.3438 10.7656
Q40.375 15.4844 40.375 25.1406
Q40.375 35.7969 36.2656 40.7656
Q32.1719 45.75 26.1719 45.75
Q20.3125 45.75 16.375 40.9688
Q12.4531 36.1875 12.4531 25.875" id="ArialMT-64"/>
     </defs>
     <g transform="translate(457.765875 56.3236875)scale(0.144 -0.144)">
      <use xlink:href="#ArialMT-48"/>
      <use x="72.216796875" xlink:href="#ArialMT-61"/>
      <use x="127.83203125" xlink:href="#ArialMT-72"/>
      <use x="161.1328125" xlink:href="#ArialMT-64"/>
     </g>
    </g>
   </g>
  </g>
 </g>
 <defs>
  <clipPath id="pc7759a5583">
   <rect height="230.4" width="446.4" x="53.341875" y="12.6871875"/>
  </clipPath>
 </defs>
</svg>
